<svg width="22" height="23" viewBox="0 0 22 23" fill="none" xmlns="http://www.w3.org/2000/svg">
<g id="bell-notification">
<path id="Vector" d="M12.5813 18.7998H9.82129" stroke="white" strokeWidth="1.35" strokeLinecap="round" strokeLinejoin="round"/>
<path id="Vector_2" d="M15.5137 9.8286V9.7998C15.5137 8.60633 15.0594 7.46174 14.2506 6.61782C13.4419 5.77391 12.345 5.2998 11.2012 5.2998C10.0575 5.2998 8.9606 5.77391 8.15185 6.61782C7.3431 7.46174 6.88875 8.60633 6.88875 9.7998V12.0534C6.88868 12.1961 6.85057 12.336 6.77868 12.4575C6.70679 12.5789 6.60394 12.6771 6.48165 12.741L6.04781 12.9669C5.72528 13.1348 5.46657 13.4115 5.31365 13.7521C5.16073 14.0927 5.12256 14.4772 5.20535 14.8432C5.28813 15.2093 5.487 15.5354 5.76971 15.7688C6.05242 16.0021 6.40238 16.1289 6.76282 16.1286H15.6397C15.8554 16.2413 16.0929 16.3015 16.3341 16.3049C16.5754 16.3082 16.8142 16.2545 17.0328 16.1478C17.2513 16.0412 17.4439 15.8843 17.5961 15.6889C17.7483 15.4935 17.8561 15.2648 17.9116 15.0197C17.967 14.7747 17.9686 14.5198 17.9162 14.274C17.8638 14.0282 17.7587 13.798 17.609 13.6007C17.4592 13.4033 17.2686 13.2438 17.0514 13.1342C16.8341 13.0246 16.596 12.9677 16.3547 12.9678L15.9208 12.7419C15.7985 12.6777 15.6957 12.5794 15.6239 12.4578C15.552 12.3363 15.5139 12.1962 15.5137 12.0534V9.8286V9.8286Z" stroke="white" strokeWidth="1.35" strokeLinecap="round" strokeLinejoin="round"/>
</g>
</svg>
