<svg width="19" height="22" viewBox="0 0 19 22" fill="none" xmlns="http://www.w3.org/2000/svg">
<path d="M0.984375 18.8691V3.9082C0.984375 3.11393 1.19922 2.51172 1.62891 2.10156C2.0651 1.69141 2.65755 1.47331 3.40625 1.44727C4.53906 1.39518 5.65234 1.31706 6.74609 1.21289C7.84635 1.10221 8.91406 0.96875 9.94922 0.8125C10.9909 0.64974 11.9935 0.473958 12.957 0.285156C13.7708 0.109375 14.4056 0.216797 14.8613 0.607422C15.3236 0.998047 15.5547 1.61328 15.5547 2.45312V17.3066C15.5547 18.0684 15.4017 18.6413 15.0957 19.0254C14.7897 19.416 14.3047 19.6927 13.6406 19.8555C12.4557 20.1354 11.2936 20.36 10.1543 20.5293C9.02148 20.6986 7.90495 20.8255 6.80469 20.9102C5.71094 21.0013 4.61393 21.0664 3.51367 21.1055C2.7194 21.138 2.09766 20.959 1.64844 20.5684C1.20573 20.1777 0.984375 19.6113 0.984375 18.8691ZM2.18555 18.6836C2.18555 19.0807 2.30924 19.3867 2.55664 19.6016C2.80404 19.8164 3.13932 19.9173 3.5625 19.9043C4.64974 19.8652 5.73047 19.8034 6.80469 19.7188C7.88542 19.6341 8.95638 19.5137 10.0176 19.3574C11.0788 19.2077 12.1335 19.0091 13.1816 18.7617C13.5853 18.6771 13.8815 18.5176 14.0703 18.2832C14.2591 18.0553 14.3535 17.7135 14.3535 17.2578V2.63867C14.3535 2.20247 14.2201 1.88021 13.9531 1.67188C13.6927 1.45703 13.3379 1.39844 12.8887 1.49609C11.9382 1.6849 10.9518 1.85742 9.92969 2.01367C8.90755 2.16992 7.85938 2.30339 6.78516 2.41406C5.71745 2.51823 4.63021 2.58659 3.52344 2.61914C3.11979 2.63216 2.79427 2.74284 2.54688 2.95117C2.30599 3.15299 2.18555 3.46549 2.18555 3.88867V18.6836ZM4.51953 6.14453C4.38932 6.15104 4.27865 6.11198 4.1875 6.02734C4.10286 5.94271 4.06055 5.83529 4.06055 5.70508C4.06055 5.58789 4.09961 5.48698 4.17773 5.40234C4.26237 5.3112 4.3763 5.25911 4.51953 5.24609C5.89974 5.19401 7.1888 5.08659 8.38672 4.92383C9.58464 4.75456 10.7728 4.54948 11.9512 4.30859C12.1204 4.27604 12.2507 4.30534 12.3418 4.39648C12.4329 4.48112 12.4785 4.58529 12.4785 4.70898C12.4785 4.81966 12.446 4.92057 12.3809 5.01172C12.3158 5.09635 12.1986 5.15495 12.0293 5.1875C10.8118 5.4349 9.60091 5.64323 8.39648 5.8125C7.19206 5.97526 5.89974 6.08594 4.51953 6.14453ZM4.51953 9.39648C4.38932 9.39648 4.27865 9.35417 4.1875 9.26953C4.10286 9.1849 4.06055 9.08073 4.06055 8.95703C4.06055 8.83984 4.09961 8.73893 4.17773 8.6543C4.26237 8.56315 4.3763 8.51432 4.51953 8.50781C5.89974 8.44922 7.1888 8.33854 8.38672 8.17578C9.58464 8.01302 10.7728 7.8112 11.9512 7.57031C12.1204 7.53125 12.2507 7.55729 12.3418 7.64844C12.4329 7.73958 12.4785 7.84375 12.4785 7.96094C12.4785 8.07812 12.446 8.17904 12.3809 8.26367C12.3158 8.3418 12.1986 8.40039 12.0293 8.43945C10.8118 8.69336 9.60091 8.90169 8.39648 9.06445C7.19206 9.22721 5.89974 9.33789 4.51953 9.39648ZM4.51953 12.6484C4.38932 12.6549 4.27865 12.6159 4.1875 12.5312C4.10286 12.4466 4.06055 12.3392 4.06055 12.209C4.06055 12.0918 4.09961 11.9909 4.17773 11.9062C4.26237 11.8216 4.3763 11.7728 4.51953 11.7598C5.89974 11.7012 7.1888 11.5905 8.38672 11.4277C9.58464 11.265 10.7728 11.0632 11.9512 10.8223C12.1204 10.7832 12.2507 10.8092 12.3418 10.9004C12.4329 10.985 12.4785 11.0924 12.4785 11.2227C12.4785 11.3333 12.446 11.431 12.3809 11.5156C12.3158 11.6003 12.1986 11.6589 12.0293 11.6914C10.8118 11.9388 9.60091 12.1471 8.39648 12.3164C7.19206 12.4792 5.89974 12.5898 4.51953 12.6484ZM4.51953 15.9004C4.38932 15.9004 4.27865 15.8581 4.1875 15.7734C4.10286 15.6888 4.06055 15.5846 4.06055 15.4609C4.06055 15.3438 4.09961 15.2428 4.17773 15.1582C4.26237 15.0671 4.3763 15.0182 4.51953 15.0117C5.27474 14.9792 5.93555 14.9336 6.50195 14.875C7.06836 14.8099 7.625 14.7448 8.17188 14.6797C8.34115 14.6471 8.47135 14.6764 8.5625 14.7676C8.65365 14.8587 8.69922 14.9661 8.69922 15.0898C8.69922 15.194 8.66341 15.2917 8.5918 15.3828C8.52018 15.4674 8.41927 15.5228 8.28906 15.5488C7.70312 15.6204 7.11719 15.6888 6.53125 15.7539C5.95182 15.819 5.28125 15.8678 4.51953 15.9004ZM8.14258 21.9453C9.07357 21.8216 10.0208 21.6784 10.9844 21.5156C11.9544 21.3529 12.9342 21.1608 13.9238 20.9395C14.5228 20.7897 15.0273 20.5618 15.4375 20.2559C15.8542 19.9499 16.1667 19.5527 16.375 19.0645C16.5898 18.5762 16.6973 17.9902 16.6973 17.3066V2.45312C16.6973 2.33594 16.6908 2.22201 16.6777 2.11133C16.6712 2.00065 16.6647 1.89323 16.6582 1.78906C17.0944 1.92578 17.4297 2.19922 17.6641 2.60938C17.8984 3.01953 18.0156 3.55013 18.0156 4.20117V19.0742C18.0156 20.0247 17.778 20.7409 17.3027 21.2227C16.8275 21.7044 16.1178 21.9453 15.1738 21.9453H8.14258Z" fill="#F2F2FC"/>
</svg>
