<svg width="80" height="81" viewBox="0 0 80 81" fill="none" xmlns="http://www.w3.org/2000/svg">
<path id="checkmark.circle.fill" d="M40.0015 80.044C34.4851 80.044 29.3087 78.9982 24.4721 76.9067C19.6355 74.8413 15.3871 71.9786 11.727 68.3185C8.06682 64.6322 5.19101 60.3838 3.0995 55.5734C1.03414 50.7368 0.00146484 45.5603 0.00146484 40.0439C0.00146484 34.5276 1.03414 29.3511 3.0995 24.5145C5.19101 19.6779 8.06682 15.4296 11.727 11.7694C15.3871 8.10931 19.6355 5.24656 24.4721 3.1812C29.3087 1.0897 34.4851 0.0439453 40.0015 0.0439453C45.5178 0.0439453 50.6943 1.0897 55.5309 3.1812C60.3675 5.24656 64.6158 8.10931 68.276 11.7694C71.9361 15.4296 74.7989 19.6779 76.8642 24.5145C78.9557 29.3511 80.0015 34.5276 80.0015 40.0439C80.0015 45.5603 78.9557 50.7368 76.8642 55.5734C74.7989 60.3838 71.9361 64.6322 68.276 68.3185C64.6158 71.9786 60.3675 74.8413 55.5309 76.9067C50.6943 78.9982 45.5178 80.044 40.0015 80.044ZM35.6093 59.1812C36.289 59.1812 36.9034 59.0243 37.4524 58.7106C38.0015 58.3969 38.4851 57.9263 38.9034 57.2989L57.3348 28.24C57.5701 27.8479 57.7923 27.4296 58.0015 26.9851C58.2106 26.5407 58.3152 26.0962 58.3152 25.6518C58.3152 24.7368 57.9753 24.0178 57.2956 23.4949C56.6158 22.9459 55.8577 22.6714 55.0211 22.6714C53.8708 22.6714 52.9296 23.2727 52.1975 24.4753L35.4524 51.3773L27.4917 41.1028C26.9949 40.4492 26.5113 40.0047 26.0407 39.7694C25.5962 39.5341 25.0864 39.4165 24.5113 39.4165C23.6224 39.4165 22.8773 39.7433 22.276 40.3969C21.6747 41.0243 21.374 41.7825 21.374 42.6714C21.374 43.1158 21.4524 43.5603 21.6093 44.0047C21.7923 44.423 22.0276 44.8283 22.3152 45.2204L32.1583 57.2989C32.6812 57.9786 33.2172 58.4622 33.7662 58.7498C34.3152 59.0374 34.9296 59.1812 35.6093 59.1812Z" fill="#5A58F2"/>
</svg>
