<svg width="18" height="18" viewBox="0 0 18 18" fill="none" xmlns="http://www.w3.org/2000/svg">
<path id="Union" fill-rule="evenodd" clip-rule="evenodd" d="M2.28512 0.93451C1.9727 0.62209 1.46617 0.622091 1.15375 0.93451C0.841329 1.24693 0.841328 1.75346 1.15375 2.06588L8.03245 8.94458L1.15381 15.8232C0.841388 16.1356 0.841389 16.6422 1.15381 16.9546C1.46623 17.267 1.97276 17.267 2.28518 16.9546L9.16382 10.0759L15.8616 16.7737C16.174 17.0861 16.6805 17.0861 16.9929 16.7737C17.3054 16.4613 17.3054 15.9548 16.9929 15.6423L10.2952 8.94458L16.993 2.24676C17.3054 1.93434 17.3054 1.42781 16.993 1.11539C16.6806 0.802975 16.174 0.802975 15.8616 1.11539L9.16382 7.81321L2.28512 0.93451Z" fill="#FF3E80"/>
</svg>
