<svg xmlns="http://www.w3.org/2000/svg" width="18" height="22" viewBox="0 0 18 22" fill="none">
  <path d="M5 2.99976V14.9998C5 15.5302 5.21071 16.0389 5.58579 16.414C5.96086 16.789 6.46957 16.9998 7 16.9998H15C15.5304 16.9998 16.0391 16.789 16.4142 16.414C16.7893 16.0389 17 15.5302 17 14.9998V6.24176C17 5.97532 16.9467 5.71157 16.8433 5.466C16.7399 5.22043 16.5885 4.998 16.398 4.81176L13.083 1.56976C12.7094 1.20441 12.2076 0.999821 11.685 0.999756H7C6.46957 0.999756 5.96086 1.21047 5.58579 1.58554C5.21071 1.96061 5 2.46932 5 2.99976Z" stroke="white" stroke-width="2" stroke-linecap="round" stroke-linejoin="round"/>
  <path d="M13 16.9998V18.9998C13 19.5302 12.7893 20.0389 12.4142 20.414C12.0391 20.789 11.5304 20.9998 11 20.9998H3C2.46957 20.9998 1.96086 20.789 1.58579 20.414C1.21071 20.0389 1 19.5302 1 18.9998V7.99976C1 7.46932 1.21071 6.96061 1.58579 6.58554C1.96086 6.21047 2.46957 5.99976 3 5.99976H5" stroke="white" stroke-width="2" stroke-linecap="round" stroke-linejoin="round"/>
</svg>