<svg width="41" height="34" viewBox="0 0 41 34" fill="none" xmlns="http://www.w3.org/2000/svg">
<path id="Vector" d="M5.41568 33.637C10.5147 33.637 14.3466 29.2026 16.6335 25.6985C16.3553 26.4737 16.2008 27.249 16.2008 27.9932C16.2008 30.0399 17.3751 31.4973 19.6928 31.4973C22.8758 31.4973 26.2752 28.7065 28.0366 25.6985C27.913 26.1326 27.8512 26.5358 27.8512 26.9078C27.8512 28.3343 28.6547 29.2336 30.2926 29.2336C35.4534 29.2336 40.645 20.0856 40.645 12.0851C40.645 5.85204 37.4929 0.363281 29.5818 0.363281C15.6755 0.363281 0.6875 17.3568 0.6875 28.3343C0.6875 32.6447 3.00519 33.637 5.41568 33.637ZM24.7917 11.4029C24.7917 9.85238 25.6571 8.76703 26.924 8.76703C28.1602 8.76703 29.0255 9.85238 29.0255 11.4029C29.0255 12.9534 28.1602 14.0697 26.924 14.0697C25.6571 14.0697 24.7917 12.9534 24.7917 11.4029ZM31.405 11.4029C31.405 9.85238 32.2703 8.76703 33.5373 8.76703C34.7734 8.76703 35.6387 9.85238 35.6387 11.4029C35.6387 12.9534 34.7734 14.0697 33.5373 14.0697C32.2703 14.0697 31.405 12.9534 31.405 11.4029Z" fill="#AB9FF2"/>
</svg>
