<svg width="40" height="40" viewBox="0 0 40 40" fill="none" xmlns="http://www.w3.org/2000/svg">
<g id="Group 66">
<path id="Vector" d="M20.4696 38.3283C20.8896 38.3283 21.2302 38.6651 21.2302 39.0806C21.2302 39.496 20.8896 39.8327 20.4696 39.8327C20.0496 39.8327 19.7091 39.496 19.7091 39.0806C19.7091 38.6651 20.0496 38.3283 20.4696 38.3283ZM19.6434 2.3958C20.0151 2.42649 20.3152 2.70812 20.3656 3.07325L21.2701 9.64584C21.574 11.8173 24.1929 12.7582 25.8096 11.2826L34.8728 3.0333C35.0915 2.83431 35.432 2.8481 35.6334 3.0641C35.8181 3.26228 35.8237 3.56568 35.6463 3.77032L27.743 12.887C26.288 14.5623 27.3616 17.1784 29.5795 17.3652L36.5529 18.0374C36.9002 18.0709 37.1543 18.3762 37.1204 18.7194C37.0924 19.0023 36.8744 19.231 36.5901 19.2753L29.2626 20.4194C27.1352 20.7094 26.1717 23.2288 27.5555 24.8655L30.1315 27.9024C30.339 28.147 30.3065 28.5116 30.0588 28.7166C29.8491 28.8904 29.5453 28.8971 29.3278 28.7329L26.1523 26.3346C24.4386 25.0459 21.9685 26.1413 21.7874 28.2741L21.0876 36.5922C21.0587 36.9358 20.7534 37.1911 20.4056 37.1626C20.1104 37.1383 19.872 36.9148 19.832 36.6249L18.7223 28.5899C18.4249 26.4184 15.806 25.4776 14.1828 26.9532L4.54129 35.7324C4.34171 35.9141 4.03082 35.9015 3.84689 35.7044C3.67814 35.5234 3.67301 35.2465 3.83494 35.0596L12.2495 25.3488C13.7044 23.6734 12.6374 21.0573 10.4194 20.8706L3.44443 20.1982C3.09713 20.1647 2.84306 19.8594 2.87694 19.5162C2.90489 19.2333 3.12286 19.0047 3.4071 18.9602L10.7298 17.8163C12.8573 17.5263 13.8272 15.007 12.4435 13.3702L10.6899 11.303C10.4325 10.9996 10.4728 10.5475 10.78 10.2933C11.0402 10.0778 11.417 10.0695 11.6867 10.2734L13.8401 11.9011C15.5538 13.1898 18.0239 12.0945 18.205 9.96168L18.7843 3.1137C18.8208 2.68106 19.2055 2.35964 19.6434 2.3958ZM1.09354 18.7475C1.51358 18.7475 1.85408 19.0843 1.85408 19.4998C1.85408 19.9152 1.51358 20.252 1.09354 20.252C0.673511 20.252 0.333008 19.9152 0.333008 19.4998C0.333008 19.0843 0.673511 18.7475 1.09354 18.7475ZM39.2373 17.9838C39.6573 17.9838 39.9979 18.3206 39.9979 18.736C39.9979 19.1514 39.6573 19.4882 39.2373 19.4882C38.8173 19.4882 38.4768 19.1514 38.4768 18.736C38.4768 18.3206 38.8173 17.9838 39.2373 17.9838ZM19.5336 0C19.9536 0 20.2941 0.336778 20.2941 0.752216C20.2941 1.16766 19.9536 1.50443 19.5336 1.50443C19.1136 1.50443 18.7731 1.16766 18.7731 0.752216C18.7731 0.336778 19.1136 0 19.5336 0Z" fill="url(#paint0_linear_831_6492)"/>
<path id="Vector_2" d="M19.9898 26.2237C23.9575 26.2237 27.174 23.0425 27.174 19.1182C27.174 15.194 23.9575 12.0127 19.9898 12.0127C16.0221 12.0127 12.8057 15.194 12.8057 19.1182C12.8057 23.0425 16.0221 26.2237 19.9898 26.2237Z" fill="url(#paint1_radial_831_6492)"/>
</g>
<defs>
<linearGradient id="paint0_linear_831_6492" x1="5.51569" y1="6.336" x2="28.2616" y2="26.9274" gradientUnits="userSpaceOnUse">
<stop stop-color="#FFC10B"/>
<stop offset="1" stop-color="#FB3F2E"/>
</linearGradient>
<radialGradient id="paint1_radial_831_6492" cx="0" cy="0" r="1" gradientUnits="userSpaceOnUse" gradientTransform="translate(18.3492 16.495) rotate(67.5196) scale(10.4448 10.5463)">
<stop stop-color="#FFC10B"/>
<stop offset="1" stop-color="#FB3F2E"/>
</radialGradient>
</defs>
</svg>
