<svg width="31" height="32" viewBox="0 0 31 32" fill="none" xmlns="http://www.w3.org/2000/svg">
<g id="Group 6">
<path id="Vector" d="M28.514 21.8027L26.6931 27.7228L23.1187 26.7828L28.514 21.8027Z" fill="#E4761B" stroke="#E4761B" strokeWidth="0.0571157"/>
<path id="Vector_2" d="M23.1187 26.7828L26.5663 22.2405L28.514 21.8027L23.1187 26.7828Z" fill="#E4761B" stroke="#E4761B" strokeWidth="0.0571157"/>
<path id="Vector_3" d="M25.8354 17.3395L28.5145 21.8029L26.5668 22.2407L25.8354 17.3395ZM25.8354 17.3395L27.5593 16.1914L28.5145 21.8029L25.8354 17.3395Z" fill="#F6851B" stroke="#F6851B" strokeWidth="0.0571157"/>
<path id="Vector_4" d="M23.6411 13.9665L28.5962 12.0146L28.3499 13.0839L23.6411 13.9665ZM28.1932 14.3683L23.6411 13.9665L28.3499 13.0839L28.1932 14.3683Z" fill="#763D16" stroke="#763D16" strokeWidth="0.0571157"/>
<path id="Vector_5" d="M28.1932 14.3683L27.5589 16.191L23.6411 13.9665L28.1932 14.3683ZM29.1857 12.4667L28.3499 13.0839L28.5962 12.0146L29.1857 12.4667ZM28.1932 14.3683L28.3499 13.0839L29.014 13.6149L28.1932 14.3683Z" fill="#763D16" stroke="#763D16" strokeWidth="0.0571157"/>
<path id="Vector_6" d="M19.2759 25.3398L20.5146 25.7202L23.119 26.7822L19.2759 25.3398Z" fill="#E2761B" stroke="#E2761B" strokeWidth="0.0571157"/>
<path id="Vector_7" d="M27.5596 16.1913L28.1939 14.3686L28.7386 14.7705L27.5596 16.1913ZM27.5596 16.1913L22.418 14.5624L23.6418 13.9668L27.5596 16.1913Z" fill="#763D16" stroke="#763D16" strokeWidth="0.0571157"/>
<path id="Vector_8" d="M24.8656 8.37695L23.6418 13.9669L22.418 14.5625L24.8656 8.37695Z" fill="#763D16" stroke="#763D16" strokeWidth="0.0571157"/>
<path id="Vector_9" d="M28.5962 12.0151L23.6411 13.9669L24.8649 8.37695L28.5962 12.0151Z" fill="#763D16" stroke="#763D16" strokeWidth="0.0571157"/>
<path id="Vector_10" d="M24.8652 8.3768L30.0367 7.80273L28.5964 12.015L24.8652 8.3768Z" fill="#763D16" stroke="#763D16" strokeWidth="0.0571157"/>
<path id="Vector_11" d="M27.5596 16.1914L25.8358 17.3396L22.418 14.5625L27.5596 16.1914Z" fill="#F6851B" stroke="#F6851B" strokeWidth="0.0571157"/>
<path id="Vector_12" d="M29.8128 3.77637L30.0367 7.80202L24.8652 8.37609L29.8128 3.77637Z" fill="#763D16" stroke="#763D16" strokeWidth="0.0571157"/>
<path id="Vector_13" d="M29.8135 3.77637L19.4781 11.0025L19.3438 6.10134L29.8135 3.77637Z" fill="#E2761B" stroke="#E2761B" strokeWidth="0.0571157"/>
<path id="Vector_14" d="M11.6572 5.51367L19.3435 6.10209L19.4778 11.0032L11.6572 5.51367Z" fill="#F6851B" stroke="#F6851B" strokeWidth="0.0571157"/>
<path id="Vector_15" d="M22.4182 14.5625L19.478 11.0033L24.8659 8.37695L22.4182 14.5625Z" fill="#763D16" stroke="#763D16" strokeWidth="0.0571157"/>
<path id="Vector_16" d="M22.4177 14.5625L25.8354 17.3396L21.0371 17.849L22.4177 14.5625Z" fill="#E4761B" stroke="#E4761B" strokeWidth="0.0571157"/>
<path id="Vector_17" d="M21.0377 17.8487L19.478 11.0029L22.4182 14.5622L21.0377 17.8487Z" fill="#E4761B" stroke="#E4761B" strokeWidth="0.0571157"/>
<path id="Vector_18" d="M24.8659 8.37609L19.478 11.0025L29.8135 3.77637L24.8659 8.37609Z" fill="#763D16" stroke="#763D16" strokeWidth="0.0571157"/>
<path id="Vector_19" d="M11.7238 26.6673L14.164 29.1142L10.8433 26.208L11.7238 26.6673Z" fill="#C0AD9E" stroke="#C0AD9E" strokeWidth="0.0571157"/>
<path id="Vector_20" d="M23.1187 26.7825L24.2753 22.556L26.5663 22.2402L23.1187 26.7825Z" fill="#CD6116" stroke="#CD6116" strokeWidth="0.0571157"/>
<path id="Vector_21" d="M1.8291 14.8917L6.05283 10.6221L2.37386 14.3822L1.8291 14.8917Z" fill="#E2761B" stroke="#E2761B" strokeWidth="0.0571157"/>
<path id="Vector_22" d="M26.5671 22.2406L24.2762 22.5563L25.8358 17.3395L26.5671 22.2406ZM19.4778 11.0032L15.366 10.874L11.6572 5.51367L19.4778 11.0032Z" fill="#F6851B" stroke="#F6851B" strokeWidth="0.0571157"/>
<path id="Vector_23" d="M25.8354 17.3398L24.2758 22.5567L24.1489 20.0093L25.8354 17.3398Z" fill="#E4751F" stroke="#E4751F" strokeWidth="0.0571157"/>
<path id="Vector_24" d="M21.0371 17.8493L25.8354 17.3398L24.1489 20.0093L21.0371 17.8493Z" fill="#CD6116" stroke="#CD6116" strokeWidth="0.0571157"/>
<path id="Vector_25" d="M15.3657 10.874L19.4775 11.0032L21.0372 17.849L15.3657 10.874Z" fill="#F6851B" stroke="#F6851B" strokeWidth="0.0571157"/>
<path id="Vector_26" d="M15.3655 10.874L4.26893 1L11.6567 5.51361L15.3655 10.874ZM11.6493 28.1678L2.00782 31.0381L0.0825195 23.9699L11.6493 28.1678Z" fill="#E4761B" stroke="#E4761B" strokeWidth="0.0571157"/>
<path id="Vector_27" d="M3.26221 16.6575L6.90386 13.9092L9.95599 14.5909L3.26221 16.6575Z" fill="#763D16" stroke="#763D16" strokeWidth="0.0571157"/>
<path id="Vector_28" d="M9.95594 14.5915L6.90381 13.9098L8.53808 7.42285L9.95594 14.5915Z" fill="#763D16" stroke="#763D16" strokeWidth="0.0571157"/>
<path id="Vector_29" d="M2.37402 14.3828L6.90371 13.9092L3.26205 16.6575L2.37402 14.3828Z" fill="#763D16" stroke="#763D16" strokeWidth="0.0571157"/>
<path id="Vector_30" d="M24.1489 20.0086L22.2684 19.0972L21.0371 17.8486L24.1489 20.0086Z" fill="#CD6116" stroke="#CD6116" strokeWidth="0.0571157"/>
<path id="Vector_31" d="M2.37362 14.3828L2.05273 12.7539L6.9033 13.9092L2.37362 14.3828Z" fill="#763D16" stroke="#763D16" strokeWidth="0.0571157"/>
<path id="Vector_32" d="M21.8804 21.15L22.2684 19.0977L24.1489 20.009L21.8804 21.15Z" fill="#233447" stroke="#233447" strokeWidth="0.0571157"/>
<path id="Vector_33" d="M24.2758 22.5562L21.8804 21.1497L24.1489 20.0088L24.2758 22.5562Z" fill="#F6851B" stroke="#F6851B" strokeWidth="0.0571157"/>
<path id="Vector_34" d="M6.9033 13.9098L2.05273 12.7545L1.65723 11.3839L6.9033 13.9098ZM8.53757 7.42285L6.9033 13.9098L1.65723 11.3839L8.53757 7.42285ZM8.53757 7.42285L15.3657 10.8744L9.95543 14.5915L8.53757 7.42285Z" fill="#763D16" stroke="#763D16" strokeWidth="0.0571157"/>
<path id="Vector_35" d="M9.95557 14.5911L15.3658 10.874L17.7762 17.9566L9.95557 14.5911ZM17.7762 17.9566L10.2988 17.8059L9.95557 14.5911L17.7762 17.9566Z" fill="#E4761B" stroke="#E4761B" strokeWidth="0.0571157"/>
<path id="Vector_36" d="M3.26221 16.6578L9.95599 14.5911L10.2993 17.8059L3.26221 16.6578ZM21.0377 17.8489L17.7766 17.9566L15.3662 10.874L21.0377 17.8489Z" fill="#F6851B" stroke="#F6851B" strokeWidth="0.0571157"/>
<path id="Vector_37" d="M22.2684 19.0972L21.8804 21.1495L21.0371 17.8486L22.2684 19.0972Z" fill="#CD6116" stroke="#CD6116" strokeWidth="0.0571157"/>
<path id="Vector_38" d="M4.26953 1L15.3661 10.874L8.53803 7.42239L4.26953 1Z" fill="#763D16" stroke="#763D16" strokeWidth="0.0571157"/>
<path id="Vector_39" d="M0.0834961 23.9698L9.44136 23.5967L11.6502 28.1677L0.0834961 23.9698Z" fill="#E4761B" stroke="#E4761B" strokeWidth="0.0571157"/>
<path id="Vector_40" d="M11.6493 28.1672L9.44043 23.5961L14.0373 23.3809L11.6493 28.1672Z" fill="#CD6116" stroke="#CD6116" strokeWidth="0.0571157"/>
<path id="Vector_41" d="M21.8812 21.1493L24.2766 22.5558L25.5975 25.5481L21.8812 21.1493ZM10.2995 17.8054L0.0834961 23.9694L3.26248 16.6572L10.2995 17.8054ZM9.44136 23.5963L0.0834961 23.9694L10.2995 17.8054L9.44136 23.5963ZM21.0379 17.8484L21.6499 19.9868L18.6947 20.1519L21.0379 17.8484ZM18.6947 20.1519L17.7769 17.9561L21.0379 17.8484L18.6947 20.1519Z" fill="#F6851B" stroke="#F6851B" strokeWidth="0.0571157"/>
<path id="Vector_42" d="M14.1647 29.1152L11.6499 28.168L20.3958 29.5816L14.1647 29.1152Z" fill="#C0AD9E" stroke="#C0AD9E" strokeWidth="0.0571157"/>
<path id="Vector_43" d="M3.26188 16.6576L1.8291 14.8923L2.37386 14.3828L3.26188 16.6576Z" fill="#763D16" stroke="#763D16" strokeWidth="0.0571157"/>
<path id="Vector_44" d="M21.3883 28.5339L20.3958 29.5816L11.6499 28.168L21.3883 28.5339Z" fill="#D7C1B3" stroke="#D7C1B3" strokeWidth="0.0571157"/>
<path id="Vector_45" d="M21.8585 25.9642L11.6499 28.1672L14.0379 23.3809L21.8585 25.9642Z" fill="#E4761B" stroke="#E4761B" strokeWidth="0.0571157"/>
<path id="Vector_46" d="M11.6499 28.1678L21.8585 25.9648L21.3883 28.5338L11.6499 28.1678Z" fill="#D7C1B3" stroke="#D7C1B3" strokeWidth="0.0571157"/>
<path id="Vector_47" d="M1.6571 11.3835L1.32129 5.86523L8.53744 7.42239L1.6571 11.3835ZM2.37349 14.383L1.38099 13.4142L2.05261 12.7541L2.37349 14.383Z" fill="#763D16" stroke="#763D16" strokeWidth="0.0571157"/>
<path id="Vector_48" d="M16.104 19.3769L17.7756 17.9561L17.5368 21.4292L16.104 19.3769Z" fill="#CD6116" stroke="#CD6116" strokeWidth="0.0571157"/>
<path id="Vector_49" d="M17.7757 17.9561L16.1041 19.3769L13.6714 20.5896L17.7757 17.9561Z" fill="#CD6116" stroke="#CD6116" strokeWidth="0.0571157"/>
<path id="Vector_50" d="M25.5967 25.5482L25.1414 25.2253L21.8804 21.1494L25.5967 25.5482Z" fill="#F6851B" stroke="#F6851B" strokeWidth="0.0571157"/>
<path id="Vector_51" d="M13.6718 20.5899L10.2988 17.8057L17.7762 17.9564L13.6718 20.5899Z" fill="#CD6116" stroke="#CD6116" strokeWidth="0.0571157"/>
<path id="Vector_52" d="M17.5376 21.4292L17.7764 17.9561L18.6943 20.1519L17.5376 21.4292Z" fill="#E4751F" stroke="#E4751F" strokeWidth="0.0571157"/>
<path id="Vector_53" d="M1.05273 11.9282L1.65719 11.3828L2.0527 12.7534L1.05273 11.9282Z" fill="#763D16" stroke="#763D16" strokeWidth="0.0571157"/>
<path id="Vector_54" d="M17.5369 21.4292L13.6714 20.5897L16.1041 19.377L17.5369 21.4292Z" fill="#233447" stroke="#233447" strokeWidth="0.0571157"/>
<path id="Vector_55" d="M8.53744 7.42239L1.32129 5.86523L4.26894 1L8.53744 7.42239Z" fill="#763D16" stroke="#763D16" strokeWidth="0.0571157"/>
<path id="Vector_56" d="M20.3957 29.5817L20.8061 30.658L14.1646 29.1152L20.3957 29.5817Z" fill="#C0AD9E" stroke="#C0AD9E" strokeWidth="0.0571157"/>
<path id="Vector_57" d="M14.037 23.3813L13.6714 20.5898L17.5369 21.4294L14.037 23.3813Z" fill="#F6851B" stroke="#F6851B" strokeWidth="0.0571157"/>
<path id="Vector_58" d="M10.2988 17.8057L13.6718 20.5899L14.0375 23.3813L10.2988 17.8057Z" fill="#E4751F" stroke="#E4751F" strokeWidth="0.0571157"/>
<path id="Vector_59" d="M18.6938 20.1522L21.6489 19.9871L25.1413 25.2255L18.6938 20.1522ZM10.2986 17.8057L14.0373 23.3813L9.44043 23.5966L10.2986 17.8057Z" fill="#F6851B" stroke="#F6851B" strokeWidth="0.0571157"/>
<path id="Vector_60" d="M18.6943 20.1523L22.3658 25.5271L17.5376 21.4296L18.6943 20.1523Z" fill="#E4751F" stroke="#E4751F" strokeWidth="0.0571157"/>
<path id="Vector_61" d="M17.5376 21.4297L22.3658 25.5271L21.8583 25.9648L17.5376 21.4297Z" fill="#F6851B" stroke="#F6851B" strokeWidth="0.0571157"/>
<path id="Vector_62" d="M21.8572 25.9648L14.0366 23.3815L17.5365 21.4296L21.8572 25.9648ZM25.1407 25.2257L22.3647 25.5271L18.6932 20.1523L25.1407 25.2257Z" fill="#F6851B" stroke="#F6851B" strokeWidth="0.0571157"/>
<path id="Vector_63" d="M25.8724 27.751L24.6784 30.0544L20.8055 30.6572L25.8724 27.751ZM20.8055 30.6572L20.395 29.5808L21.3875 28.5331L20.8055 30.6572Z" fill="#C0AD9E" stroke="#C0AD9E" strokeWidth="0.0571157"/>
<path id="Vector_64" d="M21.3882 28.5331L22.1195 28.2533L20.8062 30.6572L21.3882 28.5331ZM20.8062 30.6572L22.1195 28.2533L25.8731 27.751L20.8062 30.6572Z" fill="#C0AD9E" stroke="#C0AD9E" strokeWidth="0.0571157"/>
<path id="Vector_65" d="M25.1416 25.2256L26.0595 25.7638L23.2686 26.0867L25.1416 25.2256Z" fill="#161616" stroke="#161616" strokeWidth="0.0571157"/>
<path id="Vector_66" d="M23.2692 26.0867L22.3662 25.527L25.1422 25.2256L23.2692 26.0867ZM22.9483 26.5101L26.3437 26.1154L25.8735 27.7515L22.9483 26.5101Z" fill="#161616" stroke="#161616" strokeWidth="0.0571157"/>
<path id="Vector_67" d="M25.8726 27.7519L22.119 28.2542L22.9473 26.5104L25.8726 27.7519ZM22.119 28.2542L21.3877 28.534L21.8578 25.9651L22.119 28.2542ZM21.8578 25.9651L22.3653 25.5273L23.2682 26.0871L21.8578 25.9651ZM26.0592 25.7641L26.3427 26.1158L22.9473 26.5104L26.0592 25.7641Z" fill="#161616" stroke="#161616" strokeWidth="0.0571157"/>
<path id="Vector_68" d="M22.9479 26.51L23.2688 26.0866L26.0597 25.7637L22.9479 26.51ZM21.8584 25.9646L22.9479 26.51L22.1196 28.2537L21.8584 25.9646Z" fill="#161616" stroke="#161616" strokeWidth="0.0571157"/>
<path id="Vector_69" d="M23.2688 26.0868L22.9479 26.5102L21.8584 25.9648L23.2688 26.0868Z" fill="#161616" stroke="#161616" strokeWidth="0.0571157"/>
</g>
</svg>
