<svg width="64" height="64" viewBox="0 0 64 64" fill="none" xmlns="http://www.w3.org/2000/svg">
<rect width="64" height="64" rx="32" fill="#5A58F2"/>
<path d="M33.3935 32.5898C28.9076 32.5898 25.2715 36.2417 25.2715 40.7462C25.2715 45.2506 28.9076 48.9025 33.3935 48.9025H45.336C45.7862 48.9025 46.2277 48.8662 46.6584 48.7951L48.9743 51.0422C49.0223 51.0888 49.0828 51.1202 49.1484 51.1325C49.214 51.1448 49.2818 51.1374 49.3432 51.1112C49.4047 51.0851 49.4571 51.0413 49.4939 50.9854C49.5307 50.9295 49.5503 50.864 49.5502 50.797V47.7205C50.7441 46.9936 51.7311 45.9699 52.4159 44.7482C53.1007 43.5265 53.4601 42.1481 53.4595 40.7462C53.4595 36.2417 49.8227 32.5906 45.336 32.5906H33.3935V32.5898Z" fill="black"/>
<path d="M38.7377 35.4238H40.5858L44.9988 45.0028H42.4771L41.6035 42.9733H37.6643L36.8196 45.0028H34.3535L38.7377 35.4238ZM39.5969 38.2101L38.3648 41.1871H40.8433L39.5969 38.2101Z" fill="white"/>
<path d="M20.5991 15.8604H34.1575C40.29 15.8604 43.3562 19.411 43.3562 26.5123C43.3562 33.6136 40.29 37.1642 34.1575 37.1642H20.5991C14.4666 37.1642 11.4004 33.6136 11.4004 26.5123C11.4004 19.411 14.4666 15.8604 20.5991 15.8604Z" fill="black"/>
<path d="M16.4824 33.9551V39.4938C16.4824 39.5808 16.5079 39.6658 16.5556 39.7384C16.6034 39.8109 16.6714 39.8677 16.7511 39.9017C16.8308 39.9357 16.9187 39.9454 17.0039 39.9295C17.089 39.9137 17.1676 39.8731 17.2299 39.8127L21.2831 35.8861L16.4824 33.9557V33.9551Z" fill="black"/>
<path fill-rule="evenodd" clip-rule="evenodd" d="M33.2981 15H19.7397C13.6073 15 10.541 18.5506 10.541 25.6519C10.541 30.9291 12.2343 34.2454 15.6208 35.601V38.6341C15.6208 38.7211 15.6462 38.8061 15.694 38.8786C15.7418 38.9512 15.8098 39.008 15.8895 39.042C15.9692 39.076 16.0571 39.0856 16.1422 39.0698C16.2274 39.054 16.306 39.0134 16.3683 38.953L19.1159 36.2912C19.3202 36.2997 19.5281 36.3039 19.7397 36.3039H33.2981C39.4306 36.3039 42.4968 32.7532 42.4968 25.6519C42.4968 18.5506 39.4306 15 33.2981 15Z" fill="#00F942"/>
<g clip-path="url(#clip0_6531_34137)">
<path d="M34.7902 33.5415H25.7479C24.5808 33.5415 23.5017 33.3695 22.5135 33.0286C21.5222 32.6846 20.6704 32.1867 19.952 31.5289C19.2366 30.8711 18.6728 30.0745 18.2666 29.1361C17.8574 28.1977 17.6543 27.1295 17.6543 25.9255C17.6543 24.8061 17.8604 23.7771 18.2757 22.8417C18.691 21.9063 19.2548 21.1007 19.9732 20.4278C20.6917 19.7549 21.5313 19.2359 22.5013 18.8648C23.4714 18.4936 24.5111 18.3096 25.6206 18.3096C26.73 18.3096 27.7698 18.4997 28.7398 18.8768C29.7098 19.254 30.5525 19.7791 31.2679 20.4489C31.9833 21.1188 32.5501 21.9214 32.9654 22.8508C33.3807 23.7802 33.5868 24.8061 33.5868 25.9255C33.5868 26.4566 33.5262 26.9756 33.408 27.4795C33.2898 27.9834 33.1079 28.4602 32.8714 28.9068C32.632 29.3533 32.3228 29.7577 31.9439 30.1137C31.5649 30.4698 31.1224 30.7595 30.6161 30.9858V31.028H34.7902V33.5445V33.5415ZM21.0675 25.9255C21.0675 26.5683 21.1858 27.1717 21.4252 27.73C21.6647 28.2882 21.9921 28.777 22.4043 29.1874C22.8196 29.6008 23.3016 29.9267 23.8472 30.162C24.3959 30.4004 24.984 30.5181 25.6175 30.5181C26.2511 30.5181 26.8391 30.4004 27.3878 30.162C27.9365 29.9236 28.4154 29.5978 28.8307 29.1874C29.246 28.774 29.5703 28.2882 29.8098 27.73C30.0493 27.1717 30.1675 26.5683 30.1675 25.9255C30.1675 25.2828 30.0493 24.6824 29.8098 24.1211C29.5703 23.5629 29.243 23.0771 28.8307 22.6637C28.4154 22.2503 27.9334 21.9275 27.3878 21.6891C26.8391 21.4507 26.2511 21.333 25.6175 21.333C24.984 21.333 24.3959 21.4507 23.8472 21.6891C23.2986 21.9275 22.8166 22.2533 22.4043 22.6637C21.9891 23.0771 21.6617 23.5629 21.4252 24.1211C21.1858 24.6794 21.0675 25.2828 21.0675 25.9255Z" fill="black"/>
</g>
<defs>
<clipPath id="clip0_6531_34137">
<rect width="17.136" height="15.232" fill="white" transform="translate(17.6543 18.3096)"/>
</clipPath>
</defs>
</svg>
