<svg width="90" height="25" viewBox="0 0 90 25" fill="none" xmlns="http://www.w3.org/2000/svg">
<g id="Group">
<path id="Vector" d="M87.3309 24.2289C85.6556 24.2289 84.3039 24.0271 83.276 23.6236C82.2467 23.2001 81.4896 22.504 81.0062 21.5356C80.5422 20.5471 80.3102 19.2156 80.3102 17.541V2.95508H84.8193V17.7226C84.8193 18.5094 85.0207 19.1146 85.4236 19.5384C85.8473 19.9419 86.4432 20.1436 87.21 20.1436H89.6604V24.2289H87.3309ZM80.3101 10.9744V7.43377H89.6604V10.9744H80.3101Z" fill="#F2EFFB"/>
<path id="Vector_2" d="M54.9235 24.0172V7.43391H59.7653V24.0172H54.9235ZM62.5295 11.0048V7.43391H59.7653V11.0048H62.5295ZM56.7997 5.79974C55.8919 5.79974 55.2161 5.56776 54.7722 5.10379C54.3486 4.61954 54.1367 4.01429 54.1367 3.28806C54.1367 2.54169 54.3486 1.93644 54.7722 1.47233C55.2161 0.988216 55.8919 0.746094 56.7997 0.746094C57.7076 0.746094 58.3733 0.988216 58.797 1.47233C59.2408 1.93644 59.4628 2.54169 59.4628 3.28806C59.4628 4.01429 59.2408 4.61954 58.797 5.10379C58.3733 5.56776 57.7076 5.79974 56.7997 5.79974Z" fill="white"/>
<g id="Vector_3">
<path d="M77.4009 24.0178V7.43457H72.5591V24.0178H77.4009ZM68.9868 11.0055V7.43457H72.5591V11.0055H68.9868Z" fill="white"/>
<path d="M68.9868 24.0178V7.43457H64.145V24.0178H68.9868Z" fill="white"/>
</g>
<g id="Vector_4">
<path d="M44.2636 24.0178V7.43457H39.4218V24.0178H44.2636ZM35.8495 11.0055V7.43457H39.4218V11.0055H35.8495Z" fill="#F2EFFB"/>
<path d="M35.8495 24.0178V7.43457H31.0077V24.0178H35.8495Z" fill="#F2EFFB"/>
<path d="M51.9492 24.0178V7.43457H47.1074V24.0178H51.9492ZM43.5351 11.0055V7.43457H47.1074V11.0055H43.5351Z" fill="#F2EFFB"/>
</g>
<path id="Vector_5" d="M56.7992 5.79974C55.8914 5.79974 55.2154 5.56776 54.7716 5.10379C54.3481 4.61954 54.1362 4.01429 54.1362 3.28806C54.1362 2.54168 54.3481 1.93644 54.7716 1.47233C55.2154 0.988216 55.8914 0.746094 56.7992 0.746094C57.707 0.746094 58.3728 0.988216 58.7965 1.47233C59.2403 1.93644 59.4622 2.54168 59.4622 3.28806C59.4622 4.01429 59.2403 4.61954 58.7965 5.10379C58.3728 5.56776 57.707 5.79974 56.7992 5.79974Z" fill="#5A58F2"/>
<path id="Vector_6" d="M23.2617 24.0177V1.92676H28.2245V24.0177H23.2617Z" fill="white"/>
<path id="Vector_7" d="M0.432617 24.0167L7.72568 1.92578H15.745L23.3103 24.0167H18.1659L12.0531 5.34525L13.6267 5.98078H9.72295L11.357 5.34525L5.39556 24.0167H0.432617ZM5.97052 18.5393L7.48356 14.4238H16.1384L17.6817 18.5393H5.97052Z" fill="white"/>
</g>
</svg>
