<svg width="64" height="64" viewBox="0 0 64 64" fill="none" xmlns="http://www.w3.org/2000/svg">
<circle cx="32" cy="32" r="31" fill="#5A58F2" stroke="#5A58F2" stroke-width="2"/>
<path d="M9.47536 27.0173C11.5174 15.888 21.2177 7.80566 32.5329 7.80566C43.848 7.80566 53.5483 15.888 55.5904 27.0174L55.8163 28.2485C58.4845 42.7904 47.3175 56.1928 32.5329 56.1928C17.7482 56.1928 6.58122 42.7904 9.24946 28.2485L9.47536 27.0173Z" fill="#D9D9D9"/>
<rect x="11.2246" y="17.5723" width="42.6162" height="27.079" rx="13.5395" fill="#030303"/>
<path fill-rule="evenodd" clip-rule="evenodd" d="M41.6325 32.6653C43.2261 32.6653 44.518 30.8766 44.518 28.6701C44.518 26.4635 43.2261 24.6748 41.6325 24.6748C40.0389 24.6748 38.7471 26.4635 38.7471 28.6701C38.7471 29.9251 39.165 31.0451 39.8188 31.7775C40.3143 32.3328 40.9454 32.6653 41.6325 32.6653Z" fill="#00F942"/>
<path fill-rule="evenodd" clip-rule="evenodd" d="M23.8762 32.6653C22.2826 32.6653 20.9908 30.8766 20.9908 28.6701C20.9908 26.4635 22.2826 24.6748 23.8762 24.6748C25.4698 24.6748 26.7617 26.4635 26.7617 28.6701C26.7617 29.9251 26.3438 31.0451 25.69 31.7775C25.1945 32.3328 24.5634 32.6653 23.8762 32.6653Z" fill="#00F942"/>
<path d="M26.7617 37.3262C26.7617 37.3262 28.5374 39.9897 32.9766 39.9897C37.4158 39.9897 38.9695 37.3262 38.9695 37.3262" stroke="#00F942" stroke-width="4" stroke-linecap="round" stroke-linejoin="round"/>
<path d="M45.4069 11.3564C45.4069 11.3564 41.6336 16.2396 32.7552 16.2396C23.8768 16.2396 20.1035 11.3564 20.1035 11.3564" stroke="black"/>
<path d="M41.6329 54.6394C41.6329 54.6394 39.6352 47.9807 33.4204 47.7587C27.2055 47.5367 24.542 55.0834 24.542 55.0834" stroke="black"/>
<path d="M52.0654 19.4004C53.9548 18.8739 55.9132 19.9788 56.4397 21.8682L58.3828 28.8417C58.9092 30.7311 57.8044 32.6895 55.915 33.2159L52.0654 19.4004Z" fill="#D9D9D9"/>
<path d="M12.7246 19.4004C10.8352 18.8739 8.87681 19.9788 8.35035 21.8682L6.40727 28.8417C5.88081 30.7311 6.98568 32.6895 8.87506 33.2159L12.7246 19.4004Z" fill="#D9D9D9"/>
</svg>
