<svg xmlns="http://www.w3.org/2000/svg" width="66" height="66" viewBox="0 0 66 66" fill="none">
  <g filter="url(#filter0_d_6531_34129)">
    <path d="M65 32C65 49.6731 50.6731 64 33 64C15.3269 64 1 49.6731 1 32C1 14.3269 15.3269 0 33 0C50.6731 0 65 14.3269 65 32Z" fill="#5A58F2"/>
    <path d="M64 32C64 49.1208 50.1208 63 33 63C15.8792 63 2 49.1208 2 32C2 14.8792 15.8792 1 33 1C50.1208 1 64 14.8792 64 32Z" stroke="#5A58F2" stroke-width="2"/>
  </g>
  <path d="M25.2852 52.645C25.2852 51.9132 26.0576 51.401 26.7531 51.6284C28.2874 52.1302 30.9149 52.7914 34.1086 52.7914C37.3023 52.7914 39.9298 52.1302 41.4641 51.6284C42.1596 51.401 42.932 51.9132 42.932 52.645V53.9344C42.932 54.2899 42.7433 54.6162 42.4182 54.7602C41.3413 55.2372 38.5714 56.2256 34.1086 56.2256C29.6457 56.2256 26.8759 55.2372 25.7989 54.7602C25.4739 54.6162 25.2852 54.2899 25.2852 53.9344V52.645Z" fill="#00F942"/>
  <path d="M21.3001 12.7546C21.6207 12.4546 21.9987 12.2417 22.4231 12.1294C23.7835 11.7692 27.4176 11.0195 34.0967 11.0195C40.6391 11.0195 44.2599 11.7389 45.6839 12.1068C46.1648 12.231 46.5916 12.4838 46.9409 12.8369C48.8509 14.7674 55.1934 21.967 55.1934 32.446C55.1934 42.9251 48.8508 50.1247 46.9409 52.0552C46.5916 52.4083 46.1645 52.6627 45.6903 52.8105C44.0248 53.3294 39.5989 54.5219 34.0967 54.5219C28.4954 54.5219 24.0095 53.2861 22.4158 52.7831C21.9971 52.651 21.6207 52.4375 21.3001 52.1375C19.4507 50.4062 13 43.5703 13 32.446C13 21.3218 19.4507 14.4859 21.3001 12.7546Z" fill="#E0E0E0"/>
  <ellipse cx="33.9022" cy="31.5691" rx="11.4013" ry="11.364" fill="#00F942"/>
  <ellipse cx="33.9025" cy="31.5689" rx="8.55094" ry="8.52304" fill="#221F2E"/>
  <path d="M44.4053 43.4018C44.4053 42.7328 45.0495 42.2525 45.6908 42.4435L53.9848 44.914C54.4087 45.0403 54.6993 45.4301 54.6993 45.8724V53.4385C54.6993 54.1523 53.9731 54.6362 53.3144 54.3615L45.0204 50.9027C44.6479 50.7474 44.4053 50.3833 44.4053 49.9798V43.4018Z" fill="#E0E0E0"/>
  <path d="M23.8154 43.4018C23.8154 42.7328 23.1712 42.2525 22.53 42.4435L14.2359 44.914C13.812 45.0403 13.5214 45.4301 13.5214 45.8724V53.4385C13.5214 54.1523 14.2476 54.6362 14.9063 54.3615L23.2003 50.9027C23.5728 50.7474 23.8154 50.3833 23.8154 49.9798V43.4018Z" fill="#E0E0E0"/>
  <rect x="32.9521" y="44.6357" width="1.46962" height="12.8785" rx="0.734809" fill="#221F2E"/>
  <path d="M34.0975 6C40.3194 6 47.476 13.5292 47.476 13.5292C47.476 13.5292 39.7576 12.2744 34.0975 12.2744C28.4374 12.2744 20.6318 13.5292 20.6318 13.5292C20.6318 13.5292 27.8756 6 34.0975 6Z" fill="#E0E0E0"/>
  <path fill-rule="evenodd" clip-rule="evenodd" d="M51.0766 17.7126C47.6654 15.9848 41.3379 14.8242 34.0958 14.8242C26.8545 14.8242 20.5277 15.9845 17.1162 17.7119C19.2713 15.2945 26.0577 13.5293 34.0961 13.5293C42.1352 13.5293 48.9222 15.2948 51.0766 17.7126Z" fill="black"/>
  <defs>
    <filter id="filter0_d_6531_34129" x="0.48803" y="0" width="65.0239" height="65.0239" filterUnits="userSpaceOnUse" color-interpolation-filters="sRGB">
      <feFlood flood-opacity="0" result="BackgroundImageFix"/>
      <feColorMatrix in="SourceAlpha" type="matrix" values="0 0 0 0 0 0 0 0 0 0 0 0 0 0 0 0 0 0 127 0" result="hardAlpha"/>
      <feOffset dy="0.51197"/>
      <feGaussianBlur stdDeviation="0.255985"/>
      <feComposite in2="hardAlpha" operator="out"/>
      <feColorMatrix type="matrix" values="0 0 0 0 0.0517603 0 0 0 0 0.051454 0 0 0 0 0.0750371 0 0 0 0.2 0"/>
      <feBlend mode="normal" in2="BackgroundImageFix" result="effect1_dropShadow_6531_34129"/>
      <feBlend mode="normal" in="SourceGraphic" in2="effect1_dropShadow_6531_34129" result="shape"/>
    </filter>
  </defs>
</svg>