<svg width="38" height="49" viewBox="0 0 38 49" fill="none" xmlns="http://www.w3.org/2000/svg">
<g id="Group">
<path id="Vector" d="M37.4038 37.9062V19.3531C37.4038 9.10642 29.0973 0.79987 18.8506 0.79987C8.60398 0.79987 0.297421 9.10642 0.297421 19.3531V37.9062H37.4038Z" fill="#5A58F2"/>
<path id="Vector_2" d="M7.78093 37.7387C7.78093 31.6267 12.7357 26.6719 18.8477 26.6719C24.9598 26.6719 29.9146 31.6267 29.9146 37.7387H7.78093Z" fill="#FF3E80"/>
<path id="Vector_3" d="M7.78093 37.733C7.78093 43.845 12.7357 48.7998 18.8477 48.7998C24.9598 48.7998 29.9146 43.845 29.9146 37.733H7.78093Z" fill="#FFC300"/>
<path id="Vector_4" d="M18.3398 22.5869C21.348 22.5869 23.7866 20.1483 23.7866 17.1401C23.7866 14.1319 21.348 11.6933 18.3398 11.6933C15.3316 11.6933 12.893 14.1319 12.893 17.1401C12.893 20.1483 15.3316 22.5869 18.3398 22.5869Z" fill="#F5F5F7"/>
<path id="Vector_5" d="M18.3402 21.2256C20.5963 21.2256 22.4253 19.3966 22.4253 17.1405C22.4253 14.8843 20.5963 13.0554 18.3402 13.0554C16.084 13.0554 14.2551 14.8843 14.2551 17.1405C14.2551 19.3966 16.084 21.2256 18.3402 21.2256Z" fill="#5A58F2"/>
</g>
</svg>
