<svg width="44" height="30" viewBox="0 0 44 30" fill="none" xmlns="http://www.w3.org/2000/svg">
<g id="Group 60" filter="url(#filter0_d_420_6377)">
<path id="Vector" d="M37.7354 14.6836L37.7395 14.6797C37.8695 14.4794 37.9391 14.248 37.9404 14.0115C37.9418 13.775 37.8749 13.5429 37.7472 13.3412C36.7234 11.7107 34.2411 9.98961 30.9355 8.61949C27.6021 7.24013 23.9643 6.44577 20.9481 6.44841C19.9847 6.44599 19.0224 6.50889 18.0682 6.63666C17.099 5.6105 16.0607 4.8852 14.9793 4.47438C11.201 3.05236 7.49688 5.18737 6.0842 6.16867C5.88295 6.30759 5.71753 6.4896 5.60082 6.70051C5.48411 6.91143 5.41925 7.14557 5.4113 7.38471C5.40334 7.62386 5.45249 7.86156 5.55494 8.07931C5.65739 8.29706 5.81036 8.48899 6.00195 8.64016L6.00786 8.64588L9.24945 11.1662C9.21582 11.2058 9.18583 11.2427 9.15766 11.2762C8.83907 11.6572 8.66548 12.1327 8.66602 12.623L8.66511 15.3852C8.66385 15.8754 8.83716 16.351 9.15585 16.732L9.24309 16.8367L6.00604 19.3544L6.00013 19.3601C5.82667 19.4965 5.68453 19.6665 5.58279 19.8592C5.48106 20.0518 5.42198 20.2629 5.40932 20.4789C5.39666 20.6949 5.4307 20.9111 5.50928 21.1136C5.58785 21.3162 5.70922 21.5006 5.86563 21.6552C5.92871 21.7165 5.99695 21.7725 6.06965 21.8228C7.48598 22.8137 11.1797 24.9562 14.9688 23.5175C16.0425 23.1089 17.0767 22.3867 18.0491 21.3671C19.0049 21.4981 19.9691 21.5628 20.9344 21.5606C23.9647 21.5681 27.5889 20.7957 30.8778 19.4401C34.1516 18.0911 36.6517 16.3564 37.7354 14.6836ZM24.9244 17.6667C24.1773 17.6671 23.4469 17.4529 22.8255 17.0514C22.2042 16.6498 21.7198 16.0789 21.4337 15.4108C21.1476 14.7428 21.0727 14.0076 21.2184 13.2982C21.364 12.5889 21.7237 11.9374 22.252 11.426C22.7803 10.9146 23.4534 10.5664 24.1861 10.4254C24.9189 10.2844 25.6784 10.357 26.3686 10.6339C27.0587 10.9108 27.6485 11.3797 28.0633 11.9812C28.4782 12.5826 28.6994 13.2897 28.699 14.0129C28.7027 14.4937 28.6077 14.9705 28.4193 15.4154C28.231 15.8604 27.9531 16.2646 27.6018 16.6046C27.2506 16.9446 26.833 17.2136 26.3733 17.396C25.9137 17.5783 25.4211 17.6703 24.9244 17.6667Z" fill="url(#paint0_linear_420_6377)"/>
<path id="Vector_2" d="M26.1384 12.8388C25.8576 12.5674 25.4884 12.3986 25.0935 12.3611C24.6986 12.3237 24.3025 12.4199 23.9727 12.6335C23.6429 12.847 23.3998 13.1647 23.2848 13.5323C23.1698 13.8999 23.19 14.2947 23.342 14.6495C23.494 15.0043 23.7684 15.297 24.1185 15.478C24.4685 15.6589 24.8725 15.7167 25.2616 15.6416C25.6507 15.5665 26.0009 15.3631 26.2525 15.0661C26.5041 14.7691 26.6415 14.3969 26.6414 14.0128C26.6416 13.7947 26.5973 13.5787 26.5109 13.3772C26.4246 13.1757 26.298 12.9928 26.1384 12.8388Z" fill="url(#paint1_linear_420_6377)"/>
<path id="Vector_3" fill-rule="evenodd" clip-rule="evenodd" d="M3.63771 13.3532H8.95986C9.02658 13.3532 9.08984 13.3788 9.13585 13.4245L9.97783 14.2451C10.1331 14.3965 10.0227 14.6548 9.80184 14.6548H4.47968C4.41297 14.6548 4.34971 14.6292 4.3037 14.5836L3.46172 13.763C3.30529 13.6115 3.41686 13.3532 3.63771 13.3532ZM3.46172 12.2654L4.3037 11.4448C4.35086 11.3991 4.41412 11.3735 4.47968 11.3735H9.80069C10.0215 11.3735 10.1331 11.6319 9.97667 11.7833L9.13585 12.6039C9.08869 12.6495 9.02543 12.6751 8.95986 12.6751H3.63771C3.41686 12.6751 3.30529 12.4168 3.46172 12.2654ZM9.97667 15.7426L9.1347 16.5632C9.08754 16.6089 9.02428 16.6345 8.95871 16.6345H3.63771C3.41686 16.6345 3.30529 16.3762 3.46172 16.2248L4.3037 15.4042C4.35086 15.3585 4.41412 15.3329 4.47968 15.3329H9.80069C10.0215 15.3329 10.1331 15.5912 9.97667 15.7426Z" fill="url(#paint2_linear_420_6377)"/>
</g>
<defs>
<filter id="filter0_d_420_6377" x="0.189592" y="0.80092" width="43.0518" height="28.5" filterUnits="userSpaceOnUse" color-interpolation-filters="sRGB">
<feFlood flood-opacity="0" result="BackgroundImageFix"/>
<feColorMatrix in="SourceAlpha" type="matrix" values="0 0 0 0 0 0 0 0 0 0 0 0 0 0 0 0 0 0 127 0" result="hardAlpha"/>
<feOffset dx="1.05092" dy="1.05092"/>
<feGaussianBlur stdDeviation="2.125"/>
<feComposite in2="hardAlpha" operator="out"/>
<feColorMatrix type="matrix" values="0 0 0 0 0.121792 0 0 0 0 0.120371 0 0 0 0 0.229799 0 0 0 0.36 0"/>
<feBlend mode="normal" in2="BackgroundImageFix" result="effect1_dropShadow_420_6377"/>
<feBlend mode="normal" in="SourceGraphic" in2="effect1_dropShadow_420_6377" result="shape"/>
</filter>
<linearGradient id="paint0_linear_420_6377" x1="9.58689" y1="14.5" x2="47.8416" y2="13.9664" gradientUnits="userSpaceOnUse">
<stop stop-color="#5A58F2"/>
<stop offset="0.36126" stop-color="#FF3E80"/>
<stop offset="1" stop-color="#FFC300"/>
</linearGradient>
<linearGradient id="paint1_linear_420_6377" x1="22.5345" y1="14.2481" x2="27.2172" y2="14.7387" gradientUnits="userSpaceOnUse">
<stop stop-color="#CB4EE8"/>
<stop offset="1" stop-color="#10F4B1"/>
</linearGradient>
<linearGradient id="paint2_linear_420_6377" x1="1.83908" y1="13" x2="10.1035" y2="13" gradientUnits="userSpaceOnUse">
<stop stop-color="#10F4B1"/>
<stop offset="0.95" stop-color="#5B58F2"/>
</linearGradient>
</defs>
</svg>
