<svg width="21" height="21" viewBox="0 0 21 21" fill="none" xmlns="http://www.w3.org/2000/svg">
<g id="Incomplete--normal">
<g id="Vector">
<path d="M15.5789 4.4813L16.3741 3.53369C15.6059 2.88354 14.7302 2.37246 13.7864 2.02344L13.3634 3.18521C14.1717 3.48504 14.9214 3.92365 15.5789 4.4813Z" fill="#5A58F2"/>
<path d="M18.0822 8.89961L19.2998 8.64419C19.1286 7.65553 18.7857 6.70448 18.2864 5.83414L17.2152 6.42461C17.6428 7.19434 17.936 8.03133 18.0822 8.89961Z" fill="#5A58F2"/>
<path d="M13.3634 17.089L13.7864 18.2508C14.7302 17.9018 15.6059 17.3907 16.3741 16.7405L15.5789 15.7929C14.9214 16.3506 14.1717 16.7892 13.3634 17.089Z" fill="#5A58F2"/>
<path d="M17.2152 13.8496L18.2864 14.4684C18.786 13.588 19.1289 12.6277 19.3001 11.63L18.0822 11.4154C17.9359 12.2708 17.6425 13.0943 17.2152 13.8496Z" fill="#5A58F2"/>
<path d="M10.7748 18.7996V1.47461C8.47737 1.47461 6.27403 2.38726 4.64949 4.0118C3.02496 5.63633 2.1123 7.83967 2.1123 10.1371C2.1123 12.4345 3.02496 14.6379 4.64949 16.2624C6.27403 17.887 8.47737 18.7996 10.7748 18.7996Z" fill="#5A58F2"/>
</g>
</g>
</svg>
