<svg width="20" height="20" viewBox="0 0 20 20" fill="none" xmlns="http://www.w3.org/2000/svg">
<path id="Vector" fill-rule="evenodd" clip-rule="evenodd" d="M14.4444 0C15.9179 0 17.3309 0.585316 18.3728 1.62718C19.4147 2.66905 20 4.08213 20 5.55556V14.4444C20 15.9179 19.4147 17.3309 18.3728 18.3728C17.3309 19.4147 15.9179 20 14.4444 20H5.55556C4.08213 20 2.66905 19.4147 1.62718 18.3728C0.585316 17.3309 0 15.9179 0 14.4444V5.55556C0 4.08213 0.585316 2.66905 1.62718 1.62718C2.66905 0.585316 4.08213 0 5.55556 0H14.4444ZM14.4444 2.22222H5.55556C4.6715 2.22222 3.82365 2.57341 3.19853 3.19853C2.57341 3.82365 2.22222 4.6715 2.22222 5.55556V14.4444C2.22222 15.3285 2.57341 16.1763 3.19853 16.8015C3.82365 17.4266 4.6715 17.7778 5.55556 17.7778H14.4444C15.3285 17.7778 16.1763 17.4266 16.8015 16.8015C17.4266 16.1763 17.7778 15.3285 17.7778 14.4444V5.55556C17.7778 4.6715 17.4266 3.82365 16.8015 3.19853C16.1763 2.57341 15.3285 2.22222 14.4444 2.22222ZM10 5.55556C11.1787 5.55556 12.3092 6.02381 13.1427 6.8573C13.9762 7.6908 14.4444 8.82126 14.4444 10C14.4444 11.1787 13.9762 12.3092 13.1427 13.1427C12.3092 13.9762 11.1787 14.4444 10 14.4444C8.82126 14.4444 7.6908 13.9762 6.8573 13.1427C6.02381 12.3092 5.55556 11.1787 5.55556 10C5.55556 8.82126 6.02381 7.6908 6.8573 6.8573C7.6908 6.02381 8.82126 5.55556 10 5.55556ZM10 7.77778C9.41063 7.77778 8.8454 8.0119 8.42865 8.42865C8.0119 8.8454 7.77778 9.41063 7.77778 10C7.77778 10.5894 8.0119 11.1546 8.42865 11.5713C8.8454 11.9881 9.41063 12.2222 10 12.2222C10.5894 12.2222 11.1546 11.9881 11.5713 11.5713C11.9881 11.1546 12.2222 10.5894 12.2222 10C12.2222 9.41063 11.9881 8.8454 11.5713 8.42865C11.1546 8.0119 10.5894 7.77778 10 7.77778ZM15 3.88889C15.2947 3.88889 15.5773 4.00595 15.7857 4.21433C15.9941 4.4227 16.1111 4.70532 16.1111 5C16.1111 5.29469 15.9941 5.5773 15.7857 5.78567C15.5773 5.99405 15.2947 6.11111 15 6.11111C14.7053 6.11111 14.4227 5.99405 14.2143 5.78567C14.006 5.5773 13.8889 5.29469 13.8889 5C13.8889 4.70532 14.006 4.4227 14.2143 4.21433C14.4227 4.00595 14.7053 3.88889 15 3.88889Z" fill="#F6FBFE"/>
</svg>
