<svg width="72" height="72" viewBox="0 0 72 72" fill="none" xmlns="http://www.w3.org/2000/svg">
<g id="Group 98">
<path id="Vector" fill-rule="evenodd" clip-rule="evenodd" d="M38.2212 55.0056V67.6464C38.2212 67.8049 38.1583 67.9551 38.0463 68.0644L36.0329 70.0642C35.6613 70.433 35.0275 70.1707 35.0275 69.6462V57.0054C35.0275 56.8469 35.0903 56.6966 35.2023 56.5874L37.2158 54.5876C37.5873 54.216 38.2212 54.481 38.2212 55.0056ZM40.8903 54.5876L42.9038 56.5874C43.0158 56.6994 43.0786 56.8496 43.0786 57.0054V69.6435C43.0786 70.168 42.4448 70.433 42.0732 70.0615L40.0598 68.0644C39.9478 67.9524 39.8849 67.8021 39.8849 67.6464V55.0056C39.8849 54.481 40.5188 54.216 40.8903 54.5876ZM32.3584 70.0615L30.3449 68.0617C30.2329 67.9496 30.17 67.7994 30.17 67.6437V55.0056C30.17 54.481 30.8039 54.216 31.1754 54.5876L33.1889 56.5874C33.3009 56.6994 33.3637 56.8496 33.3637 57.0054V69.6435C33.3637 70.168 32.7299 70.433 32.3584 70.0615Z" fill="url(#paint0_linear_1577_7807)"/>
<path id="Vector_2" d="M33.5483 22.5816C33.0476 23.0829 32.7361 23.7423 32.667 24.4475C32.598 25.1527 32.7755 25.86 33.1695 26.449C33.5635 27.038 34.1494 27.4721 34.8276 27.6774C35.5058 27.8828 36.2342 27.8467 36.8887 27.5752C37.5432 27.3037 38.0833 26.8137 38.4171 26.1887C38.7508 25.5636 38.8575 24.8422 38.719 24.1473C38.5804 23.4524 38.2052 22.827 37.6573 22.3777C37.1094 21.9284 36.4226 21.683 35.7141 21.6833C35.3117 21.6829 34.9132 21.762 34.5415 21.9162C34.1698 22.0703 33.8323 22.2965 33.5483 22.5816Z" fill="white"/>
<path id="Vector_3" d="M36.9446 1.86387C36.9418 1.86182 36.9394 1.85936 36.9373 1.85657C36.5679 1.6244 36.141 1.50008 35.7047 1.49765C35.2684 1.49521 34.8401 1.61475 34.4681 1.84278C31.4601 3.67095 28.2849 8.10384 25.7573 14.0071C23.2126 19.9598 21.7472 26.4562 21.752 31.8425C21.7476 33.5628 21.8636 35.2813 22.0993 36.9854C20.2062 38.7162 18.8682 40.5703 18.1103 42.5016C15.4869 49.2487 19.4256 55.8635 21.2359 58.3863C21.4922 58.7457 21.828 59.0411 22.2171 59.2495C22.6062 59.4579 23.0382 59.5737 23.4793 59.5879C23.9205 59.6022 24.359 59.5144 24.7607 59.3314C25.1625 59.1485 25.5165 58.8753 25.7954 58.5332L25.806 58.5226L30.4555 52.7338C30.5286 52.7939 30.5967 52.8474 30.6584 52.8977C31.3614 53.4667 32.2386 53.7766 33.143 53.7757L38.2389 53.7773C39.1432 53.7796 40.0207 53.4701 40.7235 52.901L40.9166 52.7452L45.5613 58.5259L45.5718 58.5364C45.8235 58.8462 46.1371 59.1 46.4925 59.2817C46.8479 59.4634 47.2373 59.5689 47.6358 59.5915C48.0343 59.6141 48.4332 59.5533 48.8068 59.413C49.1805 59.2726 49.5208 59.0559 49.8059 58.7766C49.9189 58.664 50.0223 58.5421 50.1151 58.4123C51.9432 55.883 55.8958 49.2868 53.2415 42.5202C52.4877 40.6028 51.1553 38.7559 49.2744 37.0195C49.5162 35.3126 49.6355 33.5907 49.6315 31.8668C49.6453 26.4553 48.2204 19.9833 45.7195 14.1101C43.2308 8.26369 40.0305 3.79915 36.9446 1.86387ZM42.4478 24.7416C42.4485 26.0758 42.0535 27.3801 41.3127 28.4898C40.5719 29.5994 39.5186 30.4643 38.2861 30.9752C37.0537 31.4861 35.6974 31.6199 34.3888 31.3598C33.0802 31.0997 31.8782 30.4573 30.9348 29.5139C29.9914 28.5705 29.349 27.3685 29.0889 26.06C28.8288 24.7514 28.9627 23.3951 29.4735 22.1626C29.9844 20.9301 30.8494 19.8769 31.959 19.1361C33.0686 18.3953 34.373 18.0003 35.7072 18.001C36.5942 17.9943 37.4738 18.164 38.2946 18.5004C39.1155 18.8368 39.8612 19.333 40.4885 19.9603C41.1157 20.5876 41.612 21.3333 41.9484 22.1541C42.2847 22.975 42.4545 23.8545 42.4478 24.7416Z" fill="white"/>
<g id="Vector_4">
<path d="M33.5483 22.5816C33.0476 23.0829 32.7361 23.7423 32.667 24.4475C32.598 25.1527 32.7755 25.86 33.1695 26.449C33.5635 27.038 34.1494 27.4721 34.8276 27.6774C35.5058 27.8828 36.2342 27.8467 36.8887 27.5752C37.5432 27.3037 38.0833 26.8137 38.4171 26.1887C38.7508 25.5636 38.8575 24.8422 38.719 24.1473C38.5804 23.4524 38.2052 22.827 37.6573 22.3777C37.1094 21.9284 36.4226 21.683 35.7141 21.6833C35.3117 21.6829 34.9132 21.762 34.5415 21.9162C34.1698 22.0703 33.8323 22.2965 33.5483 22.5816Z" fill="url(#paint1_linear_1577_7807)"/>
<path d="M33.5483 22.5816C33.0476 23.0829 32.7361 23.7423 32.667 24.4475C32.598 25.1527 32.7755 25.86 33.1695 26.449C33.5635 27.038 34.1494 27.4721 34.8276 27.6774C35.5058 27.8828 36.2342 27.8467 36.8887 27.5752C37.5432 27.3037 38.0833 26.8137 38.4171 26.1887C38.7508 25.5636 38.8575 24.8422 38.719 24.1473C38.5804 23.4524 38.2052 22.827 37.6573 22.3777C37.1094 21.9284 36.4226 21.683 35.7141 21.6833C35.3117 21.6829 34.9132 21.762 34.5415 21.9162C34.1698 22.0703 33.8323 22.2965 33.5483 22.5816Z" fill="#FFC300"/>
</g>
<path id="Subtract" fill-rule="evenodd" clip-rule="evenodd" d="M27.5915 10.1854C26.9522 11.3727 26.3373 12.6514 25.7565 14.0078C23.2119 19.9605 21.7464 26.4569 21.7513 31.8432C21.7468 33.5635 21.8628 35.282 22.0986 36.9861C20.2055 38.7169 18.8674 40.571 18.1095 42.5023C15.4861 49.2494 19.4249 55.8642 21.2352 58.387C21.4915 58.7464 21.8272 59.0418 22.2163 59.2502C22.6055 59.4586 23.0374 59.5744 23.4786 59.5887C23.9198 59.6029 24.3583 59.5151 24.76 59.3321C25.1617 59.1492 25.5158 58.876 25.7947 58.5339L25.8052 58.5233L30.4548 52.7345C30.4963 52.7687 30.5363 52.8007 30.5744 52.8313C30.6032 52.8544 30.631 52.8767 30.6576 52.8984C31.3606 53.4674 32.2379 53.7773 33.1422 53.7764L38.2381 53.778C39.1424 53.7803 40.0199 53.4708 40.7227 52.9017L40.9158 52.7459L45.5605 58.5266L45.5711 58.5371C45.8228 58.8469 46.1364 59.1007 46.4918 59.2824C46.8472 59.4641 47.2366 59.5696 47.6351 59.5922C48.0336 59.6148 48.4324 59.554 48.8061 59.4137C49.1797 59.2734 49.52 59.0566 49.8051 58.7773C49.9182 58.6647 50.0216 58.5428 50.1143 58.413C51.9425 55.8837 55.895 49.2875 53.2408 42.5209C52.487 40.6035 51.1546 38.7566 49.2737 37.0202C49.5154 35.3133 49.6347 33.5914 49.6307 31.8675C49.6445 26.456 48.2196 19.984 45.7188 14.1108C45.1469 12.7674 44.5374 11.4969 43.9005 10.3134C39.018 13.7528 32.4316 13.7102 27.5915 10.1854ZM41.3119 28.4905C42.0527 27.3808 42.4477 26.0765 42.447 24.7423C42.4537 23.8552 42.284 22.9757 41.9476 22.1548C41.6112 21.334 41.115 20.5883 40.4877 19.961C39.8604 19.3337 39.1147 18.8375 38.2938 18.5011C37.473 18.1647 36.5935 17.9949 35.7064 18.0017C34.3722 18.001 33.0678 18.396 31.9582 19.1368C30.8486 19.8776 29.9837 20.9308 29.4728 22.1633C28.9619 23.3958 28.828 24.7521 29.0882 26.0607C29.3483 27.3692 29.9907 28.5712 30.9341 29.5146C31.8775 30.458 33.0795 31.1004 34.388 31.3605C35.6966 31.6206 37.0529 31.4868 38.2854 30.9759C39.5179 30.465 40.5711 29.6001 41.3119 28.4905Z" fill="url(#paint2_linear_1577_7807)"/>
</g>
<defs>
<linearGradient id="paint0_linear_1577_7807" x1="36.6243" y1="70.2365" x2="36.6243" y2="54.4141" gradientUnits="userSpaceOnUse">
<stop stop-color="#5A58F2"/>
<stop offset="1" stop-color="#FF3E80"/>
</linearGradient>
<linearGradient id="paint1_linear_1577_7807" x1="37.881" y1="22.5804" x2="33.5495" y2="26.9118" gradientUnits="userSpaceOnUse">
<stop stop-color="#5A58F2"/>
<stop offset="1" stop-color="#FF3E80"/>
</linearGradient>
<linearGradient id="paint2_linear_1577_7807" x1="53.3834" y1="19.7963" x2="17.9861" y2="55.1936" gradientUnits="userSpaceOnUse">
<stop stop-color="#5A58F2"/>
<stop offset="1" stop-color="#FF3E80"/>
</linearGradient>
</defs>
</svg>
