<svg width="24" height="24" viewBox="0 0 24 24" fill="none" xmlns="http://www.w3.org/2000/svg">
<g id="left">
<path id="chevron.left" d="M5.98438 11.9492C5.98438 11.8255 6.00716 11.7116 6.05273 11.6074C6.09831 11.4967 6.16667 11.3958 6.25781 11.3047L14.002 3.72656C14.1777 3.55729 14.3893 3.47266 14.6367 3.47266C14.806 3.47266 14.9557 3.51172 15.0859 3.58984C15.2227 3.66797 15.3301 3.77539 15.4082 3.91211C15.4928 4.04232 15.5352 4.19206 15.5352 4.36133C15.5352 4.60221 15.4473 4.8138 15.2715 4.99609L8.16211 11.9492L15.2715 18.9023C15.4473 19.0846 15.5352 19.2962 15.5352 19.5371C15.5352 19.7064 15.4928 19.8561 15.4082 19.9863C15.3301 20.123 15.2227 20.2305 15.0859 20.3086C14.9557 20.3867 14.806 20.4258 14.6367 20.4258C14.3893 20.4258 14.1777 20.3379 14.002 20.1621L6.25781 12.5938C6.16667 12.5026 6.09831 12.4049 6.05273 12.3008C6.00716 12.1901 5.98438 12.0729 5.98438 11.9492Z" fill="#F2F2FC"/>
</g>
</svg>
