<svg width="50" height="34" viewBox="0 0 50 34" fill="none" xmlns="http://www.w3.org/2000/svg">
<g id="Frame 1000003612">
<path id="Vector" d="M7.22808 10.5225L1.60156 13.5319L6.77697 22.1123C6.77697 22.1123 18.1103 29.0272 18.9415 29.0272C19.7727 29.0272 34.6284 29.9882 35.268 29.5402C35.9076 29.0921 44.2964 26.1414 45.3191 25.5358C46.3418 24.9302 50.2504 21.7879 49.6417 21.2842C48.6128 20.4314 49.8302 19.041 47.6148 18.2006C44.8958 17.1686 36.4823 13.7884 31.9372 13.7266C27.3921 13.6617 20.5976 14.5485 15.9907 12.7595C11.3839 10.9736 7.2219 10.5225 7.2219 10.5225H7.22808Z" fill="#00F942"/>
<path id="Vector_2" d="M3.29791 11.7364C3.71503 11.6313 1.38842 15.6913 6.4495 18.6235C7.26212 24.9422 14.9032 26.1255 17.7087 24.9143C23.3723 30.3308 34.097 28.9898 36.7357 25.6343C37.9531 26.0977 44.0307 27.0432 45.3871 23.4714C47.6118 22.7237 48.4522 20.7246 47.5623 17.6008C54.6132 24.25 44.4509 29.651 39.6803 29.9167C36.9242 33.1301 32.0052 31.1434 32.0052 31.1434C32.0052 31.1434 29.178 33.6337 25.0748 33.4298C20.9715 33.2259 17.6562 29.8086 17.6562 29.8086C17.6562 29.8086 13.176 30.0187 10.2839 27.9238C7.77811 26.107 6.44641 24.2531 5.73576 21.6237C2.73866 20.6134 -4.09288 13.5779 3.29482 11.7364H3.29791Z" fill="#5A58F2"/>
<path id="Vector_3" d="M29.4588 3.34466C24.5059 3.34466 18.9782 -0.74005 5.64269 8.52934C1.12849 12.2742 3.73628 17.6257 7.10107 17.7307C8.82826 21.7629 9.37516 24.2193 18.0297 23.9907C25.1053 27.8498 29.1684 28.0229 36.3707 24.6642C41.3267 25.1741 42.7017 25.0505 44.9233 22.591C48.0223 23.4314 49.4004 17.2055 44.5339 11.8941C39.4729 6.36957 37.619 3.34775 29.4557 3.34775L29.4588 3.34466Z" fill="#5A58F2"/>
<path id="Vector_4" d="M41.1912 8.29759C41.1912 8.29759 34.0198 13.7449 26.147 12.75C18.2742 11.7551 12.6816 4.69489 12.6816 4.69489C12.6816 4.69489 19.8531 -0.752422 27.7259 0.242492C35.5987 1.23741 41.1912 8.29759 41.1912 8.29759Z" fill="#5A58F2"/>
<g id="Group">
<path id="Vector_5" d="M41.1912 8.79661C41.1912 8.79661 34.0198 14.2439 26.147 13.249C18.2742 12.2541 12.6816 5.19391 12.6816 5.19391C12.6816 5.19391 19.8531 -0.253399 27.7259 0.741515C35.5987 1.73643 41.1912 8.79661 41.1912 8.79661Z" fill="white"/>
<g id="Clip path group">
<mask id="mask0_6666_26309" style="mask-type:luminance" maskUnits="userSpaceOnUse" x="12" y="0" width="30" height="14">
<g id="clippath">
<path id="Vector_6" d="M41.1902 8.79661C41.1902 8.79661 34.0188 14.2439 26.146 13.249C18.2732 12.2541 12.6807 5.19391 12.6807 5.19391C12.6807 5.19391 19.8521 -0.253399 27.7249 0.741515C35.5977 1.73643 41.1902 8.79661 41.1902 8.79661Z" fill="white"/>
</g>
</mask>
<g mask="url(#mask0_6666_26309)">
<g id="Group_2">
<path id="Vector_7" d="M29.5789 5.92143C31.7102 5.92143 33.438 4.19363 33.438 2.06228C33.438 -0.069073 31.7102 -1.79688 29.5789 -1.79688C27.4475 -1.79688 25.7197 -0.069073 25.7197 2.06228C25.7197 4.19363 27.4475 5.92143 29.5789 5.92143Z" fill="black"/>
</g>
</g>
</g>
</g>
<g id="Group_3">
<path id="Vector_8" d="M13.9469 13.1728L8.34668 16.9873L8.45104 17.1405L14.0513 13.326L13.9469 13.1728Z" fill="#00F942"/>
</g>
<g id="Group_4">
<path id="Vector_9" d="M34.3806 17.2117L34.2051 17.2715L36.2265 23.2059L36.4019 23.1461L34.3806 17.2117Z" fill="#00F942"/>
</g>
</g>
</svg>
