<svg width="428" height="428" viewBox="0 0 428 428" fill="none" xmlns="http://www.w3.org/2000/svg">
<g clip-path="url(#clip0_8286_39091)" filter="url(#filter0_b_8286_39091)">
<mask id="mask0_8286_39091" style="mask-type:alpha" maskUnits="userSpaceOnUse" x="3" y="12" width="422" height="399">
<path d="M392.752 169.668C414.458 187.414 429.185 213.85 423.412 241.286C422.067 247.676 420.438 253.961 418.537 260.127C417.359 263.948 412.388 264.707 410 261.5V261.5L413.258 267.588C414.336 269.601 414.509 271.981 413.687 274.11C403.417 300.685 387.996 324.697 368.647 344.92C364.8 348.941 358.193 347.557 356.018 342.434L353.5 336.5L356.9 350.709C357.579 353.544 356.669 356.534 354.47 358.448C335.246 375.189 313.003 388.552 288.666 397.613C284.12 399.307 279.241 396.371 278.389 391.595L276.5 381L276.139 396.09C276.056 399.545 273.768 402.572 270.433 403.481C252.454 408.383 233.533 411 214 411C208.377 411 202.804 410.783 197.29 410.357C192.759 410.007 189.589 405.817 190.295 401.327L192 390.5L188.422 402.698C187.315 406.472 183.626 408.897 179.742 408.273C148.159 403.191 118.888 391.198 93.5294 373.895C90.3024 371.693 89.2801 367.434 91.0279 363.94L95.5 355L90.5637 361.792C87.9392 365.403 82.8564 366.179 79.3877 363.369C41.3738 332.573 14.124 289.011 4.16146 239.208C-1.10251 212.893 12.3799 187.423 32.644 169.829C88.0479 121.726 139.477 67.4391 173.311 29.8309C194.326 6.47212 232.421 7.4873 252.81 31.394C284.298 68.3138 333.162 120.95 392.752 169.668Z" fill="#D9D9D9"/>
</mask>
<g mask="url(#mask0_8286_39091)">
<path d="M294.813 510.031C302.874 549.69 331.828 577.282 359.486 571.661C387.143 566.04 403.03 529.334 394.969 489.675C386.909 450.017 274.085 3.44668 259.795 81.1582C223.985 101.484 286.753 470.373 294.813 510.031Z" fill="url(#paint0_linear_8286_39091)"/>
<path d="M179.684 495.128C176.817 533.669 195.919 566.506 222.35 568.473C248.782 570.439 272.533 540.79 275.4 502.249C278.268 463.708 279.585 87.8429 253.154 85.8764C226.722 83.9099 182.552 456.587 179.684 495.128Z" fill="url(#paint1_linear_8286_39091)"/>
<path d="M31.786 472.839C17.0536 510.978 33.6046 552.902 68.7536 566.48C103.903 580.057 144.34 560.146 159.072 522.007C173.804 483.867 254.775 112.879 250.967 94.7657C219.463 100.807 46.5183 434.699 31.786 472.839Z" fill="url(#paint2_linear_8286_39091)"/>
<path d="M404.746 465.296C421.716 501.956 454.635 522.804 478.274 511.862C501.913 500.92 507.319 462.331 490.35 425.671C473.38 389.011 279.636 -17.2174 250.062 -3.52815C223.306 8.85712 387.777 428.636 404.746 465.296Z" fill="url(#paint3_linear_8286_39091)"/>
<path d="M507.274 399.514C533.492 431.787 572.371 443.632 594.114 425.97C615.856 408.307 612.227 367.826 586.009 335.552C559.791 303.279 273.991 -27.4571 252.249 -9.79459C230.507 7.86796 481.056 367.24 507.274 399.514Z" fill="url(#paint4_linear_8286_39091)"/>
<path d="M-166.251 472.823C-151.701 483.841 -130.048 481.866 -109.17 469.82C-117.889 496.321 -113.491 522.639 -95.577 536.558C-70.478 556.058 -28.3509 543.833 -1.48335 509.252C25.3842 474.672 257.113 88.978 238.855 105.575C230.976 99.4531 198.051 126.589 155.749 167.774L163.173 192.965C164.422 197.203 161.999 201.651 157.761 202.9C153.523 204.149 149.075 201.726 147.826 197.488L142.82 180.504C138.03 185.27 133.148 190.18 128.194 195.208C130.363 197.323 130.63 200.777 128.715 203.211C126.666 205.815 122.894 206.265 120.29 204.215L119.767 203.804C114.908 208.783 109.993 213.86 105.04 219.012L105.953 226.249C106.302 229.015 104.7 231.657 102.085 232.626C99.4708 233.595 96.5334 232.635 94.9955 230.31L94.6818 229.835C93.067 231.53 91.4495 233.232 89.8298 234.938C91.5228 237.229 91.3882 240.471 89.3657 242.616C87.3385 244.766 84.0993 245.088 81.712 243.52C79.7893 245.559 77.865 247.604 75.9402 249.654L80.6151 254.546C82.5228 256.542 82.4509 259.707 80.4544 261.615C78.4579 263.523 75.2929 263.451 73.3852 261.454L69.093 256.963C66.9499 259.256 64.8077 261.553 62.6678 263.852L63.4858 274.622C63.6103 276.261 62.9212 277.856 61.6428 278.889C60.3643 279.922 58.6598 280.261 57.0834 279.795L49.8663 277.663C45.2246 282.69 40.6072 287.712 36.0287 292.711L32.8709 306.355C32.2482 309.045 29.5625 310.722 26.8722 310.099C25.0861 309.686 23.747 308.363 23.2309 306.733C12.3339 318.714 1.7466 330.459 -8.32236 341.712C2.76367 325.058 14.6029 307.112 26.7363 288.512L31.6289 267.373C31.9396 266.03 32.7906 264.876 33.9809 264.181C35.1713 263.487 36.5953 263.315 37.9169 263.705L42.0497 264.926C45.2273 260.008 48.4117 255.065 51.595 250.106L50.5145 235.879C50.3545 233.773 51.5354 231.793 53.4648 230.933C55.3942 230.073 57.6558 230.519 59.1151 232.046L61.5307 234.574C62.8523 232.5 64.1724 230.426 65.4903 228.352L63.3841 226.366C60.973 224.092 60.8614 220.295 63.1346 217.884C65.4079 215.473 69.2052 215.361 71.6162 217.635L72.0327 218.027C74.4581 214.189 76.8727 210.357 79.273 206.534L74.4955 199.31C72.6676 196.546 73.4266 192.823 76.1906 190.996C78.9546 189.168 82.677 189.927 84.5048 192.691L86.2682 195.357C87.2945 193.712 88.3175 192.069 89.3368 190.43L87.5474 176.252C87.2426 173.836 88.4271 171.477 90.5458 170.278C92.6646 169.079 95.2975 169.28 97.2105 170.785L100.082 173.044C102.996 168.298 105.87 163.592 108.696 158.939L95.7707 160.189C91.373 160.615 87.4629 157.395 87.0373 152.997C86.6118 148.599 89.8318 144.689 94.2295 144.264L118.977 141.869C157.976 76.563 184.816 24.7984 176.5 18.5008C153.446 1.0431 -131.034 339.584 -158.416 375.742C-185.797 411.901 -189.305 455.365 -166.251 472.823Z" fill="url(#paint5_linear_8286_39091)"/>
<path d="M158 92.7266L184.5 128.227L144.5 120.227L166.792 144.727L141.5 147.726M141.5 147.726L95.0001 152.226M141.5 147.726L155.499 195.226" stroke="url(#paint6_linear_8286_39091)" strokeWidth="14" strokeLinecap="round" strokeLinejoin="round"/>
<path d="M79.5 196L100 227L93.5 175.5L124 199.5" stroke="url(#paint7_linear_8286_39091)" strokeWidth="10" strokeLinecap="round" strokeLinejoin="round"/>
<path d="M27.9995 305.228L36.5 268.5L58.5 275L55.5 235.5L77 258" stroke="url(#paint8_linear_8286_39091)" strokeWidth="8" strokeLinecap="round" strokeLinejoin="round"/>
<path d="M67.5 222L85 238.5" stroke="url(#paint9_linear_8286_39091)" strokeWidth="10" strokeLinecap="round" strokeLinejoin="round"/>
<path d="M209.842 28.7919C210.319 27.6796 211.896 27.6796 212.373 28.7919L218.994 44.2407C221.45 49.9716 225.778 54.699 231.271 57.6491L242.276 63.5595C243.243 64.0788 243.243 65.4655 242.276 65.9848L231.271 71.8952C225.778 74.8453 221.45 79.5727 218.994 85.3036L212.373 100.752C211.896 101.865 210.319 101.865 209.842 100.752L203.221 85.3036C200.765 79.5727 196.436 74.8453 190.944 71.8952L179.939 65.9848C178.972 65.4655 178.972 64.0788 179.939 63.5595L190.944 57.6491C196.436 54.699 200.765 49.9716 203.221 44.2407L209.842 28.7919Z" fill="url(#paint10_angular_8286_39091)"/>
<path d="M209.842 28.7919C210.319 27.6796 211.896 27.6796 212.373 28.7919L218.994 44.2407C221.45 49.9716 225.778 54.699 231.271 57.6491L242.276 63.5595C243.243 64.0788 243.243 65.4655 242.276 65.9848L231.271 71.8952C225.778 74.8453 221.45 79.5727 218.994 85.3036L212.373 100.752C211.896 101.865 210.319 101.865 209.842 100.752L203.221 85.3036C200.765 79.5727 196.436 74.8453 190.944 71.8952L179.939 65.9848C178.972 65.4655 178.972 64.0788 179.939 63.5595L190.944 57.6491C196.436 54.699 200.765 49.9716 203.221 44.2407L209.842 28.7919Z" fill="url(#paint11_angular_8286_39091)" fill-opacity="0.7"/>
<path d="M209.842 28.7919C210.319 27.6796 211.896 27.6796 212.373 28.7919L218.994 44.2407C221.45 49.9716 225.778 54.699 231.271 57.6491L242.276 63.5595C243.243 64.0788 243.243 65.4655 242.276 65.9848L231.271 71.8952C225.778 74.8453 221.45 79.5727 218.994 85.3036L212.373 100.752C211.896 101.865 210.319 101.865 209.842 100.752L203.221 85.3036C200.765 79.5727 196.436 74.8453 190.944 71.8952L179.939 65.9848C178.972 65.4655 178.972 64.0788 179.939 63.5595L190.944 57.6491C196.436 54.699 200.765 49.9716 203.221 44.2407L209.842 28.7919Z" fill="url(#paint12_angular_8286_39091)" fill-opacity="0.7"/>
<path d="M209.842 28.7919C210.319 27.6796 211.896 27.6796 212.373 28.7919L218.994 44.2407C221.45 49.9716 225.778 54.699 231.271 57.6491L242.276 63.5595C243.243 64.0788 243.243 65.4655 242.276 65.9848L231.271 71.8952C225.778 74.8453 221.45 79.5727 218.994 85.3036L212.373 100.752C211.896 101.865 210.319 101.865 209.842 100.752L203.221 85.3036C200.765 79.5727 196.436 74.8453 190.944 71.8952L179.939 65.9848C178.972 65.4655 178.972 64.0788 179.939 63.5595L190.944 57.6491C196.436 54.699 200.765 49.9716 203.221 44.2407L209.842 28.7919Z" fill="url(#paint13_angular_8286_39091)" fill-opacity="0.7"/>
<circle cx="212.505" cy="62.5" r="47.5" stroke="url(#paint14_linear_8286_39091)" strokeWidth="7" strokeLinejoin="round"/>
<mask id="mask1_8286_39091" style="mask-type:alpha" maskUnits="userSpaceOnUse" x="-182" y="-11" width="791" height="584">
<path d="M294.813 510.031C302.874 549.689 331.828 577.282 359.486 571.661C387.143 566.04 403.03 529.333 394.969 489.675C386.909 450.016 274.085 3.44624 259.795 81.1577C223.985 101.483 286.753 470.372 294.813 510.031Z" fill="url(#paint15_linear_8286_39091)"/>
<path d="M179.684 495.127C176.817 533.668 196.149 566.523 222.864 568.51C249.579 570.498 273.56 540.866 276.427 502.325C279.295 463.784 280.328 87.8974 253.613 85.9099C226.898 83.9223 182.551 456.586 179.684 495.127Z" fill="url(#paint16_linear_8286_39091)"/>
<path d="M31.7859 472.838C17.0535 510.977 34.0149 553.06 69.6703 566.833C105.326 580.606 146.173 560.853 160.905 522.714C175.638 484.575 255.827 113.285 251.884 95.1191C220.015 101.019 46.5183 434.699 31.7859 472.838Z" fill="url(#paint17_linear_8286_39091)"/>
<path d="M404.746 465.295C421.716 501.955 454.635 522.804 478.274 511.862C501.913 500.919 507.319 462.331 490.35 425.67C473.38 389.01 279.636 -17.2178 250.062 -3.5286C223.306 8.85667 387.777 428.635 404.746 465.295Z" fill="url(#paint18_linear_8286_39091)"/>
<path d="M507.274 399.513C533.492 431.787 572.371 443.632 594.114 425.969C615.856 408.307 612.227 367.825 586.009 335.552C559.791 303.278 273.991 -27.4576 252.249 -9.79504C230.507 7.86751 481.056 367.24 507.274 399.513Z" fill="url(#paint19_linear_8286_39091)"/>
<path d="M-166.251 472.822C-151.701 483.84 -130.048 481.866 -109.17 469.819C-117.889 496.32 -113.491 522.639 -95.577 536.557C-70.478 556.058 -28.3509 543.833 -1.48335 509.252C25.3842 474.671 257.113 88.9776 238.855 105.574C230.976 99.4527 198.051 126.588 155.749 167.773L163.173 192.964C164.422 197.202 161.999 201.651 157.761 202.9C153.523 204.149 149.075 201.726 147.826 197.488L142.82 180.504C138.03 185.27 133.148 190.179 128.194 195.208C130.363 197.322 130.63 200.776 128.715 203.21C126.666 205.814 122.894 206.264 120.29 204.215L119.767 203.803C114.908 208.782 109.993 213.859 105.04 219.012L105.953 226.248C106.302 229.015 104.7 231.657 102.085 232.626C99.4708 233.595 96.5334 232.635 94.9955 230.309L94.6818 229.835C93.067 231.53 91.4495 233.231 89.8298 234.938C91.5228 237.228 91.3882 240.471 89.3657 242.616C87.3385 244.766 84.0993 245.087 81.712 243.52C79.7893 245.559 77.865 247.604 75.9402 249.653L80.6151 254.545C82.5228 256.542 82.4509 259.707 80.4544 261.615C78.4579 263.522 75.2929 263.451 73.3852 261.454L69.093 256.962C66.9499 259.255 64.8077 261.552 62.6678 263.852L63.4858 274.621C63.6103 276.26 62.9212 277.856 61.6428 278.889C60.3643 279.922 58.6598 280.261 57.0834 279.795L49.8663 277.663C45.2246 282.69 40.6072 287.712 36.0287 292.711L32.8709 306.355C32.2482 309.045 29.5625 310.721 26.8722 310.099C25.0861 309.685 23.747 308.362 23.2309 306.733C12.3339 318.714 1.7466 330.459 -8.32236 341.712C2.76367 325.057 14.6029 307.111 26.7363 288.511L31.6289 267.372C31.9396 266.03 32.7906 264.875 33.9809 264.181C35.1713 263.486 36.5953 263.314 37.9169 263.705L42.0497 264.926C45.2273 260.008 48.4117 255.064 51.595 250.105L50.5145 235.878C50.3545 233.772 51.5354 231.793 53.4648 230.933C55.3942 230.073 57.6558 230.518 59.1151 232.045L61.5307 234.573C62.8523 232.5 64.1724 230.425 65.4903 228.351L63.3841 226.365C60.973 224.092 60.8614 220.295 63.1346 217.884C65.4079 215.473 69.2052 215.361 71.6162 217.634L72.0327 218.027C74.4581 214.189 76.8727 210.356 79.273 206.534L74.4955 199.309C72.6676 196.545 73.4266 192.823 76.1906 190.995C78.9546 189.167 82.677 189.926 84.5048 192.69L86.2682 195.357C87.2945 193.711 88.3175 192.069 89.3368 190.429L87.5474 176.251C87.2426 173.836 88.4271 171.476 90.5458 170.277C92.6646 169.079 95.2975 169.279 97.2105 170.785L100.082 173.044C102.996 168.297 105.87 163.592 108.696 158.938L95.7707 160.189C91.373 160.615 87.4629 157.394 87.0373 152.997C86.6118 148.599 89.8318 144.689 94.2295 144.263L118.977 141.868C157.976 76.5625 184.816 24.798 176.5 18.5003C153.446 1.04265 -131.034 339.584 -158.416 375.742C-185.797 411.9 -189.305 455.365 -166.251 472.822Z" fill="url(#paint20_linear_8286_39091)"/>
<path fill-rule="evenodd" clip-rule="evenodd" d="M263.505 62.4995C263.505 90.6661 240.672 113.5 212.505 113.5C184.339 113.5 161.505 90.6661 161.505 62.4995C161.505 34.333 184.339 11.4996 212.505 11.4996C240.672 11.4996 263.505 34.333 263.505 62.4995ZM212.505 106.5C236.806 106.5 256.505 86.8001 256.505 62.4995C256.505 38.199 236.806 18.4996 212.505 18.4996C188.205 18.4996 168.505 38.199 168.505 62.4995C168.505 86.8001 188.205 106.5 212.505 106.5Z" fill="url(#paint21_linear_8286_39091)"/>
<path d="M209.842 28.7919C210.319 27.6796 211.896 27.6796 212.373 28.7919L218.993 44.2407C221.45 49.9716 225.778 54.699 231.271 57.6491L242.276 63.5595C243.243 64.0788 243.243 65.4655 242.276 65.9848L231.271 71.8952C225.778 74.8453 221.45 79.5727 218.993 85.3036L212.373 100.752C211.896 101.865 210.319 101.865 209.842 100.752L203.221 85.3036C200.765 79.5727 196.436 74.8453 190.944 71.8952L179.939 65.9848C178.972 65.4655 178.972 64.0788 179.939 63.5595L190.944 57.6491C196.436 54.699 200.765 49.9716 203.221 44.2407L209.842 28.7919Z" fill="url(#paint22_angular_8286_39091)"/>
<path d="M209.842 28.7919C210.319 27.6796 211.896 27.6796 212.373 28.7919L218.993 44.2407C221.45 49.9716 225.778 54.699 231.271 57.6491L242.276 63.5595C243.243 64.0788 243.243 65.4655 242.276 65.9848L231.271 71.8952C225.778 74.8453 221.45 79.5727 218.993 85.3036L212.373 100.752C211.896 101.865 210.319 101.865 209.842 100.752L203.221 85.3036C200.765 79.5727 196.436 74.8453 190.944 71.8952L179.939 65.9848C178.972 65.4655 178.972 64.0788 179.939 63.5595L190.944 57.6491C196.436 54.699 200.765 49.9716 203.221 44.2407L209.842 28.7919Z" fill="url(#paint23_angular_8286_39091)" fill-opacity="0.7"/>
<path d="M209.842 28.7919C210.319 27.6796 211.896 27.6796 212.373 28.7919L218.993 44.2407C221.45 49.9716 225.778 54.699 231.271 57.6491L242.276 63.5595C243.243 64.0788 243.243 65.4655 242.276 65.9848L231.271 71.8952C225.778 74.8453 221.45 79.5727 218.993 85.3036L212.373 100.752C211.896 101.865 210.319 101.865 209.842 100.752L203.221 85.3036C200.765 79.5727 196.436 74.8453 190.944 71.8952L179.939 65.9848C178.972 65.4655 178.972 64.0788 179.939 63.5595L190.944 57.6491C196.436 54.699 200.765 49.9716 203.221 44.2407L209.842 28.7919Z" fill="url(#paint24_angular_8286_39091)" fill-opacity="0.7"/>
<path d="M209.842 28.7919C210.319 27.6796 211.896 27.6796 212.373 28.7919L218.993 44.2407C221.45 49.9716 225.778 54.699 231.271 57.6491L242.276 63.5595C243.243 64.0788 243.243 65.4655 242.276 65.9848L231.271 71.8952C225.778 74.8453 221.45 79.5727 218.993 85.3036L212.373 100.752C211.896 101.865 210.319 101.865 209.842 100.752L203.221 85.3036C200.765 79.5727 196.436 74.8453 190.944 71.8952L179.939 65.9848C178.972 65.4655 178.972 64.0788 179.939 63.5595L190.944 57.6491C196.436 54.699 200.765 49.9716 203.221 44.2407L209.842 28.7919Z" fill="url(#paint25_angular_8286_39091)" fill-opacity="0.7"/>
<path fill-rule="evenodd" clip-rule="evenodd" d="M153.812 87.1171C156.91 84.8045 161.297 85.4412 163.609 88.5392L190.109 124.039C191.844 126.362 191.966 129.514 190.418 131.965C188.869 134.416 185.97 135.659 183.127 135.091L164.009 131.267L171.97 140.016C173.734 141.955 174.267 144.718 173.35 147.175C172.433 149.631 170.22 151.369 167.616 151.678L150.559 153.701L162.214 193.247C163.307 196.956 161.186 200.848 157.478 201.941C153.77 203.034 149.878 200.913 148.785 197.205L136.42 155.251L95.6744 159.194C91.8264 159.566 88.405 156.749 88.0327 152.901C87.6603 149.053 90.4778 145.631 94.3258 145.259L140.751 140.766L152.461 139.377L139.322 124.938C137.287 122.701 136.918 119.411 138.408 116.779C139.897 114.148 142.907 112.77 145.872 113.363L167.968 117.782L152.39 96.9139C150.078 93.8159 150.714 89.4297 153.812 87.1171Z" fill="url(#paint26_linear_8286_39091)"/>
<path fill-rule="evenodd" clip-rule="evenodd" d="M91.0381 171.148C92.8037 170.149 94.9978 170.316 96.5919 171.571L127.092 195.571C129.262 197.278 129.637 200.422 127.929 202.592C126.222 204.762 123.078 205.137 120.908 203.429L99.9869 186.967L104.961 226.374C105.252 228.679 103.916 230.881 101.738 231.688C99.5588 232.496 97.1111 231.696 95.8294 229.758L75.3294 198.758C73.8063 196.455 74.4387 193.353 76.742 191.829C79.0454 190.306 82.1474 190.939 83.6706 193.242L92.3576 206.379L88.5394 176.126C88.2854 174.114 89.2725 172.147 91.0381 171.148Z" fill="url(#paint27_linear_8286_39091)"/>
<path fill-rule="evenodd" clip-rule="evenodd" d="M53.8717 231.846C55.4152 231.159 57.2245 231.515 58.392 232.737L79.892 255.237C81.4182 256.834 81.3606 259.366 79.7634 260.892C78.1662 262.418 75.6343 262.361 74.108 260.763L60.3356 246.35L62.4885 274.697C62.5881 276.008 62.0369 277.285 61.0141 278.111C59.9914 278.938 58.6277 279.209 57.3666 278.836L39.4394 273.539L31.8965 306.129C31.3984 308.282 29.2498 309.623 27.0976 309.125C24.9453 308.626 23.6044 306.478 24.1025 304.326L32.603 267.598C32.8516 266.524 33.5324 265.6 34.4846 265.045C35.4369 264.489 36.5762 264.352 37.6334 264.664L54.0723 269.521L51.5115 235.803C51.3835 234.118 52.3282 232.534 53.8717 231.846Z" fill="url(#paint28_linear_8286_39091)"/>
<path fill-rule="evenodd" clip-rule="evenodd" d="M63.862 218.57C65.7564 216.561 68.9209 216.468 70.9301 218.362L88.4301 234.862C90.4392 236.756 90.5323 239.921 88.6379 241.93C86.7436 243.939 83.5791 244.032 81.5699 242.138L64.0699 225.638C62.0607 223.744 61.9677 220.579 63.862 218.57Z" fill="url(#paint29_linear_8286_39091)"/>
</mask>
<g mask="url(#mask1_8286_39091)">
<rect x="-56" y="-73" width="540" height="540" fill="url(#paint30_linear_8286_39091)" fill-opacity="0.85" style="mix-blend-mode:overlay"/>
</g>
</g>
</g>
<defs>
<filter id="filter0_b_8286_39091" x="-29.6" y="-29.6" width="487.2" height="487.2" filterUnits="userSpaceOnUse" color-interpolation-filters="sRGB">
<feFlood flood-opacity="0" result="BackgroundImageFix"/>
<feGaussianBlur in="BackgroundImageFix" stdDeviation="14.8"/>
<feComposite in2="SourceAlpha" operator="in" result="effect1_backgroundBlur_8286_39091"/>
<feBlend mode="normal" in="SourceGraphic" in2="effect1_backgroundBlur_8286_39091" result="shape"/>
</filter>
<linearGradient id="paint0_linear_8286_39091" x1="393.206" y1="524.182" x2="259.34" y2="535.37" gradientUnits="userSpaceOnUse">
<stop stop-color="#FFF8FB"/>
<stop offset="0.5" stop-color="#E0D2C8"/>
<stop offset="1" stop-color="#A98E7B"/>
</linearGradient>
<linearGradient id="paint1_linear_8286_39091" x1="264.963" y1="533.675" x2="141.056" y2="509.854" gradientUnits="userSpaceOnUse">
<stop stop-color="#FFF8FB"/>
<stop offset="0.5" stop-color="#E0D2C8"/>
<stop offset="1" stop-color="#A98E7B"/>
</linearGradient>
<linearGradient id="paint2_linear_8286_39091" x1="135.953" y1="549.989" x2="-18.3733" y2="460.543" gradientUnits="userSpaceOnUse">
<stop stop-color="#FFF8FB"/>
<stop offset="0.5" stop-color="#E0D2C8"/>
<stop offset="1" stop-color="#A98E7B"/>
</linearGradient>
<linearGradient id="paint3_linear_8286_39091" x1="495.334" y1="455.337" x2="378.032" y2="496.285" gradientUnits="userSpaceOnUse">
<stop stop-color="#FFF8FB"/>
<stop offset="0.5" stop-color="#E0D2C8"/>
<stop offset="1" stop-color="#A98E7B"/>
</linearGradient>
<linearGradient id="paint4_linear_8286_39091" x1="599.513" y1="365.715" x2="487.524" y2="438.355" gradientUnits="userSpaceOnUse">
<stop stop-color="#FFF8FB"/>
<stop offset="0.5" stop-color="#E0D2C8"/>
<stop offset="1" stop-color="#A98E7B"/>
</linearGradient>
<linearGradient id="paint5_linear_8286_39091" x1="552" y1="-107.5" x2="-215.2" y2="-16.3201" gradientUnits="userSpaceOnUse">
<stop stop-color="#FFF8FB"/>
<stop offset="0.5" stop-color="#E0D2C8"/>
<stop offset="1" stop-color="#A98E7B"/>
</linearGradient>
<linearGradient id="paint6_linear_8286_39091" x1="132.5" y1="211" x2="238.395" y2="108.959" gradientUnits="userSpaceOnUse">
<stop stop-color="#FFF8FB"/>
<stop offset="0.5" stop-color="#E0D2C8"/>
<stop offset="1" stop-color="#A98E7B"/>
</linearGradient>
<linearGradient id="paint7_linear_8286_39091" x1="75" y1="246.5" x2="151.28" y2="214.799" gradientUnits="userSpaceOnUse">
<stop stop-color="#FFF8FB"/>
<stop offset="0.5" stop-color="#E0D2C8"/>
<stop offset="1" stop-color="#A98E7B"/>
</linearGradient>
<linearGradient id="paint8_linear_8286_39091" x1="43.9995" y1="181.5" x2="-7.30372" y2="310.56" gradientUnits="userSpaceOnUse">
<stop stop-color="#FFF8FB"/>
<stop offset="0.5" stop-color="#E0D2C8"/>
<stop offset="1" stop-color="#A98E7B"/>
</linearGradient>
<linearGradient id="paint9_linear_8286_39091" x1="57.9995" y1="170.5" x2="37.5073" y2="264.44" gradientUnits="userSpaceOnUse">
<stop stop-color="#FFF8FB"/>
<stop offset="0.5" stop-color="#E0D2C8"/>
<stop offset="1" stop-color="#A98E7B"/>
</linearGradient>
<radialGradient id="paint10_angular_8286_39091" cx="0" cy="0" r="1" gradientUnits="userSpaceOnUse" gradientTransform="translate(211 65) scale(32.5 78.6041)">
<stop stop-color="#FFF8FB"/>
<stop offset="0.5" stop-color="#E0D2C8"/>
<stop offset="1" stop-color="#A98E7B"/>
</radialGradient>
<radialGradient id="paint11_angular_8286_39091" cx="0" cy="0" r="1" gradientUnits="userSpaceOnUse" gradientTransform="translate(211 65) rotate(-180) scale(33 11.2015)">
<stop stop-color="#FFF8FB"/>
<stop offset="0.5" stop-color="#E0D2C8"/>
<stop offset="1" stop-color="#A98E7B"/>
</radialGradient>
<radialGradient id="paint12_angular_8286_39091" cx="0" cy="0" r="1" gradientUnits="userSpaceOnUse" gradientTransform="translate(211 65) rotate(90) scale(36 12.2199)">
<stop stop-color="#FFF8FB"/>
<stop offset="0.5" stop-color="#E0D2C8"/>
<stop offset="1" stop-color="#A98E7B"/>
</radialGradient>
<radialGradient id="paint13_angular_8286_39091" cx="0" cy="0" r="1" gradientUnits="userSpaceOnUse" gradientTransform="translate(211 65) rotate(-90) scale(37.5 3.27537)">
<stop stop-color="#FFF8FB"/>
<stop offset="0.344772" stop-color="#E0D2C8"/>
<stop offset="1" stop-color="#A98E7B"/>
</radialGradient>
<linearGradient id="paint14_linear_8286_39091" x1="112.5" y1="221" x2="310.445" y2="100.771" gradientUnits="userSpaceOnUse">
<stop stop-color="#FFF8FB"/>
<stop offset="0.5" stop-color="#E0D2C8"/>
<stop offset="1" stop-color="#A98E7B"/>
</linearGradient>
<linearGradient id="paint15_linear_8286_39091" x1="112.5" y1="221" x2="310.445" y2="100.771" gradientUnits="userSpaceOnUse">
<stop stop-color="#FFF8FB"/>
<stop offset="0.5" stop-color="#E0D2C8"/>
<stop offset="1" stop-color="#A98E7B"/>
</linearGradient>
<linearGradient id="paint16_linear_8286_39091" x1="57.9995" y1="170.5" x2="37.5073" y2="264.44" gradientUnits="userSpaceOnUse">
<stop stop-color="#FFF8FB"/>
<stop offset="0.5" stop-color="#E0D2C8"/>
<stop offset="1" stop-color="#A98E7B"/>
</linearGradient>
<linearGradient id="paint17_linear_8286_39091" x1="57.9995" y1="170.5" x2="37.5073" y2="264.44" gradientUnits="userSpaceOnUse">
<stop stop-color="#FFF8FB"/>
<stop offset="0.5" stop-color="#E0D2C8"/>
<stop offset="1" stop-color="#A98E7B"/>
</linearGradient>
<linearGradient id="paint18_linear_8286_39091" x1="112.5" y1="221" x2="310.445" y2="100.771" gradientUnits="userSpaceOnUse">
<stop stop-color="#FFF8FB"/>
<stop offset="0.5" stop-color="#E0D2C8"/>
<stop offset="1" stop-color="#A98E7B"/>
</linearGradient>
<linearGradient id="paint19_linear_8286_39091" x1="57.9995" y1="170.5" x2="37.5073" y2="264.44" gradientUnits="userSpaceOnUse">
<stop stop-color="#FFF8FB"/>
<stop offset="0.5" stop-color="#E0D2C8"/>
<stop offset="1" stop-color="#A98E7B"/>
</linearGradient>
<linearGradient id="paint20_linear_8286_39091" x1="1193.35" y1="-148.854" x2="-207.93" y2="133.917" gradientUnits="userSpaceOnUse">
<stop stop-color="#FFF8FB"/>
<stop offset="0.5" stop-color="#E0D2C8"/>
<stop offset="1" stop-color="#A98E7B"/>
</linearGradient>
<linearGradient id="paint21_linear_8286_39091" x1="112.5" y1="221" x2="310.445" y2="100.771" gradientUnits="userSpaceOnUse">
<stop stop-color="#FFF8FB"/>
<stop offset="0.5" stop-color="#E0D2C8"/>
<stop offset="1" stop-color="#A98E7B"/>
</linearGradient>
<radialGradient id="paint22_angular_8286_39091" cx="0" cy="0" r="1" gradientUnits="userSpaceOnUse" gradientTransform="translate(214.636 283.465) rotate(-36.427) scale(409.706 946.871)">
<stop stop-color="#FFF8FB"/>
<stop offset="0.5" stop-color="#E0D2C8"/>
<stop offset="1" stop-color="#A98E7B"/>
</radialGradient>
<radialGradient id="paint23_angular_8286_39091" cx="0" cy="0" r="1" gradientUnits="userSpaceOnUse" gradientTransform="translate(214.636 283.465) rotate(143.573) scale(416.009 134.935)">
<stop stop-color="#FFF8FB"/>
<stop offset="0.5" stop-color="#E0D2C8"/>
<stop offset="1" stop-color="#A98E7B"/>
</radialGradient>
<radialGradient id="paint24_angular_8286_39091" cx="0" cy="0" r="1" gradientUnits="userSpaceOnUse" gradientTransform="translate(214.636 283.465) rotate(36.427) scale(453.828 147.201)">
<stop stop-color="#FFF8FB"/>
<stop offset="0.5" stop-color="#E0D2C8"/>
<stop offset="1" stop-color="#A98E7B"/>
</radialGradient>
<radialGradient id="paint25_angular_8286_39091" cx="0" cy="0" r="1" gradientUnits="userSpaceOnUse" gradientTransform="translate(214.636 283.465) rotate(-143.573) scale(472.738 39.4554)">
<stop stop-color="#FFF8FB"/>
<stop offset="0.344772" stop-color="#E0D2C8"/>
<stop offset="1" stop-color="#A98E7B"/>
</radialGradient>
<linearGradient id="paint26_linear_8286_39091" x1="466.165" y1="674.177" x2="556.261" y2="-189.321" gradientUnits="userSpaceOnUse">
<stop stop-color="#FFF8FB"/>
<stop offset="0.5" stop-color="#E0D2C8"/>
<stop offset="1" stop-color="#A98E7B"/>
</linearGradient>
<linearGradient id="paint27_linear_8286_39091" x1="-174.232" y1="709.805" x2="749.215" y2="123.002" gradientUnits="userSpaceOnUse">
<stop stop-color="#FFF8FB"/>
<stop offset="0.5" stop-color="#E0D2C8"/>
<stop offset="1" stop-color="#A98E7B"/>
</linearGradient>
<linearGradient id="paint28_linear_8286_39091" x1="95.643" y1="-385.413" x2="-134.795" y2="685.722" gradientUnits="userSpaceOnUse">
<stop stop-color="#FFF8FB"/>
<stop offset="0.5" stop-color="#E0D2C8"/>
<stop offset="1" stop-color="#A98E7B"/>
</linearGradient>
<linearGradient id="paint29_linear_8286_39091" x1="57.9995" y1="170.5" x2="37.5073" y2="264.44" gradientUnits="userSpaceOnUse">
<stop stop-color="#FFF8FB"/>
<stop offset="0.5" stop-color="#E0D2C8"/>
<stop offset="1" stop-color="#A98E7B"/>
</linearGradient>
<linearGradient id="paint30_linear_8286_39091" x1="-28.5" y1="730" x2="688.95" y2="203.285" gradientUnits="userSpaceOnUse">
<stop stop-color="#FFC300"/>
<stop offset="0.451444" stop-color="#5A58F2"/>
<stop offset="1" stop-color="#FF3E80"/>
</linearGradient>
<clipPath id="clip0_8286_39091">
<rect width="428" height="428" fill="white"/>
</clipPath>
</defs>
</svg>
