<svg width="20" height="18" viewBox="0 0 20 18" fill="none" xmlns="http://www.w3.org/2000/svg">
<path d="M2.81006 17.8135C2.28434 17.8135 1.83285 17.7021 1.45557 17.4795C1.07829 17.2568 0.787598 16.9538 0.583496 16.5703C0.379395 16.193 0.277344 15.7694 0.277344 15.2993C0.277344 14.8478 0.397949 14.4149 0.63916 14.0005L7.83838 1.45752C8.0734 1.03695 8.38574 0.721517 8.77539 0.51123C9.16504 0.294759 9.57324 0.186523 10 0.186523C10.4268 0.186523 10.8319 0.294759 11.2153 0.51123C11.605 0.721517 11.9204 1.03695 12.1616 1.45752L19.3608 14.0005C19.4784 14.2046 19.568 14.418 19.6299 14.6406C19.6917 14.8633 19.7227 15.0828 19.7227 15.2993C19.7227 15.7694 19.6206 16.193 19.4165 16.5703C19.2124 16.9538 18.9217 17.2568 18.5444 17.4795C18.1672 17.7021 17.7157 17.8135 17.1899 17.8135H2.81006ZM2.81934 16.3569H17.1714C17.493 16.3569 17.7466 16.2487 17.9321 16.0322C18.1239 15.8219 18.2197 15.5745 18.2197 15.29C18.2197 15.0921 18.1702 14.8973 18.0713 14.7056L10.8813 2.1626C10.7824 1.98942 10.6525 1.86572 10.4917 1.7915C10.3371 1.7111 10.1732 1.6709 10 1.6709C9.82682 1.6709 9.65983 1.7111 9.49902 1.7915C9.33822 1.86572 9.20833 1.98942 9.10938 2.1626L1.91943 14.6963C1.86995 14.7952 1.83285 14.8973 1.80811 15.0024C1.78955 15.1076 1.78027 15.2035 1.78027 15.29C1.78027 15.5745 1.87305 15.8219 2.05859 16.0322C2.24414 16.2487 2.49772 16.3569 2.81934 16.3569ZM10 11.5513C9.52376 11.5513 9.27946 11.307 9.26709 10.8184L9.14648 5.91064C9.1403 5.67562 9.21452 5.48079 9.36914 5.32617C9.52995 5.17155 9.73714 5.09424 9.99072 5.09424C10.2381 5.09424 10.4422 5.17464 10.603 5.33545C10.77 5.49007 10.8504 5.6849 10.8442 5.91992L10.7051 10.8184C10.6989 11.307 10.4639 11.5513 10 11.5513ZM10 14.5664C9.72786 14.5664 9.49284 14.4736 9.29492 14.2881C9.097 14.0964 8.99805 13.8675 8.99805 13.6016C8.99805 13.3356 9.097 13.1099 9.29492 12.9243C9.49284 12.7326 9.72786 12.6367 10 12.6367C10.2721 12.6367 10.5072 12.7295 10.7051 12.915C10.903 13.1006 11.002 13.3294 11.002 13.6016C11.002 13.8737 10.8999 14.1025 10.6958 14.2881C10.4979 14.4736 10.266 14.5664 10 14.5664Z" fill="#FFC300"/>
</svg>
