<svg width="16" height="16" viewBox="0 0 16 16" fill="none" xmlns="http://www.w3.org/2000/svg">
<g id="icon/repeat" clip-path="url(#clip0_1652_5577)">
<path id="vector" fill-rule="evenodd" clip-rule="evenodd" d="M10.8621 0.195262C11.1224 -0.0650874 11.5446 -0.0650874 11.8049 0.195262L14.4716 2.86193C14.7319 3.12228 14.7319 3.54439 14.4716 3.80474L11.8049 6.4714C11.5446 6.73175 11.1224 6.73175 10.8621 6.4714C10.6017 6.21105 10.6017 5.78894 10.8621 5.5286L12.3907 4H4.66683C4.1364 4 3.62769 4.21071 3.25262 4.58579C2.87754 4.96086 2.66683 5.46957 2.66683 6V7.33333C2.66683 7.70152 2.36835 8 2.00016 8C1.63197 8 1.3335 7.70152 1.3335 7.33333V6C1.3335 5.11594 1.68469 4.2681 2.30981 3.64298C2.93493 3.01786 3.78277 2.66667 4.66683 2.66667H12.3907L10.8621 1.13807C10.6017 0.877722 10.6017 0.455612 10.8621 0.195262ZM13.3335 10V8.66667C13.3335 8.29848 13.632 8 14.0002 8C14.3684 8 14.6668 8.29848 14.6668 8.66667V10C14.6668 10.8841 14.3156 11.7319 13.6905 12.357C13.0654 12.9821 12.2176 13.3333 11.3335 13.3333H3.60964L5.13823 14.8619C5.39858 15.1223 5.39858 15.5444 5.13823 15.8047C4.87788 16.0651 4.45577 16.0651 4.19542 15.8047L1.52876 13.1381C1.26841 12.8777 1.26841 12.4556 1.52876 12.1953L4.19542 9.52859C4.45577 9.26824 4.87788 9.26824 5.13823 9.52859C5.39858 9.78894 5.39858 10.2111 5.13823 10.4714L3.60964 12H11.3335C11.8639 12 12.3726 11.7893 12.7477 11.4142C13.1228 11.0391 13.3335 10.5304 13.3335 10Z" fill="#5A58F2"/>
</g>
<defs>
<clipPath id="clip0_1652_5577">
<rect width="16" height="16" fill="white"/>
</clipPath>
</defs>
</svg>
