<svg width="280" height="497" viewBox="0 0 280 497" fill="none" xmlns="http://www.w3.org/2000/svg">
<path d="M0 0H280V497H0V0Z" fill="black"/>
<rect y="337" width="280" height="160" fill="#00F942"/>
<path d="M0 8H93V28H0V8Z" fill="#00F942"/>
<path d="M76.4167 69V61.92H80.7467V62.52H77.0767V65.04H80.5167V65.64H77.0767V68.4H80.9067V69H76.4167ZM82.3744 69V65.68C82.3744 65.34 82.3244 64.62 82.3244 64.38H82.9244C82.9344 64.72 82.9444 65.1 82.9644 65.19H82.9944C83.2344 64.68 83.8244 64.26 84.5744 64.26C85.1844 64.26 85.7444 64.56 85.9644 65.26C86.2544 64.57 86.8944 64.26 87.5344 64.26C88.9744 64.26 89.2944 65.24 89.2944 66.25V69H88.6944V66.28C88.6944 65.53 88.4844 64.8 87.5344 64.8C86.4244 64.8 86.1344 65.74 86.1344 66.4V69H85.5344V66.22C85.5344 65.37 85.2244 64.8 84.5744 64.8C83.6844 64.8 82.9744 65.42 82.9744 66.69V69H82.3744ZM90.96 71.28V64.38H91.56V65.19H91.58C91.95 64.55 92.74 64.26 93.43 64.26C94.85 64.26 95.86 65.28 95.86 66.69C95.86 68.1 94.85 69.12 93.43 69.12C92.74 69.12 91.95 68.83 91.58 68.19H91.56V71.28H90.96ZM91.5 66.69C91.5 67.73 92.34 68.58 93.43 68.58C94.56 68.58 95.26 67.73 95.26 66.69C95.26 65.65 94.56 64.8 93.43 64.8C92.34 64.8 91.5 65.65 91.5 66.69ZM97.1433 66.69C97.1433 65.28 98.1533 64.26 99.5733 64.26C100.993 64.26 102.003 65.28 102.003 66.69C102.003 68.1 100.993 69.12 99.5733 69.12C98.1533 69.12 97.1433 68.1 97.1433 66.69ZM97.7433 66.69C97.7433 67.73 98.4433 68.58 99.5733 68.58C100.703 68.58 101.403 67.73 101.403 66.69C101.403 65.65 100.703 64.8 99.5733 64.8C98.4433 64.8 97.7433 65.65 97.7433 66.69ZM104.341 69L102.891 64.38H103.551L104.671 68.25H104.691L105.981 64.38H106.551L107.921 68.25H107.941L109.031 64.38H109.631L108.271 69H107.651L106.271 65.22H106.251L104.961 69H104.341ZM114.422 67.76L114.862 68.13C114.392 68.83 113.682 69.12 112.862 69.12C111.452 69.12 110.522 68.11 110.522 66.68C110.522 65.3 111.482 64.26 112.832 64.26C114.252 64.26 115.002 65.35 115.002 66.42V66.84H111.122C111.122 67.34 111.472 68.58 112.872 68.58C113.482 68.58 114.122 68.26 114.422 67.76ZM111.122 66.3H114.402C114.402 65.48 113.692 64.8 112.802 64.8C111.492 64.8 111.122 66.06 111.122 66.3ZM116.538 69V65.68C116.538 65.34 116.488 64.62 116.488 64.38H117.088C117.098 64.72 117.108 65.1 117.128 65.19C117.428 64.65 117.908 64.26 118.598 64.26C118.718 64.26 118.828 64.28 118.948 64.31L118.878 64.9C118.788 64.87 118.708 64.86 118.648 64.86C117.608 64.86 117.138 65.58 117.138 66.48V69H116.538ZM124.676 69L122.036 61.92H122.746L125.026 68.13L127.326 61.92H128.026L125.336 69H124.676ZM132.037 65.93V67.06C132.037 67.96 132.057 68.47 132.127 69H131.567C131.527 68.77 131.507 68.51 131.507 68.25H131.487C131.147 68.84 130.647 69.12 129.867 69.12C129.077 69.12 128.237 68.73 128.237 67.75C128.237 66.34 129.887 66.2 130.797 66.2H131.497V65.92C131.497 65.12 130.937 64.8 130.197 64.8C129.657 64.8 129.197 64.97 128.787 65.32L128.437 64.91C128.877 64.49 129.597 64.26 130.197 64.26C131.317 64.26 132.037 64.76 132.037 65.93ZM131.497 66.68H130.837C129.837 66.68 128.837 66.93 128.837 67.72C128.837 68.29 129.387 68.58 129.887 68.58C131.167 68.58 131.497 67.76 131.497 66.99V66.68ZM133.933 69V61.44H134.533V69H133.933ZM140.345 64.38V67.7C140.345 68.04 140.395 68.76 140.395 69H139.795C139.785 68.66 139.775 68.28 139.755 68.19H139.725C139.485 68.7 138.895 69.12 138.145 69.12C136.705 69.12 136.385 68.14 136.385 67.13V64.38H136.985V67.1C136.985 67.85 137.195 68.58 138.145 68.58C139.035 68.58 139.745 67.96 139.745 66.69V64.38H140.345ZM145.782 65.93V67.06C145.782 67.96 145.802 68.47 145.872 69H145.312C145.272 68.77 145.252 68.51 145.252 68.25H145.232C144.892 68.84 144.392 69.12 143.612 69.12C142.822 69.12 141.982 68.73 141.982 67.75C141.982 66.34 143.632 66.2 144.542 66.2H145.242V65.92C145.242 65.12 144.682 64.8 143.942 64.8C143.402 64.8 142.942 64.97 142.532 65.32L142.182 64.91C142.622 64.49 143.342 64.26 143.942 64.26C145.062 64.26 145.782 64.76 145.782 65.93ZM145.242 66.68H144.582C143.582 66.68 142.582 66.93 142.582 67.72C142.582 68.29 143.132 68.58 143.632 68.58C144.912 68.58 145.242 67.76 145.242 66.99V66.68ZM147.447 69V61.44H148.047V65.19H148.067C148.437 64.55 149.227 64.26 149.917 64.26C151.337 64.26 152.347 65.28 152.347 66.69C152.347 68.1 151.337 69.12 149.917 69.12C149.227 69.12 148.437 68.83 148.067 68.19H148.047V69H147.447ZM147.987 66.69C147.987 67.73 148.827 68.58 149.917 68.58C151.047 68.58 151.747 67.73 151.747 66.69C151.747 65.65 151.047 64.8 149.917 64.8C148.827 64.8 147.987 65.65 147.987 66.69ZM153.99 69V61.44H154.59V69H153.99ZM160.133 67.76L160.573 68.13C160.103 68.83 159.393 69.12 158.573 69.12C157.163 69.12 156.233 68.11 156.233 66.68C156.233 65.3 157.193 64.26 158.543 64.26C159.963 64.26 160.713 65.35 160.713 66.42V66.84H156.833C156.833 67.34 157.183 68.58 158.583 68.58C159.193 68.58 159.833 68.26 160.133 67.76ZM156.833 66.3H160.113C160.113 65.48 159.403 64.8 158.513 64.8C157.203 64.8 156.833 66.06 156.833 66.3ZM170.507 67.48L171.047 67.89C170.377 68.81 169.457 69.18 168.417 69.18C166.257 69.18 164.757 67.62 164.757 65.46C164.757 63.3 166.257 61.74 168.417 61.74C169.377 61.74 170.237 62.06 170.857 62.85L170.317 63.3C169.877 62.64 169.127 62.34 168.417 62.34C166.567 62.34 165.417 63.7 165.417 65.46C165.417 67.22 166.567 68.58 168.417 68.58C169.127 68.58 170.007 68.24 170.507 67.48ZM172.028 66.69C172.028 65.28 173.038 64.26 174.458 64.26C175.878 64.26 176.888 65.28 176.888 66.69C176.888 68.1 175.878 69.12 174.458 69.12C173.038 69.12 172.028 68.1 172.028 66.69ZM172.628 66.69C172.628 67.73 173.328 68.58 174.458 68.58C175.588 68.58 176.288 67.73 176.288 66.69C176.288 65.65 175.588 64.8 174.458 64.8C173.328 64.8 172.628 65.65 172.628 66.69ZM178.426 69V65.68C178.426 65.34 178.376 64.62 178.376 64.38H178.976C178.986 64.72 178.996 65.1 179.016 65.19H179.046C179.286 64.68 179.876 64.26 180.626 64.26C182.066 64.26 182.386 65.24 182.386 66.25V69H181.786V66.28C181.786 65.53 181.576 64.8 180.626 64.8C179.736 64.8 179.026 65.42 179.026 66.69V69H178.426ZM186.442 64.38V64.92H185.122V67.93C185.122 68.34 185.362 68.58 185.762 68.58C185.992 68.58 186.232 68.51 186.442 68.42L186.492 68.96C186.272 69.04 185.942 69.12 185.712 69.12C184.852 69.12 184.522 68.59 184.522 67.93V64.92H183.522V64.38H184.522V63.05H185.122V64.38H186.442ZM191.352 67.76L191.792 68.13C191.322 68.83 190.612 69.12 189.792 69.12C188.382 69.12 187.452 68.11 187.452 66.68C187.452 65.3 188.412 64.26 189.762 64.26C191.182 64.26 191.932 65.35 191.932 66.42V66.84H188.052C188.052 67.34 188.402 68.58 189.802 68.58C190.412 68.58 191.052 68.26 191.352 67.76ZM188.052 66.3H191.332C191.332 65.48 190.622 64.8 189.732 64.8C188.422 64.8 188.052 66.06 188.052 66.3ZM193.469 69V65.68C193.469 65.34 193.419 64.62 193.419 64.38H194.019C194.029 64.72 194.039 65.1 194.059 65.19H194.089C194.329 64.68 194.919 64.26 195.669 64.26C197.109 64.26 197.429 65.24 197.429 66.25V69H196.829V66.28C196.829 65.53 196.619 64.8 195.669 64.8C194.779 64.8 194.069 65.42 194.069 66.69V69H193.469ZM201.486 64.38V64.92H200.166V67.93C200.166 68.34 200.406 68.58 200.806 68.58C201.036 68.58 201.276 68.51 201.486 68.42L201.536 68.96C201.316 69.04 200.986 69.12 200.756 69.12C199.896 69.12 199.566 68.59 199.566 67.93V64.92H198.566V64.38H199.566V63.05H200.166V64.38H201.486ZM202.776 68.58C202.776 68.31 202.986 68.1 203.256 68.1C203.526 68.1 203.736 68.31 203.736 68.58C203.736 68.85 203.526 69.06 203.256 69.06C202.986 69.06 202.776 68.85 202.776 68.58Z" fill="white"/>
<g clip-path="url(#clip0_6710_33632)">
<path d="M52.4745 328.911L42.9309 331.148L47.2226 345.925C47.2226 345.925 61.3116 360.672 62.5466 361.001C63.7815 361.33 85.4558 368.637 86.5827 368.226C87.7096 367.816 101.331 366.759 103.091 366.266C104.851 365.772 111.897 362.661 111.193 361.67C110.002 359.997 112.36 358.415 109.405 356.294C105.776 353.688 94.6204 345.341 87.8965 343.446C81.1726 341.552 70.7355 340.175 64.6037 335.699C58.4719 331.222 52.4703 328.91 52.4703 328.91L52.4745 328.911Z" fill="black"/>
<path d="M46.925 329.148C47.5854 329.156 40.504 333.73 47.9858 340.344C47.9674 344.118 47.809 344.181 48.8563 345.955C49.7097 347.403 56.3625 353.984 60.8295 353.841C63.7098 357.355 66.3468 359.661 72.1881 362.363C84.9632 367.411 86.4729 362.163 90.7533 363.334C92.9906 363.947 101.873 366.21 104.613 362.911C107.971 360.818 108.765 360.47 109.558 355.391C114.262 361.517 110.763 368.48 90.6909 370.927C83.8411 369.959 81.0983 369.322 81.0983 369.322C81.0983 369.322 75.9158 371.896 69.9029 369.971C63.8885 368.044 60.3226 361.66 60.3226 361.66C60.3226 361.66 55.5122 362.022 50.1221 355.944C44.7326 349.864 48.3248 349.859 45.8648 344.793C43.4027 339.727 34.3256 328.999 46.9244 329.15L46.925 329.148Z" fill="#00F942"/>
<path d="M88.3218 327.067C86.1642 326.298 75.0314 318.486 50.9084 325.328C42.7258 329.096 44.1997 337.884 49.0377 339.785C50.0081 346.453 48.5162 348.039 63.1836 353.174C72.7577 361.373 78.128 363.568 90.1527 361.435C98.2032 363.887 101.988 364.592 103.851 362.189C108.375 361.259 113.231 355.075 107.327 345.719C101.424 336.362 99.5739 331.08 88.3239 327.067L88.3218 327.067Z" fill="#00F942"/>
<path d="M62.5343 337.117C62.5343 337.117 60.883 336.993 54.0251 340.392" stroke="black" stroke-miterlimit="10"/>
<path d="M89.6455 349.763C89.6455 349.763 90.8858 351.411 91.5846 357.194" stroke="black" stroke-miterlimit="10"/>
<path d="M101.114 336.351C101.114 336.351 90.7629 340.589 81.6313 336.877C72.4998 333.164 68.0476 322.904 68.0476 322.904C68.0476 322.904 78.3991 318.666 87.5307 322.379C96.6622 326.091 101.114 336.351 101.114 336.351Z" fill="#00F942"/>
<path d="M100.917 337.092C100.917 337.092 90.5651 341.33 81.4336 337.618C72.3021 333.906 67.8499 323.646 67.8499 323.646C67.8499 323.646 78.2014 319.408 87.3329 323.12C96.4644 326.832 100.917 337.092 100.917 337.092Z" fill="white"/>
<mask id="mask0_6710_33632" style="mask-type:luminance" maskUnits="userSpaceOnUse" x="67" y="321" width="34" height="19">
<path d="M100.917 337.092C100.917 337.092 90.5651 341.33 81.4336 337.618C72.3021 333.906 67.8499 323.646 67.8499 323.646C67.8499 323.646 78.2014 319.408 87.3329 323.12C96.4644 326.832 100.917 337.092 100.917 337.092Z" fill="white"/>
</mask>
<g mask="url(#mask0_6710_33632)">
<path d="M87.8991 329.922C90.4582 330.605 93.0855 329.085 93.7675 326.528C94.4495 323.971 92.9279 321.345 90.3689 320.663C87.8099 319.98 85.1825 321.5 84.5005 324.057C83.8185 326.614 85.3401 329.24 87.8991 329.922Z" fill="black"/>
</g>
</g>
<g clip-path="url(#clip1_6710_33632)">
<path d="M246.98 349.446L248.436 353.443C249.259 355.706 248.783 358.237 247.193 360.045L244.383 363.24C242.964 361.138 242.34 358.498 242.846 355.81C243.353 353.121 244.894 350.889 246.98 349.447L246.98 349.446Z" fill="black"/>
<path d="M256.868 353.437C254.606 354.26 252.074 353.783 250.266 352.194L247.072 349.384C249.174 347.965 251.813 347.341 254.502 347.847C257.191 348.353 259.423 349.894 260.866 351.981L256.868 353.437Z" fill="black"/>
<path d="M256.874 361.868C256.051 359.606 256.528 357.074 258.118 355.266L260.928 352.072C262.347 354.174 262.971 356.813 262.464 359.503C261.958 362.193 260.417 364.424 258.33 365.866L256.874 361.868Z" fill="black"/>
<path d="M248.443 361.874C250.706 361.051 253.237 361.528 255.045 363.118L258.24 365.928C256.137 367.347 253.498 367.971 250.809 367.464C248.121 366.958 245.889 365.417 244.447 363.331L248.444 361.875L248.443 361.874Z" fill="black"/>
</g>
<path d="M45.1667 376.5C45.1667 377.236 45.7636 377.833 46.5 377.833C47.2364 377.833 47.8333 377.236 47.8333 376.5C47.8333 375.764 47.2364 375.167 46.5 375.167C45.7636 375.167 45.1667 375.764 45.1667 376.5ZM68 366L66.1528 368.218L68.9976 368.709L68 366ZM46.2686 376.595C47.3647 379.274 49.0524 381.127 51.0358 382.13C53.0199 383.133 55.2808 383.275 57.5007 382.567C61.9383 381.15 66.1843 376.351 67.8624 368.269L67.3728 368.167C65.718 376.138 61.5596 380.746 57.3487 382.09C55.2444 382.762 53.1201 382.623 51.2614 381.684C49.4022 380.744 47.7896 378.992 46.7314 376.405L46.2686 376.595Z" fill="black"/>
<path d="M92.8922 367.725C92.1884 367.508 91.4423 367.903 91.2257 368.607C91.0091 369.311 91.4041 370.057 92.1079 370.274C92.8117 370.49 93.5579 370.095 93.7744 369.391C93.991 368.688 93.596 367.941 92.8922 367.725ZM96.9999 398.999L98.8478 396.782L96.0032 396.29L96.9999 398.999ZM92.2765 369.111C94.6108 373.781 98.6979 385.469 97.1356 396.746L97.6308 396.815C99.2123 385.4 95.0823 373.606 92.7237 368.887L92.2765 369.111Z" fill="black"/>
<path d="M13.5841 382.781C13.5841 382.781 15.4846 365.475 26.2606 376.648C37.0366 387.821 29.1704 389.1 26.143 386.147C23.1156 383.194 20.5118 378.761 20.5118 378.761" stroke="black" stroke-width="0.5" stroke-miterlimit="10" stroke-linecap="round"/>
<path d="M22.9469 373.892C22.9469 373.892 36.0749 358.918 41.1625 363.061C46.2502 367.203 30.9422 379.853 29.2337 378.49C27.5251 377.127 35.0986 370.603 38.4159 374.149C41.7332 377.695 35.3076 385.427 33.4987 384.226C31.6899 383.025 38.3579 375.846 42.842 380.291C47.0756 384.486 37.2298 389.585 36.8323 388.28C36.2064 386.232 42.1811 380.298 42.1811 380.298" stroke="black" stroke-width="0.5" stroke-miterlimit="10" stroke-linecap="round"/>
<path d="M29.29 380.142C29.29 380.142 27.4849 384.134 30.5761 387.303" stroke="black" stroke-width="0.5" stroke-miterlimit="10" stroke-linecap="round"/>
<path d="M35.2742 363.424C35.2742 363.424 37.3419 366.309 41.5703 363.462" stroke="black" stroke-width="0.5" stroke-miterlimit="10" stroke-linecap="round"/>
<path d="M241.5 365.999L238.766 366.927L240.936 368.831L241.5 365.999ZM168.489 375.915L168.272 376.038L168.272 376.038L168.489 375.915ZM192.019 364.552L191.781 364.629L191.786 364.644L191.793 364.659L192.019 364.552ZM116.807 359.764C116.953 359.042 116.486 358.339 115.765 358.192C115.043 358.046 114.339 358.513 114.193 359.235C114.047 359.956 114.514 360.66 115.235 360.806C115.957 360.952 116.661 360.486 116.807 359.764ZM239.836 367.517C233.128 374.483 218.484 382.174 203.918 385.296C196.638 386.856 189.401 387.271 183.2 385.897C177.004 384.524 171.852 381.37 168.707 375.792L168.272 376.038C171.502 381.765 176.79 384.989 183.091 386.385C189.387 387.78 196.702 387.354 204.022 385.785C218.656 382.648 233.4 374.921 240.196 367.864L239.836 367.517ZM168.707 375.792C165.854 370.731 165.629 366.672 166.903 363.645C168.18 360.612 170.985 358.552 174.314 357.545C177.643 356.537 181.468 356.592 184.732 357.762C187.994 358.931 190.68 361.205 191.781 364.629L192.257 364.475C191.098 360.872 188.274 358.501 184.901 357.292C181.531 356.084 177.597 356.029 174.169 357.066C170.742 358.103 167.792 360.243 166.442 363.451C165.09 366.664 165.368 370.888 168.272 376.038L168.707 375.792ZM191.793 364.659C193.158 367.529 193.266 370.204 192.394 372.62C191.52 375.042 189.653 377.23 187.024 379.096C181.763 382.831 173.509 385.239 164.349 385.663C146.023 386.511 124.243 379.417 115.73 359.401L115.27 359.597C123.899 379.886 145.942 387.015 164.372 386.162C173.591 385.736 181.948 383.312 187.313 379.504C189.997 377.598 191.946 375.336 192.864 372.79C193.786 370.237 193.662 367.423 192.245 364.445L191.793 364.659Z" fill="black"/>
<g clip-path="url(#clip2_6710_33632)">
<path d="M268.574 113.662C270.069 110.875 270.405 107.671 269.519 104.636C268.632 101.601 266.625 99.0808 263.865 97.5367L263.76 97.4793L263.661 97.4204C260.875 95.9305 257.671 95.5945 254.636 96.4808C251.601 97.3671 249.081 99.3749 247.537 102.135L247.483 102.233L247.425 102.332C245.931 105.124 245.595 108.329 246.481 111.364C247.367 114.399 249.375 116.918 252.135 118.463L252.219 118.509L252.338 118.574C255.123 120.063 258.327 120.399 261.362 119.513C264.397 118.627 266.917 116.619 268.461 113.859L268.526 113.74L268.572 113.657L268.574 113.662ZM268.389 113.411L264.829 110.09C262.774 108.17 261.932 105.287 262.632 102.568L263.846 97.8529C266.48 99.3692 268.392 101.8 269.245 104.722C270.098 107.643 269.792 110.728 268.391 113.417L268.389 113.411ZM254.715 96.7508C257.636 95.8976 260.716 96.2058 263.41 97.605L260.089 101.165C258.169 103.221 255.285 104.063 252.566 103.362L247.852 102.149C249.359 99.5224 251.793 97.604 254.715 96.7508ZM247.605 102.59L251.166 105.911C253.221 107.83 254.063 110.714 253.362 113.433L252.149 118.148C249.521 116.636 247.604 114.206 246.751 111.285C245.898 108.363 246.204 105.279 247.605 102.59ZM261.285 119.249C258.363 120.102 255.286 119.799 252.59 118.394L255.911 114.834C257.831 112.779 260.715 111.937 263.433 112.637L268.148 113.851C266.632 116.486 264.201 118.397 261.28 119.25L261.285 119.249ZM263.506 112.364C260.687 111.64 257.695 112.514 255.708 114.641L252.452 118.124L253.636 113.506C254.36 110.686 253.486 107.694 251.358 105.708L247.876 102.452L252.494 103.635C253.906 103.997 255.355 103.96 256.705 103.566C258.055 103.172 259.296 102.423 260.292 101.358L263.547 97.8755L262.364 102.494C261.64 105.313 262.514 108.305 264.642 110.292L268.124 113.547L263.506 112.364Z" fill="#00F942"/>
</g>
<path d="M204.667 110.256C204.667 110.992 205.264 111.589 206 111.589C206.736 111.589 207.333 110.992 207.333 110.256C207.333 109.519 206.736 108.922 206 108.922C205.264 108.922 204.667 109.519 204.667 110.256ZM226 103.618L225.858 103.824L226 103.618ZM243 103.618L240.697 105.359L243.356 106.483L243 103.618ZM206.225 110.365C207.024 108.721 208.479 107.373 210.276 106.303C212.072 105.235 214.195 104.454 216.305 103.939C218.415 103.424 220.502 103.178 222.221 103.174C223.081 103.172 223.844 103.23 224.47 103.343C225.1 103.458 225.569 103.624 225.858 103.824L226.142 103.412C225.767 103.153 225.217 102.971 224.559 102.851C223.895 102.731 223.101 102.672 222.22 102.674C220.458 102.678 218.331 102.93 216.187 103.453C214.042 103.976 211.87 104.773 210.021 105.874C208.173 106.974 206.631 108.386 205.775 110.146L206.225 110.365ZM225.858 103.824C225.976 103.905 225.999 103.947 225.999 103.947C225.996 103.939 225.989 103.917 225.996 103.888C226.002 103.861 226.014 103.851 226.01 103.856C225.994 103.871 225.942 103.907 225.822 103.953C225.708 103.997 225.559 104.042 225.374 104.09C224.648 104.28 223.429 104.506 222.167 104.948C220.898 105.392 219.544 106.065 218.505 107.178C217.46 108.296 216.75 109.843 216.75 111.999H217.25C217.25 109.965 217.915 108.542 218.87 107.519C219.831 106.49 221.102 105.851 222.333 105.42C223.571 104.987 224.727 104.776 225.501 104.574C225.691 104.524 225.862 104.474 226.002 104.42C226.136 104.368 226.272 104.302 226.365 104.207C226.416 104.156 226.463 104.088 226.483 104.001C226.504 103.911 226.491 103.824 226.458 103.749C226.399 103.613 226.274 103.504 226.142 103.412L225.858 103.824ZM216.75 111.999C216.75 112.569 217.124 113.063 217.683 113.461C218.247 113.864 219.044 114.205 219.997 114.467C221.908 114.992 224.505 115.216 227.287 114.95C232.846 114.417 239.227 111.912 242.346 105.805L241.901 105.578C238.891 111.472 232.71 113.928 227.24 114.452C224.507 114.714 221.972 114.491 220.13 113.985C219.207 113.731 218.472 113.41 217.973 113.055C217.47 112.695 217.25 112.333 217.25 111.999H216.75Z" fill="#00F942"/>
<g clip-path="url(#clip3_6710_33632)">
<path d="M99.9981 45.5303L97.7788 46.7173L99.8202 50.1017C99.8202 50.1017 104.29 52.8292 104.618 52.8292C104.946 52.8292 110.806 53.2083 111.058 53.0315C111.31 52.8548 114.619 51.6909 115.023 51.4521C115.426 51.2132 116.968 49.9738 116.728 49.7751C116.322 49.4387 116.802 48.8903 115.928 48.5588C114.856 48.1518 111.537 46.8185 109.744 46.7941C107.952 46.7685 105.272 47.1183 103.454 46.4126C101.637 45.7082 99.9957 45.5303 99.9957 45.5303H99.9981Z" fill="black"/>
<path d="M98.4469 46.0096C98.6114 45.9681 97.6937 47.5695 99.69 48.7261C100.011 51.2184 103.024 51.6852 104.131 51.2075C106.365 53.3439 110.595 52.815 111.636 51.4914C112.116 51.6742 114.513 52.0472 115.048 50.6383C115.926 50.3434 116.257 49.5549 115.906 48.3227C118.687 50.9454 114.679 53.0758 112.797 53.1806C111.71 54.448 109.77 53.6644 109.77 53.6644C109.77 53.6644 108.655 54.6467 107.036 54.5663C105.418 54.4858 104.11 53.1379 104.11 53.1379C104.11 53.1379 102.343 53.2208 101.202 52.3945C100.214 51.6779 99.6888 50.9466 99.4085 49.9095C98.2263 49.511 95.5317 46.7359 98.4457 46.0096H98.4469Z" fill="#00F942"/>
<path d="M108.766 42.6993C106.812 42.6993 104.632 41.0881 99.3721 44.7443C97.5915 46.2214 98.6201 48.3322 99.9473 48.3737C100.629 49.9641 100.844 50.933 104.258 50.8428C107.049 52.365 108.651 52.4333 111.492 51.1085C113.447 51.3096 113.989 51.2608 114.866 50.2907C116.088 50.6222 116.632 48.1665 114.712 46.0715C112.716 43.8924 111.985 42.7005 108.765 42.7005L108.766 42.6993Z" fill="#00F942"/>
<path d="M113.393 44.6528C113.393 44.6528 110.564 46.8015 107.459 46.409C104.354 46.0166 102.148 43.2318 102.148 43.2318C102.148 43.2318 104.977 41.0832 108.082 41.4756C111.187 41.868 113.393 44.6528 113.393 44.6528Z" fill="#00F942"/>
<path d="M113.393 44.8511C113.393 44.8511 110.564 46.9997 107.459 46.6073C104.354 46.2148 102.148 43.43 102.148 43.43C102.148 43.43 104.977 41.2814 108.082 41.6739C111.187 42.0663 113.393 44.8511 113.393 44.8511Z" fill="white"/>
<mask id="mask1_6710_33632" style="mask-type:luminance" maskUnits="userSpaceOnUse" x="102" y="41" width="12" height="6">
<path d="M113.393 44.853C113.393 44.853 110.564 47.0017 107.459 46.6092C104.353 46.2168 102.147 43.432 102.147 43.432C102.147 43.432 104.976 41.2834 108.081 41.6758C111.187 42.0682 113.393 44.853 113.393 44.853Z" fill="white"/>
</mask>
<g mask="url(#mask1_6710_33632)">
<path d="M108.814 43.7163C109.655 43.7163 110.336 43.0347 110.336 42.1941C110.336 41.3534 109.655 40.6719 108.814 40.6719C107.973 40.6719 107.292 41.3534 107.292 42.1941C107.292 43.0347 107.973 43.7163 108.814 43.7163Z" fill="black"/>
</g>
<path d="M102.648 46.5755L100.439 48.0801L100.48 48.1405L102.689 46.6359L102.648 46.5755Z" fill="black"/>
<path d="M110.706 48.1708L110.637 48.1943L111.434 50.5351L111.503 50.5115L110.706 48.1708Z" fill="black"/>
</g>
<g clip-path="url(#clip4_6710_33632)">
<path d="M123.782 51.9236L123.463 53.3951H118.956L123.024 41.6523H127.747L131.936 53.3951H127.412L127.025 51.9236H123.782ZM124.574 49.1358H126.287L125.744 46.8813C125.63 46.3931 125.549 45.9543 125.504 45.5651H125.357C125.283 46.1951 125.213 46.6338 125.15 46.8813L124.574 49.1358Z" fill="white"/>
<path d="M133.115 53.3951V41.6523H137.39V53.3951H133.115Z" fill="white"/>
<path d="M139.266 53.3951L141.177 41.6523H145.555L146.932 46.4516C147.018 46.7441 147.103 47.2008 147.191 47.8196H147.294C147.339 47.2931 147.42 46.8363 147.535 46.4516L148.903 41.6523H153.257L155.183 53.3951H151.07L150.537 48.1301C150.503 47.7813 150.483 47.3898 150.476 46.9601H150.399C150.303 47.4708 150.231 47.8038 150.183 47.9591L148.428 53.3951H145.933L144.349 48.2426C144.264 47.9681 144.192 47.5406 144.133 46.9601H144.005C144.009 47.4258 144.005 47.7341 143.987 47.8893L143.393 53.3951H139.264H139.266Z" fill="white"/>
<path d="M157.066 53.3951V41.6523H161.341V53.3951H157.066Z" fill="white"/>
<path d="M163.69 53.3951V41.6523H167.776L170.503 46.0826C170.94 46.7868 171.306 47.4821 171.603 48.1638H171.732C171.599 47.5676 171.516 47.1176 171.482 46.8138C171.453 46.5506 171.432 46.0713 171.421 45.3761L171.36 41.6523H175.446V53.3951H171.36L168.426 48.7578C168.163 48.3461 167.893 47.8353 167.619 47.2256H167.497C167.641 48.1728 167.715 48.8951 167.72 49.3946L167.772 53.3951H163.686H163.69Z" fill="white"/>
<path d="M179.15 53.3951V45.3603L176.74 45.4728V41.6523H185.704V45.4728L183.339 45.3603V53.3951H179.15Z" fill="white"/>
</g>
<g filter="url(#filter0_dd_6710_33632)">
<rect width="240" height="36" transform="translate(20 402)" fill="black"/>
<path d="M45.792 423.132C46.0693 423.548 46.4213 423.857 46.848 424.06C47.2853 424.252 47.7333 424.348 48.192 424.348C48.448 424.348 48.7093 424.311 48.976 424.236C49.2427 424.151 49.4827 424.028 49.696 423.868C49.92 423.708 50.1013 423.511 50.24 423.276C50.3787 423.041 50.448 422.769 50.448 422.46C50.448 422.023 50.3093 421.692 50.032 421.468C49.7547 421.233 49.408 421.041 48.992 420.892C48.5867 420.732 48.1387 420.583 47.648 420.444C47.168 420.295 46.72 420.092 46.304 419.836C45.8987 419.58 45.5573 419.239 45.28 418.812C45.0027 418.375 44.864 417.788 44.864 417.052C44.864 416.721 44.9333 416.369 45.072 415.996C45.2213 415.623 45.4507 415.281 45.76 414.972C46.0693 414.663 46.464 414.407 46.944 414.204C47.4347 413.991 48.0213 413.884 48.704 413.884C49.3227 413.884 49.9147 413.969 50.48 414.14C51.0453 414.311 51.5413 414.657 51.968 415.18L50.72 416.316C50.528 416.017 50.256 415.777 49.904 415.596C49.552 415.415 49.152 415.324 48.704 415.324C48.2773 415.324 47.92 415.383 47.632 415.5C47.3547 415.607 47.1307 415.751 46.96 415.932C46.7893 416.103 46.6667 416.289 46.592 416.492C46.528 416.695 46.496 416.881 46.496 417.052C46.496 417.532 46.6347 417.9 46.912 418.156C47.1893 418.412 47.5307 418.62 47.936 418.78C48.352 418.94 48.8 419.084 49.28 419.212C49.7707 419.34 50.2187 419.521 50.624 419.756C51.04 419.98 51.3867 420.289 51.664 420.684C51.9413 421.068 52.08 421.601 52.08 422.284C52.08 422.828 51.9733 423.319 51.76 423.756C51.5573 424.193 51.28 424.561 50.928 424.86C50.576 425.159 50.16 425.388 49.68 425.548C49.2 425.708 48.688 425.788 48.144 425.788C47.4187 425.788 46.7307 425.66 46.08 425.404C45.4293 425.148 44.912 424.753 44.528 424.22L45.792 423.132ZM58.0426 419.164H55.9786V422.604C55.9786 422.817 55.984 423.031 55.9946 423.244C56.0053 423.447 56.0426 423.633 56.1066 423.804C56.1813 423.964 56.288 424.097 56.4266 424.204C56.576 424.3 56.7893 424.348 57.0666 424.348C57.2373 424.348 57.4133 424.332 57.5946 424.3C57.776 424.268 57.9413 424.209 58.0906 424.124V425.436C57.92 425.532 57.696 425.596 57.4186 425.628C57.152 425.671 56.944 425.692 56.7946 425.692C56.24 425.692 55.808 425.617 55.4986 425.468C55.2 425.308 54.976 425.105 54.8266 424.86C54.688 424.615 54.6026 424.343 54.5706 424.044C54.5493 423.735 54.5386 423.425 54.5386 423.116V419.164H52.8746V417.916H54.5386V415.788H55.9786V417.916H58.0426V419.164ZM63.9965 421.852C63.6552 421.852 63.3032 421.873 62.9405 421.916C62.5885 421.948 62.2632 422.017 61.9645 422.124C61.6765 422.231 61.4365 422.38 61.2445 422.572C61.0632 422.764 60.9725 423.009 60.9725 423.308C60.9725 423.745 61.1165 424.06 61.4045 424.252C61.7032 424.444 62.1032 424.54 62.6045 424.54C62.9992 424.54 63.3352 424.476 63.6125 424.348C63.8898 424.209 64.1138 424.033 64.2845 423.82C64.4552 423.607 64.5778 423.372 64.6525 423.116C64.7272 422.849 64.7645 422.588 64.7645 422.332V421.852H63.9965ZM59.9325 418.844C60.3378 418.471 60.8072 418.193 61.3405 418.012C61.8738 417.82 62.4072 417.724 62.9405 417.724C63.4952 417.724 63.9698 417.793 64.3645 417.932C64.7698 418.071 65.1005 418.257 65.3565 418.492C65.6125 418.727 65.7992 418.999 65.9165 419.308C66.0445 419.607 66.1085 419.921 66.1085 420.252V424.124C66.1085 424.391 66.1138 424.636 66.1245 424.86C66.1352 425.084 66.1512 425.297 66.1725 425.5H64.8925C64.8605 425.116 64.8445 424.732 64.8445 424.348H64.8125C64.4925 424.839 64.1138 425.185 63.6765 425.388C63.2392 425.591 62.7325 425.692 62.1565 425.692C61.8045 425.692 61.4685 425.644 61.1485 425.548C60.8285 425.452 60.5458 425.308 60.3005 425.116C60.0658 424.924 59.8792 424.689 59.7405 424.412C59.6018 424.124 59.5325 423.793 59.5325 423.42C59.5325 422.929 59.6392 422.519 59.8525 422.188C60.0765 421.857 60.3752 421.591 60.7485 421.388C61.1325 421.175 61.5752 421.025 62.0765 420.94C62.5885 420.844 63.1325 420.796 63.7085 420.796H64.7645V420.476C64.7645 420.284 64.7272 420.092 64.6525 419.9C64.5778 419.708 64.4658 419.537 64.3165 419.388C64.1672 419.228 63.9805 419.105 63.7565 419.02C63.5325 418.924 63.2658 418.876 62.9565 418.876C62.6792 418.876 62.4338 418.903 62.2205 418.956C62.0178 419.009 61.8312 419.079 61.6605 419.164C61.4898 419.239 61.3352 419.329 61.1965 419.436C61.0578 419.543 60.9245 419.644 60.7965 419.74L59.9325 418.844ZM68.1974 417.916H69.6374V419.084H69.6694C69.7654 418.881 69.8934 418.7 70.0534 418.54C70.2134 418.369 70.3894 418.225 70.5814 418.108C70.784 417.991 71.0027 417.9 71.2374 417.836C71.472 417.761 71.7067 417.724 71.9414 417.724C72.176 417.724 72.3894 417.756 72.5814 417.82L72.5174 419.372C72.4 419.34 72.2827 419.313 72.1654 419.292C72.048 419.271 71.9307 419.26 71.8134 419.26C71.1094 419.26 70.5707 419.457 70.1974 419.852C69.824 420.247 69.6374 420.86 69.6374 421.692V425.5H68.1974V417.916ZM78.1833 419.164H76.1193V422.604C76.1193 422.817 76.1246 423.031 76.1353 423.244C76.1459 423.447 76.1833 423.633 76.2473 423.804C76.3219 423.964 76.4286 424.097 76.5673 424.204C76.7166 424.3 76.9299 424.348 77.2073 424.348C77.3779 424.348 77.5539 424.332 77.7352 424.3C77.9166 424.268 78.0819 424.209 78.2313 424.124V425.436C78.0606 425.532 77.8366 425.596 77.5593 425.628C77.2926 425.671 77.0846 425.692 76.9353 425.692C76.3806 425.692 75.9486 425.617 75.6393 425.468C75.3406 425.308 75.1166 425.105 74.9673 424.86C74.8286 424.615 74.7433 424.343 74.7113 424.044C74.6899 423.735 74.6793 423.425 74.6793 423.116V419.164H73.0152V417.916H74.6793V415.788H76.1193V417.916H78.1833V419.164ZM84.8623 414.172H86.8783L93.1183 423.484H93.1503V414.172H94.6863V425.5H92.7343L86.4303 416.188H86.3983V425.5H84.8623V414.172ZM96.8606 421.708C96.8606 421.153 96.962 420.636 97.1646 420.156C97.378 419.676 97.666 419.255 98.0286 418.892C98.3913 418.529 98.818 418.247 99.3086 418.044C99.7993 417.831 100.327 417.724 100.893 417.724C101.458 417.724 101.986 417.831 102.477 418.044C102.967 418.247 103.394 418.529 103.757 418.892C104.119 419.255 104.402 419.676 104.605 420.156C104.818 420.636 104.925 421.153 104.925 421.708C104.925 422.263 104.818 422.785 104.605 423.276C104.402 423.756 104.119 424.177 103.757 424.54C103.394 424.892 102.967 425.175 102.477 425.388C101.986 425.591 101.458 425.692 100.893 425.692C100.327 425.692 99.7993 425.591 99.3086 425.388C98.818 425.175 98.3913 424.892 98.0286 424.54C97.666 424.177 97.378 423.756 97.1646 423.276C96.962 422.785 96.8606 422.263 96.8606 421.708ZM98.3966 421.708C98.3966 422.092 98.4553 422.449 98.5726 422.78C98.69 423.1 98.8553 423.377 99.0686 423.612C99.282 423.836 99.5433 424.017 99.8526 424.156C100.162 424.284 100.509 424.348 100.893 424.348C101.277 424.348 101.623 424.284 101.933 424.156C102.242 424.017 102.503 423.836 102.717 423.612C102.93 423.377 103.095 423.1 103.213 422.78C103.33 422.449 103.389 422.092 103.389 421.708C103.389 421.324 103.33 420.972 103.213 420.652C103.095 420.321 102.93 420.044 102.717 419.82C102.503 419.585 102.242 419.404 101.933 419.276C101.623 419.137 101.277 419.068 100.893 419.068C100.509 419.068 100.162 419.137 99.8526 419.276C99.5433 419.404 99.282 419.585 99.0686 419.82C98.8553 420.044 98.69 420.321 98.5726 420.652C98.4553 420.972 98.3966 421.324 98.3966 421.708ZM105.817 417.916H107.433L109.145 423.58H109.177L110.985 417.916H112.505L114.425 423.58H114.457L116.089 417.916H117.609L115.161 425.5H113.705L111.705 419.836H111.673L109.865 425.5H108.313L105.817 417.916ZM230.165 416.492L238.709 419.996V421.308L230.165 424.828V423.564L237.397 420.652L230.165 417.74V416.492Z" fill="#00F942"/>
</g>
<path d="M55.85 457.41L54.53 454.16H54.51L53.17 457.41H55.85ZM54.13 452.92H55L58.03 460H56.91L56.2 458.25H52.83L52.13 460H51.01L54.13 452.92ZM58.951 452.92H59.911V460H58.951V452.92ZM69.4474 454.45C69.2474 454.19 68.9941 453.99 68.6874 453.85C68.3808 453.71 68.0641 453.64 67.7374 453.64C67.3374 453.64 66.9741 453.717 66.6474 453.87C66.3274 454.017 66.0508 454.22 65.8174 454.48C65.5908 454.74 65.4141 455.047 65.2874 455.4C65.1608 455.747 65.0974 456.12 65.0974 456.52C65.0974 456.893 65.1574 457.247 65.2774 457.58C65.3974 457.913 65.5708 458.207 65.7974 458.46C66.0241 458.713 66.3008 458.913 66.6274 459.06C66.9541 459.207 67.3241 459.28 67.7374 459.28C68.1441 459.28 68.5008 459.197 68.8074 459.03C69.1141 458.863 69.3741 458.63 69.5874 458.33L70.3974 458.94C70.3441 459.013 70.2508 459.12 70.1174 459.26C69.9841 459.393 69.8074 459.53 69.5874 459.67C69.3674 459.803 69.1008 459.92 68.7874 460.02C68.4808 460.127 68.1241 460.18 67.7174 460.18C67.1574 460.18 66.6508 460.073 66.1974 459.86C65.7508 459.647 65.3674 459.367 65.0474 459.02C64.7341 458.673 64.4941 458.283 64.3274 457.85C64.1608 457.41 64.0774 456.967 64.0774 456.52C64.0774 455.973 64.1674 455.47 64.3474 455.01C64.5274 454.543 64.7774 454.143 65.0974 453.81C65.4241 453.47 65.8141 453.207 66.2674 453.02C66.7208 452.833 67.2208 452.74 67.7674 452.74C68.2341 452.74 68.6908 452.83 69.1374 453.01C69.5908 453.19 69.9608 453.467 70.2474 453.84L69.4474 454.45ZM71.3284 455.26H72.2284V455.99H72.2484C72.3084 455.863 72.3884 455.75 72.4884 455.65C72.5884 455.543 72.6984 455.453 72.8184 455.38C72.9451 455.307 73.0818 455.25 73.2284 455.21C73.3751 455.163 73.5218 455.14 73.6684 455.14C73.8151 455.14 73.9484 455.16 74.0684 455.2L74.0284 456.17C73.9551 456.15 73.8818 456.133 73.8084 456.12C73.7351 456.107 73.6618 456.1 73.5884 456.1C73.1484 456.1 72.8118 456.223 72.5784 456.47C72.3451 456.717 72.2284 457.1 72.2284 457.62V460H71.3284V455.26ZM78.3738 457.24C78.3672 457.04 78.3338 456.857 78.2738 456.69C78.2205 456.523 78.1372 456.38 78.0238 456.26C77.9105 456.133 77.7672 456.037 77.5938 455.97C77.4272 455.897 77.2305 455.86 77.0038 455.86C76.7838 455.86 76.5805 455.903 76.3938 455.99C76.2138 456.07 76.0605 456.177 75.9338 456.31C75.8072 456.443 75.7072 456.593 75.6338 456.76C75.5672 456.92 75.5338 457.08 75.5338 457.24H78.3738ZM75.5338 457.96C75.5338 458.167 75.5772 458.357 75.6638 458.53C75.7572 458.697 75.8772 458.84 76.0238 458.96C76.1705 459.08 76.3405 459.173 76.5338 459.24C76.7272 459.307 76.9272 459.34 77.1338 459.34C77.4138 459.34 77.6572 459.277 77.8638 459.15C78.0705 459.017 78.2605 458.843 78.4338 458.63L79.1138 459.15C78.6138 459.797 77.9138 460.12 77.0138 460.12C76.6405 460.12 76.3005 460.057 75.9938 459.93C75.6938 459.803 75.4372 459.63 75.2238 459.41C75.0172 459.183 74.8572 458.92 74.7438 458.62C74.6305 458.313 74.5738 457.983 74.5738 457.63C74.5738 457.277 74.6338 456.95 74.7538 456.65C74.8805 456.343 75.0505 456.08 75.2638 455.86C75.4838 455.633 75.7438 455.457 76.0438 455.33C76.3438 455.203 76.6705 455.14 77.0238 455.14C77.4438 455.14 77.7972 455.213 78.0838 455.36C78.3772 455.507 78.6172 455.7 78.8038 455.94C78.9905 456.173 79.1238 456.44 79.2038 456.74C79.2905 457.033 79.3338 457.333 79.3338 457.64V457.96H75.5338ZM82.9705 457.72C82.7571 457.72 82.5371 457.733 82.3105 457.76C82.0905 457.78 81.8871 457.823 81.7005 457.89C81.5205 457.957 81.3705 458.05 81.2505 458.17C81.1371 458.29 81.0805 458.443 81.0805 458.63C81.0805 458.903 81.1705 459.1 81.3505 459.22C81.5371 459.34 81.7871 459.4 82.1005 459.4C82.3471 459.4 82.5571 459.36 82.7305 459.28C82.9038 459.193 83.0438 459.083 83.1505 458.95C83.2571 458.817 83.3338 458.67 83.3805 458.51C83.4271 458.343 83.4505 458.18 83.4505 458.02V457.72H82.9705ZM80.4305 455.84C80.6838 455.607 80.9771 455.433 81.3105 455.32C81.6438 455.2 81.9771 455.14 82.3105 455.14C82.6571 455.14 82.9538 455.183 83.2005 455.27C83.4538 455.357 83.6605 455.473 83.8205 455.62C83.9805 455.767 84.0971 455.937 84.1705 456.13C84.2505 456.317 84.2905 456.513 84.2905 456.72V459.14C84.2905 459.307 84.2938 459.46 84.3005 459.6C84.3071 459.74 84.3171 459.873 84.3305 460H83.5305C83.5105 459.76 83.5005 459.52 83.5005 459.28H83.4805C83.2805 459.587 83.0438 459.803 82.7705 459.93C82.4971 460.057 82.1805 460.12 81.8205 460.12C81.6005 460.12 81.3905 460.09 81.1905 460.03C80.9905 459.97 80.8138 459.88 80.6605 459.76C80.5138 459.64 80.3971 459.493 80.3105 459.32C80.2238 459.14 80.1805 458.933 80.1805 458.7C80.1805 458.393 80.2471 458.137 80.3805 457.93C80.5205 457.723 80.7071 457.557 80.9405 457.43C81.1805 457.297 81.4571 457.203 81.7705 457.15C82.0905 457.09 82.4305 457.06 82.7905 457.06H83.4505V456.86C83.4505 456.74 83.4271 456.62 83.3805 456.5C83.3338 456.38 83.2638 456.273 83.1705 456.18C83.0771 456.08 82.9605 456.003 82.8205 455.95C82.6805 455.89 82.5138 455.86 82.3205 455.86C82.1471 455.86 81.9938 455.877 81.8605 455.91C81.7338 455.943 81.6171 455.987 81.5105 456.04C81.4038 456.087 81.3071 456.143 81.2205 456.21C81.1338 456.277 81.0505 456.34 80.9705 456.4L80.4305 455.84ZM88.136 456.04H86.846V458.19C86.846 458.323 86.8493 458.457 86.856 458.59C86.8627 458.717 86.886 458.833 86.926 458.94C86.9727 459.04 87.0393 459.123 87.126 459.19C87.2193 459.25 87.3527 459.28 87.526 459.28C87.6327 459.28 87.7427 459.27 87.856 459.25C87.9693 459.23 88.0727 459.193 88.166 459.14V459.96C88.0593 460.02 87.9193 460.06 87.746 460.08C87.5793 460.107 87.4493 460.12 87.356 460.12C87.0093 460.12 86.7393 460.073 86.546 459.98C86.3593 459.88 86.2193 459.753 86.126 459.6C86.0393 459.447 85.986 459.277 85.966 459.09C85.9527 458.897 85.946 458.703 85.946 458.51V456.04H84.906V455.26H85.946V453.93H86.846V455.26H88.136V456.04ZM92.8172 457.24C92.8105 457.04 92.7772 456.857 92.7172 456.69C92.6639 456.523 92.5805 456.38 92.4672 456.26C92.3539 456.133 92.2105 456.037 92.0372 455.97C91.8705 455.897 91.6739 455.86 91.4472 455.86C91.2272 455.86 91.0239 455.903 90.8372 455.99C90.6572 456.07 90.5039 456.177 90.3772 456.31C90.2505 456.443 90.1505 456.593 90.0772 456.76C90.0105 456.92 89.9772 457.08 89.9772 457.24H92.8172ZM89.9772 457.96C89.9772 458.167 90.0205 458.357 90.1072 458.53C90.2005 458.697 90.3205 458.84 90.4672 458.96C90.6139 459.08 90.7839 459.173 90.9772 459.24C91.1705 459.307 91.3705 459.34 91.5772 459.34C91.8572 459.34 92.1005 459.277 92.3072 459.15C92.5139 459.017 92.7039 458.843 92.8772 458.63L93.5572 459.15C93.0572 459.797 92.3572 460.12 91.4572 460.12C91.0839 460.12 90.7439 460.057 90.4372 459.93C90.1372 459.803 89.8805 459.63 89.6672 459.41C89.4605 459.183 89.3005 458.92 89.1872 458.62C89.0739 458.313 89.0172 457.983 89.0172 457.63C89.0172 457.277 89.0772 456.95 89.1972 456.65C89.3239 456.343 89.4939 456.08 89.7072 455.86C89.9272 455.633 90.1872 455.457 90.4872 455.33C90.7872 455.203 91.1139 455.14 91.4672 455.14C91.8872 455.14 92.2405 455.213 92.5272 455.36C92.8205 455.507 93.0605 455.7 93.2472 455.94C93.4339 456.173 93.5672 456.44 93.6472 456.74C93.7339 457.033 93.7772 457.333 93.7772 457.64V457.96H89.9772Z" fill="#1B1B1B"/>
<path d="M101.73 456.97C101.73 456.79 101.793 456.637 101.92 456.51C102.053 456.377 102.21 456.31 102.39 456.31C102.57 456.31 102.723 456.377 102.85 456.51C102.983 456.637 103.05 456.79 103.05 456.97C103.05 457.15 102.983 457.307 102.85 457.44C102.723 457.567 102.57 457.63 102.39 457.63C102.21 457.63 102.053 457.567 101.92 457.44C101.793 457.307 101.73 457.15 101.73 456.97Z" fill="#1B1B1B"/>
<path d="M115.84 454.45C115.64 454.19 115.387 453.99 115.08 453.85C114.773 453.71 114.457 453.64 114.13 453.64C113.73 453.64 113.367 453.717 113.04 453.87C112.72 454.017 112.443 454.22 112.21 454.48C111.983 454.74 111.807 455.047 111.68 455.4C111.553 455.747 111.49 456.12 111.49 456.52C111.49 456.893 111.55 457.247 111.67 457.58C111.79 457.913 111.963 458.207 112.19 458.46C112.417 458.713 112.693 458.913 113.02 459.06C113.347 459.207 113.717 459.28 114.13 459.28C114.537 459.28 114.893 459.197 115.2 459.03C115.507 458.863 115.767 458.63 115.98 458.33L116.79 458.94C116.737 459.013 116.643 459.12 116.51 459.26C116.377 459.393 116.2 459.53 115.98 459.67C115.76 459.803 115.493 459.92 115.18 460.02C114.873 460.127 114.517 460.18 114.11 460.18C113.55 460.18 113.043 460.073 112.59 459.86C112.143 459.647 111.76 459.367 111.44 459.02C111.127 458.673 110.887 458.283 110.72 457.85C110.553 457.41 110.47 456.967 110.47 456.52C110.47 455.973 110.56 455.47 110.74 455.01C110.92 454.543 111.17 454.143 111.49 453.81C111.817 453.47 112.207 453.207 112.66 453.02C113.113 452.833 113.613 452.74 114.16 452.74C114.627 452.74 115.083 452.83 115.53 453.01C115.983 453.19 116.353 453.467 116.64 453.84L115.84 454.45ZM117.721 455.26H118.621V455.99H118.641C118.701 455.863 118.781 455.75 118.881 455.65C118.981 455.543 119.091 455.453 119.211 455.38C119.338 455.307 119.474 455.25 119.621 455.21C119.768 455.163 119.914 455.14 120.061 455.14C120.208 455.14 120.341 455.16 120.461 455.2L120.421 456.17C120.348 456.15 120.274 456.133 120.201 456.12C120.128 456.107 120.054 456.1 119.981 456.1C119.541 456.1 119.204 456.223 118.971 456.47C118.738 456.717 118.621 457.1 118.621 457.62V460H117.721V455.26ZM124.766 457.24C124.76 457.04 124.726 456.857 124.666 456.69C124.613 456.523 124.53 456.38 124.416 456.26C124.303 456.133 124.16 456.037 123.986 455.97C123.82 455.897 123.623 455.86 123.396 455.86C123.176 455.86 122.973 455.903 122.786 455.99C122.606 456.07 122.453 456.177 122.326 456.31C122.2 456.443 122.1 456.593 122.026 456.76C121.96 456.92 121.926 457.08 121.926 457.24H124.766ZM121.926 457.96C121.926 458.167 121.97 458.357 122.056 458.53C122.15 458.697 122.27 458.84 122.416 458.96C122.563 459.08 122.733 459.173 122.926 459.24C123.12 459.307 123.32 459.34 123.526 459.34C123.806 459.34 124.05 459.277 124.256 459.15C124.463 459.017 124.653 458.843 124.826 458.63L125.506 459.15C125.006 459.797 124.306 460.12 123.406 460.12C123.033 460.12 122.693 460.057 122.386 459.93C122.086 459.803 121.83 459.63 121.616 459.41C121.41 459.183 121.25 458.92 121.136 458.62C121.023 458.313 120.966 457.983 120.966 457.63C120.966 457.277 121.026 456.95 121.146 456.65C121.273 456.343 121.443 456.08 121.656 455.86C121.876 455.633 122.136 455.457 122.436 455.33C122.736 455.203 123.063 455.14 123.416 455.14C123.836 455.14 124.19 455.213 124.476 455.36C124.77 455.507 125.01 455.7 125.196 455.94C125.383 456.173 125.516 456.44 125.596 456.74C125.683 457.033 125.726 457.333 125.726 457.64V457.96H121.926ZM129.363 457.72C129.15 457.72 128.93 457.733 128.703 457.76C128.483 457.78 128.28 457.823 128.093 457.89C127.913 457.957 127.763 458.05 127.643 458.17C127.53 458.29 127.473 458.443 127.473 458.63C127.473 458.903 127.563 459.1 127.743 459.22C127.93 459.34 128.18 459.4 128.493 459.4C128.74 459.4 128.95 459.36 129.123 459.28C129.296 459.193 129.436 459.083 129.543 458.95C129.65 458.817 129.726 458.67 129.773 458.51C129.82 458.343 129.843 458.18 129.843 458.02V457.72H129.363ZM126.823 455.84C127.076 455.607 127.37 455.433 127.703 455.32C128.036 455.2 128.37 455.14 128.703 455.14C129.05 455.14 129.346 455.183 129.593 455.27C129.846 455.357 130.053 455.473 130.213 455.62C130.373 455.767 130.49 455.937 130.563 456.13C130.643 456.317 130.683 456.513 130.683 456.72V459.14C130.683 459.307 130.686 459.46 130.693 459.6C130.7 459.74 130.71 459.873 130.723 460H129.923C129.903 459.76 129.893 459.52 129.893 459.28H129.873C129.673 459.587 129.436 459.803 129.163 459.93C128.89 460.057 128.573 460.12 128.213 460.12C127.993 460.12 127.783 460.09 127.583 460.03C127.383 459.97 127.206 459.88 127.053 459.76C126.906 459.64 126.79 459.493 126.703 459.32C126.616 459.14 126.573 458.933 126.573 458.7C126.573 458.393 126.64 458.137 126.773 457.93C126.913 457.723 127.1 457.557 127.333 457.43C127.573 457.297 127.85 457.203 128.163 457.15C128.483 457.09 128.823 457.06 129.183 457.06H129.843V456.86C129.843 456.74 129.82 456.62 129.773 456.5C129.726 456.38 129.656 456.273 129.563 456.18C129.47 456.08 129.353 456.003 129.213 455.95C129.073 455.89 128.906 455.86 128.713 455.86C128.54 455.86 128.386 455.877 128.253 455.91C128.126 455.943 128.01 455.987 127.903 456.04C127.796 456.087 127.7 456.143 127.613 456.21C127.526 456.277 127.443 456.34 127.363 456.4L126.823 455.84ZM134.529 456.04H133.239V458.19C133.239 458.323 133.242 458.457 133.249 458.59C133.255 458.717 133.279 458.833 133.319 458.94C133.365 459.04 133.432 459.123 133.519 459.19C133.612 459.25 133.745 459.28 133.919 459.28C134.025 459.28 134.135 459.27 134.249 459.25C134.362 459.23 134.465 459.193 134.559 459.14V459.96C134.452 460.02 134.312 460.06 134.139 460.08C133.972 460.107 133.842 460.12 133.749 460.12C133.402 460.12 133.132 460.073 132.939 459.98C132.752 459.88 132.612 459.753 132.519 459.6C132.432 459.447 132.379 459.277 132.359 459.09C132.345 458.897 132.339 458.703 132.339 458.51V456.04H131.299V455.26H132.339V453.93H133.239V455.26H134.529V456.04ZM139.21 457.24C139.203 457.04 139.17 456.857 139.11 456.69C139.056 456.523 138.973 456.38 138.86 456.26C138.746 456.133 138.603 456.037 138.43 455.97C138.263 455.897 138.066 455.86 137.84 455.86C137.62 455.86 137.416 455.903 137.23 455.99C137.05 456.07 136.896 456.177 136.77 456.31C136.643 456.443 136.543 456.593 136.47 456.76C136.403 456.92 136.37 457.08 136.37 457.24H139.21ZM136.37 457.96C136.37 458.167 136.413 458.357 136.5 458.53C136.593 458.697 136.713 458.84 136.86 458.96C137.006 459.08 137.176 459.173 137.37 459.24C137.563 459.307 137.763 459.34 137.97 459.34C138.25 459.34 138.493 459.277 138.7 459.15C138.906 459.017 139.096 458.843 139.27 458.63L139.95 459.15C139.45 459.797 138.75 460.12 137.85 460.12C137.476 460.12 137.136 460.057 136.83 459.93C136.53 459.803 136.273 459.63 136.06 459.41C135.853 459.183 135.693 458.92 135.58 458.62C135.466 458.313 135.41 457.983 135.41 457.63C135.41 457.277 135.47 456.95 135.59 456.65C135.716 456.343 135.886 456.08 136.1 455.86C136.32 455.633 136.58 455.457 136.88 455.33C137.18 455.203 137.506 455.14 137.86 455.14C138.28 455.14 138.633 455.213 138.92 455.36C139.213 455.507 139.453 455.7 139.64 455.94C139.826 456.173 139.96 456.44 140.04 456.74C140.126 457.033 140.17 457.333 140.17 457.64V457.96H136.37ZM144.19 452.92H145.62L147.87 458.28H147.91L150.14 452.92H151.57V460H150.61V454.18H150.59L148.2 460H147.56L145.17 454.18H145.15V460H144.19V452.92ZM153.322 452.92H157.892V453.82H154.282V455.93H157.642V456.83H154.282V459.1H158.072V460H153.322V452.92ZM159.365 452.92H160.795L163.045 458.28H163.085L165.315 452.92H166.745V460H165.785V454.18H165.765L163.375 460H162.735L160.345 454.18H160.325V460H159.365V452.92ZM168.498 452.92H173.068V453.82H169.458V455.93H172.818V456.83H169.458V459.1H173.248V460H168.498V452.92ZM176.901 456.45C176.795 456.317 176.661 456.207 176.501 456.12C176.348 456.027 176.158 455.98 175.931 455.98C175.718 455.98 175.531 456.027 175.371 456.12C175.218 456.207 175.141 456.337 175.141 456.51C175.141 456.65 175.185 456.763 175.271 456.85C175.365 456.937 175.471 457.007 175.591 457.06C175.718 457.113 175.851 457.153 175.991 457.18C176.131 457.207 176.251 457.23 176.351 457.25C176.545 457.297 176.725 457.353 176.891 457.42C177.065 457.487 177.211 457.573 177.331 457.68C177.458 457.787 177.555 457.917 177.621 458.07C177.695 458.223 177.731 458.41 177.731 458.63C177.731 458.897 177.675 459.127 177.561 459.32C177.448 459.507 177.301 459.66 177.121 459.78C176.941 459.9 176.735 459.987 176.501 460.04C176.275 460.093 176.045 460.12 175.811 460.12C175.418 460.12 175.071 460.06 174.771 459.94C174.478 459.82 174.215 459.6 173.981 459.28L174.661 458.72C174.808 458.867 174.971 458.997 175.151 459.11C175.331 459.223 175.551 459.28 175.811 459.28C175.925 459.28 176.038 459.27 176.151 459.25C176.271 459.223 176.375 459.187 176.461 459.14C176.555 459.087 176.628 459.023 176.681 458.95C176.741 458.87 176.771 458.78 176.771 458.68C176.771 458.547 176.728 458.437 176.641 458.35C176.561 458.263 176.461 458.197 176.341 458.15C176.228 458.097 176.105 458.057 175.971 458.03C175.845 457.997 175.731 457.97 175.631 457.95C175.438 457.903 175.255 457.85 175.081 457.79C174.908 457.73 174.755 457.65 174.621 457.55C174.488 457.45 174.381 457.323 174.301 457.17C174.221 457.017 174.181 456.827 174.181 456.6C174.181 456.353 174.231 456.14 174.331 455.96C174.438 455.773 174.575 455.62 174.741 455.5C174.915 455.38 175.108 455.29 175.321 455.23C175.541 455.17 175.761 455.14 175.981 455.14C176.301 455.14 176.608 455.2 176.901 455.32C177.195 455.44 177.428 455.64 177.601 455.92L176.901 456.45Z" fill="#1B1B1B"/>
<path d="M185.73 456.97C185.73 456.79 185.793 456.637 185.92 456.51C186.053 456.377 186.21 456.31 186.39 456.31C186.57 456.31 186.723 456.377 186.85 456.51C186.983 456.637 187.05 456.79 187.05 456.97C187.05 457.15 186.983 457.307 186.85 457.44C186.723 457.567 186.57 457.63 186.39 457.63C186.21 457.63 186.053 457.567 185.92 457.44C185.793 457.307 185.73 457.15 185.73 456.97Z" fill="#1B1B1B"/>
<path d="M198.16 459.28C198.567 459.28 198.933 459.207 199.26 459.06C199.587 458.907 199.867 458.703 200.1 458.45C200.333 458.197 200.513 457.9 200.64 457.56C200.767 457.213 200.83 456.847 200.83 456.46C200.83 456.073 200.767 455.71 200.64 455.37C200.513 455.023 200.333 454.723 200.1 454.47C199.867 454.217 199.587 454.017 199.26 453.87C198.933 453.717 198.567 453.64 198.16 453.64C197.753 453.64 197.387 453.717 197.06 453.87C196.733 454.017 196.453 454.217 196.22 454.47C195.987 454.723 195.807 455.023 195.68 455.37C195.553 455.71 195.49 456.073 195.49 456.46C195.49 456.847 195.553 457.213 195.68 457.56C195.807 457.9 195.987 458.197 196.22 458.45C196.453 458.703 196.733 458.907 197.06 459.06C197.387 459.207 197.753 459.28 198.16 459.28ZM198.16 460.18C197.62 460.18 197.123 460.087 196.67 459.9C196.217 459.707 195.827 459.443 195.5 459.11C195.18 458.777 194.927 458.383 194.74 457.93C194.56 457.477 194.47 456.987 194.47 456.46C194.47 455.933 194.56 455.443 194.74 454.99C194.927 454.537 195.18 454.143 195.5 453.81C195.827 453.477 196.217 453.217 196.67 453.03C197.123 452.837 197.62 452.74 198.16 452.74C198.7 452.74 199.197 452.837 199.65 453.03C200.103 453.217 200.49 453.477 200.81 453.81C201.137 454.143 201.39 454.537 201.57 454.99C201.757 455.443 201.85 455.933 201.85 456.46C201.85 456.987 201.757 457.477 201.57 457.93C201.39 458.383 201.137 458.777 200.81 459.11C200.49 459.443 200.103 459.707 199.65 459.9C199.197 460.087 198.7 460.18 198.16 460.18ZM203 455.26H203.9V455.99H203.92C204.034 455.737 204.23 455.533 204.51 455.38C204.79 455.22 205.114 455.14 205.48 455.14C205.707 455.14 205.924 455.177 206.13 455.25C206.344 455.317 206.527 455.423 206.68 455.57C206.84 455.717 206.967 455.907 207.06 456.14C207.154 456.367 207.2 456.637 207.2 456.95V460H206.3V457.2C206.3 456.98 206.27 456.793 206.21 456.64C206.15 456.48 206.07 456.353 205.97 456.26C205.87 456.16 205.754 456.09 205.62 456.05C205.494 456.003 205.36 455.98 205.22 455.98C205.034 455.98 204.86 456.01 204.7 456.07C204.54 456.13 204.4 456.227 204.28 456.36C204.16 456.487 204.067 456.65 204 456.85C203.934 457.05 203.9 457.287 203.9 457.56V460H203V455.26ZM211.57 452.92H212.53V459.1H215.78V460H211.57V452.92ZM216.386 453.56C216.386 453.38 216.449 453.227 216.576 453.1C216.709 452.967 216.866 452.9 217.046 452.9C217.226 452.9 217.379 452.967 217.506 453.1C217.639 453.227 217.706 453.38 217.706 453.56C217.706 453.74 217.639 453.897 217.506 454.03C217.379 454.157 217.226 454.22 217.046 454.22C216.866 454.22 216.709 454.157 216.576 454.03C216.449 453.897 216.386 453.74 216.386 453.56ZM216.596 455.26H217.496V460H216.596V455.26ZM218.358 455.26H219.398L220.818 458.89L222.178 455.26H223.138L221.278 460H220.288L218.358 455.26ZM227.448 457.24C227.441 457.04 227.408 456.857 227.348 456.69C227.295 456.523 227.211 456.38 227.098 456.26C226.985 456.133 226.841 456.037 226.668 455.97C226.501 455.897 226.305 455.86 226.078 455.86C225.858 455.86 225.655 455.903 225.468 455.99C225.288 456.07 225.135 456.177 225.008 456.31C224.881 456.443 224.781 456.593 224.708 456.76C224.641 456.92 224.608 457.08 224.608 457.24H227.448ZM224.608 457.96C224.608 458.167 224.651 458.357 224.738 458.53C224.831 458.697 224.951 458.84 225.098 458.96C225.245 459.08 225.415 459.173 225.608 459.24C225.801 459.307 226.001 459.34 226.208 459.34C226.488 459.34 226.731 459.277 226.938 459.15C227.145 459.017 227.335 458.843 227.508 458.63L228.188 459.15C227.688 459.797 226.988 460.12 226.088 460.12C225.715 460.12 225.375 460.057 225.068 459.93C224.768 459.803 224.511 459.63 224.298 459.41C224.091 459.183 223.931 458.92 223.818 458.62C223.705 458.313 223.648 457.983 223.648 457.63C223.648 457.277 223.708 456.95 223.828 456.65C223.955 456.343 224.125 456.08 224.338 455.86C224.558 455.633 224.818 455.457 225.118 455.33C225.418 455.203 225.745 455.14 226.098 455.14C226.518 455.14 226.871 455.213 227.158 455.36C227.451 455.507 227.691 455.7 227.878 455.94C228.065 456.173 228.198 456.44 228.278 456.74C228.365 457.033 228.408 457.333 228.408 457.64V457.96H224.608Z" fill="#1B1B1B"/>
<defs>
<filter id="filter0_dd_6710_33632" x="17" y="397" width="246" height="42" filterUnits="userSpaceOnUse" color-interpolation-filters="sRGB">
<feFlood flood-opacity="0" result="BackgroundImageFix"/>
<feColorMatrix in="SourceAlpha" type="matrix" values="0 0 0 0 0 0 0 0 0 0 0 0 0 0 0 0 0 0 127 0" result="hardAlpha"/>
<feMorphology radius="1" operator="erode" in="SourceAlpha" result="effect1_dropShadow_6710_33632"/>
<feOffset dy="-1"/>
<feGaussianBlur stdDeviation="1"/>
<feComposite in2="hardAlpha" operator="out"/>
<feColorMatrix type="matrix" values="0 0 0 0 0 0 0 0 0 0 0 0 0 0 0 0 0 0 0.1 0"/>
<feBlend mode="normal" in2="BackgroundImageFix" result="effect1_dropShadow_6710_33632"/>
<feColorMatrix in="SourceAlpha" type="matrix" values="0 0 0 0 0 0 0 0 0 0 0 0 0 0 0 0 0 0 127 0" result="hardAlpha"/>
<feOffset dy="-2"/>
<feGaussianBlur stdDeviation="1.5"/>
<feComposite in2="hardAlpha" operator="out"/>
<feColorMatrix type="matrix" values="0 0 0 0 0 0 0 0 0 0 0 0 0 0 0 0 0 0 0.1 0"/>
<feBlend mode="normal" in2="effect1_dropShadow_6710_33632" result="effect2_dropShadow_6710_33632"/>
<feBlend mode="normal" in="SourceGraphic" in2="effect2_dropShadow_6710_33632" result="shape"/>
</filter>
<clipPath id="clip0_6710_33632">
<rect width="76.0468" height="52.9345" fill="white" transform="translate(46.6416 309) rotate(14.9342)"/>
</clipPath>
<clipPath id="clip1_6710_33632">
<rect width="19.9624" height="19.9624" fill="white" transform="matrix(-0.982734 -0.185025 -0.185025 0.982734 264.311 349.693)"/>
</clipPath>
<clipPath id="clip2_6710_33632">
<rect width="24" height="24" fill="white" transform="translate(243.117 99.8447) rotate(-16.2797)"/>
</clipPath>
<clipPath id="clip3_6710_33632">
<rect width="24" height="24" fill="white" transform="translate(95 36)"/>
</clipPath>
<clipPath id="clip4_6710_33632">
<rect width="66.7485" height="11.7428" fill="white" transform="translate(118.956 41.6523)"/>
</clipPath>
</defs>
</svg>
