<svg width="280" height="380" viewBox="0 0 280 380" fill="none" xmlns="http://www.w3.org/2000/svg">
<g clip-path="url(#clip0_6710_33753)">
<rect width="280" height="380" fill="black"/>
<g clip-path="url(#clip1_6710_33753)">
<path d="M98.3521 103.382L90.9796 105.11L94.2949 116.525C94.2949 116.525 105.179 127.917 106.133 128.171C107.087 128.426 123.83 134.07 124.701 133.753C125.571 133.436 136.094 132.619 137.454 132.238C138.813 131.857 144.256 129.454 143.713 128.688C142.793 127.396 144.614 126.174 142.331 124.535C139.528 122.522 130.91 116.074 125.716 114.61C120.522 113.147 112.459 112.083 107.722 108.625C102.985 105.167 98.3488 103.381 98.3488 103.381L98.3521 103.382Z" fill="black"/>
<path d="M94.0652 103.564C94.5753 103.57 89.1049 107.104 94.8847 112.213C94.8704 115.128 94.7481 115.177 95.5571 116.548C96.2163 117.666 101.356 122.75 104.806 122.639C107.032 125.355 109.069 127.136 113.581 129.223C123.45 133.123 124.616 129.069 127.923 129.973C129.651 130.446 136.513 132.195 138.629 129.646C141.224 128.029 141.837 127.761 142.449 123.837C146.083 128.569 143.38 133.949 127.875 135.839C122.583 135.091 120.464 134.599 120.464 134.599C120.464 134.599 116.461 136.587 111.816 135.1C107.17 133.612 104.415 128.68 104.415 128.68C104.415 128.68 100.699 128.96 96.535 124.264C92.3715 119.567 95.1465 119.564 93.2462 115.65C91.3442 111.737 84.3321 103.449 94.0647 103.566L94.0652 103.564Z" fill="#00F942"/>
<path d="M126.044 101.956C124.377 101.362 115.777 95.3278 97.142 100.613C90.8208 103.524 91.9594 110.313 95.6968 111.781C96.4465 116.932 95.2939 118.157 106.625 122.124C114.021 128.458 118.169 130.154 127.458 128.506C133.677 130.4 136.601 130.944 138.04 129.088C141.535 128.37 145.286 123.593 140.726 116.365C136.165 109.137 134.736 105.056 126.046 101.957L126.044 101.956Z" fill="#00F942"/>
<path d="M106.123 109.721C106.123 109.721 104.848 109.625 99.5501 112.251" stroke="black" stroke-miterlimit="10"/>
<path d="M127.067 119.489C127.067 119.489 128.025 120.762 128.565 125.23" stroke="black" stroke-miterlimit="10"/>
<path d="M135.927 109.129C135.927 109.129 127.93 112.403 120.876 109.535C113.822 106.667 110.383 98.741 110.383 98.741C110.383 98.741 118.379 95.4671 125.433 98.3349C132.487 101.203 135.927 109.129 135.927 109.129Z" fill="#00F942"/>
<path d="M135.774 109.702C135.774 109.702 127.777 112.976 120.723 110.108C113.669 107.24 110.23 99.3143 110.23 99.3143C110.23 99.3143 118.226 96.0403 125.28 98.9082C132.335 101.776 135.774 109.702 135.774 109.702Z" fill="white"/>
<mask id="mask0_6710_33753" style="mask-type:luminance" maskUnits="userSpaceOnUse" x="110" y="97" width="26" height="15">
<path d="M135.774 109.702C135.774 109.702 127.777 112.976 120.723 110.108C113.669 107.24 110.23 99.3143 110.23 99.3143C110.23 99.3143 118.226 96.0403 125.28 98.9082C132.335 101.776 135.774 109.702 135.774 109.702Z" fill="white"/>
</mask>
<g mask="url(#mask0_6710_33753)">
<path d="M125.718 104.163C127.695 104.69 129.724 103.516 130.251 101.541C130.778 99.5654 129.603 97.5366 127.626 97.0094C125.649 96.4821 123.619 97.656 123.092 99.6313C122.566 101.607 123.741 103.635 125.718 104.163Z" fill="black"/>
</g>
</g>
<g clip-path="url(#clip2_6710_33753)">
<path d="M217.62 124.662L218.744 127.75C219.38 129.498 219.012 131.453 217.784 132.85L215.613 135.318C214.517 133.694 214.035 131.655 214.426 129.578C214.817 127.501 216.008 125.777 217.619 124.663L217.62 124.662Z" fill="#00F942"/>
<path d="M225.258 127.745C223.51 128.381 221.554 128.012 220.158 126.784L217.69 124.614C219.314 123.517 221.353 123.035 223.43 123.426C225.507 123.818 227.232 125.008 228.346 126.62L225.258 127.745Z" fill="#00F942"/>
<path d="M225.263 134.258C224.627 132.51 224.995 130.555 226.224 129.158L228.394 126.69C229.49 128.314 229.973 130.353 229.581 132.431C229.19 134.509 228 136.232 226.388 137.346L225.263 134.258Z" fill="#00F942"/>
<path d="M218.749 134.264C220.497 133.628 222.453 133.996 223.85 135.224L226.317 137.395C224.694 138.491 222.655 138.973 220.578 138.582C218.5 138.191 216.777 137 215.663 135.389L218.751 134.264L218.749 134.264Z" fill="#00F942"/>
</g>
<path d="M73.6667 144.432C73.6667 145.169 74.2636 145.766 75 145.766C75.7364 145.766 76.3333 145.169 76.3333 144.432C76.3333 143.696 75.7364 143.099 75 143.099C74.2636 143.099 73.6667 143.696 73.6667 144.432ZM108 138L105.719 139.77L108.393 140.86L108 138ZM74.8944 144.659C80.0876 147.08 87.0956 147.734 93.341 146.914C96.4662 146.504 99.4117 145.723 101.853 144.602C104.291 143.482 106.247 142.014 107.362 140.216L106.938 139.953C105.893 141.636 104.034 143.051 101.644 144.148C99.2583 145.243 96.3634 146.013 93.2759 146.418C87.0961 147.229 80.1897 146.576 75.1056 144.206L74.8944 144.659Z" fill="#5A58F2"/>
<path d="M131.392 136.726C130.688 136.509 129.942 136.904 129.726 137.608C129.509 138.312 129.904 139.058 130.608 139.275C131.312 139.491 132.058 139.096 132.274 138.392C132.491 137.689 132.096 136.943 131.392 136.726ZM132.751 157.526L134.609 155.316L131.766 154.812L132.751 157.526ZM130.768 138.094C131.933 140.976 133.857 148.106 132.896 155.277L133.392 155.344C134.368 148.062 132.418 140.842 131.232 137.907L130.768 138.094Z" fill="#5A58F2"/>
<path d="M48.2236 147.95C48.2236 147.95 49.6918 134.581 58.0163 143.212C66.3408 151.843 60.2642 152.832 57.9255 150.55C55.5868 148.269 53.5753 144.845 53.5753 144.845" stroke="#00F942" stroke-width="0.5" stroke-miterlimit="10" stroke-linecap="round"/>
<path d="M55.4563 141.082C55.4563 141.082 65.5977 129.515 69.5279 132.715C73.4582 135.916 61.6327 145.687 60.3128 144.634C58.9929 143.581 64.8435 138.542 67.4061 141.281C69.9687 144.02 65.005 149.993 63.6076 149.066C62.2102 148.138 67.3614 142.593 70.8253 146.026C74.0958 149.267 66.4899 153.205 66.1828 152.198C65.6993 150.615 70.3148 146.031 70.3148 146.031" stroke="#00F942" stroke-width="0.5" stroke-miterlimit="10" stroke-linecap="round"/>
<path d="M60.3569 145.91C60.3569 145.91 58.9625 148.994 61.3504 151.442" stroke="#00F942" stroke-width="0.5" stroke-miterlimit="10" stroke-linecap="round"/>
<path d="M64.9791 132.996C64.9791 132.996 66.5764 135.225 69.8428 133.026" stroke="#00F942" stroke-width="0.5" stroke-miterlimit="10" stroke-linecap="round"/>
<path d="M212.689 129.665L209.955 130.587L212.121 132.496L212.689 129.665ZM174.032 135.104L173.794 135.178L173.794 135.178L174.032 135.104ZM187.2 127.999L186.952 128.029L186.954 128.043L186.957 128.057L187.2 127.999ZM149.306 123.954C149.513 123.247 149.109 122.506 148.402 122.298C147.696 122.09 146.955 122.494 146.748 123.2C146.54 123.907 146.944 124.648 147.651 124.856C148.357 125.064 149.098 124.66 149.306 123.954ZM211.024 131.179C206.693 135.563 198.578 140.145 190.988 141.801C187.195 142.629 183.56 142.72 180.605 141.713C177.664 140.712 175.38 138.619 174.271 135.03L173.794 135.178C174.951 138.923 177.355 141.135 180.444 142.187C183.519 143.234 187.255 143.128 191.095 142.29C198.774 140.614 206.977 135.987 211.38 131.53L211.024 131.179ZM174.271 135.03C173.239 131.689 173.473 129.038 174.392 127.079C175.312 125.12 176.928 123.829 178.707 123.229C180.488 122.627 182.421 122.72 183.968 123.513C185.507 124.302 186.682 125.791 186.952 128.029L187.448 127.969C187.159 125.569 185.885 123.934 184.196 123.068C182.515 122.206 180.44 122.115 178.546 122.755C176.649 123.396 174.922 124.774 173.94 126.866C172.957 128.96 172.732 131.743 173.794 135.178L174.271 135.03ZM186.957 128.057C187.861 131.812 186.275 135.046 183.255 137.396C180.227 139.751 175.772 141.202 171.019 141.346C166.269 141.49 161.244 140.328 157.079 137.488C152.919 134.651 149.602 130.131 148.272 123.528L147.782 123.626C149.137 130.354 152.527 134.989 156.798 137.901C161.064 140.811 166.197 141.993 171.034 141.846C175.869 141.699 180.433 140.225 183.562 137.791C186.697 135.352 188.404 131.932 187.443 127.94L186.957 128.057Z" fill="#5A58F2"/>
<rect x="39.5532" y="160" width="199.936" height="112.64" fill="#00F942"/>
<rect x="30.7842" y="164.4" width="217.474" height="123.2" fill="#5A58F2"/>
<g filter="url(#filter0_b_6710_33753)">
<rect x="15" y="169.68" width="249.043" height="140.8" fill="#202020" fill-opacity="0.9"/>
</g>
<mask id="mask1_6710_33753" style="mask-type:alpha" maskUnits="userSpaceOnUse" x="15" y="169" width="250" height="141">
<rect x="15.8774" y="169.68" width="249.123" height="140" fill="#958080" fill-opacity="0.9"/>
</mask>
<g mask="url(#mask1_6710_33753)">
<g opacity="0.15">
<path d="M226.129 107.528C193.058 127.898 181.445 170.396 200.244 202.253C219.044 234.111 261.251 243.458 294.323 223.088C327.395 202.718 339.008 160.221 320.208 128.363C301.409 96.5057 259.21 87.1529 226.129 107.528ZM294.074 222.665C261.244 242.887 219.354 233.602 200.697 201.986C182.04 170.37 193.554 128.181 226.384 107.96C259.214 87.7387 301.098 97.0144 319.76 128.639C338.422 160.263 326.898 202.436 294.068 222.657L294.074 222.665Z" fill="#5D5DF9"/>
<path d="M230.426 114.809C201.518 132.614 191.37 169.752 207.802 197.598C224.235 225.444 261.119 233.612 290.026 215.807C318.934 198.002 329.082 160.864 312.65 133.018C296.217 105.172 259.333 97.0036 230.426 114.809ZM289.777 215.384C261.12 233.035 224.545 224.935 208.255 197.331C191.965 169.726 202.024 132.891 230.68 115.24C259.337 97.5894 295.912 105.689 312.202 133.294C328.492 160.899 318.428 197.725 289.772 215.376L289.777 215.384Z" fill="#5D5DF9"/>
<path d="M234.33 121.427C209.21 136.899 200.382 169.177 214.667 193.382C228.951 217.588 261.003 224.687 286.132 209.209C311.26 193.732 320.079 161.459 305.795 137.253C291.51 113.047 259.458 105.949 234.33 121.427ZM285.872 208.769C260.994 224.092 229.251 217.062 215.109 193.098C200.968 169.134 209.702 137.172 234.579 121.849C259.457 106.526 291.2 113.556 305.342 137.52C319.484 161.485 310.749 193.446 285.872 208.769Z" fill="#5D5DF9"/>
<path d="M237.97 127.595C216.379 140.894 208.796 168.641 221.07 189.439C233.343 210.238 260.901 216.341 282.492 203.042C304.083 189.743 311.665 161.996 299.392 141.198C287.119 120.399 259.561 114.296 237.97 127.595ZM282.232 202.602C260.883 215.752 233.648 209.72 221.512 189.155C209.376 168.589 216.87 141.167 238.219 128.018C259.568 114.868 286.803 120.899 298.939 141.465C311.075 162.03 303.582 189.452 282.232 202.602Z" fill="#5D5DF9"/>
<path d="M242.002 134.425C224.324 145.313 218.117 168.026 228.166 185.054C238.215 202.083 260.773 207.079 278.45 196.19C296.128 185.302 302.334 162.59 292.285 145.561C282.237 128.532 259.679 123.537 242.002 134.425ZM278.201 195.768C260.765 206.507 238.525 201.574 228.619 184.787C218.713 168 224.834 145.599 242.261 134.865C259.688 124.131 281.937 129.058 291.843 145.845C301.749 162.632 295.628 185.034 278.201 195.768Z" fill="#5D5DF9"/>
<path d="M245.926 141.075C232.054 149.619 227.181 167.452 235.066 180.814C242.952 194.177 260.654 198.105 274.535 189.555C288.416 181.006 293.28 163.178 285.395 149.815C277.509 136.453 259.806 132.525 245.926 141.075ZM274.275 189.115C260.646 197.51 243.257 193.66 235.509 180.53C227.761 167.401 232.545 149.892 246.175 141.497C259.805 133.102 277.194 136.953 284.942 150.083C292.69 163.212 287.905 180.72 274.275 189.115Z" fill="#5D5DF9"/>
<path d="M249.206 146.631C238.513 153.217 234.761 166.95 240.839 177.249C246.917 187.549 260.556 190.57 271.248 183.984C281.941 177.398 285.693 163.666 279.615 153.366C273.537 143.066 259.898 140.045 249.206 146.631ZM270.999 183.561C260.557 189.993 247.227 187.041 241.292 176.982C235.356 166.924 239.024 153.503 249.466 147.071C259.907 140.64 273.237 143.592 279.172 153.65C285.108 163.709 281.44 177.13 270.999 183.561Z" fill="#5D5DF9"/>
<path d="M252.524 152.257C245.037 156.869 242.417 166.457 246.673 173.669C250.929 180.881 260.452 182.989 267.938 178.378C275.425 173.767 278.045 164.179 273.789 156.967C269.534 149.755 260.011 147.646 252.524 152.257Z" fill="#5D5DF9"/>
<path d="M213.386 209.5C174.16 233.672 161.3 285.623 184.721 325.298C208.143 364.972 259.119 377.587 298.344 353.416C337.57 329.245 350.43 277.293 327.009 237.618C303.587 197.944 252.611 185.329 213.386 209.5ZM298.034 352.889C259.095 376.884 208.503 364.355 185.253 324.97C162.002 285.586 174.764 234.032 213.703 210.037C252.642 186.043 303.228 198.561 326.478 237.946C349.728 277.33 336.966 328.884 298.027 352.879L298.034 352.889Z" fill="#00F942"/>
<path d="M218.738 218.568C184.451 239.696 173.213 285.095 193.686 319.774C214.158 354.453 258.705 365.477 292.991 344.349C327.278 323.222 338.516 277.822 318.044 243.143C297.571 208.464 253.025 197.44 218.738 218.568ZM292.68 343.823C258.691 364.768 214.518 353.836 194.223 319.458C173.928 285.08 185.072 240.061 219.061 219.116C253.051 198.172 297.224 209.103 317.519 243.481C337.813 277.86 326.67 322.878 292.68 343.823Z" fill="#00F942"/>
<path d="M223.604 226.808C193.81 245.168 184.034 284.626 201.83 314.772C219.625 344.917 258.337 354.497 288.141 336.131C317.945 317.765 327.711 278.313 309.915 248.168C292.119 218.023 253.408 208.443 223.604 226.808ZM287.817 335.583C258.311 353.766 219.973 344.278 202.354 314.434C184.736 284.589 194.408 245.517 223.915 227.335C253.421 209.152 291.759 218.64 309.378 248.484C326.996 278.329 317.324 317.401 287.817 335.583Z" fill="#00F942"/>
<path d="M228.138 234.489C202.53 250.27 194.133 284.189 209.424 310.091C224.715 335.993 257.997 344.23 283.606 328.449C309.215 312.669 317.611 278.749 302.321 252.847C287.03 226.945 253.747 218.709 228.138 234.489ZM283.283 327.901C257.961 343.505 225.068 335.365 209.949 309.753C194.829 284.142 203.127 250.619 228.449 235.016C253.771 219.412 286.664 227.552 301.783 253.164C316.903 278.775 308.605 312.298 283.283 327.901Z" fill="#00F942"/>
<path d="M233.161 242.998C212.194 255.918 205.321 283.683 217.84 304.89C230.36 326.097 257.603 332.839 278.57 319.919C299.538 306.999 306.41 279.234 293.891 258.027C281.372 236.82 254.128 230.078 233.161 242.998ZM278.26 319.393C257.579 332.136 230.72 325.48 218.378 304.574C206.036 283.668 212.815 256.283 233.485 243.546C254.154 230.809 281.025 237.459 293.366 258.365C305.708 279.271 298.929 306.656 278.26 319.393Z" fill="#00F942"/>
<path d="M238.05 251.281C221.597 261.419 216.201 283.22 226.025 299.861C235.849 316.502 257.229 321.803 273.693 311.658C290.156 301.513 295.542 279.718 285.718 263.077C275.894 246.436 254.514 241.136 238.05 251.281ZM273.369 311.11C257.203 321.071 236.202 315.874 226.55 299.523C216.897 283.172 222.195 261.769 238.361 251.807C254.527 241.846 275.528 247.043 285.181 263.394C294.834 279.745 289.536 301.148 273.369 311.11Z" fill="#00F942"/>
<path d="M242.134 258.199C229.452 266.014 225.297 282.801 232.869 295.628C240.442 308.455 256.913 312.532 269.596 304.717C282.278 296.902 286.433 280.115 278.861 267.287C271.288 254.46 254.817 250.384 242.134 258.199ZM269.285 304.19C256.9 311.822 240.802 307.838 233.407 295.312C226.012 282.785 230.073 266.378 242.458 258.747C254.843 251.115 270.941 255.099 278.336 267.625C285.731 280.152 281.67 296.559 269.285 304.19Z" fill="#00F942"/>
<path d="M246.27 265.204C237.39 270.676 234.489 282.397 239.791 291.378C245.093 300.36 256.594 303.206 265.474 297.734C274.354 292.262 277.255 280.541 271.953 271.56C266.651 262.578 255.15 259.732 246.27 265.204Z" fill="#00F942"/>
</g>
</g>
<rect width="280" height="48" transform="translate(0 332)" fill="#00F942"/>
<g clip-path="url(#clip3_6710_33753)">
<path d="M99.6461 344.53L97.4268 345.717L99.4681 349.102C99.4681 349.102 103.938 351.829 104.266 351.829C104.594 351.829 110.454 352.208 110.706 352.032C110.958 351.855 114.267 350.691 114.671 350.452C115.074 350.213 116.616 348.974 116.375 348.775C115.97 348.439 116.45 347.89 115.576 347.559C114.504 347.152 111.185 345.818 109.392 345.794C107.599 345.769 104.919 346.118 103.102 345.413C101.285 344.708 99.6436 344.53 99.6436 344.53H99.6461Z" fill="black"/>
<path d="M98.0948 345.01C98.2594 344.968 97.3417 346.57 99.3379 347.726C99.6585 350.218 102.672 350.685 103.779 350.207C106.013 352.344 110.243 351.815 111.284 350.491C111.764 350.674 114.161 351.047 114.696 349.638C115.574 349.343 115.905 348.555 115.554 347.323C118.335 349.945 114.327 352.076 112.445 352.181C111.358 353.448 109.418 352.664 109.418 352.664C109.418 352.664 108.303 353.647 106.684 353.566C105.066 353.486 103.758 352.138 103.758 352.138C103.758 352.138 101.991 352.221 100.85 351.394C99.862 350.678 99.3367 349.947 99.0564 348.91C97.8742 348.511 95.1796 345.736 98.0936 345.01H98.0948Z" fill="#00F942"/>
<path d="M108.414 341.699C106.46 341.699 104.28 340.088 99.02 343.744C97.2395 345.221 98.2681 347.332 99.5953 347.374C100.277 348.964 100.492 349.933 103.906 349.843C106.697 351.365 108.299 351.433 111.14 350.109C113.095 350.31 113.637 350.261 114.514 349.291C115.736 349.622 116.28 347.166 114.36 345.072C112.364 342.892 111.633 341.701 108.413 341.701L108.414 341.699Z" fill="#00F942"/>
<path d="M113.041 343.653C113.041 343.653 110.212 345.801 107.107 345.409C104.002 345.017 101.796 342.232 101.796 342.232C101.796 342.232 104.625 340.083 107.73 340.476C110.835 340.868 113.041 343.653 113.041 343.653Z" fill="#00F942"/>
<path d="M113.041 343.851C113.041 343.851 110.212 346 107.107 345.607C104.002 345.215 101.796 342.43 101.796 342.43C101.796 342.43 104.625 340.281 107.73 340.674C110.835 341.066 113.041 343.851 113.041 343.851Z" fill="white"/>
<mask id="mask2_6710_33753" style="mask-type:luminance" maskUnits="userSpaceOnUse" x="101" y="340" width="13" height="6">
<path d="M113.041 343.853C113.041 343.853 110.212 346.002 107.107 345.609C104.001 345.217 101.795 342.432 101.795 342.432C101.795 342.432 104.624 340.283 107.729 340.676C110.835 341.068 113.041 343.853 113.041 343.853Z" fill="white"/>
</mask>
<g mask="url(#mask2_6710_33753)">
<path d="M108.462 342.716C109.303 342.716 109.984 342.035 109.984 341.194C109.984 340.353 109.303 339.672 108.462 339.672C107.621 339.672 106.94 340.353 106.94 341.194C106.94 342.035 107.621 342.716 108.462 342.716Z" fill="black"/>
</g>
<path d="M102.296 345.576L100.087 347.08L100.128 347.141L102.337 345.636L102.296 345.576Z" fill="black"/>
<path d="M110.354 347.171L110.285 347.194L111.082 349.535L111.151 349.511L110.354 347.171Z" fill="black"/>
</g>
<g clip-path="url(#clip4_6710_33753)">
<path d="M123.43 350.924L123.111 352.395H118.604L122.672 340.652H127.395L131.584 352.395H127.06L126.673 350.924H123.43ZM124.222 348.136H125.935L125.392 345.881C125.278 345.393 125.197 344.954 125.152 344.565H125.005C124.931 345.195 124.861 345.634 124.798 345.881L124.222 348.136Z" fill="#0D0D0D"/>
<path d="M132.763 352.395V340.652H137.038V352.395H132.763Z" fill="#0D0D0D"/>
<path d="M138.914 352.395L140.825 340.652H145.203L146.58 345.452C146.666 345.744 146.751 346.201 146.839 346.82H146.942C146.987 346.293 147.068 345.836 147.183 345.452L148.551 340.652H152.905L154.831 352.395H150.718L150.185 347.13C150.151 346.781 150.131 346.39 150.124 345.96H150.047C149.951 346.471 149.879 346.804 149.831 346.959L148.076 352.395H145.581L143.997 347.243C143.912 346.968 143.84 346.541 143.781 345.96H143.653C143.657 346.426 143.653 346.734 143.635 346.889L143.041 352.395H138.912H138.914Z" fill="#0D0D0D"/>
<path d="M156.714 352.395V340.652H160.989V352.395H156.714Z" fill="#0D0D0D"/>
<path d="M163.338 352.395V340.652H167.424L170.151 345.083C170.587 345.787 170.954 346.482 171.251 347.164H171.379C171.247 346.568 171.163 346.118 171.13 345.814C171.1 345.551 171.08 345.071 171.069 344.376L171.008 340.652H175.094V352.395H171.008L168.074 347.758C167.811 347.346 167.541 346.835 167.266 346.226H167.145C167.289 347.173 167.363 347.895 167.368 348.395L167.419 352.395H163.333H163.338Z" fill="#0D0D0D"/>
<path d="M178.798 352.395V344.36L176.388 344.473V340.652H185.352V344.473L182.987 344.36V352.395H178.798Z" fill="#0D0D0D"/>
</g>
<path d="M55.85 368.41L54.53 365.16H54.51L53.17 368.41H55.85ZM54.13 363.92H55L58.03 371H56.91L56.2 369.25H52.83L52.13 371H51.01L54.13 363.92ZM58.951 363.92H59.911V371H58.951V363.92ZM69.4474 365.45C69.2474 365.19 68.9941 364.99 68.6874 364.85C68.3808 364.71 68.0641 364.64 67.7374 364.64C67.3374 364.64 66.9741 364.717 66.6474 364.87C66.3274 365.017 66.0508 365.22 65.8174 365.48C65.5908 365.74 65.4141 366.047 65.2874 366.4C65.1608 366.747 65.0974 367.12 65.0974 367.52C65.0974 367.893 65.1574 368.247 65.2774 368.58C65.3974 368.913 65.5708 369.207 65.7974 369.46C66.0241 369.713 66.3008 369.913 66.6274 370.06C66.9541 370.207 67.3241 370.28 67.7374 370.28C68.1441 370.28 68.5008 370.197 68.8074 370.03C69.1141 369.863 69.3741 369.63 69.5874 369.33L70.3974 369.94C70.3441 370.013 70.2508 370.12 70.1174 370.26C69.9841 370.393 69.8074 370.53 69.5874 370.67C69.3674 370.803 69.1008 370.92 68.7874 371.02C68.4808 371.127 68.1241 371.18 67.7174 371.18C67.1574 371.18 66.6508 371.073 66.1974 370.86C65.7508 370.647 65.3674 370.367 65.0474 370.02C64.7341 369.673 64.4941 369.283 64.3274 368.85C64.1608 368.41 64.0774 367.967 64.0774 367.52C64.0774 366.973 64.1674 366.47 64.3474 366.01C64.5274 365.543 64.7774 365.143 65.0974 364.81C65.4241 364.47 65.8141 364.207 66.2674 364.02C66.7208 363.833 67.2208 363.74 67.7674 363.74C68.2341 363.74 68.6908 363.83 69.1374 364.01C69.5908 364.19 69.9608 364.467 70.2474 364.84L69.4474 365.45ZM71.3284 366.26H72.2284V366.99H72.2484C72.3084 366.863 72.3884 366.75 72.4884 366.65C72.5884 366.543 72.6984 366.453 72.8184 366.38C72.9451 366.307 73.0818 366.25 73.2284 366.21C73.3751 366.163 73.5218 366.14 73.6684 366.14C73.8151 366.14 73.9484 366.16 74.0684 366.2L74.0284 367.17C73.9551 367.15 73.8818 367.133 73.8084 367.12C73.7351 367.107 73.6618 367.1 73.5884 367.1C73.1484 367.1 72.8118 367.223 72.5784 367.47C72.3451 367.717 72.2284 368.1 72.2284 368.62V371H71.3284V366.26ZM78.3738 368.24C78.3672 368.04 78.3338 367.857 78.2738 367.69C78.2205 367.523 78.1372 367.38 78.0238 367.26C77.9105 367.133 77.7672 367.037 77.5938 366.97C77.4272 366.897 77.2305 366.86 77.0038 366.86C76.7838 366.86 76.5805 366.903 76.3938 366.99C76.2138 367.07 76.0605 367.177 75.9338 367.31C75.8072 367.443 75.7072 367.593 75.6338 367.76C75.5672 367.92 75.5338 368.08 75.5338 368.24H78.3738ZM75.5338 368.96C75.5338 369.167 75.5772 369.357 75.6638 369.53C75.7572 369.697 75.8772 369.84 76.0238 369.96C76.1705 370.08 76.3405 370.173 76.5338 370.24C76.7272 370.307 76.9272 370.34 77.1338 370.34C77.4138 370.34 77.6572 370.277 77.8638 370.15C78.0705 370.017 78.2605 369.843 78.4338 369.63L79.1138 370.15C78.6138 370.797 77.9138 371.12 77.0138 371.12C76.6405 371.12 76.3005 371.057 75.9938 370.93C75.6938 370.803 75.4372 370.63 75.2238 370.41C75.0172 370.183 74.8572 369.92 74.7438 369.62C74.6305 369.313 74.5738 368.983 74.5738 368.63C74.5738 368.277 74.6338 367.95 74.7538 367.65C74.8805 367.343 75.0505 367.08 75.2638 366.86C75.4838 366.633 75.7438 366.457 76.0438 366.33C76.3438 366.203 76.6705 366.14 77.0238 366.14C77.4438 366.14 77.7972 366.213 78.0838 366.36C78.3772 366.507 78.6172 366.7 78.8038 366.94C78.9905 367.173 79.1238 367.44 79.2038 367.74C79.2905 368.033 79.3338 368.333 79.3338 368.64V368.96H75.5338ZM82.9705 368.72C82.7571 368.72 82.5371 368.733 82.3105 368.76C82.0905 368.78 81.8871 368.823 81.7005 368.89C81.5205 368.957 81.3705 369.05 81.2505 369.17C81.1371 369.29 81.0805 369.443 81.0805 369.63C81.0805 369.903 81.1705 370.1 81.3505 370.22C81.5371 370.34 81.7871 370.4 82.1005 370.4C82.3471 370.4 82.5571 370.36 82.7305 370.28C82.9038 370.193 83.0438 370.083 83.1505 369.95C83.2571 369.817 83.3338 369.67 83.3805 369.51C83.4271 369.343 83.4505 369.18 83.4505 369.02V368.72H82.9705ZM80.4305 366.84C80.6838 366.607 80.9771 366.433 81.3105 366.32C81.6438 366.2 81.9771 366.14 82.3105 366.14C82.6571 366.14 82.9538 366.183 83.2005 366.27C83.4538 366.357 83.6605 366.473 83.8205 366.62C83.9805 366.767 84.0971 366.937 84.1705 367.13C84.2505 367.317 84.2905 367.513 84.2905 367.72V370.14C84.2905 370.307 84.2938 370.46 84.3005 370.6C84.3071 370.74 84.3171 370.873 84.3305 371H83.5305C83.5105 370.76 83.5005 370.52 83.5005 370.28H83.4805C83.2805 370.587 83.0438 370.803 82.7705 370.93C82.4971 371.057 82.1805 371.12 81.8205 371.12C81.6005 371.12 81.3905 371.09 81.1905 371.03C80.9905 370.97 80.8138 370.88 80.6605 370.76C80.5138 370.64 80.3971 370.493 80.3105 370.32C80.2238 370.14 80.1805 369.933 80.1805 369.7C80.1805 369.393 80.2471 369.137 80.3805 368.93C80.5205 368.723 80.7071 368.557 80.9405 368.43C81.1805 368.297 81.4571 368.203 81.7705 368.15C82.0905 368.09 82.4305 368.06 82.7905 368.06H83.4505V367.86C83.4505 367.74 83.4271 367.62 83.3805 367.5C83.3338 367.38 83.2638 367.273 83.1705 367.18C83.0771 367.08 82.9605 367.003 82.8205 366.95C82.6805 366.89 82.5138 366.86 82.3205 366.86C82.1471 366.86 81.9938 366.877 81.8605 366.91C81.7338 366.943 81.6171 366.987 81.5105 367.04C81.4038 367.087 81.3071 367.143 81.2205 367.21C81.1338 367.277 81.0505 367.34 80.9705 367.4L80.4305 366.84ZM88.136 367.04H86.846V369.19C86.846 369.323 86.8493 369.457 86.856 369.59C86.8627 369.717 86.886 369.833 86.926 369.94C86.9727 370.04 87.0393 370.123 87.126 370.19C87.2193 370.25 87.3527 370.28 87.526 370.28C87.6327 370.28 87.7427 370.27 87.856 370.25C87.9693 370.23 88.0727 370.193 88.166 370.14V370.96C88.0593 371.02 87.9193 371.06 87.746 371.08C87.5793 371.107 87.4493 371.12 87.356 371.12C87.0093 371.12 86.7393 371.073 86.546 370.98C86.3593 370.88 86.2193 370.753 86.126 370.6C86.0393 370.447 85.986 370.277 85.966 370.09C85.9527 369.897 85.946 369.703 85.946 369.51V367.04H84.906V366.26H85.946V364.93H86.846V366.26H88.136V367.04ZM92.8172 368.24C92.8105 368.04 92.7772 367.857 92.7172 367.69C92.6639 367.523 92.5805 367.38 92.4672 367.26C92.3539 367.133 92.2105 367.037 92.0372 366.97C91.8705 366.897 91.6739 366.86 91.4472 366.86C91.2272 366.86 91.0239 366.903 90.8372 366.99C90.6572 367.07 90.5039 367.177 90.3772 367.31C90.2505 367.443 90.1505 367.593 90.0772 367.76C90.0105 367.92 89.9772 368.08 89.9772 368.24H92.8172ZM89.9772 368.96C89.9772 369.167 90.0205 369.357 90.1072 369.53C90.2005 369.697 90.3205 369.84 90.4672 369.96C90.6139 370.08 90.7839 370.173 90.9772 370.24C91.1705 370.307 91.3705 370.34 91.5772 370.34C91.8572 370.34 92.1005 370.277 92.3072 370.15C92.5139 370.017 92.7039 369.843 92.8772 369.63L93.5572 370.15C93.0572 370.797 92.3572 371.12 91.4572 371.12C91.0839 371.12 90.7439 371.057 90.4372 370.93C90.1372 370.803 89.8805 370.63 89.6672 370.41C89.4605 370.183 89.3005 369.92 89.1872 369.62C89.0739 369.313 89.0172 368.983 89.0172 368.63C89.0172 368.277 89.0772 367.95 89.1972 367.65C89.3239 367.343 89.4939 367.08 89.7072 366.86C89.9272 366.633 90.1872 366.457 90.4872 366.33C90.7872 366.203 91.1139 366.14 91.4672 366.14C91.8872 366.14 92.2405 366.213 92.5272 366.36C92.8205 366.507 93.0605 366.7 93.2472 366.94C93.4339 367.173 93.5672 367.44 93.6472 367.74C93.7339 368.033 93.7772 368.333 93.7772 368.64V368.96H89.9772Z" fill="#1B1B1B"/>
<path d="M101.73 367.97C101.73 367.79 101.793 367.637 101.92 367.51C102.053 367.377 102.21 367.31 102.39 367.31C102.57 367.31 102.723 367.377 102.85 367.51C102.983 367.637 103.05 367.79 103.05 367.97C103.05 368.15 102.983 368.307 102.85 368.44C102.723 368.567 102.57 368.63 102.39 368.63C102.21 368.63 102.053 368.567 101.92 368.44C101.793 368.307 101.73 368.15 101.73 367.97Z" fill="#1B1B1B"/>
<path d="M115.84 365.45C115.64 365.19 115.387 364.99 115.08 364.85C114.773 364.71 114.457 364.64 114.13 364.64C113.73 364.64 113.367 364.717 113.04 364.87C112.72 365.017 112.443 365.22 112.21 365.48C111.983 365.74 111.807 366.047 111.68 366.4C111.553 366.747 111.49 367.12 111.49 367.52C111.49 367.893 111.55 368.247 111.67 368.58C111.79 368.913 111.963 369.207 112.19 369.46C112.417 369.713 112.693 369.913 113.02 370.06C113.347 370.207 113.717 370.28 114.13 370.28C114.537 370.28 114.893 370.197 115.2 370.03C115.507 369.863 115.767 369.63 115.98 369.33L116.79 369.94C116.737 370.013 116.643 370.12 116.51 370.26C116.377 370.393 116.2 370.53 115.98 370.67C115.76 370.803 115.493 370.92 115.18 371.02C114.873 371.127 114.517 371.18 114.11 371.18C113.55 371.18 113.043 371.073 112.59 370.86C112.143 370.647 111.76 370.367 111.44 370.02C111.127 369.673 110.887 369.283 110.72 368.85C110.553 368.41 110.47 367.967 110.47 367.52C110.47 366.973 110.56 366.47 110.74 366.01C110.92 365.543 111.17 365.143 111.49 364.81C111.817 364.47 112.207 364.207 112.66 364.02C113.113 363.833 113.613 363.74 114.16 363.74C114.627 363.74 115.083 363.83 115.53 364.01C115.983 364.19 116.353 364.467 116.64 364.84L115.84 365.45ZM117.721 366.26H118.621V366.99H118.641C118.701 366.863 118.781 366.75 118.881 366.65C118.981 366.543 119.091 366.453 119.211 366.38C119.338 366.307 119.474 366.25 119.621 366.21C119.768 366.163 119.914 366.14 120.061 366.14C120.208 366.14 120.341 366.16 120.461 366.2L120.421 367.17C120.348 367.15 120.274 367.133 120.201 367.12C120.128 367.107 120.054 367.1 119.981 367.1C119.541 367.1 119.204 367.223 118.971 367.47C118.738 367.717 118.621 368.1 118.621 368.62V371H117.721V366.26ZM124.766 368.24C124.76 368.04 124.726 367.857 124.666 367.69C124.613 367.523 124.53 367.38 124.416 367.26C124.303 367.133 124.16 367.037 123.986 366.97C123.82 366.897 123.623 366.86 123.396 366.86C123.176 366.86 122.973 366.903 122.786 366.99C122.606 367.07 122.453 367.177 122.326 367.31C122.2 367.443 122.1 367.593 122.026 367.76C121.96 367.92 121.926 368.08 121.926 368.24H124.766ZM121.926 368.96C121.926 369.167 121.97 369.357 122.056 369.53C122.15 369.697 122.27 369.84 122.416 369.96C122.563 370.08 122.733 370.173 122.926 370.24C123.12 370.307 123.32 370.34 123.526 370.34C123.806 370.34 124.05 370.277 124.256 370.15C124.463 370.017 124.653 369.843 124.826 369.63L125.506 370.15C125.006 370.797 124.306 371.12 123.406 371.12C123.033 371.12 122.693 371.057 122.386 370.93C122.086 370.803 121.83 370.63 121.616 370.41C121.41 370.183 121.25 369.92 121.136 369.62C121.023 369.313 120.966 368.983 120.966 368.63C120.966 368.277 121.026 367.95 121.146 367.65C121.273 367.343 121.443 367.08 121.656 366.86C121.876 366.633 122.136 366.457 122.436 366.33C122.736 366.203 123.063 366.14 123.416 366.14C123.836 366.14 124.19 366.213 124.476 366.36C124.77 366.507 125.01 366.7 125.196 366.94C125.383 367.173 125.516 367.44 125.596 367.74C125.683 368.033 125.726 368.333 125.726 368.64V368.96H121.926ZM129.363 368.72C129.15 368.72 128.93 368.733 128.703 368.76C128.483 368.78 128.28 368.823 128.093 368.89C127.913 368.957 127.763 369.05 127.643 369.17C127.53 369.29 127.473 369.443 127.473 369.63C127.473 369.903 127.563 370.1 127.743 370.22C127.93 370.34 128.18 370.4 128.493 370.4C128.74 370.4 128.95 370.36 129.123 370.28C129.296 370.193 129.436 370.083 129.543 369.95C129.65 369.817 129.726 369.67 129.773 369.51C129.82 369.343 129.843 369.18 129.843 369.02V368.72H129.363ZM126.823 366.84C127.076 366.607 127.37 366.433 127.703 366.32C128.036 366.2 128.37 366.14 128.703 366.14C129.05 366.14 129.346 366.183 129.593 366.27C129.846 366.357 130.053 366.473 130.213 366.62C130.373 366.767 130.49 366.937 130.563 367.13C130.643 367.317 130.683 367.513 130.683 367.72V370.14C130.683 370.307 130.686 370.46 130.693 370.6C130.7 370.74 130.71 370.873 130.723 371H129.923C129.903 370.76 129.893 370.52 129.893 370.28H129.873C129.673 370.587 129.436 370.803 129.163 370.93C128.89 371.057 128.573 371.12 128.213 371.12C127.993 371.12 127.783 371.09 127.583 371.03C127.383 370.97 127.206 370.88 127.053 370.76C126.906 370.64 126.79 370.493 126.703 370.32C126.616 370.14 126.573 369.933 126.573 369.7C126.573 369.393 126.64 369.137 126.773 368.93C126.913 368.723 127.1 368.557 127.333 368.43C127.573 368.297 127.85 368.203 128.163 368.15C128.483 368.09 128.823 368.06 129.183 368.06H129.843V367.86C129.843 367.74 129.82 367.62 129.773 367.5C129.726 367.38 129.656 367.273 129.563 367.18C129.47 367.08 129.353 367.003 129.213 366.95C129.073 366.89 128.906 366.86 128.713 366.86C128.54 366.86 128.386 366.877 128.253 366.91C128.126 366.943 128.01 366.987 127.903 367.04C127.796 367.087 127.7 367.143 127.613 367.21C127.526 367.277 127.443 367.34 127.363 367.4L126.823 366.84ZM134.529 367.04H133.239V369.19C133.239 369.323 133.242 369.457 133.249 369.59C133.255 369.717 133.279 369.833 133.319 369.94C133.365 370.04 133.432 370.123 133.519 370.19C133.612 370.25 133.745 370.28 133.919 370.28C134.025 370.28 134.135 370.27 134.249 370.25C134.362 370.23 134.465 370.193 134.559 370.14V370.96C134.452 371.02 134.312 371.06 134.139 371.08C133.972 371.107 133.842 371.12 133.749 371.12C133.402 371.12 133.132 371.073 132.939 370.98C132.752 370.88 132.612 370.753 132.519 370.6C132.432 370.447 132.379 370.277 132.359 370.09C132.345 369.897 132.339 369.703 132.339 369.51V367.04H131.299V366.26H132.339V364.93H133.239V366.26H134.529V367.04ZM139.21 368.24C139.203 368.04 139.17 367.857 139.11 367.69C139.056 367.523 138.973 367.38 138.86 367.26C138.746 367.133 138.603 367.037 138.43 366.97C138.263 366.897 138.066 366.86 137.84 366.86C137.62 366.86 137.416 366.903 137.23 366.99C137.05 367.07 136.896 367.177 136.77 367.31C136.643 367.443 136.543 367.593 136.47 367.76C136.403 367.92 136.37 368.08 136.37 368.24H139.21ZM136.37 368.96C136.37 369.167 136.413 369.357 136.5 369.53C136.593 369.697 136.713 369.84 136.86 369.96C137.006 370.08 137.176 370.173 137.37 370.24C137.563 370.307 137.763 370.34 137.97 370.34C138.25 370.34 138.493 370.277 138.7 370.15C138.906 370.017 139.096 369.843 139.27 369.63L139.95 370.15C139.45 370.797 138.75 371.12 137.85 371.12C137.476 371.12 137.136 371.057 136.83 370.93C136.53 370.803 136.273 370.63 136.06 370.41C135.853 370.183 135.693 369.92 135.58 369.62C135.466 369.313 135.41 368.983 135.41 368.63C135.41 368.277 135.47 367.95 135.59 367.65C135.716 367.343 135.886 367.08 136.1 366.86C136.32 366.633 136.58 366.457 136.88 366.33C137.18 366.203 137.506 366.14 137.86 366.14C138.28 366.14 138.633 366.213 138.92 366.36C139.213 366.507 139.453 366.7 139.64 366.94C139.826 367.173 139.96 367.44 140.04 367.74C140.126 368.033 140.17 368.333 140.17 368.64V368.96H136.37ZM144.19 363.92H145.62L147.87 369.28H147.91L150.14 363.92H151.57V371H150.61V365.18H150.59L148.2 371H147.56L145.17 365.18H145.15V371H144.19V363.92ZM153.322 363.92H157.892V364.82H154.282V366.93H157.642V367.83H154.282V370.1H158.072V371H153.322V363.92ZM159.365 363.92H160.795L163.045 369.28H163.085L165.315 363.92H166.745V371H165.785V365.18H165.765L163.375 371H162.735L160.345 365.18H160.325V371H159.365V363.92ZM168.498 363.92H173.068V364.82H169.458V366.93H172.818V367.83H169.458V370.1H173.248V371H168.498V363.92ZM176.901 367.45C176.795 367.317 176.661 367.207 176.501 367.12C176.348 367.027 176.158 366.98 175.931 366.98C175.718 366.98 175.531 367.027 175.371 367.12C175.218 367.207 175.141 367.337 175.141 367.51C175.141 367.65 175.185 367.763 175.271 367.85C175.365 367.937 175.471 368.007 175.591 368.06C175.718 368.113 175.851 368.153 175.991 368.18C176.131 368.207 176.251 368.23 176.351 368.25C176.545 368.297 176.725 368.353 176.891 368.42C177.065 368.487 177.211 368.573 177.331 368.68C177.458 368.787 177.555 368.917 177.621 369.07C177.695 369.223 177.731 369.41 177.731 369.63C177.731 369.897 177.675 370.127 177.561 370.32C177.448 370.507 177.301 370.66 177.121 370.78C176.941 370.9 176.735 370.987 176.501 371.04C176.275 371.093 176.045 371.12 175.811 371.12C175.418 371.12 175.071 371.06 174.771 370.94C174.478 370.82 174.215 370.6 173.981 370.28L174.661 369.72C174.808 369.867 174.971 369.997 175.151 370.11C175.331 370.223 175.551 370.28 175.811 370.28C175.925 370.28 176.038 370.27 176.151 370.25C176.271 370.223 176.375 370.187 176.461 370.14C176.555 370.087 176.628 370.023 176.681 369.95C176.741 369.87 176.771 369.78 176.771 369.68C176.771 369.547 176.728 369.437 176.641 369.35C176.561 369.263 176.461 369.197 176.341 369.15C176.228 369.097 176.105 369.057 175.971 369.03C175.845 368.997 175.731 368.97 175.631 368.95C175.438 368.903 175.255 368.85 175.081 368.79C174.908 368.73 174.755 368.65 174.621 368.55C174.488 368.45 174.381 368.323 174.301 368.17C174.221 368.017 174.181 367.827 174.181 367.6C174.181 367.353 174.231 367.14 174.331 366.96C174.438 366.773 174.575 366.62 174.741 366.5C174.915 366.38 175.108 366.29 175.321 366.23C175.541 366.17 175.761 366.14 175.981 366.14C176.301 366.14 176.608 366.2 176.901 366.32C177.195 366.44 177.428 366.64 177.601 366.92L176.901 367.45Z" fill="#1B1B1B"/>
<path d="M185.73 367.97C185.73 367.79 185.793 367.637 185.92 367.51C186.053 367.377 186.21 367.31 186.39 367.31C186.57 367.31 186.723 367.377 186.85 367.51C186.983 367.637 187.05 367.79 187.05 367.97C187.05 368.15 186.983 368.307 186.85 368.44C186.723 368.567 186.57 368.63 186.39 368.63C186.21 368.63 186.053 368.567 185.92 368.44C185.793 368.307 185.73 368.15 185.73 367.97Z" fill="#1B1B1B"/>
<path d="M198.16 370.28C198.567 370.28 198.933 370.207 199.26 370.06C199.587 369.907 199.867 369.703 200.1 369.45C200.333 369.197 200.513 368.9 200.64 368.56C200.767 368.213 200.83 367.847 200.83 367.46C200.83 367.073 200.767 366.71 200.64 366.37C200.513 366.023 200.333 365.723 200.1 365.47C199.867 365.217 199.587 365.017 199.26 364.87C198.933 364.717 198.567 364.64 198.16 364.64C197.753 364.64 197.387 364.717 197.06 364.87C196.733 365.017 196.453 365.217 196.22 365.47C195.987 365.723 195.807 366.023 195.68 366.37C195.553 366.71 195.49 367.073 195.49 367.46C195.49 367.847 195.553 368.213 195.68 368.56C195.807 368.9 195.987 369.197 196.22 369.45C196.453 369.703 196.733 369.907 197.06 370.06C197.387 370.207 197.753 370.28 198.16 370.28ZM198.16 371.18C197.62 371.18 197.123 371.087 196.67 370.9C196.217 370.707 195.827 370.443 195.5 370.11C195.18 369.777 194.927 369.383 194.74 368.93C194.56 368.477 194.47 367.987 194.47 367.46C194.47 366.933 194.56 366.443 194.74 365.99C194.927 365.537 195.18 365.143 195.5 364.81C195.827 364.477 196.217 364.217 196.67 364.03C197.123 363.837 197.62 363.74 198.16 363.74C198.7 363.74 199.197 363.837 199.65 364.03C200.103 364.217 200.49 364.477 200.81 364.81C201.137 365.143 201.39 365.537 201.57 365.99C201.757 366.443 201.85 366.933 201.85 367.46C201.85 367.987 201.757 368.477 201.57 368.93C201.39 369.383 201.137 369.777 200.81 370.11C200.49 370.443 200.103 370.707 199.65 370.9C199.197 371.087 198.7 371.18 198.16 371.18ZM203 366.26H203.9V366.99H203.92C204.034 366.737 204.23 366.533 204.51 366.38C204.79 366.22 205.114 366.14 205.48 366.14C205.707 366.14 205.924 366.177 206.13 366.25C206.344 366.317 206.527 366.423 206.68 366.57C206.84 366.717 206.967 366.907 207.06 367.14C207.154 367.367 207.2 367.637 207.2 367.95V371H206.3V368.2C206.3 367.98 206.27 367.793 206.21 367.64C206.15 367.48 206.07 367.353 205.97 367.26C205.87 367.16 205.754 367.09 205.62 367.05C205.494 367.003 205.36 366.98 205.22 366.98C205.034 366.98 204.86 367.01 204.7 367.07C204.54 367.13 204.4 367.227 204.28 367.36C204.16 367.487 204.067 367.65 204 367.85C203.934 368.05 203.9 368.287 203.9 368.56V371H203V366.26ZM211.57 363.92H212.53V370.1H215.78V371H211.57V363.92ZM216.386 364.56C216.386 364.38 216.449 364.227 216.576 364.1C216.709 363.967 216.866 363.9 217.046 363.9C217.226 363.9 217.379 363.967 217.506 364.1C217.639 364.227 217.706 364.38 217.706 364.56C217.706 364.74 217.639 364.897 217.506 365.03C217.379 365.157 217.226 365.22 217.046 365.22C216.866 365.22 216.709 365.157 216.576 365.03C216.449 364.897 216.386 364.74 216.386 364.56ZM216.596 366.26H217.496V371H216.596V366.26ZM218.358 366.26H219.398L220.818 369.89L222.178 366.26H223.138L221.278 371H220.288L218.358 366.26ZM227.448 368.24C227.441 368.04 227.408 367.857 227.348 367.69C227.295 367.523 227.211 367.38 227.098 367.26C226.985 367.133 226.841 367.037 226.668 366.97C226.501 366.897 226.305 366.86 226.078 366.86C225.858 366.86 225.655 366.903 225.468 366.99C225.288 367.07 225.135 367.177 225.008 367.31C224.881 367.443 224.781 367.593 224.708 367.76C224.641 367.92 224.608 368.08 224.608 368.24H227.448ZM224.608 368.96C224.608 369.167 224.651 369.357 224.738 369.53C224.831 369.697 224.951 369.84 225.098 369.96C225.245 370.08 225.415 370.173 225.608 370.24C225.801 370.307 226.001 370.34 226.208 370.34C226.488 370.34 226.731 370.277 226.938 370.15C227.145 370.017 227.335 369.843 227.508 369.63L228.188 370.15C227.688 370.797 226.988 371.12 226.088 371.12C225.715 371.12 225.375 371.057 225.068 370.93C224.768 370.803 224.511 370.63 224.298 370.41C224.091 370.183 223.931 369.92 223.818 369.62C223.705 369.313 223.648 368.983 223.648 368.63C223.648 368.277 223.708 367.95 223.828 367.65C223.955 367.343 224.125 367.08 224.338 366.86C224.558 366.633 224.818 366.457 225.118 366.33C225.418 366.203 225.745 366.14 226.098 366.14C226.518 366.14 226.871 366.213 227.158 366.36C227.451 366.507 227.691 366.7 227.878 366.94C228.065 367.173 228.198 367.44 228.278 367.74C228.365 368.033 228.408 368.333 228.408 368.64V368.96H224.608Z" fill="#1B1B1B"/>
<path d="M19.832 61.936H27.944L27.432 65.232H23.736L23.544 66.384H26.92L26.424 69.52H23.048L22.872 70.704H26.696L26.168 74H17.928L19.832 61.936ZM37.7684 67.12H37.8644C38.2057 66.5227 38.6004 66.0747 39.0484 65.776C39.507 65.4667 40.067 65.312 40.7284 65.312C41.507 65.312 42.1097 65.5413 42.5364 66C42.963 66.448 43.1764 67.0827 43.1764 67.904C43.1764 68.0107 43.171 68.1173 43.1604 68.224C43.1604 68.3307 43.1444 68.4907 43.1124 68.704C43.0804 68.9173 43.0324 69.232 42.9684 69.648C42.9044 70.0533 42.8137 70.608 42.6964 71.312C42.5897 72.016 42.451 72.912 42.2804 74H38.2804C38.4617 72.88 38.6004 72.0053 38.6964 71.376C38.803 70.7467 38.8777 70.288 38.9204 70C38.963 69.7013 38.9897 69.5093 39.0004 69.424C39.011 69.328 39.0164 69.264 39.0164 69.232C39.0164 68.848 38.851 68.656 38.5204 68.656C38.339 68.656 38.1844 68.7253 38.0564 68.864C37.9284 69.0027 37.827 69.312 37.7524 69.792L37.0804 74H33.0804C33.2617 72.88 33.4004 72.0053 33.4964 71.376C33.603 70.7467 33.6777 70.288 33.7204 70C33.763 69.7013 33.7897 69.5093 33.8004 69.424C33.811 69.328 33.8164 69.264 33.8164 69.232C33.8164 68.848 33.651 68.656 33.3204 68.656C33.1497 68.656 32.995 68.7253 32.8564 68.864C32.7284 69.0027 32.627 69.312 32.5524 69.792L31.8804 74H27.8804L29.2244 65.504H33.1284L32.7604 67.008H32.8884C33.1764 66.4533 33.571 66.032 34.0724 65.744C34.5844 65.456 35.1017 65.312 35.6244 65.312C36.2324 65.312 36.7177 65.472 37.0804 65.792C37.4537 66.1013 37.683 66.544 37.7684 67.12ZM54.8683 68.784C54.8683 69.4133 54.7563 70.048 54.5323 70.688C54.3083 71.328 53.9989 71.9147 53.6043 72.448C53.2096 72.9707 52.7456 73.392 52.2123 73.712C51.6789 74.032 51.1083 74.192 50.5003 74.192C50.1803 74.192 49.8603 74.128 49.5403 74C49.2203 73.8827 48.9376 73.7227 48.6923 73.52C48.4576 73.3067 48.2976 73.0773 48.2123 72.832H48.1003C48.1003 73.0027 48.0949 73.2053 48.0843 73.44C48.0736 73.664 48.0683 73.9093 48.0683 74.176C48.0683 74.208 48.0469 74.3413 48.0043 74.576C47.9723 74.8213 47.9243 75.1147 47.8602 75.456C47.8069 75.7973 47.7483 76.1493 47.6843 76.512C47.6309 76.8853 47.5829 77.216 47.5403 77.504H43.4123L45.3163 65.504H49.2523L48.9163 66.848H49.0443C49.3536 66.3573 49.7749 65.9787 50.3083 65.712C50.8523 65.4453 51.3963 65.312 51.9403 65.312C52.8469 65.312 53.5616 65.6213 54.0843 66.24C54.6069 66.8587 54.8683 67.7067 54.8683 68.784ZM49.4443 70.96C49.6789 70.96 49.8923 70.8853 50.0843 70.736C50.2763 70.5867 50.4309 70.4 50.5483 70.176C50.6656 69.952 50.7243 69.728 50.7243 69.504C50.7243 69.2587 50.6443 69.04 50.4843 68.848C50.3349 68.6453 50.1109 68.544 49.8123 68.544C49.4496 68.544 49.1509 68.6933 48.9163 68.992C48.6816 69.28 48.5643 69.616 48.5643 70C48.5643 70.256 48.6336 70.48 48.7723 70.672C48.9109 70.864 49.1349 70.96 49.4443 70.96ZM66.1934 69.04C66.1934 69.8187 66.0334 70.528 65.7134 71.168C65.404 71.7973 64.972 72.3413 64.4174 72.8C63.8734 73.248 63.244 73.5947 62.5294 73.84C61.8254 74.0747 61.0787 74.192 60.2894 74.192C59.4147 74.192 58.636 74.0427 57.9534 73.744C57.2707 73.4453 56.7374 73.024 56.3534 72.48C55.9694 71.936 55.7774 71.3013 55.7774 70.576C55.7774 69.8507 55.916 69.1733 56.1934 68.544C56.4814 67.904 56.8867 67.344 57.4094 66.864C57.932 66.3733 58.556 65.9947 59.2814 65.728C60.0067 65.4507 60.812 65.312 61.6974 65.312C62.6254 65.312 63.4254 65.4667 64.0974 65.776C64.7694 66.0853 65.2867 66.5227 65.6494 67.088C66.012 67.6427 66.1934 68.2933 66.1934 69.04ZM60.8014 70.96C61.164 70.96 61.4787 70.8267 61.7454 70.56C62.0227 70.2933 62.1614 69.9627 62.1614 69.568C62.1614 69.2907 62.076 69.0507 61.9054 68.848C61.7347 68.6453 61.4894 68.544 61.1694 68.544C60.8067 68.544 60.492 68.688 60.2254 68.976C59.9587 69.264 59.8254 69.6107 59.8254 70.016C59.8254 70.2827 59.916 70.5067 60.0974 70.688C60.2787 70.8693 60.5134 70.96 60.8014 70.96ZM67.1353 65.504H71.4873L71.7113 70.224H71.8393C71.9566 69.8827 72.0473 69.584 72.1113 69.328C72.1859 69.0613 72.2446 68.8747 72.2873 68.768C72.3193 68.672 72.3833 68.5013 72.4793 68.256C72.5859 68.0107 72.7033 67.728 72.8313 67.408C72.9699 67.0773 73.1086 66.7467 73.2473 66.416C73.3859 66.0747 73.5086 65.7707 73.6153 65.504H76.3193L76.6713 70.224H76.7673C76.8526 69.9787 76.9273 69.744 76.9913 69.52C77.0553 69.2853 77.1246 69.0507 77.1993 68.816C77.2739 68.6027 77.3806 68.3093 77.5193 67.936C77.6686 67.552 77.8286 67.1467 77.9993 66.72C78.1699 66.2827 78.3246 65.8773 78.4633 65.504H82.7993L77.9673 74H74.6393L74.3033 70.224H74.1913C74.1166 70.416 74.0419 70.6187 73.9673 70.832C73.8926 71.0347 73.8126 71.2267 73.7273 71.408C73.5246 71.8667 73.3326 72.3093 73.1513 72.736C72.9699 73.1627 72.7886 73.584 72.6073 74H69.2313L67.1353 65.504ZM92.5468 69.2C92.5468 69.424 92.5361 69.6373 92.5148 69.84C92.4934 70.032 92.4561 70.2347 92.4028 70.448H86.4028C86.3921 70.5013 86.3814 70.5867 86.3708 70.704C86.3601 70.8107 86.3548 70.896 86.3548 70.96C86.3548 71.3013 86.4241 71.5467 86.5628 71.696C86.7014 71.8347 86.9041 71.904 87.1708 71.904C87.3841 71.904 87.5708 71.84 87.7308 71.712C87.9014 71.5733 88.0241 71.4027 88.0988 71.2H92.1148C91.8588 71.8187 91.4534 72.352 90.8988 72.8C90.3441 73.248 89.7148 73.5947 89.0108 73.84C88.3068 74.0747 87.5921 74.192 86.8668 74.192C85.9601 74.192 85.1654 74.048 84.4828 73.76C83.8108 73.472 83.2881 73.0667 82.9148 72.544C82.5414 72.0107 82.3548 71.3867 82.3548 70.672C82.3548 69.936 82.4988 69.2427 82.7868 68.592C83.0748 67.9413 83.4748 67.3707 83.9868 66.88C84.4988 66.3893 85.1014 66.0053 85.7948 65.728C86.4881 65.4507 87.2348 65.312 88.0348 65.312C88.9094 65.312 89.6828 65.4667 90.3548 65.776C91.0374 66.0853 91.5708 66.5333 91.9548 67.12C92.3388 67.696 92.5361 68.3893 92.5468 69.2ZM86.6908 68.688H88.6268C88.6374 68.6133 88.6428 68.5813 88.6428 68.592C88.6428 68.592 88.6428 68.56 88.6428 68.496C88.6428 68.272 88.5681 68.064 88.4188 67.872C88.2694 67.68 88.0561 67.584 87.7788 67.584C87.4801 67.584 87.2348 67.696 87.0428 67.92C86.8508 68.1333 86.7334 68.3893 86.6908 68.688ZM100.294 61.936H104.87L105.59 67.344C105.612 67.5467 105.633 67.7387 105.654 67.92C105.676 68.0907 105.686 68.2667 105.686 68.448C105.686 68.5653 105.681 68.688 105.67 68.816C105.66 68.9333 105.644 69.0667 105.622 69.216H105.718C105.772 68.928 105.836 68.6667 105.91 68.432C105.985 68.1867 106.118 67.8507 106.31 67.424L108.774 61.936H113.35L106.774 74H103.062L100.294 61.936ZM118.028 66.512H118.124L118.156 65.504H122.204L120.86 74H116.812L117.116 72.88H117.02C116.498 73.3707 116.018 73.712 115.58 73.904C115.143 74.096 114.69 74.192 114.22 74.192C113.612 74.192 113.084 74.0373 112.636 73.728C112.199 73.408 111.863 72.9813 111.628 72.448C111.394 71.904 111.276 71.2907 111.276 70.608C111.276 69.9893 111.383 69.3707 111.596 68.752C111.82 68.1227 112.13 67.552 112.524 67.04C112.93 66.5173 113.404 66.1013 113.948 65.792C114.492 65.472 115.09 65.312 115.74 65.312C116.252 65.312 116.7 65.408 117.084 65.6C117.479 65.792 117.794 66.096 118.028 66.512ZM116.332 70.96C116.642 70.96 116.892 70.88 117.084 70.72C117.276 70.5493 117.415 70.3467 117.5 70.112C117.596 69.8773 117.644 69.6587 117.644 69.456C117.644 69.1893 117.559 68.9707 117.388 68.8C117.228 68.6293 116.999 68.544 116.7 68.544C116.348 68.544 116.044 68.6827 115.788 68.96C115.543 69.2373 115.42 69.5787 115.42 69.984C115.42 70.2613 115.49 70.496 115.628 70.688C115.767 70.8693 116.002 70.96 116.332 70.96ZM124.632 61.024H128.76L126.712 74H122.584L124.632 61.024ZM129.769 65.504H133.865C133.694 66.6347 133.555 67.52 133.449 68.16C133.353 68.7893 133.278 69.248 133.225 69.536C133.182 69.824 133.155 70.0107 133.145 70.096C133.134 70.1707 133.129 70.2187 133.129 70.24C133.129 70.4427 133.166 70.608 133.241 70.736C133.315 70.8533 133.475 70.912 133.721 70.912C133.785 70.912 133.859 70.9067 133.945 70.896C134.03 70.8747 134.121 70.832 134.217 70.768C134.398 70.64 134.521 70.3573 134.585 69.92L135.273 65.504H139.369L138.617 70.32C138.499 71.12 138.185 71.8133 137.673 72.4C137.161 72.976 136.515 73.4187 135.737 73.728C134.969 74.0373 134.121 74.192 133.193 74.192C132.414 74.192 131.705 74.0747 131.065 73.84C130.425 73.6053 129.913 73.2533 129.529 72.784C129.155 72.304 128.969 71.7013 128.969 70.976C128.969 70.8693 128.969 70.7627 128.969 70.656C128.979 70.5493 129.001 70.4 129.033 70.208C129.065 70.0053 129.107 69.7173 129.161 69.344C129.214 68.9707 129.289 68.4747 129.385 67.856C129.491 67.2373 129.619 66.4533 129.769 65.504ZM146.669 66.512H146.765L146.797 65.504H150.845L149.501 74H145.453L145.757 72.88H145.661C145.138 73.3707 144.658 73.712 144.221 73.904C143.784 74.096 143.33 74.192 142.861 74.192C142.253 74.192 141.725 74.0373 141.277 73.728C140.84 73.408 140.504 72.9813 140.269 72.448C140.034 71.904 139.917 71.2907 139.917 70.608C139.917 69.9893 140.024 69.3707 140.237 68.752C140.461 68.1227 140.77 67.552 141.165 67.04C141.57 66.5173 142.045 66.1013 142.589 65.792C143.133 65.472 143.73 65.312 144.381 65.312C144.893 65.312 145.341 65.408 145.725 65.6C146.12 65.792 146.434 66.096 146.669 66.512ZM144.973 70.96C145.282 70.96 145.533 70.88 145.725 70.72C145.917 70.5493 146.056 70.3467 146.141 70.112C146.237 69.8773 146.285 69.6587 146.285 69.456C146.285 69.1893 146.2 68.9707 146.029 68.8C145.869 68.6293 145.64 68.544 145.341 68.544C144.989 68.544 144.685 68.6827 144.429 68.96C144.184 69.2373 144.061 69.5787 144.061 69.984C144.061 70.2613 144.13 70.496 144.269 70.688C144.408 70.8693 144.642 70.96 144.973 70.96ZM153.161 61.024H157.289C157.203 61.6213 157.113 62.2187 157.017 62.816C156.921 63.4027 156.825 63.9947 156.729 64.592C156.718 64.6987 156.681 64.8747 156.617 65.12C156.553 65.3547 156.483 65.6107 156.409 65.888C156.334 66.1653 156.27 66.416 156.217 66.64H156.361C156.702 66.2453 157.129 65.9253 157.641 65.68C158.153 65.4347 158.649 65.312 159.128 65.312C160.025 65.312 160.729 65.6373 161.241 66.288C161.763 66.9387 162.025 67.8027 162.025 68.88C162.025 69.5413 161.913 70.192 161.689 70.832C161.475 71.4613 161.171 72.032 160.777 72.544C160.393 73.0453 159.939 73.4453 159.417 73.744C158.894 74.0427 158.334 74.192 157.737 74.192C157.182 74.192 156.691 74.0587 156.265 73.792C155.838 73.5253 155.486 73.1733 155.209 72.736H155.113L154.985 74H151.113L153.161 61.024ZM156.633 70.96C156.867 70.96 157.081 70.8853 157.273 70.736C157.465 70.5867 157.619 70.4 157.737 70.176C157.854 69.952 157.913 69.728 157.913 69.504C157.913 69.2587 157.833 69.04 157.673 68.848C157.523 68.6453 157.299 68.544 157.001 68.544C156.638 68.544 156.339 68.6933 156.105 68.992C155.87 69.28 155.753 69.616 155.753 70C155.753 70.256 155.822 70.48 155.961 70.672C156.099 70.864 156.323 70.96 156.633 70.96ZM164.788 61.024H168.916L166.868 74H162.74L164.788 61.024ZM179.125 69.2C179.125 69.424 179.114 69.6373 179.093 69.84C179.072 70.032 179.034 70.2347 178.981 70.448H172.981C172.97 70.5013 172.96 70.5867 172.949 70.704C172.938 70.8107 172.933 70.896 172.933 70.96C172.933 71.3013 173.002 71.5467 173.141 71.696C173.28 71.8347 173.482 71.904 173.749 71.904C173.962 71.904 174.149 71.84 174.309 71.712C174.48 71.5733 174.602 71.4027 174.677 71.2H178.693C178.437 71.8187 178.032 72.352 177.477 72.8C176.922 73.248 176.293 73.5947 175.589 73.84C174.885 74.0747 174.17 74.192 173.445 74.192C172.538 74.192 171.744 74.048 171.061 73.76C170.389 73.472 169.866 73.0667 169.493 72.544C169.12 72.0107 168.933 71.3867 168.933 70.672C168.933 69.936 169.077 69.2427 169.365 68.592C169.653 67.9413 170.053 67.3707 170.565 66.88C171.077 66.3893 171.68 66.0053 172.373 65.728C173.066 65.4507 173.813 65.312 174.613 65.312C175.488 65.312 176.261 65.4667 176.933 65.776C177.616 66.0853 178.149 66.5333 178.533 67.12C178.917 67.696 179.114 68.3893 179.125 69.2ZM173.269 68.688H175.205C175.216 68.6133 175.221 68.5813 175.221 68.592C175.221 68.592 175.221 68.56 175.221 68.496C175.221 68.272 175.146 68.064 174.997 67.872C174.848 67.68 174.634 67.584 174.357 67.584C174.058 67.584 173.813 67.696 173.621 67.92C173.429 68.1333 173.312 68.3893 173.269 68.688ZM196.898 62.24L196.306 66.832C195.986 66.4907 195.629 66.2027 195.234 65.968C194.85 65.7333 194.413 65.616 193.922 65.616C193.432 65.616 192.973 65.744 192.546 66C192.13 66.2453 191.789 66.576 191.522 66.992C191.266 67.408 191.138 67.856 191.138 68.336C191.138 68.8907 191.336 69.36 191.73 69.744C192.125 70.128 192.626 70.32 193.234 70.32C193.746 70.32 194.221 70.2187 194.658 70.016C195.106 69.8133 195.533 69.5413 195.938 69.2L195.09 73.712C194.92 73.7973 194.653 73.8773 194.29 73.952C193.928 74.0267 193.533 74.0853 193.106 74.128C192.68 74.1707 192.274 74.192 191.89 74.192C190.856 74.192 189.944 73.968 189.154 73.52C188.365 73.072 187.752 72.4693 187.314 71.712C186.877 70.944 186.658 70.08 186.658 69.12C186.658 68.1067 186.861 67.1573 187.266 66.272C187.672 65.376 188.221 64.592 188.914 63.92C189.618 63.2373 190.408 62.704 191.282 62.32C192.168 61.936 193.085 61.744 194.034 61.744C195.037 61.744 195.992 61.9093 196.898 62.24ZM207.131 69.04C207.131 69.8187 206.971 70.528 206.651 71.168C206.342 71.7973 205.91 72.3413 205.355 72.8C204.811 73.248 204.182 73.5947 203.467 73.84C202.763 74.0747 202.016 74.192 201.227 74.192C200.352 74.192 199.574 74.0427 198.891 73.744C198.208 73.4453 197.675 73.024 197.291 72.48C196.907 71.936 196.715 71.3013 196.715 70.576C196.715 69.8507 196.854 69.1733 197.131 68.544C197.419 67.904 197.824 67.344 198.347 66.864C198.87 66.3733 199.494 65.9947 200.219 65.728C200.944 65.4507 201.75 65.312 202.635 65.312C203.563 65.312 204.363 65.4667 205.035 65.776C205.707 66.0853 206.224 66.5227 206.587 67.088C206.95 67.6427 207.131 68.2933 207.131 69.04ZM201.739 70.96C202.102 70.96 202.416 70.8267 202.683 70.56C202.96 70.2933 203.099 69.9627 203.099 69.568C203.099 69.2907 203.014 69.0507 202.843 68.848C202.672 68.6453 202.427 68.544 202.107 68.544C201.744 68.544 201.43 68.688 201.163 68.976C200.896 69.264 200.763 69.6107 200.763 70.016C200.763 70.2827 200.854 70.5067 201.035 70.688C201.216 70.8693 201.451 70.96 201.739 70.96ZM218.313 67.904C218.313 68.032 218.307 68.16 218.297 68.288C218.286 68.4053 218.265 68.576 218.233 68.8C218.211 69.024 218.169 69.3387 218.105 69.744C218.041 70.1493 217.95 70.6933 217.833 71.376C217.726 72.0587 217.587 72.9333 217.417 74H213.289C213.459 72.9227 213.593 72.08 213.689 71.472C213.785 70.8533 213.854 70.3947 213.897 70.096C213.95 69.7973 213.982 69.6 213.993 69.504C214.003 69.408 214.009 69.344 214.009 69.312C214.009 69.1093 213.966 68.9493 213.881 68.832C213.795 68.7147 213.646 68.656 213.433 68.656C213.134 68.656 212.926 68.768 212.809 68.992C212.702 69.2053 212.633 69.4027 212.601 69.584L211.897 74H207.769L209.113 65.504H213.145L212.777 66.864H212.873C213.438 66.288 213.939 65.888 214.377 65.664C214.814 65.4293 215.305 65.312 215.849 65.312C216.649 65.312 217.257 65.5413 217.673 66C218.099 66.448 218.313 67.0827 218.313 67.904ZM221.339 62.768H225.499L225.051 65.616L226.443 65.552L225.915 68.8L224.555 68.72L223.723 74H219.563L220.395 68.72L219.371 68.8L219.899 65.552L220.891 65.616L221.339 62.768ZM236.469 69.2C236.469 69.424 236.458 69.6373 236.437 69.84C236.415 70.032 236.378 70.2347 236.325 70.448H230.325C230.314 70.5013 230.303 70.5867 230.293 70.704C230.282 70.8107 230.277 70.896 230.277 70.96C230.277 71.3013 230.346 71.5467 230.485 71.696C230.623 71.8347 230.826 71.904 231.093 71.904C231.306 71.904 231.493 71.84 231.653 71.712C231.823 71.5733 231.946 71.4027 232.021 71.2H236.037C235.781 71.8187 235.375 72.352 234.821 72.8C234.266 73.248 233.637 73.5947 232.933 73.84C232.229 74.0747 231.514 74.192 230.789 74.192C229.882 74.192 229.087 74.048 228.405 73.76C227.733 73.472 227.21 73.0667 226.837 72.544C226.463 72.0107 226.277 71.3867 226.277 70.672C226.277 69.936 226.421 69.2427 226.709 68.592C226.997 67.9413 227.397 67.3707 227.909 66.88C228.421 66.3893 229.023 66.0053 229.717 65.728C230.41 65.4507 231.157 65.312 231.957 65.312C232.831 65.312 233.605 65.4667 234.277 65.776C234.959 66.0853 235.493 66.5333 235.877 67.12C236.261 67.696 236.458 68.3893 236.469 69.2ZM230.613 68.688H232.549C232.559 68.6133 232.565 68.5813 232.565 68.592C232.565 68.592 232.565 68.56 232.565 68.496C232.565 68.272 232.49 68.064 232.341 67.872C232.191 67.68 231.978 67.584 231.701 67.584C231.402 67.584 231.157 67.696 230.965 67.92C230.773 68.1333 230.655 68.3893 230.613 68.688ZM247.657 67.904C247.657 68.032 247.651 68.16 247.641 68.288C247.63 68.4053 247.609 68.576 247.577 68.8C247.555 69.024 247.513 69.3387 247.449 69.744C247.385 70.1493 247.294 70.6933 247.177 71.376C247.07 72.0587 246.931 72.9333 246.761 74H242.633C242.803 72.9227 242.937 72.08 243.033 71.472C243.129 70.8533 243.198 70.3947 243.241 70.096C243.294 69.7973 243.326 69.6 243.337 69.504C243.347 69.408 243.353 69.344 243.353 69.312C243.353 69.1093 243.31 68.9493 243.225 68.832C243.139 68.7147 242.99 68.656 242.777 68.656C242.478 68.656 242.27 68.768 242.153 68.992C242.046 69.2053 241.977 69.4027 241.945 69.584L241.241 74H237.113L238.457 65.504H242.489L242.121 66.864H242.217C242.782 66.288 243.283 65.888 243.721 65.664C244.158 65.4293 244.649 65.312 245.193 65.312C245.993 65.312 246.601 65.5413 247.017 66C247.443 66.448 247.657 67.0827 247.657 67.904ZM250.683 62.768H254.843L254.395 65.616L255.786 65.552L255.259 68.8L253.899 68.72L253.067 74H248.907L249.739 68.72L248.715 68.8L249.243 65.552L250.235 65.616L250.683 62.768ZM260.5 71.92C260.5 72.368 260.367 72.7627 260.1 73.104C259.834 73.4453 259.492 73.712 259.076 73.904C258.66 74.096 258.228 74.192 257.78 74.192C257.204 74.192 256.708 74.0373 256.292 73.728C255.887 73.408 255.684 73.008 255.684 72.528C255.684 72.0587 255.818 71.648 256.084 71.296C256.351 70.944 256.692 70.672 257.108 70.48C257.524 70.2773 257.962 70.176 258.42 70.176C259.007 70.176 259.498 70.336 259.892 70.656C260.298 70.976 260.5 71.3973 260.5 71.92Z" fill="white"/>
<g clip-path="url(#clip5_6710_33753)">
<path d="M19.9986 15.624L18.2231 16.5737L19.8562 19.2812C19.8562 19.2812 23.4325 21.4632 23.6947 21.4632C23.957 21.4632 28.6447 21.7664 28.8465 21.625C29.0483 21.4837 31.6954 20.5526 32.0181 20.3615C32.3409 20.1704 33.5742 19.1788 33.3821 19.0199C33.0575 18.7508 33.4416 18.312 32.7425 18.0469C31.8846 17.7212 29.2297 16.6546 27.7955 16.6351C26.3613 16.6146 24.2173 16.8944 22.7636 16.3299C21.3099 15.7664 19.9966 15.624 19.9966 15.624H19.9986Z" fill="black"/>
<path d="M18.7577 16.0075C18.8893 15.9743 18.1552 17.2554 19.7522 18.1807C20.0086 20.1745 22.4197 20.548 23.305 20.1658C25.0921 21.8749 28.4763 21.4518 29.3089 20.3929C29.6931 20.5392 31.6109 20.8375 32.0389 19.7104C32.7409 19.4745 33.0061 18.8437 32.7253 17.858C34.9502 19.9561 31.7435 21.6604 30.2381 21.7443C29.3684 22.7582 27.8162 22.1313 27.8162 22.1313C27.8162 22.1313 26.9241 22.9172 25.6294 22.8528C24.3346 22.7885 23.2884 21.7101 23.2884 21.7101C23.2884 21.7101 21.8747 21.7764 20.9621 21.1154C20.1714 20.5421 19.7512 19.9571 19.527 19.1274C18.5812 18.8086 16.4255 16.5886 18.7567 16.0075H18.7577Z" fill="#00F942"/>
<path d="M27.013 13.359C25.4501 13.359 23.7059 12.0701 19.4979 14.9951C18.0734 16.1767 18.8963 17.8654 19.9581 17.8986C20.5031 19.1709 20.6756 19.946 23.4066 19.8739C25.6393 21.0916 26.9214 21.1462 29.194 20.0864C30.7579 20.2473 31.1918 20.2083 31.8928 19.4322C32.8707 19.6974 33.3055 17.7328 31.7699 16.0568C30.1729 14.3135 29.5879 13.36 27.012 13.36L27.013 13.359Z" fill="#00F942"/>
<path d="M30.7144 14.9219C30.7144 14.9219 28.4515 16.6408 25.9672 16.3268C23.483 16.0129 21.7183 13.7851 21.7183 13.7851C21.7183 13.7851 23.9812 12.0662 26.4654 12.3801C28.9497 12.694 30.7144 14.9219 30.7144 14.9219Z" fill="#00F942"/>
<path d="M30.7144 15.0811C30.7144 15.0811 28.4515 16.8 25.9672 16.486C23.483 16.1721 21.7183 13.9442 21.7183 13.9442C21.7183 13.9442 23.9812 12.2253 26.4654 12.5393C28.9497 12.8532 30.7144 15.0811 30.7144 15.0811Z" fill="white"/>
<mask id="mask3_6710_33753" style="mask-type:luminance" maskUnits="userSpaceOnUse" x="21" y="12" width="10" height="5">
<path d="M30.7139 15.083C30.7139 15.083 28.451 16.8019 25.9667 16.488C23.4825 16.174 21.7178 13.9462 21.7178 13.9462C21.7178 13.9462 23.9807 12.2273 26.465 12.5412C28.9492 12.8552 30.7139 15.083 30.7139 15.083Z" fill="white"/>
</mask>
<g mask="url(#mask3_6710_33753)">
<path d="M27.0508 14.1738C27.7233 14.1738 28.2685 13.6286 28.2685 12.956C28.2685 12.2835 27.7233 11.7383 27.0508 11.7383C26.3782 11.7383 25.833 12.2835 25.833 12.956C25.833 13.6286 26.3782 14.1738 27.0508 14.1738Z" fill="black"/>
</g>
<path d="M22.1182 16.4604L20.3511 17.6641L20.384 17.7124L22.1512 16.5087L22.1182 16.4604Z" fill="black"/>
<path d="M28.5647 17.736L28.5093 17.7549L29.1471 19.6275L29.2025 19.6086L28.5647 17.736Z" fill="black"/>
</g>
<g clip-path="url(#clip6_6710_33753)">
<path d="M39.026 20.7385L38.7704 21.9157H35.165L38.4194 12.5215H42.1976L45.5492 21.9157H41.9294L41.6198 20.7385H39.026ZM39.6596 18.5083H41.0294L40.5956 16.7047C40.5038 16.3141 40.439 15.9631 40.403 15.6517H40.286C40.2266 16.1557 40.1708 16.5067 40.1204 16.7047L39.6596 18.5083Z" fill="white"/>
<path d="M46.4922 21.9157V12.5215H49.9122V21.9157H46.4922Z" fill="white"/>
<path d="M51.4134 21.9157L52.9416 12.5215H56.4444L57.546 16.3609C57.6144 16.5949 57.6828 16.9603 57.753 17.4553H57.8358C57.8718 17.0341 57.9366 16.6687 58.0284 16.3609L59.1228 12.5215H62.6058L64.1466 21.9157H60.8562L60.4296 17.7037C60.4026 17.4247 60.3864 17.1115 60.381 16.7677H60.3198C60.2424 17.1763 60.1848 17.4427 60.147 17.5669L58.743 21.9157H56.7468L55.4796 17.7937C55.4112 17.5741 55.3536 17.2321 55.3068 16.7677H55.2042C55.2078 17.1403 55.2042 17.3869 55.1898 17.5111L54.7146 21.9157H51.4116H51.4134Z" fill="white"/>
<path d="M65.6533 21.9157V12.5215H69.0733V21.9157H65.6533Z" fill="white"/>
<path d="M70.9523 21.9157V12.5215H74.2211L76.4027 16.0657C76.7519 16.6291 77.0453 17.1853 77.2829 17.7307H77.3855C77.2793 17.2537 77.2127 16.8937 77.1857 16.6507C77.1623 16.4401 77.1461 16.0567 77.1371 15.5005L77.0885 12.5215H80.3573V21.9157H77.0885L74.7413 18.2059C74.5307 17.8765 74.3147 17.4679 74.0951 16.9801H73.9979C74.1131 17.7379 74.1725 18.3157 74.1761 18.7153L74.2175 21.9157H70.9487H70.9523Z" fill="white"/>
<path d="M83.3199 21.9157V15.4879L81.3921 15.5779V12.5215H88.5633V15.5779L86.6715 15.4879V21.9157H83.3199Z" fill="white"/>
</g>
<path d="M187 8H280V28H187V8Z" fill="#00F942"/>
</g>
<defs>
<filter id="filter0_b_6710_33753" x="11.48" y="166.16" width="256.082" height="147.84" filterUnits="userSpaceOnUse" color-interpolation-filters="sRGB">
<feFlood flood-opacity="0" result="BackgroundImageFix"/>
<feGaussianBlur in="BackgroundImageFix" stdDeviation="1.76"/>
<feComposite in2="SourceAlpha" operator="in" result="effect1_backgroundBlur_6710_33753"/>
<feBlend mode="normal" in="SourceGraphic" in2="effect1_backgroundBlur_6710_33753" result="shape"/>
</filter>
<clipPath id="clip0_6710_33753">
<rect width="280" height="380" fill="white"/>
</clipPath>
<clipPath id="clip1_6710_33753">
<rect width="58.7465" height="40.8921" fill="white" transform="translate(93.8462 88) rotate(14.9342)"/>
</clipPath>
<clipPath id="clip2_6710_33753">
<rect width="15.421" height="15.421" fill="white" transform="matrix(-0.982734 -0.185025 -0.185025 0.982734 231.008 124.854)"/>
</clipPath>
<clipPath id="clip3_6710_33753">
<rect width="24" height="24" fill="white" transform="translate(94.6479 335)"/>
</clipPath>
<clipPath id="clip4_6710_33753">
<rect width="66.7485" height="11.7428" fill="white" transform="translate(118.604 340.652)"/>
</clipPath>
<clipPath id="clip5_6710_33753">
<rect width="19.2" height="19.2" fill="white" transform="translate(16 8)"/>
</clipPath>
<clipPath id="clip6_6710_33753">
<rect width="53.3988" height="9.3942" fill="white" transform="translate(35.1646 12.5215)"/>
</clipPath>
</defs>
</svg>
