<svg width="281" height="497" viewBox="0 0 281 497" fill="none" xmlns="http://www.w3.org/2000/svg">
<path d="M39.31 349.18V352.54C38.49 353.01 37.59 353.18 36.67 353.18C34.51 353.18 33.01 351.62 33.01 349.46C33.01 347.3 34.51 345.74 36.67 345.74C37.72 345.74 38.57 346.06 39.22 346.72L38.74 347.22C38.31 346.7 37.44 346.34 36.67 346.34C34.82 346.34 33.67 347.7 33.67 349.46C33.67 351.22 34.82 352.58 36.67 352.58C37.43 352.58 38.11 352.48 38.65 352.16V349.78H36.95V349.18H39.31ZM45.3232 351.76L45.7632 352.13C45.2932 352.83 44.5832 353.12 43.7632 353.12C42.3532 353.12 41.4232 352.11 41.4232 350.68C41.4232 349.3 42.3832 348.26 43.7332 348.26C45.1532 348.26 45.9032 349.35 45.9032 350.42V350.84H42.0232C42.0232 351.34 42.3732 352.58 43.7732 352.58C44.3832 352.58 45.0232 352.26 45.3232 351.76ZM42.0232 350.3H45.3032C45.3032 349.48 44.5932 348.8 43.7032 348.8C42.3932 348.8 42.0232 350.06 42.0232 350.3ZM47.8398 353V349.68C47.8398 349.34 47.7898 348.62 47.7898 348.38H48.3898C48.3998 348.72 48.4098 349.1 48.4298 349.19H48.4598C48.6998 348.68 49.2898 348.26 50.0398 348.26C51.4798 348.26 51.7998 349.24 51.7998 350.25V353H51.1998V350.28C51.1998 349.53 50.9898 348.8 50.0398 348.8C49.1498 348.8 48.4398 349.42 48.4398 350.69V353H47.8398ZM57.6365 351.76L58.0765 352.13C57.6065 352.83 56.8965 353.12 56.0765 353.12C54.6665 353.12 53.7365 352.11 53.7365 350.68C53.7365 349.3 54.6965 348.26 56.0465 348.26C57.4665 348.26 58.2165 349.35 58.2165 350.42V350.84H54.3365C54.3365 351.34 54.6865 352.58 56.0865 352.58C56.6965 352.58 57.3365 352.26 57.6365 351.76ZM54.3365 350.3H57.6165C57.6165 349.48 56.9065 348.8 56.0165 348.8C54.7065 348.8 54.3365 350.06 54.3365 350.3ZM60.1531 353V349.68C60.1531 349.34 60.1031 348.62 60.1031 348.38H60.7031C60.7131 348.72 60.7231 349.1 60.7431 349.19C61.0431 348.65 61.5231 348.26 62.2131 348.26C62.3331 348.26 62.4431 348.28 62.5631 348.31L62.4931 348.9C62.4031 348.87 62.3231 348.86 62.2631 348.86C61.2231 348.86 60.7531 349.58 60.7531 350.48V353H60.1531ZM67.6732 349.93V351.06C67.6732 351.96 67.6932 352.47 67.7632 353H67.2032C67.1632 352.77 67.1432 352.51 67.1432 352.25H67.1232C66.7832 352.84 66.2832 353.12 65.5032 353.12C64.7132 353.12 63.8732 352.73 63.8732 351.75C63.8732 350.34 65.5232 350.2 66.4332 350.2H67.1332V349.92C67.1332 349.12 66.5732 348.8 65.8332 348.8C65.2932 348.8 64.8332 348.97 64.4232 349.32L64.0732 348.91C64.5132 348.49 65.2332 348.26 65.8332 348.26C66.9532 348.26 67.6732 348.76 67.6732 349.93ZM67.1332 350.68H66.4732C65.4732 350.68 64.4732 350.93 64.4732 351.72C64.4732 352.29 65.0232 352.58 65.5232 352.58C66.8032 352.58 67.1332 351.76 67.1332 350.99V350.68ZM72.1287 348.38V348.92H70.8087V351.93C70.8087 352.34 71.0487 352.58 71.4487 352.58C71.6787 352.58 71.9187 352.51 72.1287 352.42L72.1787 352.96C71.9587 353.04 71.6287 353.12 71.3987 353.12C70.5387 353.12 70.2087 352.59 70.2087 351.93V348.92H69.2087V348.38H70.2087V347.05H70.8087V348.38H72.1287ZM77.4388 351.76L77.8788 352.13C77.4088 352.83 76.6988 353.12 75.8788 353.12C74.4688 353.12 73.5388 352.11 73.5388 350.68C73.5388 349.3 74.4988 348.26 75.8488 348.26C77.2688 348.26 78.0188 349.35 78.0188 350.42V350.84H74.1388C74.1388 351.34 74.4888 352.58 75.8888 352.58C76.4988 352.58 77.1388 352.26 77.4388 351.76ZM74.1388 350.3H77.4188C77.4188 349.48 76.7088 348.8 75.8188 348.8C74.5088 348.8 74.1388 350.06 74.1388 350.3ZM84.3931 353L82.5031 348.38H83.1831L84.7231 352.35L86.2231 348.38H86.8331L85.0131 353H84.3931ZM91.972 349.93V351.06C91.972 351.96 91.992 352.47 92.062 353H91.502C91.462 352.77 91.442 352.51 91.442 352.25H91.422C91.082 352.84 90.582 353.12 89.802 353.12C89.012 353.12 88.172 352.73 88.172 351.75C88.172 350.34 89.822 350.2 90.732 350.2H91.432V349.92C91.432 349.12 90.872 348.8 90.132 348.8C89.592 348.8 89.132 348.97 88.722 349.32L88.372 348.91C88.812 348.49 89.532 348.26 90.132 348.26C91.252 348.26 91.972 348.76 91.972 349.93ZM91.432 350.68H90.772C89.772 350.68 88.772 350.93 88.772 351.72C88.772 352.29 89.322 352.58 89.822 352.58C91.102 352.58 91.432 351.76 91.432 350.99V350.68ZM94.2676 353V345.44H94.8676V353H94.2676ZM101.08 348.38V351.7C101.08 352.04 101.13 352.76 101.13 353H100.53C100.52 352.66 100.51 352.28 100.49 352.19H100.46C100.22 352.7 99.6299 353.12 98.8799 353.12C97.4399 353.12 97.1199 352.14 97.1199 351.13V348.38H97.7199V351.1C97.7199 351.85 97.9299 352.58 98.8799 352.58C99.7699 352.58 100.48 351.96 100.48 350.69V348.38H101.08ZM106.967 351.76L107.407 352.13C106.937 352.83 106.227 353.12 105.407 353.12C103.997 353.12 103.067 352.11 103.067 350.68C103.067 349.3 104.027 348.26 105.377 348.26C106.797 348.26 107.547 349.35 107.547 350.42V350.84H103.667C103.667 351.34 104.017 352.58 105.417 352.58C106.027 352.58 106.667 352.26 106.967 351.76ZM103.667 350.3H106.947C106.947 349.48 106.237 348.8 105.347 348.8C104.037 348.8 103.667 350.06 103.667 350.3ZM113.021 353V348.92H112.061V348.38H113.021V346.87C113.021 345.68 113.811 345.32 114.401 345.32C114.691 345.32 114.911 345.36 115.091 345.44L114.971 345.96C114.831 345.89 114.661 345.86 114.431 345.86C113.881 345.86 113.621 346.26 113.621 347.09V348.38H114.701V348.92H113.621V353H113.021ZM116.24 353V349.68C116.24 349.34 116.19 348.62 116.19 348.38H116.79C116.8 348.72 116.81 349.1 116.83 349.19C117.13 348.65 117.61 348.26 118.3 348.26C118.42 348.26 118.53 348.28 118.65 348.31L118.58 348.9C118.49 348.87 118.41 348.86 118.35 348.86C117.31 348.86 116.84 349.58 116.84 350.48V353H116.24ZM119.734 350.69C119.734 349.28 120.744 348.26 122.164 348.26C123.584 348.26 124.594 349.28 124.594 350.69C124.594 352.1 123.584 353.12 122.164 353.12C120.744 353.12 119.734 352.1 119.734 350.69ZM120.334 350.69C120.334 351.73 121.034 352.58 122.164 352.58C123.294 352.58 123.994 351.73 123.994 350.69C123.994 349.65 123.294 348.8 122.164 348.8C121.034 348.8 120.334 349.65 120.334 350.69ZM126.532 353V349.68C126.532 349.34 126.482 348.62 126.482 348.38H127.082C127.092 348.72 127.102 349.1 127.122 349.19H127.152C127.392 348.68 127.982 348.26 128.732 348.26C129.342 348.26 129.902 348.56 130.122 349.26C130.412 348.57 131.052 348.26 131.692 348.26C133.132 348.26 133.452 349.24 133.452 350.25V353H132.852V350.28C132.852 349.53 132.642 348.8 131.692 348.8C130.582 348.8 130.292 349.74 130.292 350.4V353H129.692V350.22C129.692 349.37 129.382 348.8 128.732 348.8C127.842 348.8 127.132 349.42 127.132 350.69V353H126.532ZM138.095 353L141.185 345.92H141.865L144.845 353H144.105L143.335 351.12H139.585L138.785 353H138.095ZM143.095 350.52L141.495 346.64L139.845 350.52H143.095ZM146.461 353V345.92H147.121V353H146.461ZM149.118 350.9V350.36H151.588V350.9H149.118ZM156.828 351.94L157.288 352.32C156.838 352.86 156.248 353.12 155.588 353.12C154.168 353.12 153.158 352.1 153.158 350.69C153.158 349.28 154.168 348.26 155.588 348.26C156.258 348.26 156.858 348.55 157.308 349.06L156.828 349.42C156.478 349.04 156.068 348.8 155.588 348.8C154.458 348.8 153.758 349.65 153.758 350.69C153.758 351.73 154.458 352.58 155.588 352.58C156.088 352.58 156.518 352.32 156.828 351.94ZM158.833 353V349.68C158.833 349.34 158.783 348.62 158.783 348.38H159.383C159.393 348.72 159.403 349.1 159.423 349.19C159.723 348.65 160.203 348.26 160.893 348.26C161.013 348.26 161.123 348.28 161.243 348.31L161.173 348.9C161.083 348.87 161.003 348.86 160.943 348.86C159.903 348.86 159.433 349.58 159.433 350.48V353H158.833ZM166.227 351.76L166.667 352.13C166.197 352.83 165.487 353.12 164.667 353.12C163.257 353.12 162.327 352.11 162.327 350.68C162.327 349.3 163.287 348.26 164.637 348.26C166.057 348.26 166.807 349.35 166.807 350.42V350.84H162.927C162.927 351.34 163.277 352.58 164.677 352.58C165.287 352.58 165.927 352.26 166.227 351.76ZM162.927 350.3H166.207C166.207 349.48 165.497 348.8 164.607 348.8C163.297 348.8 162.927 350.06 162.927 350.3ZM172.334 349.93V351.06C172.334 351.96 172.354 352.47 172.424 353H171.864C171.824 352.77 171.804 352.51 171.804 352.25H171.784C171.444 352.84 170.944 353.12 170.164 353.12C169.374 353.12 168.534 352.73 168.534 351.75C168.534 350.34 170.184 350.2 171.094 350.2H171.794V349.92C171.794 349.12 171.234 348.8 170.494 348.8C169.954 348.8 169.494 348.97 169.084 349.32L168.734 348.91C169.174 348.49 169.894 348.26 170.494 348.26C171.614 348.26 172.334 348.76 172.334 349.93ZM171.794 350.68H171.134C170.134 350.68 169.134 350.93 169.134 351.72C169.134 352.29 169.684 352.58 170.184 352.58C171.464 352.58 171.794 351.76 171.794 350.99V350.68ZM176.789 348.38V348.92H175.469V351.93C175.469 352.34 175.709 352.58 176.109 352.58C176.339 352.58 176.579 352.51 176.789 352.42L176.839 352.96C176.619 353.04 176.289 353.12 176.059 353.12C175.199 353.12 174.869 352.59 174.869 351.93V348.92H173.869V348.38H174.869V347.05H175.469V348.38H176.789ZM182.099 351.76L182.539 352.13C182.069 352.83 181.359 353.12 180.539 353.12C179.129 353.12 178.199 352.11 178.199 350.68C178.199 349.3 179.159 348.26 180.509 348.26C181.929 348.26 182.679 349.35 182.679 350.42V350.84H178.799C178.799 351.34 179.149 352.58 180.549 352.58C181.159 352.58 181.799 352.26 182.099 351.76ZM178.799 350.3H182.079C182.079 349.48 181.369 348.8 180.479 348.8C179.169 348.8 178.799 350.06 178.799 350.3ZM188.656 353V352.19H188.636C188.266 352.83 187.476 353.12 186.786 353.12C185.366 353.12 184.356 352.1 184.356 350.69C184.356 349.28 185.366 348.26 186.786 348.26C187.476 348.26 188.266 348.55 188.636 349.19H188.656V345.44H189.256V353H188.656ZM188.716 350.69C188.716 349.65 187.876 348.8 186.786 348.8C185.656 348.8 184.956 349.65 184.956 350.69C184.956 351.73 185.656 352.58 186.786 352.58C187.876 352.58 188.716 351.73 188.716 350.69ZM197.937 351.94L198.397 352.32C197.947 352.86 197.357 353.12 196.697 353.12C195.277 353.12 194.267 352.1 194.267 350.69C194.267 349.28 195.277 348.26 196.697 348.26C197.367 348.26 197.967 348.55 198.417 349.06L197.937 349.42C197.587 349.04 197.177 348.8 196.697 348.8C195.567 348.8 194.867 349.65 194.867 350.69C194.867 351.73 195.567 352.58 196.697 352.58C197.197 352.58 197.627 352.32 197.937 351.94ZM199.681 350.69C199.681 349.28 200.691 348.26 202.111 348.26C203.531 348.26 204.541 349.28 204.541 350.69C204.541 352.1 203.531 353.12 202.111 353.12C200.691 353.12 199.681 352.1 199.681 350.69ZM200.281 350.69C200.281 351.73 200.981 352.58 202.111 352.58C203.241 352.58 203.941 351.73 203.941 350.69C203.941 349.65 203.241 348.8 202.111 348.8C200.981 348.8 200.281 349.65 200.281 350.69ZM206.479 353V349.68C206.479 349.34 206.429 348.62 206.429 348.38H207.029C207.039 348.72 207.049 349.1 207.069 349.19H207.099C207.339 348.68 207.929 348.26 208.679 348.26C210.119 348.26 210.439 349.24 210.439 350.25V353H209.839V350.28C209.839 349.53 209.629 348.8 208.679 348.8C207.789 348.8 207.079 349.42 207.079 350.69V353H206.479ZM214.896 348.38V348.92H213.576V351.93C213.576 352.34 213.816 352.58 214.216 352.58C214.446 352.58 214.686 352.51 214.896 352.42L214.946 352.96C214.726 353.04 214.396 353.12 214.166 353.12C213.306 353.12 212.976 352.59 212.976 351.93V348.92H211.976V348.38H212.976V347.05H213.576V348.38H214.896ZM220.206 351.76L220.646 352.13C220.176 352.83 219.466 353.12 218.646 353.12C217.236 353.12 216.306 352.11 216.306 350.68C216.306 349.3 217.266 348.26 218.616 348.26C220.036 348.26 220.786 349.35 220.786 350.42V350.84H216.906C216.906 351.34 217.256 352.58 218.656 352.58C219.266 352.58 219.906 352.26 220.206 351.76ZM216.906 350.3H220.186C220.186 349.48 219.476 348.8 218.586 348.8C217.276 348.8 216.906 350.06 216.906 350.3ZM222.722 353V349.68C222.722 349.34 222.672 348.62 222.672 348.38H223.272C223.282 348.72 223.292 349.1 223.312 349.19H223.342C223.582 348.68 224.172 348.26 224.922 348.26C226.362 348.26 226.682 349.24 226.682 350.25V353H226.082V350.28C226.082 349.53 225.872 348.8 224.922 348.8C224.032 348.8 223.322 349.42 223.322 350.69V353H222.722ZM231.139 348.38V348.92H229.819V351.93C229.819 352.34 230.059 352.58 230.459 352.58C230.689 352.58 230.929 352.51 231.139 352.42L231.189 352.96C230.969 353.04 230.639 353.12 230.409 353.12C229.549 353.12 229.219 352.59 229.219 351.93V348.92H228.219V348.38H229.219V347.05H229.819V348.38H231.139ZM232.829 352.58C232.829 352.31 233.039 352.1 233.309 352.1C233.579 352.1 233.789 352.31 233.789 352.58C233.789 352.85 233.579 353.06 233.309 353.06C233.039 353.06 232.829 352.85 232.829 352.58Z" fill="white"/>
<path d="M0.5 0H280.5V497H0.5V0Z" fill="black"/>
<mask id="mask0_6709_33824" style="mask-type:alpha" maskUnits="userSpaceOnUse" x="0" y="0" width="281" height="497">
<rect x="0.5" width="280" height="497" fill="#D9D9D9"/>
</mask>
<g mask="url(#mask0_6709_33824)">
<path d="M66.0453 278L64.1764 280.257L66.9788 280.733L66.0453 278ZM45.0875 296.98L44.9528 297.196L44.9528 297.196L45.0875 296.98ZM50.1761 287.908L50.004 288.094L50.0153 288.105L50.0278 288.114L50.1761 287.908ZM26.3052 301.73C26.0641 301.034 25.3118 300.685 24.6249 300.951C23.9379 301.216 23.5765 301.995 23.8176 302.691C24.0587 303.387 24.811 303.736 25.4979 303.47C26.1849 303.205 26.5463 302.426 26.3052 301.73ZM65.3862 280.185C64.2821 284.238 61.2143 289.682 57.4112 293.46C55.5106 295.348 53.4418 296.805 51.3596 297.472C49.286 298.138 47.1966 298.022 45.2222 296.765L44.9528 297.196C47.0619 298.539 49.3022 298.658 51.4959 297.955C53.6809 297.254 55.8171 295.739 57.7507 293.818C61.6157 289.979 64.7327 284.454 65.8621 280.308L65.3862 280.185ZM45.2222 296.765C43.317 295.551 42.4467 294.159 42.2376 292.841C42.028 291.52 42.4746 290.225 43.2934 289.189C44.1135 288.151 45.2949 287.388 46.5198 287.132C47.7386 286.877 48.9962 287.123 50.004 288.094L50.3481 287.722C49.2118 286.627 47.7876 286.353 46.4333 286.636C45.0851 286.918 43.8019 287.751 42.9122 288.877C42.0214 290.005 41.513 291.444 41.7496 292.935C41.9866 294.428 42.9636 295.928 44.9528 297.196L45.2222 296.765ZM50.0278 288.114C51.0166 288.846 51.5774 289.763 51.789 290.788C52.0015 291.818 51.8653 292.975 51.4257 294.185C50.545 296.608 48.4629 299.195 45.685 301.266C40.1275 305.408 31.9085 307.403 25.2175 302.01L24.9053 302.411C31.829 307.99 40.3044 305.894 45.969 301.672C48.8022 299.56 50.9631 296.896 51.8885 294.35C52.3518 293.075 52.5093 291.817 52.2728 290.671C52.0352 289.52 51.404 288.5 50.3244 287.702L50.0278 288.114Z" fill="#00F942"/>
<path d="M263.5 512.5C263.5 512.5 62.4195 215.51 105.19 182.41C139.15 156.13 394.32 219.08 283.16 193.54C172 168 67.9995 112.5 39.6495 -35C88.4995 151.5 125 182.41 -50.5005 145.63C144 156.5 178.5 408.5 263.5 512.5Z" fill="#00F942" fill-opacity="0.2"/>
<path d="M-19.7544 502.629C-19.7544 502.629 117.01 220.729 101.41 200.757C89.0271 184.894 -88.5251 266.444 -88.5251 266.444C-88.5251 266.444 119.302 188.655 141.889 41.9427C117.311 174.418 226 123 302.745 61.2573C220.5 100.5 146 191.5 315.999 307.499C128 159.181 48.135 359.128 -19.7544 502.629Z" fill="#5A58F2" fill-opacity="0.2"/>
</g>
<g filter="url(#filter0_b_6709_33824)">
<rect x="0.5" y="314" width="280" height="80" fill="#171717" fill-opacity="0.6"/>
</g>
<g clip-path="url(#clip0_6709_33824)">
<path d="M66.2852 116.074C68.3284 112.266 68.7876 107.887 67.5765 103.74C66.3654 99.5929 63.6219 96.1496 59.8503 94.0395L59.7073 93.9612L59.5717 93.8807C55.7657 91.8448 51.3871 91.3856 47.2399 92.5967C43.0928 93.8079 39.6494 96.5513 37.5394 100.323L37.4663 100.456L37.3858 100.592C35.3447 104.408 34.8855 108.786 36.0966 112.933C37.3077 117.08 40.0512 120.524 43.8228 122.634L43.9372 122.696L44.0992 122.785C47.9052 124.821 52.2839 125.28 56.431 124.069C60.5781 122.858 64.0215 120.115 66.1315 116.343L66.2203 116.181L66.283 116.067L66.2852 116.074ZM66.0329 115.731L61.168 111.194C58.3596 108.57 57.2088 104.629 58.166 100.914L59.8244 94.4716C63.4246 96.5435 66.0364 99.8652 67.2023 103.857C68.3682 107.85 67.9492 112.064 66.0351 115.739L66.0329 115.731ZM47.3477 92.9657C51.3399 91.7998 55.5472 92.2209 59.2289 94.1329L54.6913 98.9979C52.0677 101.806 48.1272 102.957 44.412 102L37.9693 100.341C40.0286 96.7529 43.3555 94.1316 47.3477 92.9657ZM37.6328 100.944L42.4978 105.482C45.3061 108.106 46.4569 112.046 45.4997 115.761L43.8414 122.204C40.2506 120.137 37.6314 116.818 36.4656 112.826C35.2997 108.833 35.7186 104.619 37.6328 100.944ZM56.3254 123.708C52.3332 124.873 48.1281 124.46 44.4442 122.54L48.9818 117.675C51.6054 114.867 55.5459 113.716 59.2611 114.674L65.7038 116.332C63.6318 119.932 60.3102 122.544 56.318 123.71L56.3254 123.708ZM59.3603 114.3C55.5076 113.311 51.4195 114.505 48.7047 117.412L44.2562 122.171L45.873 115.86C46.8622 112.008 45.6683 107.92 42.7612 105.205L38.0024 100.756L44.3128 102.373C46.2428 102.867 48.2225 102.817 50.0673 102.278C51.9121 101.74 53.6073 100.716 54.9684 99.2613L59.4169 94.5025L57.8001 100.813C56.8109 104.666 58.0048 108.754 60.9119 111.469L65.6707 115.917L59.3603 114.3Z" fill="#00F942"/>
</g>
<path d="M252.023 73.2414C251.89 72.5171 251.195 72.0377 250.471 72.1706C249.747 72.3034 249.267 72.9983 249.4 73.7226C249.533 74.4469 250.228 74.9263 250.952 74.7935C251.677 74.6606 252.156 73.9657 252.023 73.2414ZM224.131 85.1066L224.199 84.8659L224.131 85.1066ZM200.52 89.4383L202.735 87.5868L200.024 86.5945L200.52 89.4383ZM250.483 73.38C249.67 75.2002 247.885 76.9071 245.565 78.4286C243.249 79.9464 240.427 81.2619 237.578 82.3099C234.73 83.3577 231.863 84.1353 229.46 84.5805C228.259 84.8031 227.178 84.9419 226.276 84.9905C225.368 85.0394 224.661 84.9956 224.199 84.8659L224.064 85.3473C224.606 85.4995 225.378 85.5396 226.302 85.4898C227.232 85.4397 228.336 85.2974 229.552 85.0721C231.983 84.6215 234.878 83.8361 237.751 82.7792C240.623 81.7226 243.482 80.3916 245.839 78.8467C248.19 77.3055 250.068 75.5335 250.94 73.584L250.483 73.38ZM224.199 84.8659C224.112 84.8415 224.05 84.8187 224.007 84.7987C223.961 84.7773 223.953 84.766 223.959 84.7722C223.97 84.7852 223.995 84.8253 223.987 84.8807C223.982 84.9233 223.961 84.9372 223.976 84.9215C224.009 84.8879 224.094 84.8301 224.259 84.7503C224.417 84.6743 224.623 84.5898 224.873 84.4946C225.862 84.1174 227.494 83.5913 229.16 82.8387C230.828 82.085 232.569 81.0883 233.799 79.743C235.037 78.3885 235.76 76.6761 235.365 74.5244L234.873 74.6146C235.235 76.5849 234.583 78.1443 233.43 79.4056C232.268 80.6762 230.601 81.6391 228.954 82.383C227.306 83.128 225.718 83.6373 224.695 84.0274C224.441 84.124 224.219 84.2145 224.042 84.2999C223.873 84.3814 223.716 84.4712 223.616 84.5745C223.565 84.6273 223.507 84.7069 223.492 84.8129C223.476 84.9318 223.522 85.0331 223.586 85.1053C223.645 85.1708 223.721 85.2168 223.795 85.2513C223.871 85.2871 223.961 85.3186 224.064 85.3473L224.199 84.8659ZM235.365 74.5244C235.309 74.2195 235.116 73.9713 234.847 73.775C234.58 73.5796 234.224 73.4234 233.803 73.3001C232.96 73.0532 231.803 72.923 230.435 72.9101C227.693 72.8842 224.046 73.3286 220.231 74.3069C216.414 75.2853 212.417 76.8008 208.979 78.9244C205.541 81.0473 202.648 83.7872 201.067 87.2201L201.521 87.4293C203.048 84.1149 205.856 81.4409 209.241 79.3498C212.626 77.2593 216.574 75.7607 220.355 74.7913C224.136 73.8218 227.739 73.3847 230.43 73.4101C231.777 73.4228 232.882 73.5515 233.663 73.78C234.053 73.8943 234.349 74.0299 234.552 74.1784C234.754 74.3259 234.847 74.4737 234.873 74.6146L235.365 74.5244Z" fill="#5A58F2"/>
<path d="M223.11 256.391C223.11 256.391 219.049 261.066 212.167 255.433" stroke="#00F942" stroke-width="0.5" stroke-miterlimit="10" stroke-linecap="round"/>
<path d="M257.638 293.545C257.638 293.545 257.151 263.175 236.615 280.83C216.079 298.485 229.535 301.987 235.274 297.349C241.013 292.712 246.257 285.436 246.257 285.436" stroke="#00F942" stroke-width="0.5" stroke-miterlimit="10" stroke-linecap="round"/>
<path d="M242.82 276.58C242.82 276.58 222.452 248.433 212.941 254.802C203.429 261.171 227.962 285.634 231.152 283.544C234.342 281.454 222.247 268.89 215.908 274.51C209.569 280.13 219.472 294.606 222.81 292.815C226.147 291.023 215.732 277.468 207.22 284.459C199.184 291.058 215.457 301.516 216.36 299.315C217.78 295.859 208.367 284.579 208.367 284.579" stroke="#00F942" stroke-width="0.5" stroke-miterlimit="10" stroke-linecap="round"/>
<path d="M230.784 286.404C230.784 286.404 233.27 293.632 227.385 298.635" stroke="#00F942" stroke-width="0.5" stroke-miterlimit="10" stroke-linecap="round"/>
<path d="M216.389 251.157L217.093 244.772" stroke="#00F942" stroke-width="0.5" stroke-linecap="round"/>
<path d="M208.327 256.222L202.13 255.35" stroke="#00F942" stroke-width="0.5" stroke-linecap="round"/>
<path d="M211.127 252.753L207.874 245.675" stroke="#00F942" stroke-width="0.5" stroke-linecap="round"/>
<ellipse cx="141.882" cy="194.164" rx="118.882" ry="124.164" fill="url(#paint0_radial_6709_33824)" fill-opacity="0.6"/>
<mask id="mask1_6709_33824" style="mask-type:alpha" maskUnits="userSpaceOnUse" x="42" y="78" width="202" height="233">
<rect width="135.246" height="193.713" transform="matrix(0.915873 0.401468 -0.400164 0.916444 119.54 78.3594)" fill="#00F942"/>
</mask>
<g mask="url(#mask1_6709_33824)">
<rect width="241.995" height="244.383" transform="matrix(0.915873 0.401468 -0.400164 0.916444 92.1826 48.0684)" fill="#00F942"/>
</g>
<mask id="mask2_6709_33824" style="mask-type:alpha" maskUnits="userSpaceOnUse" x="44" y="77" width="194" height="229">
<rect width="135.237" height="193.726" transform="matrix(0.941689 0.336485 -0.335401 0.942076 109.879 77.7686)" fill="#00F942"/>
</mask>
<g mask="url(#mask2_6709_33824)">
<rect width="241.978" height="244.399" transform="matrix(0.941689 0.336485 -0.335401 0.942076 80.479 49.4639)" fill="#5A58F2"/>
</g>
<mask id="mask3_6709_33824" style="mask-type:alpha" maskUnits="userSpaceOnUse" x="48" y="80" width="181" height="223">
<rect width="135.235" height="193.73" transform="matrix(0.966101 0.258164 -0.25714 0.966374 98.2129 80.4795)" fill="#00F942"/>
</mask>
<g mask="url(#mask3_6709_33824)">
<rect width="241.974" height="244.404" transform="matrix(0.966101 0.258164 -0.25714 0.966374 66.5938 54.6807)" fill="#00F942"/>
</g>
<g filter="url(#filter1_dd_6709_33824)">
<rect width="240" height="36" transform="translate(20.5 403)" fill="#00F942"/>
<path d="M46.292 424.132C46.5693 424.548 46.9213 424.857 47.348 425.06C47.7853 425.252 48.2333 425.348 48.692 425.348C48.948 425.348 49.2093 425.311 49.476 425.236C49.7427 425.151 49.9827 425.028 50.196 424.868C50.42 424.708 50.6013 424.511 50.74 424.276C50.8787 424.041 50.948 423.769 50.948 423.46C50.948 423.023 50.8093 422.692 50.532 422.468C50.2547 422.233 49.908 422.041 49.492 421.892C49.0867 421.732 48.6387 421.583 48.148 421.444C47.668 421.295 47.22 421.092 46.804 420.836C46.3987 420.58 46.0573 420.239 45.78 419.812C45.5027 419.375 45.364 418.788 45.364 418.052C45.364 417.721 45.4333 417.369 45.572 416.996C45.7213 416.623 45.9507 416.281 46.26 415.972C46.5693 415.663 46.964 415.407 47.444 415.204C47.9347 414.991 48.5213 414.884 49.204 414.884C49.8227 414.884 50.4147 414.969 50.98 415.14C51.5453 415.311 52.0413 415.657 52.468 416.18L51.22 417.316C51.028 417.017 50.756 416.777 50.404 416.596C50.052 416.415 49.652 416.324 49.204 416.324C48.7773 416.324 48.42 416.383 48.132 416.5C47.8547 416.607 47.6307 416.751 47.46 416.932C47.2893 417.103 47.1667 417.289 47.092 417.492C47.028 417.695 46.996 417.881 46.996 418.052C46.996 418.532 47.1347 418.9 47.412 419.156C47.6893 419.412 48.0307 419.62 48.436 419.78C48.852 419.94 49.3 420.084 49.78 420.212C50.2707 420.34 50.7187 420.521 51.124 420.756C51.54 420.98 51.8867 421.289 52.164 421.684C52.4413 422.068 52.58 422.601 52.58 423.284C52.58 423.828 52.4733 424.319 52.26 424.756C52.0573 425.193 51.78 425.561 51.428 425.86C51.076 426.159 50.66 426.388 50.18 426.548C49.7 426.708 49.188 426.788 48.644 426.788C47.9187 426.788 47.2307 426.66 46.58 426.404C45.9293 426.148 45.412 425.753 45.028 425.22L46.292 424.132ZM58.5426 420.164H56.4786V423.604C56.4786 423.817 56.484 424.031 56.4946 424.244C56.5053 424.447 56.5426 424.633 56.6066 424.804C56.6813 424.964 56.788 425.097 56.9266 425.204C57.076 425.3 57.2893 425.348 57.5666 425.348C57.7373 425.348 57.9133 425.332 58.0946 425.3C58.276 425.268 58.4413 425.209 58.5906 425.124V426.436C58.42 426.532 58.196 426.596 57.9186 426.628C57.652 426.671 57.444 426.692 57.2946 426.692C56.74 426.692 56.308 426.617 55.9986 426.468C55.7 426.308 55.476 426.105 55.3266 425.86C55.188 425.615 55.1026 425.343 55.0706 425.044C55.0493 424.735 55.0386 424.425 55.0386 424.116V420.164H53.3746V418.916H55.0386V416.788H56.4786V418.916H58.5426V420.164ZM64.4965 422.852C64.1552 422.852 63.8032 422.873 63.4405 422.916C63.0885 422.948 62.7632 423.017 62.4645 423.124C62.1765 423.231 61.9365 423.38 61.7445 423.572C61.5632 423.764 61.4725 424.009 61.4725 424.308C61.4725 424.745 61.6165 425.06 61.9045 425.252C62.2032 425.444 62.6032 425.54 63.1045 425.54C63.4992 425.54 63.8352 425.476 64.1125 425.348C64.3898 425.209 64.6138 425.033 64.7845 424.82C64.9552 424.607 65.0778 424.372 65.1525 424.116C65.2272 423.849 65.2645 423.588 65.2645 423.332V422.852H64.4965ZM60.4325 419.844C60.8378 419.471 61.3072 419.193 61.8405 419.012C62.3738 418.82 62.9072 418.724 63.4405 418.724C63.9952 418.724 64.4698 418.793 64.8645 418.932C65.2698 419.071 65.6005 419.257 65.8565 419.492C66.1125 419.727 66.2992 419.999 66.4165 420.308C66.5445 420.607 66.6085 420.921 66.6085 421.252V425.124C66.6085 425.391 66.6138 425.636 66.6245 425.86C66.6352 426.084 66.6512 426.297 66.6725 426.5H65.3925C65.3605 426.116 65.3445 425.732 65.3445 425.348H65.3125C64.9925 425.839 64.6138 426.185 64.1765 426.388C63.7392 426.591 63.2325 426.692 62.6565 426.692C62.3045 426.692 61.9685 426.644 61.6485 426.548C61.3285 426.452 61.0458 426.308 60.8005 426.116C60.5658 425.924 60.3792 425.689 60.2405 425.412C60.1018 425.124 60.0325 424.793 60.0325 424.42C60.0325 423.929 60.1392 423.519 60.3525 423.188C60.5765 422.857 60.8752 422.591 61.2485 422.388C61.6325 422.175 62.0752 422.025 62.5765 421.94C63.0885 421.844 63.6325 421.796 64.2085 421.796H65.2645V421.476C65.2645 421.284 65.2272 421.092 65.1525 420.9C65.0778 420.708 64.9658 420.537 64.8165 420.388C64.6672 420.228 64.4805 420.105 64.2565 420.02C64.0325 419.924 63.7658 419.876 63.4565 419.876C63.1792 419.876 62.9338 419.903 62.7205 419.956C62.5178 420.009 62.3312 420.079 62.1605 420.164C61.9898 420.239 61.8352 420.329 61.6965 420.436C61.5578 420.543 61.4245 420.644 61.2965 420.74L60.4325 419.844ZM68.6974 418.916H70.1374V420.084H70.1694C70.2654 419.881 70.3934 419.7 70.5534 419.54C70.7134 419.369 70.8894 419.225 71.0814 419.108C71.284 418.991 71.5027 418.9 71.7374 418.836C71.972 418.761 72.2067 418.724 72.4414 418.724C72.676 418.724 72.8894 418.756 73.0814 418.82L73.0174 420.372C72.9 420.34 72.7827 420.313 72.6654 420.292C72.548 420.271 72.4307 420.26 72.3134 420.26C71.6094 420.26 71.0707 420.457 70.6974 420.852C70.324 421.247 70.1374 421.86 70.1374 422.692V426.5H68.6974V418.916ZM78.6833 420.164H76.6193V423.604C76.6193 423.817 76.6246 424.031 76.6353 424.244C76.6459 424.447 76.6833 424.633 76.7473 424.804C76.8219 424.964 76.9286 425.097 77.0673 425.204C77.2166 425.3 77.4299 425.348 77.7073 425.348C77.8779 425.348 78.0539 425.332 78.2352 425.3C78.4166 425.268 78.5819 425.209 78.7313 425.124V426.436C78.5606 426.532 78.3366 426.596 78.0593 426.628C77.7926 426.671 77.5846 426.692 77.4353 426.692C76.8806 426.692 76.4486 426.617 76.1393 426.468C75.8406 426.308 75.6166 426.105 75.4673 425.86C75.3286 425.615 75.2433 425.343 75.2113 425.044C75.1899 424.735 75.1793 424.425 75.1793 424.116V420.164H73.5152V418.916H75.1793V416.788H76.6193V418.916H78.6833V420.164ZM85.3623 415.172H87.3783L93.6183 424.484H93.6503V415.172H95.1863V426.5H93.2343L86.9303 417.188H86.8983V426.5H85.3623V415.172ZM97.3606 422.708C97.3606 422.153 97.462 421.636 97.6646 421.156C97.878 420.676 98.166 420.255 98.5286 419.892C98.8913 419.529 99.318 419.247 99.8086 419.044C100.299 418.831 100.827 418.724 101.393 418.724C101.958 418.724 102.486 418.831 102.977 419.044C103.467 419.247 103.894 419.529 104.257 419.892C104.619 420.255 104.902 420.676 105.105 421.156C105.318 421.636 105.425 422.153 105.425 422.708C105.425 423.263 105.318 423.785 105.105 424.276C104.902 424.756 104.619 425.177 104.257 425.54C103.894 425.892 103.467 426.175 102.977 426.388C102.486 426.591 101.958 426.692 101.393 426.692C100.827 426.692 100.299 426.591 99.8086 426.388C99.318 426.175 98.8913 425.892 98.5286 425.54C98.166 425.177 97.878 424.756 97.6646 424.276C97.462 423.785 97.3606 423.263 97.3606 422.708ZM98.8966 422.708C98.8966 423.092 98.9553 423.449 99.0726 423.78C99.19 424.1 99.3553 424.377 99.5686 424.612C99.782 424.836 100.043 425.017 100.353 425.156C100.662 425.284 101.009 425.348 101.393 425.348C101.777 425.348 102.123 425.284 102.433 425.156C102.742 425.017 103.003 424.836 103.217 424.612C103.43 424.377 103.595 424.1 103.713 423.78C103.83 423.449 103.889 423.092 103.889 422.708C103.889 422.324 103.83 421.972 103.713 421.652C103.595 421.321 103.43 421.044 103.217 420.82C103.003 420.585 102.742 420.404 102.433 420.276C102.123 420.137 101.777 420.068 101.393 420.068C101.009 420.068 100.662 420.137 100.353 420.276C100.043 420.404 99.782 420.585 99.5686 420.82C99.3553 421.044 99.19 421.321 99.0726 421.652C98.9553 421.972 98.8966 422.324 98.8966 422.708ZM106.317 418.916H107.933L109.645 424.58H109.677L111.485 418.916H113.005L114.925 424.58H114.957L116.589 418.916H118.109L115.661 426.5H114.205L112.205 420.836H112.173L110.365 426.5H108.813L106.317 418.916ZM230.665 417.492L239.209 420.996V422.308L230.665 425.828V424.564L237.897 421.652L230.665 418.74V417.492Z" fill="black"/>
</g>
<path d="M56.35 458.41L55.03 455.16H55.01L53.67 458.41H56.35ZM54.63 453.92H55.5L58.53 461H57.41L56.7 459.25H53.33L52.63 461H51.51L54.63 453.92ZM59.451 453.92H60.411V461H59.451V453.92ZM69.9474 455.45C69.7474 455.19 69.4941 454.99 69.1874 454.85C68.8808 454.71 68.5641 454.64 68.2374 454.64C67.8374 454.64 67.4741 454.717 67.1474 454.87C66.8274 455.017 66.5508 455.22 66.3174 455.48C66.0908 455.74 65.9141 456.047 65.7874 456.4C65.6608 456.747 65.5974 457.12 65.5974 457.52C65.5974 457.893 65.6574 458.247 65.7774 458.58C65.8974 458.913 66.0708 459.207 66.2974 459.46C66.5241 459.713 66.8008 459.913 67.1274 460.06C67.4541 460.207 67.8241 460.28 68.2374 460.28C68.6441 460.28 69.0008 460.197 69.3074 460.03C69.6141 459.863 69.8741 459.63 70.0874 459.33L70.8974 459.94C70.8441 460.013 70.7508 460.12 70.6174 460.26C70.4841 460.393 70.3074 460.53 70.0874 460.67C69.8674 460.803 69.6008 460.92 69.2874 461.02C68.9808 461.127 68.6241 461.18 68.2174 461.18C67.6574 461.18 67.1508 461.073 66.6974 460.86C66.2508 460.647 65.8674 460.367 65.5474 460.02C65.2341 459.673 64.9941 459.283 64.8274 458.85C64.6608 458.41 64.5774 457.967 64.5774 457.52C64.5774 456.973 64.6674 456.47 64.8474 456.01C65.0274 455.543 65.2774 455.143 65.5974 454.81C65.9241 454.47 66.3141 454.207 66.7674 454.02C67.2208 453.833 67.7208 453.74 68.2674 453.74C68.7341 453.74 69.1908 453.83 69.6374 454.01C70.0908 454.19 70.4608 454.467 70.7474 454.84L69.9474 455.45ZM71.8284 456.26H72.7284V456.99H72.7484C72.8084 456.863 72.8884 456.75 72.9884 456.65C73.0884 456.543 73.1984 456.453 73.3184 456.38C73.4451 456.307 73.5818 456.25 73.7284 456.21C73.8751 456.163 74.0218 456.14 74.1684 456.14C74.3151 456.14 74.4484 456.16 74.5684 456.2L74.5284 457.17C74.4551 457.15 74.3818 457.133 74.3084 457.12C74.2351 457.107 74.1618 457.1 74.0884 457.1C73.6484 457.1 73.3118 457.223 73.0784 457.47C72.8451 457.717 72.7284 458.1 72.7284 458.62V461H71.8284V456.26ZM78.8738 458.24C78.8672 458.04 78.8338 457.857 78.7738 457.69C78.7205 457.523 78.6372 457.38 78.5238 457.26C78.4105 457.133 78.2672 457.037 78.0938 456.97C77.9272 456.897 77.7305 456.86 77.5038 456.86C77.2838 456.86 77.0805 456.903 76.8938 456.99C76.7138 457.07 76.5605 457.177 76.4338 457.31C76.3072 457.443 76.2072 457.593 76.1338 457.76C76.0672 457.92 76.0338 458.08 76.0338 458.24H78.8738ZM76.0338 458.96C76.0338 459.167 76.0772 459.357 76.1638 459.53C76.2572 459.697 76.3772 459.84 76.5238 459.96C76.6705 460.08 76.8405 460.173 77.0338 460.24C77.2272 460.307 77.4272 460.34 77.6338 460.34C77.9138 460.34 78.1572 460.277 78.3638 460.15C78.5705 460.017 78.7605 459.843 78.9338 459.63L79.6138 460.15C79.1138 460.797 78.4138 461.12 77.5138 461.12C77.1405 461.12 76.8005 461.057 76.4938 460.93C76.1938 460.803 75.9372 460.63 75.7238 460.41C75.5172 460.183 75.3572 459.92 75.2438 459.62C75.1305 459.313 75.0738 458.983 75.0738 458.63C75.0738 458.277 75.1338 457.95 75.2538 457.65C75.3805 457.343 75.5505 457.08 75.7638 456.86C75.9838 456.633 76.2438 456.457 76.5438 456.33C76.8438 456.203 77.1705 456.14 77.5238 456.14C77.9438 456.14 78.2972 456.213 78.5838 456.36C78.8772 456.507 79.1172 456.7 79.3038 456.94C79.4905 457.173 79.6238 457.44 79.7038 457.74C79.7905 458.033 79.8338 458.333 79.8338 458.64V458.96H76.0338ZM83.4705 458.72C83.2571 458.72 83.0371 458.733 82.8105 458.76C82.5905 458.78 82.3871 458.823 82.2005 458.89C82.0205 458.957 81.8705 459.05 81.7505 459.17C81.6371 459.29 81.5805 459.443 81.5805 459.63C81.5805 459.903 81.6705 460.1 81.8505 460.22C82.0371 460.34 82.2871 460.4 82.6005 460.4C82.8471 460.4 83.0571 460.36 83.2305 460.28C83.4038 460.193 83.5438 460.083 83.6505 459.95C83.7571 459.817 83.8338 459.67 83.8805 459.51C83.9271 459.343 83.9505 459.18 83.9505 459.02V458.72H83.4705ZM80.9305 456.84C81.1838 456.607 81.4771 456.433 81.8105 456.32C82.1438 456.2 82.4771 456.14 82.8105 456.14C83.1571 456.14 83.4538 456.183 83.7005 456.27C83.9538 456.357 84.1605 456.473 84.3205 456.62C84.4805 456.767 84.5971 456.937 84.6705 457.13C84.7505 457.317 84.7905 457.513 84.7905 457.72V460.14C84.7905 460.307 84.7938 460.46 84.8005 460.6C84.8071 460.74 84.8171 460.873 84.8305 461H84.0305C84.0105 460.76 84.0005 460.52 84.0005 460.28H83.9805C83.7805 460.587 83.5438 460.803 83.2705 460.93C82.9971 461.057 82.6805 461.12 82.3205 461.12C82.1005 461.12 81.8905 461.09 81.6905 461.03C81.4905 460.97 81.3138 460.88 81.1605 460.76C81.0138 460.64 80.8971 460.493 80.8105 460.32C80.7238 460.14 80.6805 459.933 80.6805 459.7C80.6805 459.393 80.7471 459.137 80.8805 458.93C81.0205 458.723 81.2071 458.557 81.4405 458.43C81.6805 458.297 81.9571 458.203 82.2705 458.15C82.5905 458.09 82.9305 458.06 83.2905 458.06H83.9505V457.86C83.9505 457.74 83.9271 457.62 83.8805 457.5C83.8338 457.38 83.7638 457.273 83.6705 457.18C83.5771 457.08 83.4605 457.003 83.3205 456.95C83.1805 456.89 83.0138 456.86 82.8205 456.86C82.6471 456.86 82.4938 456.877 82.3605 456.91C82.2338 456.943 82.1171 456.987 82.0105 457.04C81.9038 457.087 81.8071 457.143 81.7205 457.21C81.6338 457.277 81.5505 457.34 81.4705 457.4L80.9305 456.84ZM88.636 457.04H87.346V459.19C87.346 459.323 87.3493 459.457 87.356 459.59C87.3627 459.717 87.386 459.833 87.426 459.94C87.4727 460.04 87.5393 460.123 87.626 460.19C87.7193 460.25 87.8527 460.28 88.026 460.28C88.1327 460.28 88.2427 460.27 88.356 460.25C88.4693 460.23 88.5727 460.193 88.666 460.14V460.96C88.5593 461.02 88.4193 461.06 88.246 461.08C88.0793 461.107 87.9493 461.12 87.856 461.12C87.5093 461.12 87.2393 461.073 87.046 460.98C86.8593 460.88 86.7193 460.753 86.626 460.6C86.5393 460.447 86.486 460.277 86.466 460.09C86.4527 459.897 86.446 459.703 86.446 459.51V457.04H85.406V456.26H86.446V454.93H87.346V456.26H88.636V457.04ZM93.3172 458.24C93.3105 458.04 93.2772 457.857 93.2172 457.69C93.1639 457.523 93.0805 457.38 92.9672 457.26C92.8539 457.133 92.7105 457.037 92.5372 456.97C92.3705 456.897 92.1739 456.86 91.9472 456.86C91.7272 456.86 91.5239 456.903 91.3372 456.99C91.1572 457.07 91.0039 457.177 90.8772 457.31C90.7505 457.443 90.6505 457.593 90.5772 457.76C90.5105 457.92 90.4772 458.08 90.4772 458.24H93.3172ZM90.4772 458.96C90.4772 459.167 90.5205 459.357 90.6072 459.53C90.7005 459.697 90.8205 459.84 90.9672 459.96C91.1139 460.08 91.2839 460.173 91.4772 460.24C91.6705 460.307 91.8705 460.34 92.0772 460.34C92.3572 460.34 92.6005 460.277 92.8072 460.15C93.0139 460.017 93.2039 459.843 93.3772 459.63L94.0572 460.15C93.5572 460.797 92.8572 461.12 91.9572 461.12C91.5839 461.12 91.2439 461.057 90.9372 460.93C90.6372 460.803 90.3805 460.63 90.1672 460.41C89.9605 460.183 89.8005 459.92 89.6872 459.62C89.5739 459.313 89.5172 458.983 89.5172 458.63C89.5172 458.277 89.5772 457.95 89.6972 457.65C89.8239 457.343 89.9939 457.08 90.2072 456.86C90.4272 456.633 90.6872 456.457 90.9872 456.33C91.2872 456.203 91.6139 456.14 91.9672 456.14C92.3872 456.14 92.7405 456.213 93.0272 456.36C93.3205 456.507 93.5605 456.7 93.7472 456.94C93.9339 457.173 94.0672 457.44 94.1472 457.74C94.2339 458.033 94.2772 458.333 94.2772 458.64V458.96H90.4772Z" fill="white"/>
<path d="M102.23 457.97C102.23 457.79 102.293 457.637 102.42 457.51C102.553 457.377 102.71 457.31 102.89 457.31C103.07 457.31 103.223 457.377 103.35 457.51C103.483 457.637 103.55 457.79 103.55 457.97C103.55 458.15 103.483 458.307 103.35 458.44C103.223 458.567 103.07 458.63 102.89 458.63C102.71 458.63 102.553 458.567 102.42 458.44C102.293 458.307 102.23 458.15 102.23 457.97Z" fill="white"/>
<path d="M116.34 455.45C116.14 455.19 115.887 454.99 115.58 454.85C115.273 454.71 114.957 454.64 114.63 454.64C114.23 454.64 113.867 454.717 113.54 454.87C113.22 455.017 112.943 455.22 112.71 455.48C112.483 455.74 112.307 456.047 112.18 456.4C112.053 456.747 111.99 457.12 111.99 457.52C111.99 457.893 112.05 458.247 112.17 458.58C112.29 458.913 112.463 459.207 112.69 459.46C112.917 459.713 113.193 459.913 113.52 460.06C113.847 460.207 114.217 460.28 114.63 460.28C115.037 460.28 115.393 460.197 115.7 460.03C116.007 459.863 116.267 459.63 116.48 459.33L117.29 459.94C117.237 460.013 117.143 460.12 117.01 460.26C116.877 460.393 116.7 460.53 116.48 460.67C116.26 460.803 115.993 460.92 115.68 461.02C115.373 461.127 115.017 461.18 114.61 461.18C114.05 461.18 113.543 461.073 113.09 460.86C112.643 460.647 112.26 460.367 111.94 460.02C111.627 459.673 111.387 459.283 111.22 458.85C111.053 458.41 110.97 457.967 110.97 457.52C110.97 456.973 111.06 456.47 111.24 456.01C111.42 455.543 111.67 455.143 111.99 454.81C112.317 454.47 112.707 454.207 113.16 454.02C113.613 453.833 114.113 453.74 114.66 453.74C115.127 453.74 115.583 453.83 116.03 454.01C116.483 454.19 116.853 454.467 117.14 454.84L116.34 455.45ZM118.221 456.26H119.121V456.99H119.141C119.201 456.863 119.281 456.75 119.381 456.65C119.481 456.543 119.591 456.453 119.711 456.38C119.838 456.307 119.974 456.25 120.121 456.21C120.268 456.163 120.414 456.14 120.561 456.14C120.708 456.14 120.841 456.16 120.961 456.2L120.921 457.17C120.848 457.15 120.774 457.133 120.701 457.12C120.628 457.107 120.554 457.1 120.481 457.1C120.041 457.1 119.704 457.223 119.471 457.47C119.238 457.717 119.121 458.1 119.121 458.62V461H118.221V456.26ZM125.266 458.24C125.26 458.04 125.226 457.857 125.166 457.69C125.113 457.523 125.03 457.38 124.916 457.26C124.803 457.133 124.66 457.037 124.486 456.97C124.32 456.897 124.123 456.86 123.896 456.86C123.676 456.86 123.473 456.903 123.286 456.99C123.106 457.07 122.953 457.177 122.826 457.31C122.7 457.443 122.6 457.593 122.526 457.76C122.46 457.92 122.426 458.08 122.426 458.24H125.266ZM122.426 458.96C122.426 459.167 122.47 459.357 122.556 459.53C122.65 459.697 122.77 459.84 122.916 459.96C123.063 460.08 123.233 460.173 123.426 460.24C123.62 460.307 123.82 460.34 124.026 460.34C124.306 460.34 124.55 460.277 124.756 460.15C124.963 460.017 125.153 459.843 125.326 459.63L126.006 460.15C125.506 460.797 124.806 461.12 123.906 461.12C123.533 461.12 123.193 461.057 122.886 460.93C122.586 460.803 122.33 460.63 122.116 460.41C121.91 460.183 121.75 459.92 121.636 459.62C121.523 459.313 121.466 458.983 121.466 458.63C121.466 458.277 121.526 457.95 121.646 457.65C121.773 457.343 121.943 457.08 122.156 456.86C122.376 456.633 122.636 456.457 122.936 456.33C123.236 456.203 123.563 456.14 123.916 456.14C124.336 456.14 124.69 456.213 124.976 456.36C125.27 456.507 125.51 456.7 125.696 456.94C125.883 457.173 126.016 457.44 126.096 457.74C126.183 458.033 126.226 458.333 126.226 458.64V458.96H122.426ZM129.863 458.72C129.65 458.72 129.43 458.733 129.203 458.76C128.983 458.78 128.78 458.823 128.593 458.89C128.413 458.957 128.263 459.05 128.143 459.17C128.03 459.29 127.973 459.443 127.973 459.63C127.973 459.903 128.063 460.1 128.243 460.22C128.43 460.34 128.68 460.4 128.993 460.4C129.24 460.4 129.45 460.36 129.623 460.28C129.796 460.193 129.936 460.083 130.043 459.95C130.15 459.817 130.226 459.67 130.273 459.51C130.32 459.343 130.343 459.18 130.343 459.02V458.72H129.863ZM127.323 456.84C127.576 456.607 127.87 456.433 128.203 456.32C128.536 456.2 128.87 456.14 129.203 456.14C129.55 456.14 129.846 456.183 130.093 456.27C130.346 456.357 130.553 456.473 130.713 456.62C130.873 456.767 130.99 456.937 131.063 457.13C131.143 457.317 131.183 457.513 131.183 457.72V460.14C131.183 460.307 131.186 460.46 131.193 460.6C131.2 460.74 131.21 460.873 131.223 461H130.423C130.403 460.76 130.393 460.52 130.393 460.28H130.373C130.173 460.587 129.936 460.803 129.663 460.93C129.39 461.057 129.073 461.12 128.713 461.12C128.493 461.12 128.283 461.09 128.083 461.03C127.883 460.97 127.706 460.88 127.553 460.76C127.406 460.64 127.29 460.493 127.203 460.32C127.116 460.14 127.073 459.933 127.073 459.7C127.073 459.393 127.14 459.137 127.273 458.93C127.413 458.723 127.6 458.557 127.833 458.43C128.073 458.297 128.35 458.203 128.663 458.15C128.983 458.09 129.323 458.06 129.683 458.06H130.343V457.86C130.343 457.74 130.32 457.62 130.273 457.5C130.226 457.38 130.156 457.273 130.063 457.18C129.97 457.08 129.853 457.003 129.713 456.95C129.573 456.89 129.406 456.86 129.213 456.86C129.04 456.86 128.886 456.877 128.753 456.91C128.626 456.943 128.51 456.987 128.403 457.04C128.296 457.087 128.2 457.143 128.113 457.21C128.026 457.277 127.943 457.34 127.863 457.4L127.323 456.84ZM135.029 457.04H133.739V459.19C133.739 459.323 133.742 459.457 133.749 459.59C133.755 459.717 133.779 459.833 133.819 459.94C133.865 460.04 133.932 460.123 134.019 460.19C134.112 460.25 134.245 460.28 134.419 460.28C134.525 460.28 134.635 460.27 134.749 460.25C134.862 460.23 134.965 460.193 135.059 460.14V460.96C134.952 461.02 134.812 461.06 134.639 461.08C134.472 461.107 134.342 461.12 134.249 461.12C133.902 461.12 133.632 461.073 133.439 460.98C133.252 460.88 133.112 460.753 133.019 460.6C132.932 460.447 132.879 460.277 132.859 460.09C132.845 459.897 132.839 459.703 132.839 459.51V457.04H131.799V456.26H132.839V454.93H133.739V456.26H135.029V457.04ZM139.71 458.24C139.703 458.04 139.67 457.857 139.61 457.69C139.556 457.523 139.473 457.38 139.36 457.26C139.246 457.133 139.103 457.037 138.93 456.97C138.763 456.897 138.566 456.86 138.34 456.86C138.12 456.86 137.916 456.903 137.73 456.99C137.55 457.07 137.396 457.177 137.27 457.31C137.143 457.443 137.043 457.593 136.97 457.76C136.903 457.92 136.87 458.08 136.87 458.24H139.71ZM136.87 458.96C136.87 459.167 136.913 459.357 137 459.53C137.093 459.697 137.213 459.84 137.36 459.96C137.506 460.08 137.676 460.173 137.87 460.24C138.063 460.307 138.263 460.34 138.47 460.34C138.75 460.34 138.993 460.277 139.2 460.15C139.406 460.017 139.596 459.843 139.77 459.63L140.45 460.15C139.95 460.797 139.25 461.12 138.35 461.12C137.976 461.12 137.636 461.057 137.33 460.93C137.03 460.803 136.773 460.63 136.56 460.41C136.353 460.183 136.193 459.92 136.08 459.62C135.966 459.313 135.91 458.983 135.91 458.63C135.91 458.277 135.97 457.95 136.09 457.65C136.216 457.343 136.386 457.08 136.6 456.86C136.82 456.633 137.08 456.457 137.38 456.33C137.68 456.203 138.006 456.14 138.36 456.14C138.78 456.14 139.133 456.213 139.42 456.36C139.713 456.507 139.953 456.7 140.14 456.94C140.326 457.173 140.46 457.44 140.54 457.74C140.626 458.033 140.67 458.333 140.67 458.64V458.96H136.87ZM144.69 453.92H146.12L148.37 459.28H148.41L150.64 453.92H152.07V461H151.11V455.18H151.09L148.7 461H148.06L145.67 455.18H145.65V461H144.69V453.92ZM153.822 453.92H158.392V454.82H154.782V456.93H158.142V457.83H154.782V460.1H158.572V461H153.822V453.92ZM159.865 453.92H161.295L163.545 459.28H163.585L165.815 453.92H167.245V461H166.285V455.18H166.265L163.875 461H163.235L160.845 455.18H160.825V461H159.865V453.92ZM168.998 453.92H173.568V454.82H169.958V456.93H173.318V457.83H169.958V460.1H173.748V461H168.998V453.92ZM177.401 457.45C177.295 457.317 177.161 457.207 177.001 457.12C176.848 457.027 176.658 456.98 176.431 456.98C176.218 456.98 176.031 457.027 175.871 457.12C175.718 457.207 175.641 457.337 175.641 457.51C175.641 457.65 175.685 457.763 175.771 457.85C175.865 457.937 175.971 458.007 176.091 458.06C176.218 458.113 176.351 458.153 176.491 458.18C176.631 458.207 176.751 458.23 176.851 458.25C177.045 458.297 177.225 458.353 177.391 458.42C177.565 458.487 177.711 458.573 177.831 458.68C177.958 458.787 178.055 458.917 178.121 459.07C178.195 459.223 178.231 459.41 178.231 459.63C178.231 459.897 178.175 460.127 178.061 460.32C177.948 460.507 177.801 460.66 177.621 460.78C177.441 460.9 177.235 460.987 177.001 461.04C176.775 461.093 176.545 461.12 176.311 461.12C175.918 461.12 175.571 461.06 175.271 460.94C174.978 460.82 174.715 460.6 174.481 460.28L175.161 459.72C175.308 459.867 175.471 459.997 175.651 460.11C175.831 460.223 176.051 460.28 176.311 460.28C176.425 460.28 176.538 460.27 176.651 460.25C176.771 460.223 176.875 460.187 176.961 460.14C177.055 460.087 177.128 460.023 177.181 459.95C177.241 459.87 177.271 459.78 177.271 459.68C177.271 459.547 177.228 459.437 177.141 459.35C177.061 459.263 176.961 459.197 176.841 459.15C176.728 459.097 176.605 459.057 176.471 459.03C176.345 458.997 176.231 458.97 176.131 458.95C175.938 458.903 175.755 458.85 175.581 458.79C175.408 458.73 175.255 458.65 175.121 458.55C174.988 458.45 174.881 458.323 174.801 458.17C174.721 458.017 174.681 457.827 174.681 457.6C174.681 457.353 174.731 457.14 174.831 456.96C174.938 456.773 175.075 456.62 175.241 456.5C175.415 456.38 175.608 456.29 175.821 456.23C176.041 456.17 176.261 456.14 176.481 456.14C176.801 456.14 177.108 456.2 177.401 456.32C177.695 456.44 177.928 456.64 178.101 456.92L177.401 457.45Z" fill="white"/>
<path d="M186.23 457.97C186.23 457.79 186.293 457.637 186.42 457.51C186.553 457.377 186.71 457.31 186.89 457.31C187.07 457.31 187.223 457.377 187.35 457.51C187.483 457.637 187.55 457.79 187.55 457.97C187.55 458.15 187.483 458.307 187.35 458.44C187.223 458.567 187.07 458.63 186.89 458.63C186.71 458.63 186.553 458.567 186.42 458.44C186.293 458.307 186.23 458.15 186.23 457.97Z" fill="white"/>
<path d="M198.66 460.28C199.067 460.28 199.433 460.207 199.76 460.06C200.087 459.907 200.367 459.703 200.6 459.45C200.833 459.197 201.013 458.9 201.14 458.56C201.267 458.213 201.33 457.847 201.33 457.46C201.33 457.073 201.267 456.71 201.14 456.37C201.013 456.023 200.833 455.723 200.6 455.47C200.367 455.217 200.087 455.017 199.76 454.87C199.433 454.717 199.067 454.64 198.66 454.64C198.253 454.64 197.887 454.717 197.56 454.87C197.233 455.017 196.953 455.217 196.72 455.47C196.487 455.723 196.307 456.023 196.18 456.37C196.053 456.71 195.99 457.073 195.99 457.46C195.99 457.847 196.053 458.213 196.18 458.56C196.307 458.9 196.487 459.197 196.72 459.45C196.953 459.703 197.233 459.907 197.56 460.06C197.887 460.207 198.253 460.28 198.66 460.28ZM198.66 461.18C198.12 461.18 197.623 461.087 197.17 460.9C196.717 460.707 196.327 460.443 196 460.11C195.68 459.777 195.427 459.383 195.24 458.93C195.06 458.477 194.97 457.987 194.97 457.46C194.97 456.933 195.06 456.443 195.24 455.99C195.427 455.537 195.68 455.143 196 454.81C196.327 454.477 196.717 454.217 197.17 454.03C197.623 453.837 198.12 453.74 198.66 453.74C199.2 453.74 199.697 453.837 200.15 454.03C200.603 454.217 200.99 454.477 201.31 454.81C201.637 455.143 201.89 455.537 202.07 455.99C202.257 456.443 202.35 456.933 202.35 457.46C202.35 457.987 202.257 458.477 202.07 458.93C201.89 459.383 201.637 459.777 201.31 460.11C200.99 460.443 200.603 460.707 200.15 460.9C199.697 461.087 199.2 461.18 198.66 461.18ZM203.5 456.26H204.4V456.99H204.42C204.534 456.737 204.73 456.533 205.01 456.38C205.29 456.22 205.614 456.14 205.98 456.14C206.207 456.14 206.424 456.177 206.63 456.25C206.844 456.317 207.027 456.423 207.18 456.57C207.34 456.717 207.467 456.907 207.56 457.14C207.654 457.367 207.7 457.637 207.7 457.95V461H206.8V458.2C206.8 457.98 206.77 457.793 206.71 457.64C206.65 457.48 206.57 457.353 206.47 457.26C206.37 457.16 206.254 457.09 206.12 457.05C205.994 457.003 205.86 456.98 205.72 456.98C205.534 456.98 205.36 457.01 205.2 457.07C205.04 457.13 204.9 457.227 204.78 457.36C204.66 457.487 204.567 457.65 204.5 457.85C204.434 458.05 204.4 458.287 204.4 458.56V461H203.5V456.26ZM212.07 453.92H213.03V460.1H216.28V461H212.07V453.92ZM216.886 454.56C216.886 454.38 216.949 454.227 217.076 454.1C217.209 453.967 217.366 453.9 217.546 453.9C217.726 453.9 217.879 453.967 218.006 454.1C218.139 454.227 218.206 454.38 218.206 454.56C218.206 454.74 218.139 454.897 218.006 455.03C217.879 455.157 217.726 455.22 217.546 455.22C217.366 455.22 217.209 455.157 217.076 455.03C216.949 454.897 216.886 454.74 216.886 454.56ZM217.096 456.26H217.996V461H217.096V456.26ZM218.858 456.26H219.898L221.318 459.89L222.678 456.26H223.638L221.778 461H220.788L218.858 456.26ZM227.948 458.24C227.941 458.04 227.908 457.857 227.848 457.69C227.795 457.523 227.711 457.38 227.598 457.26C227.485 457.133 227.341 457.037 227.168 456.97C227.001 456.897 226.805 456.86 226.578 456.86C226.358 456.86 226.155 456.903 225.968 456.99C225.788 457.07 225.635 457.177 225.508 457.31C225.381 457.443 225.281 457.593 225.208 457.76C225.141 457.92 225.108 458.08 225.108 458.24H227.948ZM225.108 458.96C225.108 459.167 225.151 459.357 225.238 459.53C225.331 459.697 225.451 459.84 225.598 459.96C225.745 460.08 225.915 460.173 226.108 460.24C226.301 460.307 226.501 460.34 226.708 460.34C226.988 460.34 227.231 460.277 227.438 460.15C227.645 460.017 227.835 459.843 228.008 459.63L228.688 460.15C228.188 460.797 227.488 461.12 226.588 461.12C226.215 461.12 225.875 461.057 225.568 460.93C225.268 460.803 225.011 460.63 224.798 460.41C224.591 460.183 224.431 459.92 224.318 459.62C224.205 459.313 224.148 458.983 224.148 458.63C224.148 458.277 224.208 457.95 224.328 457.65C224.455 457.343 224.625 457.08 224.838 456.86C225.058 456.633 225.318 456.457 225.618 456.33C225.918 456.203 226.245 456.14 226.598 456.14C227.018 456.14 227.371 456.213 227.658 456.36C227.951 456.507 228.191 456.7 228.378 456.94C228.565 457.173 228.698 457.44 228.778 457.74C228.865 458.033 228.908 458.333 228.908 458.64V458.96H225.108Z" fill="white"/>
<mask id="mask4_6709_33824" style="mask-type:alpha" maskUnits="userSpaceOnUse" x="55" y="77" width="167" height="215">
<rect width="135.23" height="193.737" transform="matrix(0.985127 0.171826 -0.170984 0.985274 88.2163 77.6973)" fill="#0F0F0F"/>
</mask>
<g mask="url(#mask4_6709_33824)">
<rect width="250.47" height="383.13" transform="matrix(0.985127 0.171826 -0.170984 0.985274 57.7363 -59.6992)" fill="#C4C4C4"/>
</g>
<g clip-path="url(#clip1_6709_33824)">
<path d="M90.4981 33.5303L88.2788 34.7173L90.3202 38.1017C90.3202 38.1017 94.7905 40.8292 95.1183 40.8292C95.4461 40.8292 101.306 41.2083 101.558 41.0315C101.81 40.8548 105.119 39.6909 105.523 39.4521C105.926 39.2132 107.468 37.9738 107.228 37.7751C106.822 37.4387 107.302 36.8903 106.428 36.5588C105.356 36.1518 102.037 34.8185 100.244 34.7941C98.4515 34.7685 95.7715 35.1183 93.9544 34.4126C92.1373 33.7082 90.4957 33.5303 90.4957 33.5303H90.4981Z" fill="black"/>
<path d="M88.9469 34.0096C89.1114 33.9681 88.1937 35.5695 90.19 36.7261C90.5105 39.2184 93.5244 39.6852 94.631 39.2075C96.8649 41.3439 101.095 40.815 102.136 39.4914C102.616 39.6742 105.013 40.0472 105.548 38.6383C106.426 38.3434 106.757 37.5549 106.406 36.3227C109.187 38.9454 105.179 41.0758 103.297 41.1806C102.21 42.448 100.27 41.6644 100.27 41.6644C100.27 41.6644 99.1549 42.6467 97.5365 42.5663C95.918 42.4858 94.6103 41.1379 94.6103 41.1379C94.6103 41.1379 92.8431 41.2208 91.7024 40.3945C90.714 39.6779 90.1888 38.9466 89.9085 37.9095C88.7263 37.511 86.0317 34.7359 88.9457 34.0096H88.9469Z" fill="#00F942"/>
<path d="M99.266 30.6993C97.3124 30.6993 95.1321 29.0881 89.8721 32.7443C88.0915 34.2214 89.1201 36.3322 90.4473 36.3737C91.1286 37.9641 91.3443 38.933 94.7579 38.8428C97.5488 40.365 99.1515 40.4333 101.992 39.1085C103.947 39.3096 104.489 39.2608 105.366 38.2907C106.588 38.6222 107.132 36.1665 105.212 34.0715C103.216 31.8924 102.485 30.7005 99.2648 30.7005L99.266 30.6993Z" fill="#00F942"/>
<path d="M103.893 32.6528C103.893 32.6528 101.064 34.8015 97.9592 34.409C94.8538 34.0166 92.6479 31.2318 92.6479 31.2318C92.6479 31.2318 95.4766 29.0832 98.5819 29.4756C101.687 29.868 103.893 32.6528 103.893 32.6528Z" fill="#00F942"/>
<path d="M103.893 32.8511C103.893 32.8511 101.064 34.9997 97.9592 34.6073C94.8538 34.2148 92.6479 31.43 92.6479 31.43C92.6479 31.43 95.4766 29.2814 98.5819 29.6739C101.687 30.0663 103.893 32.8511 103.893 32.8511Z" fill="white"/>
<mask id="mask5_6709_33824" style="mask-type:luminance" maskUnits="userSpaceOnUse" x="92" y="29" width="12" height="6">
<path d="M103.893 32.853C103.893 32.853 101.064 35.0017 97.9587 34.6092C94.8534 34.2168 92.6475 31.432 92.6475 31.432C92.6475 31.432 95.4761 29.2834 98.5814 29.6758C101.687 30.0682 103.893 32.853 103.893 32.853Z" fill="white"/>
</mask>
<g mask="url(#mask5_6709_33824)">
<path d="M99.3142 31.7163C100.155 31.7163 100.836 31.0347 100.836 30.1941C100.836 29.3534 100.155 28.6719 99.3142 28.6719C98.4735 28.6719 97.792 29.3534 97.792 30.1941C97.792 31.0347 98.4735 31.7163 99.3142 31.7163Z" fill="black"/>
</g>
<path d="M93.1479 34.5755L90.939 36.0801L90.9801 36.1405L93.1891 34.6359L93.1479 34.5755Z" fill="black"/>
<path d="M101.206 36.1708L101.137 36.1943L101.934 38.5351L102.003 38.5115L101.206 36.1708Z" fill="black"/>
</g>
<g clip-path="url(#clip2_6709_33824)">
<path d="M114.282 37.9236L113.963 39.3951H109.456L113.524 27.6523H118.247L122.436 39.3951H117.912L117.525 37.9236H114.282ZM115.074 35.1358H116.787L116.244 32.8813C116.13 32.3931 116.049 31.9543 116.004 31.5651H115.857C115.783 32.1951 115.713 32.6338 115.65 32.8813L115.074 35.1358Z" fill="white"/>
<path d="M123.615 39.3951V27.6523H127.89V39.3951H123.615Z" fill="white"/>
<path d="M129.766 39.3951L131.677 27.6523H136.055L137.432 32.4516C137.518 32.7441 137.603 33.2008 137.691 33.8196H137.794C137.839 33.2931 137.92 32.8363 138.035 32.4516L139.403 27.6523H143.757L145.683 39.3951H141.57L141.037 34.1301C141.003 33.7813 140.983 33.3898 140.976 32.9601H140.899C140.803 33.4708 140.731 33.8038 140.683 33.9591L138.928 39.3951H136.433L134.849 34.2426C134.764 33.9681 134.692 33.5406 134.633 32.9601H134.505C134.509 33.4258 134.505 33.7341 134.487 33.8893L133.893 39.3951H129.764H129.766Z" fill="white"/>
<path d="M147.566 39.3951V27.6523H151.841V39.3951H147.566Z" fill="white"/>
<path d="M154.19 39.3951V27.6523H158.276L161.003 32.0826C161.44 32.7868 161.806 33.4821 162.103 34.1638H162.232C162.099 33.5676 162.016 33.1176 161.982 32.8138C161.953 32.5506 161.932 32.0713 161.921 31.3761L161.86 27.6523H165.946V39.3951H161.86L158.926 34.7578C158.663 34.3461 158.393 33.8353 158.119 33.2256H157.997C158.141 34.1728 158.215 34.8951 158.22 35.3946L158.272 39.3951H154.186H154.19Z" fill="white"/>
<path d="M169.65 39.3951V31.3603L167.24 31.4728V27.6523H176.204V31.4728L173.839 31.3603V39.3951H169.65Z" fill="white"/>
</g>
<path d="M76.9167 55V47.92H81.2467V48.52H77.5767V51.04H81.0167V51.64H77.5767V54.4H81.4067V55H76.9167ZM82.8744 55V51.68C82.8744 51.34 82.8244 50.62 82.8244 50.38H83.4244C83.4344 50.72 83.4444 51.1 83.4644 51.19H83.4944C83.7344 50.68 84.3244 50.26 85.0744 50.26C85.6844 50.26 86.2444 50.56 86.4644 51.26C86.7544 50.57 87.3944 50.26 88.0344 50.26C89.4744 50.26 89.7944 51.24 89.7944 52.25V55H89.1944V52.28C89.1944 51.53 88.9844 50.8 88.0344 50.8C86.9244 50.8 86.6344 51.74 86.6344 52.4V55H86.0344V52.22C86.0344 51.37 85.7244 50.8 85.0744 50.8C84.1844 50.8 83.4744 51.42 83.4744 52.69V55H82.8744ZM91.46 57.28V50.38H92.06V51.19H92.08C92.45 50.55 93.24 50.26 93.93 50.26C95.35 50.26 96.36 51.28 96.36 52.69C96.36 54.1 95.35 55.12 93.93 55.12C93.24 55.12 92.45 54.83 92.08 54.19H92.06V57.28H91.46ZM92 52.69C92 53.73 92.84 54.58 93.93 54.58C95.06 54.58 95.76 53.73 95.76 52.69C95.76 51.65 95.06 50.8 93.93 50.8C92.84 50.8 92 51.65 92 52.69ZM97.6433 52.69C97.6433 51.28 98.6533 50.26 100.073 50.26C101.493 50.26 102.503 51.28 102.503 52.69C102.503 54.1 101.493 55.12 100.073 55.12C98.6533 55.12 97.6433 54.1 97.6433 52.69ZM98.2433 52.69C98.2433 53.73 98.9433 54.58 100.073 54.58C101.203 54.58 101.903 53.73 101.903 52.69C101.903 51.65 101.203 50.8 100.073 50.8C98.9433 50.8 98.2433 51.65 98.2433 52.69ZM104.841 55L103.391 50.38H104.051L105.171 54.25H105.191L106.481 50.38H107.051L108.421 54.25H108.441L109.531 50.38H110.131L108.771 55H108.151L106.771 51.22H106.751L105.461 55H104.841ZM114.922 53.76L115.362 54.13C114.892 54.83 114.182 55.12 113.362 55.12C111.952 55.12 111.022 54.11 111.022 52.68C111.022 51.3 111.982 50.26 113.332 50.26C114.752 50.26 115.502 51.35 115.502 52.42V52.84H111.622C111.622 53.34 111.972 54.58 113.372 54.58C113.982 54.58 114.622 54.26 114.922 53.76ZM111.622 52.3H114.902C114.902 51.48 114.192 50.8 113.302 50.8C111.992 50.8 111.622 52.06 111.622 52.3ZM117.038 55V51.68C117.038 51.34 116.988 50.62 116.988 50.38H117.588C117.598 50.72 117.608 51.1 117.628 51.19C117.928 50.65 118.408 50.26 119.098 50.26C119.218 50.26 119.328 50.28 119.448 50.31L119.378 50.9C119.288 50.87 119.208 50.86 119.148 50.86C118.108 50.86 117.638 51.58 117.638 52.48V55H117.038ZM125.176 55L122.536 47.92H123.246L125.526 54.13L127.826 47.92H128.526L125.836 55H125.176ZM132.537 51.93V53.06C132.537 53.96 132.557 54.47 132.627 55H132.067C132.027 54.77 132.007 54.51 132.007 54.25H131.987C131.647 54.84 131.147 55.12 130.367 55.12C129.577 55.12 128.737 54.73 128.737 53.75C128.737 52.34 130.387 52.2 131.297 52.2H131.997V51.92C131.997 51.12 131.437 50.8 130.697 50.8C130.157 50.8 129.697 50.97 129.287 51.32L128.937 50.91C129.377 50.49 130.097 50.26 130.697 50.26C131.817 50.26 132.537 50.76 132.537 51.93ZM131.997 52.68H131.337C130.337 52.68 129.337 52.93 129.337 53.72C129.337 54.29 129.887 54.58 130.387 54.58C131.667 54.58 131.997 53.76 131.997 52.99V52.68ZM134.433 55V47.44H135.033V55H134.433ZM140.845 50.38V53.7C140.845 54.04 140.895 54.76 140.895 55H140.295C140.285 54.66 140.275 54.28 140.255 54.19H140.225C139.985 54.7 139.395 55.12 138.645 55.12C137.205 55.12 136.885 54.14 136.885 53.13V50.38H137.485V53.1C137.485 53.85 137.695 54.58 138.645 54.58C139.535 54.58 140.245 53.96 140.245 52.69V50.38H140.845ZM146.282 51.93V53.06C146.282 53.96 146.302 54.47 146.372 55H145.812C145.772 54.77 145.752 54.51 145.752 54.25H145.732C145.392 54.84 144.892 55.12 144.112 55.12C143.322 55.12 142.482 54.73 142.482 53.75C142.482 52.34 144.132 52.2 145.042 52.2H145.742V51.92C145.742 51.12 145.182 50.8 144.442 50.8C143.902 50.8 143.442 50.97 143.032 51.32L142.682 50.91C143.122 50.49 143.842 50.26 144.442 50.26C145.562 50.26 146.282 50.76 146.282 51.93ZM145.742 52.68H145.082C144.082 52.68 143.082 52.93 143.082 53.72C143.082 54.29 143.632 54.58 144.132 54.58C145.412 54.58 145.742 53.76 145.742 52.99V52.68ZM147.947 55V47.44H148.547V51.19H148.567C148.937 50.55 149.727 50.26 150.417 50.26C151.837 50.26 152.847 51.28 152.847 52.69C152.847 54.1 151.837 55.12 150.417 55.12C149.727 55.12 148.937 54.83 148.567 54.19H148.547V55H147.947ZM148.487 52.69C148.487 53.73 149.327 54.58 150.417 54.58C151.547 54.58 152.247 53.73 152.247 52.69C152.247 51.65 151.547 50.8 150.417 50.8C149.327 50.8 148.487 51.65 148.487 52.69ZM154.49 55V47.44H155.09V55H154.49ZM160.633 53.76L161.073 54.13C160.603 54.83 159.893 55.12 159.073 55.12C157.663 55.12 156.733 54.11 156.733 52.68C156.733 51.3 157.693 50.26 159.043 50.26C160.463 50.26 161.213 51.35 161.213 52.42V52.84H157.333C157.333 53.34 157.683 54.58 159.083 54.58C159.693 54.58 160.333 54.26 160.633 53.76ZM157.333 52.3H160.613C160.613 51.48 159.903 50.8 159.013 50.8C157.703 50.8 157.333 52.06 157.333 52.3ZM171.007 53.48L171.547 53.89C170.877 54.81 169.957 55.18 168.917 55.18C166.757 55.18 165.257 53.62 165.257 51.46C165.257 49.3 166.757 47.74 168.917 47.74C169.877 47.74 170.737 48.06 171.357 48.85L170.817 49.3C170.377 48.64 169.627 48.34 168.917 48.34C167.067 48.34 165.917 49.7 165.917 51.46C165.917 53.22 167.067 54.58 168.917 54.58C169.627 54.58 170.507 54.24 171.007 53.48ZM172.528 52.69C172.528 51.28 173.538 50.26 174.958 50.26C176.378 50.26 177.388 51.28 177.388 52.69C177.388 54.1 176.378 55.12 174.958 55.12C173.538 55.12 172.528 54.1 172.528 52.69ZM173.128 52.69C173.128 53.73 173.828 54.58 174.958 54.58C176.088 54.58 176.788 53.73 176.788 52.69C176.788 51.65 176.088 50.8 174.958 50.8C173.828 50.8 173.128 51.65 173.128 52.69ZM178.926 55V51.68C178.926 51.34 178.876 50.62 178.876 50.38H179.476C179.486 50.72 179.496 51.1 179.516 51.19H179.546C179.786 50.68 180.376 50.26 181.126 50.26C182.566 50.26 182.886 51.24 182.886 52.25V55H182.286V52.28C182.286 51.53 182.076 50.8 181.126 50.8C180.236 50.8 179.526 51.42 179.526 52.69V55H178.926ZM186.942 50.38V50.92H185.622V53.93C185.622 54.34 185.862 54.58 186.262 54.58C186.492 54.58 186.732 54.51 186.942 54.42L186.992 54.96C186.772 55.04 186.442 55.12 186.212 55.12C185.352 55.12 185.022 54.59 185.022 53.93V50.92H184.022V50.38H185.022V49.05H185.622V50.38H186.942ZM191.852 53.76L192.292 54.13C191.822 54.83 191.112 55.12 190.292 55.12C188.882 55.12 187.952 54.11 187.952 52.68C187.952 51.3 188.912 50.26 190.262 50.26C191.682 50.26 192.432 51.35 192.432 52.42V52.84H188.552C188.552 53.34 188.902 54.58 190.302 54.58C190.912 54.58 191.552 54.26 191.852 53.76ZM188.552 52.3H191.832C191.832 51.48 191.122 50.8 190.232 50.8C188.922 50.8 188.552 52.06 188.552 52.3ZM193.969 55V51.68C193.969 51.34 193.919 50.62 193.919 50.38H194.519C194.529 50.72 194.539 51.1 194.559 51.19H194.589C194.829 50.68 195.419 50.26 196.169 50.26C197.609 50.26 197.929 51.24 197.929 52.25V55H197.329V52.28C197.329 51.53 197.119 50.8 196.169 50.8C195.279 50.8 194.569 51.42 194.569 52.69V55H193.969ZM201.986 50.38V50.92H200.666V53.93C200.666 54.34 200.906 54.58 201.306 54.58C201.536 54.58 201.776 54.51 201.986 54.42L202.036 54.96C201.816 55.04 201.486 55.12 201.256 55.12C200.396 55.12 200.066 54.59 200.066 53.93V50.92H199.066V50.38H200.066V49.05H200.666V50.38H201.986ZM203.276 54.58C203.276 54.31 203.486 54.1 203.756 54.1C204.026 54.1 204.236 54.31 204.236 54.58C204.236 54.85 204.026 55.06 203.756 55.06C203.486 55.06 203.276 54.85 203.276 54.58Z" fill="white"/>
<defs>
<filter id="filter0_b_6709_33824" x="-3.5" y="310" width="288" height="88" filterUnits="userSpaceOnUse" color-interpolation-filters="sRGB">
<feFlood flood-opacity="0" result="BackgroundImageFix"/>
<feGaussianBlur in="BackgroundImageFix" stdDeviation="2"/>
<feComposite in2="SourceAlpha" operator="in" result="effect1_backgroundBlur_6709_33824"/>
<feBlend mode="normal" in="SourceGraphic" in2="effect1_backgroundBlur_6709_33824" result="shape"/>
</filter>
<filter id="filter1_dd_6709_33824" x="17.5" y="398" width="246" height="42" filterUnits="userSpaceOnUse" color-interpolation-filters="sRGB">
<feFlood flood-opacity="0" result="BackgroundImageFix"/>
<feColorMatrix in="SourceAlpha" type="matrix" values="0 0 0 0 0 0 0 0 0 0 0 0 0 0 0 0 0 0 127 0" result="hardAlpha"/>
<feMorphology radius="1" operator="erode" in="SourceAlpha" result="effect1_dropShadow_6709_33824"/>
<feOffset dy="-1"/>
<feGaussianBlur stdDeviation="1"/>
<feComposite in2="hardAlpha" operator="out"/>
<feColorMatrix type="matrix" values="0 0 0 0 0 0 0 0 0 0 0 0 0 0 0 0 0 0 0.1 0"/>
<feBlend mode="normal" in2="BackgroundImageFix" result="effect1_dropShadow_6709_33824"/>
<feColorMatrix in="SourceAlpha" type="matrix" values="0 0 0 0 0 0 0 0 0 0 0 0 0 0 0 0 0 0 127 0" result="hardAlpha"/>
<feOffset dy="-2"/>
<feGaussianBlur stdDeviation="1.5"/>
<feComposite in2="hardAlpha" operator="out"/>
<feColorMatrix type="matrix" values="0 0 0 0 0 0 0 0 0 0 0 0 0 0 0 0 0 0 0.1 0"/>
<feBlend mode="normal" in2="effect1_dropShadow_6709_33824" result="effect2_dropShadow_6709_33824"/>
<feBlend mode="normal" in="SourceGraphic" in2="effect2_dropShadow_6709_33824" result="shape"/>
</filter>
<radialGradient id="paint0_radial_6709_33824" cx="0" cy="0" r="1" gradientUnits="userSpaceOnUse" gradientTransform="translate(141.882 194.164) rotate(93.6523) scale(113.795 108.995)">
<stop stop-color="#00F942"/>
<stop offset="1" stop-color="#00F942" stop-opacity="0"/>
</radialGradient>
<clipPath id="clip0_6709_33824">
<rect width="32.7948" height="32.7948" fill="white" transform="translate(31.5 97.1934) rotate(-16.2797)"/>
</clipPath>
<clipPath id="clip1_6709_33824">
<rect width="24" height="24" fill="white" transform="translate(85.5 24)"/>
</clipPath>
<clipPath id="clip2_6709_33824">
<rect width="66.7485" height="11.7428" fill="white" transform="translate(109.456 27.6523)"/>
</clipPath>
</defs>
</svg>
