<svg width="24" height="22" viewBox="0 0 24 22" fill="none" xmlns="http://www.w3.org/2000/svg">
<g id="Group 115">
<path id="Vector" d="M9.02765 19.837C8.29902 19.837 8.36526 19.572 8.16654 18.9096L6.04688 11.9545L22.2755 2.41602" fill="#C8DAEA"/>
<path id="Vector_2" d="M9.02783 19.8364C9.49151 19.8364 9.75647 19.5715 10.0877 19.3065L13.0684 16.4582L9.35903 14.2061" fill="#A9C9DD"/>
<path id="Vector_3" d="M9.35894 14.207L18.3013 20.7647C19.2286 21.3608 20.0235 21.0296 20.2885 19.8373L23.9316 2.74752C24.2628 1.29026 23.3355 0.627861 22.3419 1.09154L1.07901 9.30523C-0.312018 9.83515 -0.312018 10.6963 0.814053 11.0275L6.31193 12.7497L18.8974 4.73471C19.4936 4.40351 20.0235 4.53599 19.6261 4.99966" fill="#F6FBFE"/>
</g>
</svg>
