<svg width="125" height="48" viewBox="0 0 125 48" fill="none" xmlns="http://www.w3.org/2000/svg">
<g filter="url(#filter0_b_6710_33746)">
<path d="M0 0H125V48H0V0Z" fill="#1F1F1F" fill-opacity="0.6"/>
</g>
<g opacity="0.2">
<mask id="mask0_6710_33746" style="mask-type:alpha" maskUnits="userSpaceOnUse" x="0" y="0" width="125" height="48">
<path d="M0 0H125V48H0V0Z" fill="#323232"/>
</mask>
<g mask="url(#mask0_6710_33746)">
<path d="M77.6204 -54.5387C57.9805 -42.7062 51.6272 -17.0978 63.4592 2.54117C75.2912 22.1802 100.9 28.5323 120.54 16.6999C140.18 4.86736 146.533 -20.741 134.701 -40.38C122.869 -60.019 97.2655 -66.3744 77.6204 -54.5387ZM120.383 16.4393C100.886 28.1852 75.4706 21.8764 63.7283 2.38628C51.986 -17.1038 58.2843 -42.5269 77.7805 -54.2728C97.2768 -66.0188 122.689 -59.7153 134.435 -40.2198C146.18 -20.7244 139.876 4.68797 120.38 16.434L120.383 16.4393Z" fill="#5D5DF9"/>
<path d="M80.3247 -50.0504C63.1578 -39.7077 57.6058 -17.3291 67.948 -0.162961C78.2901 17.0032 100.669 22.5542 117.836 12.2116C135.003 1.869 140.555 -20.5096 130.213 -37.6758C119.87 -54.8419 97.4916 -60.393 80.3247 -50.0504ZM117.679 11.951C100.661 22.2039 78.4695 16.6994 68.2171 -0.317847C57.9646 -17.3351 63.4669 -39.5316 80.4849 -49.7845C97.5029 -60.0374 119.694 -54.5328 129.947 -37.5156C140.199 -20.4983 134.694 1.69281 117.676 11.9457L117.679 11.951Z" fill="#5D5DF9"/>
<path d="M82.7823 -45.9711C67.8649 -36.9838 63.0349 -17.5335 72.025 -2.61148C81.0152 12.3105 100.462 17.1344 115.385 8.14388C130.308 -0.846634 135.132 -20.2937 126.142 -35.2157C117.152 -50.1377 97.705 -54.9616 82.7823 -45.9711ZM115.222 7.87267C100.448 16.7735 81.1882 11.9961 72.2877 -2.77699C63.3873 -17.5501 68.1655 -36.8097 82.9393 -45.7105C97.713 -54.6113 116.973 -49.8339 125.873 -35.0608C134.774 -20.2877 129.995 -1.02813 115.222 7.87267Z" fill="#5D5DF9"/>
<path d="M85.0731 -42.1694C72.2511 -34.4445 68.1029 -17.7245 75.8275 -4.90303C83.5521 7.91842 100.272 12.0658 113.094 4.34091C125.916 -3.38401 130.064 -20.104 122.34 -32.9255C114.615 -45.747 97.8951 -49.8944 85.0731 -42.1694ZM112.931 4.06969C100.253 11.7081 83.7283 7.60932 76.0902 -5.06855C68.4521 -17.7464 72.5516 -34.2704 85.2301 -41.9089C97.9085 -49.5473 114.433 -45.4485 122.071 -32.7706C129.709 -20.0927 125.609 -3.56872 112.931 4.06969Z" fill="#5D5DF9"/>
<path d="M87.6102 -37.9577C77.1122 -31.633 73.7167 -17.9468 80.0412 -7.44922C86.3657 3.04831 100.052 6.44318 110.55 0.118417C121.048 -6.20634 124.444 -19.8926 118.119 -30.3901C111.795 -40.8876 98.1082 -44.2825 87.6102 -37.9577ZM110.393 -0.14216C100.039 6.09609 86.5451 2.74452 80.3103 -7.60411C74.0756 -17.9527 77.4245 -31.4515 87.7736 -37.6865C98.1227 -43.9216 111.622 -40.5732 117.856 -30.2246C124.091 -19.8759 120.742 -6.37721 110.393 -0.14216Z" fill="#5D5DF9"/>
<path d="M90.0802 -33.8578C81.8424 -28.8948 79.1763 -18.1486 84.1392 -9.9112C89.102 -1.67377 99.843 0.995022 108.086 -3.97123C116.329 -8.93748 118.99 -19.6804 114.027 -27.9179C109.064 -36.1553 98.3233 -38.8241 90.0802 -33.8578ZM107.923 -4.24244C99.8285 0.6341 89.2782 -1.98287 84.4019 -10.0767C79.5255 -18.1706 82.143 -28.7207 90.2372 -33.5972C98.3314 -38.4738 108.882 -35.8568 113.758 -27.763C118.634 -19.6691 116.017 -9.11897 107.923 -4.24244Z" fill="#5D5DF9"/>
<path d="M102.305 11.6771C82.6651 23.5096 76.3118 49.118 88.1438 68.757C99.9757 88.396 125.584 94.7482 145.224 82.9157C164.864 71.0832 171.217 45.4748 159.385 25.8358C147.553 6.19677 121.945 -0.155399 102.305 11.6771ZM145.067 82.6551C125.571 94.4011 100.155 88.0922 88.4097 68.5968C76.6642 49.1014 82.9689 23.689 102.465 11.943C121.961 0.197004 147.374 6.50055 159.12 25.996C170.865 45.4914 164.56 70.9038 145.064 82.6498L145.067 82.6551Z" fill="#00F942"/>
<path d="M105.009 16.1655C87.8419 26.5081 82.2899 48.8867 92.6321 66.0529C102.974 83.219 125.353 88.77 142.52 78.4274C159.687 68.0848 165.239 45.7062 154.897 28.54C144.555 11.3739 122.176 5.82285 105.009 16.1655ZM142.363 78.1669C125.345 88.4198 103.154 82.9153 92.9012 65.898C82.6487 48.8807 88.1542 26.6896 105.172 16.4367C122.19 6.18378 144.382 11.6883 154.634 28.7056C164.886 45.7228 159.381 67.914 142.363 78.1669Z" fill="#00F942"/>
<path d="M107.466 20.2448C92.549 29.2321 87.719 48.6823 96.7091 63.6043C105.699 78.5264 125.146 83.3502 140.069 74.3597C154.992 65.3692 159.817 45.9221 150.826 31.0001C141.836 16.0781 122.389 11.2542 107.466 20.2448ZM139.906 74.0885C125.132 82.9893 105.872 78.2119 96.9718 63.4388C88.0714 48.6657 92.8496 29.4061 107.623 20.5053C122.397 11.6045 141.657 16.3819 150.557 31.155C159.458 45.9281 154.68 65.1877 139.906 74.0885Z" fill="#00F942"/>
<path d="M109.757 24.0474C96.9352 31.7723 92.787 48.4923 100.512 61.3138C108.236 74.1352 124.956 78.2826 137.778 70.5577C150.6 62.8328 154.749 46.1128 147.024 33.2913C139.299 20.4699 122.579 16.3224 109.757 24.0474ZM137.615 70.2865C124.937 77.9249 108.412 73.8261 100.774 61.1483C93.1362 48.4704 97.2357 31.9464 109.914 24.3079C122.593 16.6695 139.117 20.7683 146.755 33.4462C154.393 46.1241 150.293 62.6481 137.615 70.2865Z" fill="#00F942"/>
<path d="M112.295 28.2581C101.797 34.5828 98.4013 48.2691 104.726 58.7666C111.05 69.2641 124.737 72.659 135.235 66.3342C145.733 60.0095 149.128 46.3233 142.804 35.8257C136.479 25.3282 122.793 21.9333 112.295 28.2581ZM135.078 66.0737C124.723 72.3119 111.23 68.9603 104.995 58.6117C98.7601 48.2631 102.109 34.7643 112.458 28.5293C122.807 22.2942 136.306 25.6426 142.541 35.9912C148.776 46.3399 145.427 59.8386 135.078 66.0737Z" fill="#00F942"/>
<path d="M114.765 32.358C106.527 37.321 103.861 48.0672 108.824 56.3046C113.787 64.5421 124.528 67.2108 132.771 62.2446C141.014 57.2783 143.674 46.5354 138.712 38.298C133.749 30.0605 123.008 27.3917 114.765 32.358ZM132.607 61.9734C124.513 66.8499 113.963 64.2329 109.086 56.1391C104.21 48.0453 106.828 37.4951 114.922 32.6186C123.016 27.742 133.566 30.359 138.443 38.4528C143.319 46.5467 140.701 57.0968 132.607 61.9734Z" fill="#00F942"/>
<path d="M116.828 35.783C110.478 39.6086 108.425 47.8834 112.251 54.233C116.076 60.5825 124.351 62.6351 130.701 58.8095C137.051 54.9839 139.104 46.7091 135.278 40.3595C131.453 34.0099 123.178 31.9574 116.828 35.783ZM130.544 58.5489C124.343 62.2848 116.256 60.2788 112.52 54.0781C108.784 47.8774 110.791 39.7901 116.992 36.0542C123.193 32.3183 131.28 34.3244 135.016 40.525C138.751 46.7257 136.745 54.813 130.544 58.5489Z" fill="#00F942"/>
<path d="M118.917 39.2507C114.471 41.9292 113.038 47.7071 115.716 52.1529C118.395 56.5986 124.173 58.0318 128.619 55.3533C133.065 52.6747 134.498 46.8968 131.82 42.4511C129.141 38.0053 123.363 36.5721 118.917 39.2507Z" fill="#00F942"/>
</g>
</g>
<rect x="8" y="6" width="0.5" height="36" rx="0.25" fill="#D9D9D9"/>
<rect x="18.25" y="24" width="0.5" height="10" rx="0.25" transform="rotate(90 18.25 24)" fill="#D9D9D9"/>
<defs>
<filter id="filter0_b_6710_33746" x="-4" y="-4" width="133" height="56" filterUnits="userSpaceOnUse" color-interpolation-filters="sRGB">
<feFlood flood-opacity="0" result="BackgroundImageFix"/>
<feGaussianBlur in="BackgroundImageFix" stdDeviation="2"/>
<feComposite in2="SourceAlpha" operator="in" result="effect1_backgroundBlur_6710_33746"/>
<feBlend mode="normal" in="SourceGraphic" in2="effect1_backgroundBlur_6710_33746" result="shape"/>
</filter>
</defs>
</svg>
