<svg width="18" height="19" viewBox="0 0 18 19" fill="none" xmlns="http://www.w3.org/2000/svg">
<g id="united kingdom" clip-path="url(#clip0_208_3947)">
<path id="Vector" d="M9 18.5996C13.7635 18.5996 17.625 14.5702 17.625 9.59961C17.625 4.62905 13.7635 0.599609 9 0.599609C4.23654 0.599609 0.375 4.62905 0.375 9.59961C0.375 14.5702 4.23654 18.5996 9 18.5996Z" fill="#F0F0F0"/>
<g id="Group">
<path id="Vector_2" d="M2.1577 4.12012C1.4802 5.03991 0.969337 6.10005 0.671875 7.25173H5.15883L2.1577 4.12012Z" fill="#0052B4"/>
<path id="Vector_3" d="M17.3272 7.2517C17.0298 6.10005 16.5189 5.03991 15.8414 4.12012L12.8403 7.2517H17.3272Z" fill="#0052B4"/>
<path id="Vector_4" d="M0.671875 11.9473C0.96937 13.0989 1.48023 14.1591 2.1577 15.0788L5.15873 11.9473H0.671875Z" fill="#0052B4"/>
<path id="Vector_5" d="M14.2506 2.45964C13.3691 1.75268 12.3532 1.21961 11.2495 0.90918V5.59118L14.2506 2.45964Z" fill="#0052B4"/>
<path id="Vector_6" d="M3.74854 16.7389C4.63 17.4459 5.64597 17.979 6.74963 18.2894V13.6074L3.74854 16.7389Z" fill="#0052B4"/>
<path id="Vector_7" d="M6.7496 0.90918C5.64593 1.21961 4.62997 1.75268 3.74854 2.45961L6.7496 5.59115V0.90918Z" fill="#0052B4"/>
<path id="Vector_8" d="M11.2495 18.2894C12.3532 17.979 13.3691 17.4459 14.2506 16.739L11.2495 13.6074V18.2894Z" fill="#0052B4"/>
<path id="Vector_9" d="M12.8403 11.9473L15.8414 15.0788C16.5189 14.1591 17.0298 13.0989 17.3272 11.9473H12.8403Z" fill="#0052B4"/>
</g>
<g id="Group_2">
<path id="Vector_10" d="M17.552 8.42571H10.1251H10.125V0.675793C9.75674 0.625766 9.38129 0.599609 9 0.599609C8.61865 0.599609 8.24326 0.625766 7.87501 0.675793V8.42564V8.42567H0.448009C0.400066 8.80997 0.375 9.20175 0.375 9.59961C0.375 9.99754 0.400066 10.3893 0.448009 10.7735H7.87494H7.87498V18.5234C8.24326 18.5735 8.61865 18.5996 9 18.5996C9.38129 18.5996 9.75674 18.5735 10.125 18.5234V10.7736V10.7735H17.552C17.5999 10.3893 17.625 9.99754 17.625 9.59961C17.625 9.20175 17.5999 8.80996 17.552 8.42571Z" fill="#D80027"/>
<path id="Vector_11" d="M11.25 11.9473L15.0988 15.9634C15.2758 15.7788 15.4446 15.5857 15.6058 15.3856L12.3107 11.9473H11.25V11.9473Z" fill="#D80027"/>
<path id="Vector_12" d="M6.74968 11.9473H6.74962L2.90088 15.9633C3.07783 16.1481 3.26283 16.3243 3.4546 16.4924L6.74968 13.0539V11.9473Z" fill="#D80027"/>
<path id="Vector_13" d="M6.75029 7.25157V7.2515L2.90152 3.23535C2.72451 3.41999 2.55564 3.61304 2.39453 3.81314L5.68965 7.25153H6.75029V7.25157Z" fill="#D80027"/>
<path id="Vector_14" d="M11.25 7.25221L15.0988 3.23603C14.9219 3.05132 14.7369 2.87511 14.5451 2.70703L11.25 6.14542V7.25221Z" fill="#D80027"/>
</g>
</g>
<defs>
<clipPath id="clip0_208_3947">
<rect width="17.25" height="18" fill="white" transform="translate(0.375 0.599609)"/>
</clipPath>
</defs>
</svg>
