<svg width="19" height="16" viewBox="0 0 19 16" fill="none" xmlns="http://www.w3.org/2000/svg">
<path fill-rule="evenodd" clip-rule="evenodd" d="M1.12114 6.38338L15.5017 6.38338C15.682 6.38338 15.8529 6.45486 15.9772 6.58229L18.2522 8.87286C18.6718 9.29554 18.3735 10.0166 17.7767 10.0166L3.39617 10.0166C3.21591 10.0166 3.04497 9.94511 2.92065 9.81768L0.645624 7.52711C0.222941 7.10443 0.524414 6.38338 1.12114 6.38338ZM0.645624 3.3469L2.92065 1.05633C3.04808 0.928905 3.21902 0.857422 3.39617 0.857422L17.7736 0.857422C18.3703 0.857422 18.6718 1.57847 18.2491 2.00115L15.9772 4.29172C15.8498 4.41915 15.6788 4.49063 15.5017 4.49063L1.12114 4.49063C0.524414 4.49063 0.222941 3.76958 0.645624 3.3469ZM18.2491 13.0531L15.9741 15.3436C15.8467 15.4711 15.6757 15.5425 15.4986 15.5425H1.12114C0.524414 15.5425 0.222941 14.8215 0.645624 14.3988L2.92065 12.1082C3.04808 11.9808 3.21902 11.9093 3.39617 11.9093L17.7736 11.9093C18.3703 11.9093 18.6718 12.6304 18.2491 13.0531Z" fill="url(#paint0_linear_3244_18284)"/>
<defs>
<linearGradient id="paint0_linear_3244_18284" x1="1.47296" y1="16.1744" x2="17.4218" y2="0.225561" gradientUnits="userSpaceOnUse">
<stop stop-color="#CB4EE8"/>
<stop offset="1" stop-color="#10F4B1"/>
</linearGradient>
</defs>
</svg>
