<svg width="1698" height="62" viewBox="0 0 1698 62" fill="none" xmlns="http://www.w3.org/2000/svg">
<rect width="1698" height="62" fill="#00F942" fill-opacity="0.38"/>
<path d="M9.94 20.76H15.04L18.43 34.38H18.49L22.93 20.76H27.28L31.69 34.74H31.75L35.32 20.76H40.06L33.85 42H29.68L25 27.3H24.94L20.26 42H16.24L9.94 20.76ZM42.94 20.76H57.37V25.08H47.62V29.04H56.83V33.36H47.62V37.68H57.91V42H42.94V20.76ZM62.4365 20.76H67.1165V37.68H75.7865V42H62.4365V20.76ZM92.8598 26.28C92.3998 25.72 91.8298 25.29 91.1498 24.99C90.4898 24.69 89.7198 24.54 88.8398 24.54C87.9598 24.54 87.1398 24.71 86.3798 25.05C85.6398 25.39 84.9898 25.87 84.4298 26.49C83.8898 27.09 83.4598 27.81 83.1398 28.65C82.8398 29.49 82.6898 30.4 82.6898 31.38C82.6898 32.38 82.8398 33.3 83.1398 34.14C83.4598 34.96 83.8898 35.68 84.4298 36.3C84.9698 36.9 85.5998 37.37 86.3198 37.71C87.0598 38.05 87.8498 38.22 88.6898 38.22C89.6498 38.22 90.4998 38.02 91.2398 37.62C91.9798 37.22 92.5898 36.66 93.0698 35.94L96.9698 38.85C96.0698 40.11 94.9298 41.04 93.5498 41.64C92.1698 42.24 90.7498 42.54 89.2898 42.54C87.6298 42.54 86.0998 42.28 84.6998 41.76C83.2998 41.24 82.0898 40.5 81.0698 39.54C80.0498 38.56 79.2498 37.38 78.6698 36C78.1098 34.62 77.8298 33.08 77.8298 31.38C77.8298 29.68 78.1098 28.14 78.6698 26.76C79.2498 25.38 80.0498 24.21 81.0698 23.25C82.0898 22.27 83.2998 21.52 84.6998 21C86.0998 20.48 87.6298 20.22 89.2898 20.22C89.8898 20.22 90.5098 20.28 91.1498 20.4C91.8098 20.5 92.4498 20.67 93.0698 20.91C93.7098 21.15 94.3198 21.47 94.8998 21.87C95.4798 22.27 95.9998 22.76 96.4598 23.34L92.8598 26.28ZM103.827 31.38C103.827 32.38 103.977 33.3 104.277 34.14C104.597 34.96 105.047 35.68 105.627 36.3C106.207 36.9 106.897 37.37 107.697 37.71C108.517 38.05 109.427 38.22 110.427 38.22C111.427 38.22 112.327 38.05 113.127 37.71C113.947 37.37 114.647 36.9 115.227 36.3C115.807 35.68 116.247 34.96 116.547 34.14C116.867 33.3 117.027 32.38 117.027 31.38C117.027 30.4 116.867 29.49 116.547 28.65C116.247 27.81 115.807 27.09 115.227 26.49C114.647 25.87 113.947 25.39 113.127 25.05C112.327 24.71 111.427 24.54 110.427 24.54C109.427 24.54 108.517 24.71 107.697 25.05C106.897 25.39 106.207 25.87 105.627 26.49C105.047 27.09 104.597 27.81 104.277 28.65C103.977 29.49 103.827 30.4 103.827 31.38ZM98.9669 31.38C98.9669 29.68 99.2469 28.14 99.8069 26.76C100.387 25.38 101.187 24.21 102.207 23.25C103.227 22.27 104.437 21.52 105.837 21C107.237 20.48 108.767 20.22 110.427 20.22C112.087 20.22 113.617 20.48 115.017 21C116.417 21.52 117.627 22.27 118.647 23.25C119.667 24.21 120.457 25.38 121.017 26.76C121.597 28.14 121.887 29.68 121.887 31.38C121.887 33.08 121.597 34.62 121.017 36C120.457 37.38 119.667 38.56 118.647 39.54C117.627 40.5 116.417 41.24 115.017 41.76C113.617 42.28 112.087 42.54 110.427 42.54C108.767 42.54 107.237 42.28 105.837 41.76C104.437 41.24 103.227 40.5 102.207 39.54C101.187 38.56 100.387 37.38 99.8069 36C99.2469 34.62 98.9669 33.08 98.9669 31.38ZM125.668 20.76H132.748L137.638 34.62H137.698L142.618 20.76H149.668V42H144.988V25.71H144.928L139.348 42H135.778L130.408 25.71H130.348V42H125.668V20.76ZM154.778 20.76H169.208V25.08H159.458V29.04H168.668V33.36H159.458V37.68H169.748V42H154.778V20.76ZM187.681 24.9H181.621V20.76H198.421V24.9H192.361V42H187.681V24.9ZM205.118 31.38C205.118 32.38 205.268 33.3 205.568 34.14C205.888 34.96 206.338 35.68 206.918 36.3C207.498 36.9 208.188 37.37 208.988 37.71C209.808 38.05 210.718 38.22 211.718 38.22C212.718 38.22 213.618 38.05 214.418 37.71C215.238 37.37 215.938 36.9 216.518 36.3C217.098 35.68 217.538 34.96 217.838 34.14C218.158 33.3 218.318 32.38 218.318 31.38C218.318 30.4 218.158 29.49 217.838 28.65C217.538 27.81 217.098 27.09 216.518 26.49C215.938 25.87 215.238 25.39 214.418 25.05C213.618 24.71 212.718 24.54 211.718 24.54C210.718 24.54 209.808 24.71 208.988 25.05C208.188 25.39 207.498 25.87 206.918 26.49C206.338 27.09 205.888 27.81 205.568 28.65C205.268 29.49 205.118 30.4 205.118 31.38ZM200.258 31.38C200.258 29.68 200.538 28.14 201.098 26.76C201.678 25.38 202.478 24.21 203.498 23.25C204.518 22.27 205.728 21.52 207.128 21C208.528 20.48 210.058 20.22 211.718 20.22C213.378 20.22 214.908 20.48 216.308 21C217.708 21.52 218.918 22.27 219.938 23.25C220.958 24.21 221.748 25.38 222.308 26.76C222.888 28.14 223.178 29.68 223.178 31.38C223.178 33.08 222.888 34.62 222.308 36C221.748 37.38 220.958 38.56 219.938 39.54C218.918 40.5 217.708 41.24 216.308 41.76C214.908 42.28 213.378 42.54 211.718 42.54C210.058 42.54 208.528 42.28 207.128 41.76C205.728 41.24 204.518 40.5 203.498 39.54C202.478 38.56 201.678 37.38 201.098 36C200.538 34.62 200.258 33.08 200.258 31.38ZM240.546 24.9H234.486V20.76H251.286V24.9H245.226V42H240.546V24.9ZM254.262 20.76H258.942V28.68H268.032V20.76H272.712V42H268.032V32.82H258.942V42H254.262V20.76ZM277.806 20.76H292.236V25.08H282.486V29.04H291.696V33.36H282.486V37.68H292.776V42H277.806V20.76ZM315.389 26.94L312.809 33.54H317.999L315.389 26.94ZM313.589 20.76H317.459L326.699 42H321.419L319.589 37.5H311.339L309.569 42H304.409L313.589 20.76ZM329.376 20.76H334.056V42H329.376V20.76ZM338.913 20.76H345.993L350.883 34.62H350.943L355.863 20.76H362.913V42H358.233V25.71H358.173L352.593 42H349.023L343.653 25.71H343.593V42H338.913V20.76ZM367.783 20.76H372.463V42H367.783V20.76ZM377.32 20.76H383.68L392.71 35.52H392.77V20.76H397.45V42H391.33L382.06 26.88H382V42H377.32V20.76ZM406.493 24.9H400.433V20.76H417.233V24.9H411.173V42H406.493V24.9ZM416.389 39.42C416.389 39.04 416.459 38.68 416.599 38.34C416.739 38 416.929 37.71 417.169 37.47C417.429 37.21 417.729 37.01 418.069 36.87C418.409 36.73 418.769 36.66 419.149 36.66C419.529 36.66 419.889 36.73 420.229 36.87C420.569 37.01 420.859 37.21 421.099 37.47C421.359 37.71 421.559 38 421.699 38.34C421.839 38.68 421.909 39.04 421.909 39.42C421.909 39.8 421.839 40.16 421.699 40.5C421.559 40.84 421.359 41.14 421.099 41.4C420.859 41.64 420.569 41.83 420.229 41.97C419.889 42.11 419.529 42.18 419.149 42.18C418.769 42.18 418.409 42.11 418.069 41.97C417.729 41.83 417.429 41.64 417.169 41.4C416.929 41.14 416.739 40.84 416.599 40.5C416.459 40.16 416.389 39.8 416.389 39.42ZM426.346 20.76H433.426L438.316 34.62H438.376L443.296 20.76H450.346V42H445.666V25.71H445.606L440.026 42H436.456L431.086 25.71H431.026V42H426.346V20.76ZM455.456 20.76H469.886V25.08H460.136V29.04H469.346V33.36H460.136V37.68H470.426V42H455.456V20.76ZM474.773 20.76H481.853L486.743 34.62H486.803L491.723 20.76H498.773V42H494.093V25.71H494.033L488.453 42H484.883L479.513 25.71H479.453V42H474.773V20.76ZM503.883 20.76H518.313V25.08H508.563V29.04H517.773V33.36H508.563V37.68H518.853V42H503.883V20.76Z" fill="#F1F2F6"/>
<path fill-rule="evenodd" clip-rule="evenodd" d="M535.271 27.5688H562.434C562.775 27.5688 563.098 27.7038 563.332 27.9445L567.63 32.2711C568.422 33.0695 567.859 34.4315 566.732 34.4315H539.568C539.228 34.4315 538.905 34.2965 538.67 34.0558L534.373 29.7292C533.574 28.9308 534.144 27.5688 535.271 27.5688ZM534.373 21.8332L538.67 17.5066C538.911 17.2659 539.234 17.1309 539.568 17.1309H566.726C567.853 17.1309 568.422 18.4928 567.624 19.2912L563.332 23.6179C563.092 23.8586 562.769 23.9936 562.434 23.9936H535.271C534.144 23.9936 533.574 22.6316 534.373 21.8332ZM567.624 40.1671L563.327 44.4937C563.086 44.7344 562.763 44.8694 562.428 44.8694H535.271C534.144 44.8694 533.574 43.5075 534.373 42.7091L538.67 38.3824C538.911 38.1417 539.234 38.0067 539.568 38.0067H566.726C567.853 38.0067 568.422 39.3687 567.624 40.1671Z" fill="url(#paint0_linear_6692_33444)"/>
<path d="M593.66 25.95C593.28 25.47 592.76 25.12 592.1 24.9C591.46 24.66 590.85 24.54 590.27 24.54C589.93 24.54 589.58 24.58 589.22 24.66C588.86 24.74 588.52 24.87 588.2 25.05C587.88 25.21 587.62 25.43 587.42 25.71C587.22 25.99 587.12 26.33 587.12 26.73C587.12 27.37 587.36 27.86 587.84 28.2C588.32 28.54 588.92 28.83 589.64 29.07C590.38 29.31 591.17 29.55 592.01 29.79C592.85 30.03 593.63 30.37 594.35 30.81C595.09 31.25 595.7 31.84 596.18 32.58C596.66 33.32 596.9 34.31 596.9 35.55C596.9 36.73 596.68 37.76 596.24 38.64C595.8 39.52 595.2 40.25 594.44 40.83C593.7 41.41 592.83 41.84 591.83 42.12C590.85 42.4 589.81 42.54 588.71 42.54C587.33 42.54 586.05 42.33 584.87 41.91C583.69 41.49 582.59 40.81 581.57 39.87L584.9 36.21C585.38 36.85 585.98 37.35 586.7 37.71C587.44 38.05 588.2 38.22 588.98 38.22C589.36 38.22 589.74 38.18 590.12 38.1C590.52 38 590.87 37.86 591.17 37.68C591.49 37.5 591.74 37.27 591.92 36.99C592.12 36.71 592.22 36.38 592.22 36C592.22 35.36 591.97 34.86 591.47 34.5C590.99 34.12 590.38 33.8 589.64 33.54C588.9 33.28 588.1 33.02 587.24 32.76C586.38 32.5 585.58 32.15 584.84 31.71C584.1 31.27 583.48 30.69 582.98 29.97C582.5 29.25 582.26 28.3 582.26 27.12C582.26 25.98 582.48 24.98 582.92 24.12C583.38 23.26 583.98 22.54 584.72 21.96C585.48 21.38 586.35 20.95 587.33 20.67C588.31 20.37 589.32 20.22 590.36 20.22C591.56 20.22 592.72 20.39 593.84 20.73C594.96 21.07 595.97 21.64 596.87 22.44L593.66 25.95ZM604.707 31.38C604.707 32.38 604.857 33.3 605.157 34.14C605.477 34.96 605.927 35.68 606.507 36.3C607.087 36.9 607.777 37.37 608.577 37.71C609.397 38.05 610.307 38.22 611.307 38.22C612.307 38.22 613.207 38.05 614.007 37.71C614.827 37.37 615.527 36.9 616.107 36.3C616.687 35.68 617.127 34.96 617.427 34.14C617.747 33.3 617.907 32.38 617.907 31.38C617.907 30.4 617.747 29.49 617.427 28.65C617.127 27.81 616.687 27.09 616.107 26.49C615.527 25.87 614.827 25.39 614.007 25.05C613.207 24.71 612.307 24.54 611.307 24.54C610.307 24.54 609.397 24.71 608.577 25.05C607.777 25.39 607.087 25.87 606.507 26.49C605.927 27.09 605.477 27.81 605.157 28.65C604.857 29.49 604.707 30.4 604.707 31.38ZM599.847 31.38C599.847 29.68 600.127 28.14 600.687 26.76C601.267 25.38 602.067 24.21 603.087 23.25C604.107 22.27 605.317 21.52 606.717 21C608.117 20.48 609.647 20.22 611.307 20.22C612.967 20.22 614.497 20.48 615.897 21C617.297 21.52 618.507 22.27 619.527 23.25C620.547 24.21 621.337 25.38 621.897 26.76C622.477 28.14 622.767 29.68 622.767 31.38C622.767 33.08 622.477 34.62 621.897 36C621.337 37.38 620.547 38.56 619.527 39.54C618.507 40.5 617.297 41.24 615.897 41.76C614.497 42.28 612.967 42.54 611.307 42.54C609.647 42.54 608.117 42.28 606.717 41.76C605.317 41.24 604.107 40.5 603.087 39.54C602.067 38.56 601.267 37.38 600.687 36C600.127 34.62 599.847 33.08 599.847 31.38ZM626.728 20.76H631.408V37.68H640.078V42H626.728V20.76ZM652.051 26.94L649.471 33.54H654.661L652.051 26.94ZM650.251 20.76H654.121L663.361 42H658.081L656.251 37.5H648.001L646.231 42H641.071L650.251 20.76ZM666.097 20.76H672.457L681.487 35.52H681.547V20.76H686.227V42H680.107L670.837 26.88H670.777V42H666.097V20.76ZM699.95 26.94L697.37 33.54H702.56L699.95 26.94ZM698.15 20.76H702.02L711.26 42H705.98L704.15 37.5H695.9L694.13 42H688.97L698.15 20.76Z" fill="#F1F2F6"/>
<path d="M727.596 25.8252L723.121 28.2189L727.238 35.0437C727.238 35.0437 736.252 40.5438 736.913 40.5438C737.574 40.5438 749.39 41.3081 749.899 40.9517C750.408 40.5954 757.08 38.2484 757.894 37.7667C758.707 37.285 761.816 34.7856 761.332 34.385C760.513 33.7067 761.482 32.6008 759.72 31.9323C757.557 31.1115 750.865 28.4229 747.25 28.3737C743.635 28.3221 738.23 29.0274 734.566 27.6045C730.902 26.184 727.591 25.8252 727.591 25.8252H727.596Z" fill="black"/>
<path d="M724.469 26.7916C724.801 26.7081 722.95 29.9374 726.976 32.2696C727.622 37.2954 733.7 38.2367 735.931 37.2733C740.436 41.5815 748.966 40.5149 751.065 37.8459C752.034 38.2146 756.868 38.9666 757.947 36.1256C759.716 35.5309 760.384 33.9408 759.677 31.4562C765.285 36.7449 757.202 41.0408 753.407 41.2521C751.215 43.808 747.303 42.2278 747.303 42.2278C747.303 42.2278 745.054 44.2086 741.79 44.0464C738.527 43.8842 735.89 41.1661 735.89 41.1661C735.89 41.1661 732.326 41.3332 730.026 39.667C728.033 38.2219 726.973 36.7474 726.408 34.6559C724.024 33.8523 718.591 28.2564 724.467 26.7916H724.469Z" fill="#00F942"/>
<path d="M745.278 20.1163C741.339 20.1163 736.942 16.8674 726.335 24.2402C722.745 27.2188 724.819 31.4753 727.495 31.5589C728.869 34.7661 729.304 36.7199 736.188 36.538C741.815 39.6075 745.047 39.7452 750.776 37.0738C754.718 37.4793 755.812 37.381 757.579 35.4247C760.044 36.0932 761.14 31.1411 757.269 26.9165C753.243 22.5223 751.769 20.1188 745.276 20.1188L745.278 20.1163Z" fill="#00F942"/>
<path d="M754.61 24.0563C754.61 24.0563 748.906 28.389 742.644 27.5977C736.382 26.8063 731.934 21.1907 731.934 21.1907C731.934 21.1907 737.638 16.8579 743.9 17.6493C750.162 18.4406 754.61 24.0563 754.61 24.0563Z" fill="#00F942"/>
<path d="M754.61 24.4537C754.61 24.4537 748.906 28.7865 742.644 27.9951C736.382 27.2038 731.934 21.5882 731.934 21.5882C731.934 21.5882 737.638 17.2554 743.9 18.0468C750.162 18.8381 754.61 24.4537 754.61 24.4537Z" fill="white"/>
<mask id="mask0_6692_33444" style="mask-type:luminance" maskUnits="userSpaceOnUse" x="731" y="17" width="24" height="12">
<path d="M754.61 24.4537C754.61 24.4537 748.906 28.7865 742.644 27.9951C736.382 27.2038 731.934 21.5882 731.934 21.5882C731.934 21.5882 737.638 17.2554 743.9 18.0468C750.162 18.8381 754.61 24.4537 754.61 24.4537Z" fill="white"/>
</mask>
<g mask="url(#mask0_6692_33444)">
<path d="M745.374 22.1655C747.069 22.1655 748.444 20.7912 748.444 19.0959C748.444 17.4006 747.069 16.0264 745.374 16.0264C743.679 16.0264 742.305 17.4006 742.305 19.0959C742.305 20.7912 743.679 22.1655 745.374 22.1655Z" fill="black"/>
</g>
<path d="M732.939 27.9337L728.484 30.9678L728.567 31.0896L733.022 28.0556L732.939 27.9337Z" fill="black"/>
<path d="M749.192 31.1478L749.053 31.1953L750.661 35.9155L750.8 35.8679L749.192 31.1478Z" fill="black"/>
<path d="M782.95 26.94L780.37 33.54H785.56L782.95 26.94ZM781.15 20.76H785.02L794.26 42H788.98L787.15 37.5H778.9L777.13 42H771.97L781.15 20.76ZM796.936 20.76H801.616V42H796.936V20.76ZM806.473 20.76H813.553L818.443 34.62H818.503L823.423 20.76H830.473V42H825.793V25.71H825.733L820.153 42H816.583L811.213 25.71H811.153V42H806.473V20.76ZM835.343 20.76H840.023V42H835.343V20.76ZM844.88 20.76H851.24L860.27 35.52H860.33V20.76H865.01V42H858.89L849.62 26.88H849.56V42H844.88V20.76ZM874.053 24.9H867.993V20.76H884.793V24.9H878.733V42H874.053V24.9Z" fill="#F1F2F6"/>
<path d="M906.95 26.94L904.37 33.54H909.56L906.95 26.94ZM905.15 20.76H909.02L918.26 42H912.98L911.15 37.5H902.9L901.13 42H895.97L905.15 20.76ZM921.176 20.76H935.606V25.08H925.856V29.04H935.066V33.36H925.856V37.68H936.146V42H921.176V20.76ZM939.923 27.42H944.243V29.4H944.303C944.443 29.12 944.643 28.84 944.903 28.56C945.163 28.28 945.473 28.03 945.833 27.81C946.193 27.59 946.603 27.41 947.063 27.27C947.523 27.13 948.023 27.06 948.563 27.06C949.583 27.06 950.483 27.27 951.263 27.69C952.063 28.11 952.663 28.77 953.063 29.67C953.583 28.73 954.213 28.06 954.953 27.66C955.693 27.26 956.603 27.06 957.683 27.06C958.663 27.06 959.483 27.23 960.143 27.57C960.823 27.89 961.353 28.34 961.733 28.92C962.133 29.48 962.413 30.15 962.573 30.93C962.753 31.69 962.843 32.51 962.843 33.39V42H958.343V33.51C958.343 32.83 958.193 32.25 957.893 31.77C957.613 31.27 957.103 31.02 956.363 31.02C955.843 31.02 955.403 31.11 955.043 31.29C954.703 31.45 954.423 31.68 954.203 31.98C954.003 32.28 953.853 32.63 953.753 33.03C953.673 33.43 953.633 33.85 953.633 34.29V42H949.133V34.29C949.133 34.03 949.123 33.71 949.103 33.33C949.083 32.95 949.013 32.59 948.893 32.25C948.773 31.91 948.573 31.62 948.293 31.38C948.033 31.14 947.643 31.02 947.123 31.02C946.543 31.02 946.073 31.13 945.713 31.35C945.353 31.55 945.073 31.83 944.873 32.19C944.693 32.53 944.573 32.92 944.513 33.36C944.453 33.8 944.423 34.26 944.423 34.74V42H939.923V27.42ZM971.186 34.71C971.186 35.81 971.496 36.7 972.116 37.38C972.756 38.06 973.646 38.4 974.786 38.4C975.926 38.4 976.806 38.06 977.426 37.38C978.066 36.7 978.386 35.81 978.386 34.71C978.386 33.61 978.066 32.72 977.426 32.04C976.806 31.36 975.926 31.02 974.786 31.02C973.646 31.02 972.756 31.36 972.116 32.04C971.496 32.72 971.186 33.61 971.186 34.71ZM967.046 27.42H971.186V29.34H971.246C971.426 29.08 971.656 28.82 971.936 28.56C972.236 28.28 972.576 28.03 972.956 27.81C973.356 27.59 973.786 27.41 974.246 27.27C974.706 27.13 975.196 27.06 975.716 27.06C976.796 27.06 977.776 27.25 978.656 27.63C979.536 27.99 980.286 28.51 980.906 29.19C981.546 29.85 982.036 30.64 982.376 31.56C982.716 32.48 982.886 33.49 982.886 34.59C982.886 35.61 982.726 36.59 982.406 37.53C982.106 38.45 981.666 39.27 981.086 39.99C980.526 40.71 979.836 41.29 979.016 41.73C978.196 42.15 977.266 42.36 976.226 42.36C975.286 42.36 974.406 42.22 973.586 41.94C972.786 41.64 972.126 41.14 971.606 40.44H971.546V48.84H967.046V27.42ZM990.083 34.71C990.083 35.81 990.393 36.7 991.013 37.38C991.653 38.06 992.543 38.4 993.683 38.4C994.823 38.4 995.703 38.06 996.323 37.38C996.963 36.7 997.283 35.81 997.283 34.71C997.283 33.61 996.963 32.72 996.323 32.04C995.703 31.36 994.823 31.02 993.683 31.02C992.543 31.02 991.653 31.36 991.013 32.04C990.393 32.72 990.083 33.61 990.083 34.71ZM985.583 34.71C985.583 33.55 985.793 32.5 986.213 31.56C986.633 30.62 987.203 29.82 987.923 29.16C988.663 28.48 989.523 27.96 990.503 27.6C991.503 27.24 992.563 27.06 993.683 27.06C994.803 27.06 995.853 27.24 996.833 27.6C997.833 27.96 998.693 28.48 999.413 29.16C1000.15 29.82 1000.73 30.62 1001.15 31.56C1001.57 32.5 1001.78 33.55 1001.78 34.71C1001.78 35.87 1001.57 36.92 1001.15 37.86C1000.73 38.8 1000.15 39.61 999.413 40.29C998.693 40.95 997.833 41.46 996.833 41.82C995.853 42.18 994.803 42.36 993.683 42.36C992.563 42.36 991.503 42.18 990.503 41.82C989.523 41.46 988.663 40.95 987.923 40.29C987.203 39.61 986.633 38.8 986.213 37.86C985.793 36.92 985.583 35.87 985.583 34.71ZM1003.29 27.42H1008.09L1011.06 36.57H1011.12L1013.61 27.42H1018.53L1021.23 36.57H1021.29L1024.02 27.42H1028.58L1023.39 42H1018.95L1015.92 32.31H1015.86L1013.16 42H1008.63L1003.29 27.42ZM1040.61 33.06C1040.63 32.3 1040.38 31.65 1039.86 31.11C1039.34 30.57 1038.67 30.3 1037.85 30.3C1037.35 30.3 1036.91 30.38 1036.53 30.54C1036.15 30.7 1035.82 30.91 1035.54 31.17C1035.28 31.41 1035.07 31.7 1034.91 32.04C1034.77 32.36 1034.69 32.7 1034.67 33.06H1040.61ZM1044.42 39.48C1043.7 40.4 1042.79 41.11 1041.69 41.61C1040.59 42.11 1039.45 42.36 1038.27 42.36C1037.15 42.36 1036.09 42.18 1035.09 41.82C1034.11 41.46 1033.25 40.95 1032.51 40.29C1031.79 39.61 1031.22 38.8 1030.8 37.86C1030.38 36.92 1030.17 35.87 1030.17 34.71C1030.17 33.55 1030.38 32.5 1030.8 31.56C1031.22 30.62 1031.79 29.82 1032.51 29.16C1033.25 28.48 1034.11 27.96 1035.09 27.6C1036.09 27.24 1037.15 27.06 1038.27 27.06C1039.31 27.06 1040.25 27.24 1041.09 27.6C1041.95 27.96 1042.67 28.48 1043.25 29.16C1043.85 29.82 1044.31 30.62 1044.63 31.56C1044.95 32.5 1045.11 33.55 1045.11 34.71V36.12H1034.67C1034.85 36.98 1035.24 37.67 1035.84 38.19C1036.44 38.69 1037.18 38.94 1038.06 38.94C1038.8 38.94 1039.42 38.78 1039.92 38.46C1040.44 38.12 1040.89 37.69 1041.27 37.17L1044.42 39.48ZM1048.45 27.42H1052.95V29.76H1053.01C1053.49 28.86 1054.06 28.19 1054.72 27.75C1055.38 27.29 1056.21 27.06 1057.21 27.06C1057.47 27.06 1057.73 27.07 1057.99 27.09C1058.25 27.11 1058.49 27.15 1058.71 27.21V31.32C1058.39 31.22 1058.07 31.15 1057.75 31.11C1057.45 31.05 1057.13 31.02 1056.79 31.02C1055.93 31.02 1055.25 31.14 1054.75 31.38C1054.25 31.62 1053.86 31.96 1053.58 32.4C1053.32 32.82 1053.15 33.33 1053.07 33.93C1052.99 34.53 1052.95 35.19 1052.95 35.91V42H1048.45V27.42ZM1069.21 20.76H1074.55L1079.8 34.68H1079.86L1085.2 20.76H1090.21L1081.45 42H1077.7L1069.21 20.76ZM1098.87 35.61C1098.53 35.61 1098.1 35.63 1097.58 35.67C1097.08 35.69 1096.59 35.77 1096.11 35.91C1095.65 36.05 1095.25 36.26 1094.91 36.54C1094.59 36.82 1094.43 37.21 1094.43 37.71C1094.43 38.25 1094.66 38.65 1095.12 38.91C1095.58 39.17 1096.06 39.3 1096.56 39.3C1097 39.3 1097.42 39.24 1097.82 39.12C1098.24 39 1098.61 38.83 1098.93 38.61C1099.25 38.39 1099.5 38.11 1099.68 37.77C1099.88 37.43 1099.98 37.03 1099.98 36.57V35.61H1098.87ZM1099.98 40.17H1099.92C1099.42 40.95 1098.75 41.51 1097.91 41.85C1097.09 42.19 1096.22 42.36 1095.3 42.36C1094.62 42.36 1093.96 42.26 1093.32 42.06C1092.7 41.88 1092.15 41.6 1091.67 41.22C1091.19 40.84 1090.81 40.37 1090.53 39.81C1090.25 39.25 1090.11 38.6 1090.11 37.86C1090.11 37.02 1090.26 36.31 1090.56 35.73C1090.88 35.15 1091.3 34.67 1091.82 34.29C1092.36 33.91 1092.97 33.62 1093.65 33.42C1094.33 33.2 1095.03 33.04 1095.75 32.94C1096.49 32.84 1097.22 32.78 1097.94 32.76C1098.68 32.74 1099.36 32.73 1099.98 32.73C1099.98 31.93 1099.69 31.3 1099.11 30.84C1098.55 30.36 1097.88 30.12 1097.1 30.12C1096.36 30.12 1095.68 30.28 1095.06 30.6C1094.46 30.9 1093.92 31.32 1093.44 31.86L1091.04 29.4C1091.88 28.62 1092.86 28.04 1093.98 27.66C1095.1 27.26 1096.26 27.06 1097.46 27.06C1098.78 27.06 1099.86 27.23 1100.7 27.57C1101.56 27.89 1102.24 28.37 1102.74 29.01C1103.26 29.65 1103.62 30.44 1103.82 31.38C1104.02 32.3 1104.12 33.37 1104.12 34.59V42H1099.98V40.17ZM1107.6 19.32H1112.1V42H1107.6V19.32ZM1129.97 42H1125.65V40.02H1125.59C1125.43 40.3 1125.22 40.58 1124.96 40.86C1124.72 41.14 1124.42 41.39 1124.06 41.61C1123.7 41.83 1123.29 42.01 1122.83 42.15C1122.37 42.29 1121.87 42.36 1121.33 42.36C1120.19 42.36 1119.26 42.19 1118.54 41.85C1117.84 41.49 1117.29 41 1116.89 40.38C1116.51 39.76 1116.25 39.03 1116.11 38.19C1115.99 37.35 1115.93 36.44 1115.93 35.46V27.42H1120.43V34.56C1120.43 34.98 1120.44 35.42 1120.46 35.88C1120.5 36.32 1120.59 36.73 1120.73 37.11C1120.89 37.49 1121.12 37.8 1121.42 38.04C1121.74 38.28 1122.19 38.4 1122.77 38.4C1123.35 38.4 1123.82 38.3 1124.18 38.1C1124.54 37.88 1124.81 37.6 1124.99 37.26C1125.19 36.9 1125.32 36.5 1125.38 36.06C1125.44 35.62 1125.47 35.16 1125.47 34.68V27.42H1129.97V42ZM1141.8 35.61C1141.46 35.61 1141.03 35.63 1140.51 35.67C1140.01 35.69 1139.52 35.77 1139.04 35.91C1138.58 36.05 1138.18 36.26 1137.84 36.54C1137.52 36.82 1137.36 37.21 1137.36 37.71C1137.36 38.25 1137.59 38.65 1138.05 38.91C1138.51 39.17 1138.99 39.3 1139.49 39.3C1139.93 39.3 1140.35 39.24 1140.75 39.12C1141.17 39 1141.54 38.83 1141.86 38.61C1142.18 38.39 1142.43 38.11 1142.61 37.77C1142.81 37.43 1142.91 37.03 1142.91 36.57V35.61H1141.8ZM1142.91 40.17H1142.85C1142.35 40.95 1141.68 41.51 1140.84 41.85C1140.02 42.19 1139.15 42.36 1138.23 42.36C1137.55 42.36 1136.89 42.26 1136.25 42.06C1135.63 41.88 1135.08 41.6 1134.6 41.22C1134.12 40.84 1133.74 40.37 1133.46 39.81C1133.18 39.25 1133.04 38.6 1133.04 37.86C1133.04 37.02 1133.19 36.31 1133.49 35.73C1133.81 35.15 1134.23 34.67 1134.75 34.29C1135.29 33.91 1135.9 33.62 1136.58 33.42C1137.26 33.2 1137.96 33.04 1138.68 32.94C1139.42 32.84 1140.15 32.78 1140.87 32.76C1141.61 32.74 1142.29 32.73 1142.91 32.73C1142.91 31.93 1142.62 31.3 1142.04 30.84C1141.48 30.36 1140.81 30.12 1140.03 30.12C1139.29 30.12 1138.61 30.28 1137.99 30.6C1137.39 30.9 1136.85 31.32 1136.37 31.86L1133.97 29.4C1134.81 28.62 1135.79 28.04 1136.91 27.66C1138.03 27.26 1139.19 27.06 1140.39 27.06C1141.71 27.06 1142.79 27.23 1143.63 27.57C1144.49 27.89 1145.17 28.37 1145.67 29.01C1146.19 29.65 1146.55 30.44 1146.75 31.38C1146.95 32.3 1147.05 33.37 1147.05 34.59V42H1142.91V40.17ZM1155.03 34.71C1155.03 35.81 1155.34 36.7 1155.96 37.38C1156.6 38.06 1157.49 38.4 1158.63 38.4C1159.77 38.4 1160.65 38.06 1161.27 37.38C1161.91 36.7 1162.23 35.81 1162.23 34.71C1162.23 33.61 1161.91 32.72 1161.27 32.04C1160.65 31.36 1159.77 31.02 1158.63 31.02C1157.49 31.02 1156.6 31.36 1155.96 32.04C1155.34 32.72 1155.03 33.61 1155.03 34.71ZM1150.89 19.32H1155.39V28.98H1155.45C1155.97 28.28 1156.63 27.79 1157.43 27.51C1158.25 27.21 1159.13 27.06 1160.07 27.06C1161.11 27.06 1162.04 27.28 1162.86 27.72C1163.68 28.14 1164.37 28.71 1164.93 29.43C1165.51 30.15 1165.95 30.98 1166.25 31.92C1166.57 32.84 1166.73 33.81 1166.73 34.83C1166.73 35.93 1166.56 36.94 1166.22 37.86C1165.88 38.78 1165.39 39.58 1164.75 40.26C1164.13 40.92 1163.38 41.44 1162.5 41.82C1161.62 42.18 1160.64 42.36 1159.56 42.36C1159.04 42.36 1158.55 42.29 1158.09 42.15C1157.63 42.01 1157.2 41.83 1156.8 41.61C1156.42 41.39 1156.08 41.15 1155.78 40.89C1155.5 40.61 1155.27 40.34 1155.09 40.08H1155.03V42H1150.89V19.32ZM1170.03 19.32H1174.53V42H1170.03V19.32ZM1188.35 33.06C1188.37 32.3 1188.12 31.65 1187.6 31.11C1187.08 30.57 1186.41 30.3 1185.59 30.3C1185.09 30.3 1184.65 30.38 1184.27 30.54C1183.89 30.7 1183.56 30.91 1183.28 31.17C1183.02 31.41 1182.81 31.7 1182.65 32.04C1182.51 32.36 1182.43 32.7 1182.41 33.06H1188.35ZM1192.16 39.48C1191.44 40.4 1190.53 41.11 1189.43 41.61C1188.33 42.11 1187.19 42.36 1186.01 42.36C1184.89 42.36 1183.83 42.18 1182.83 41.82C1181.85 41.46 1180.99 40.95 1180.25 40.29C1179.53 39.61 1178.96 38.8 1178.54 37.86C1178.12 36.92 1177.91 35.87 1177.91 34.71C1177.91 33.55 1178.12 32.5 1178.54 31.56C1178.96 30.62 1179.53 29.82 1180.25 29.16C1180.99 28.48 1181.85 27.96 1182.83 27.6C1183.83 27.24 1184.89 27.06 1186.01 27.06C1187.05 27.06 1187.99 27.24 1188.83 27.6C1189.69 27.96 1190.41 28.48 1190.99 29.16C1191.59 29.82 1192.05 30.62 1192.37 31.56C1192.69 32.5 1192.85 33.55 1192.85 34.71V36.12H1182.41C1182.59 36.98 1182.98 37.67 1183.58 38.19C1184.18 38.69 1184.92 38.94 1185.8 38.94C1186.54 38.94 1187.16 38.78 1187.66 38.46C1188.18 38.12 1188.63 37.69 1189.01 37.17L1192.16 39.48ZM1220.13 26.28C1219.67 25.72 1219.1 25.29 1218.42 24.99C1217.76 24.69 1216.99 24.54 1216.11 24.54C1215.23 24.54 1214.41 24.71 1213.65 25.05C1212.91 25.39 1212.26 25.87 1211.7 26.49C1211.16 27.09 1210.73 27.81 1210.41 28.65C1210.11 29.49 1209.96 30.4 1209.96 31.38C1209.96 32.38 1210.11 33.3 1210.41 34.14C1210.73 34.96 1211.16 35.68 1211.7 36.3C1212.24 36.9 1212.87 37.37 1213.59 37.71C1214.33 38.05 1215.12 38.22 1215.96 38.22C1216.92 38.22 1217.77 38.02 1218.51 37.62C1219.25 37.22 1219.86 36.66 1220.34 35.94L1224.24 38.85C1223.34 40.11 1222.2 41.04 1220.82 41.64C1219.44 42.24 1218.02 42.54 1216.56 42.54C1214.9 42.54 1213.37 42.28 1211.97 41.76C1210.57 41.24 1209.36 40.5 1208.34 39.54C1207.32 38.56 1206.52 37.38 1205.94 36C1205.38 34.62 1205.1 33.08 1205.1 31.38C1205.1 29.68 1205.38 28.14 1205.94 26.76C1206.52 25.38 1207.32 24.21 1208.34 23.25C1209.36 22.27 1210.57 21.52 1211.97 21C1213.37 20.48 1214.9 20.22 1216.56 20.22C1217.16 20.22 1217.78 20.28 1218.42 20.4C1219.08 20.5 1219.72 20.67 1220.34 20.91C1220.98 21.15 1221.59 21.47 1222.17 21.87C1222.75 22.27 1223.27 22.76 1223.73 23.34L1220.13 26.28ZM1230.76 34.71C1230.76 35.81 1231.07 36.7 1231.69 37.38C1232.33 38.06 1233.22 38.4 1234.36 38.4C1235.5 38.4 1236.38 38.06 1237 37.38C1237.64 36.7 1237.96 35.81 1237.96 34.71C1237.96 33.61 1237.64 32.72 1237 32.04C1236.38 31.36 1235.5 31.02 1234.36 31.02C1233.22 31.02 1232.33 31.36 1231.69 32.04C1231.07 32.72 1230.76 33.61 1230.76 34.71ZM1226.26 34.71C1226.26 33.55 1226.47 32.5 1226.89 31.56C1227.31 30.62 1227.88 29.82 1228.6 29.16C1229.34 28.48 1230.2 27.96 1231.18 27.6C1232.18 27.24 1233.24 27.06 1234.36 27.06C1235.48 27.06 1236.53 27.24 1237.51 27.6C1238.51 27.96 1239.37 28.48 1240.09 29.16C1240.83 29.82 1241.41 30.62 1241.83 31.56C1242.25 32.5 1242.46 33.55 1242.46 34.71C1242.46 35.87 1242.25 36.92 1241.83 37.86C1241.41 38.8 1240.83 39.61 1240.09 40.29C1239.37 40.95 1238.51 41.46 1237.51 41.82C1236.53 42.18 1235.48 42.36 1234.36 42.36C1233.24 42.36 1232.18 42.18 1231.18 41.82C1230.2 41.46 1229.34 40.95 1228.6 40.29C1227.88 39.61 1227.31 38.8 1226.89 37.86C1226.47 36.92 1226.26 35.87 1226.26 34.71ZM1245.71 27.42H1250.03V29.4H1250.09C1250.23 29.12 1250.43 28.84 1250.69 28.56C1250.95 28.28 1251.26 28.03 1251.62 27.81C1251.98 27.59 1252.39 27.41 1252.85 27.27C1253.31 27.13 1253.81 27.06 1254.35 27.06C1255.49 27.06 1256.41 27.24 1257.11 27.6C1257.81 27.94 1258.35 28.42 1258.73 29.04C1259.13 29.66 1259.4 30.39 1259.54 31.23C1259.68 32.07 1259.75 32.98 1259.75 33.96V42H1255.25V34.86C1255.25 34.44 1255.23 34.01 1255.19 33.57C1255.17 33.11 1255.08 32.69 1254.92 32.31C1254.78 31.93 1254.55 31.62 1254.23 31.38C1253.93 31.14 1253.49 31.02 1252.91 31.02C1252.33 31.02 1251.86 31.13 1251.5 31.35C1251.14 31.55 1250.86 31.83 1250.66 32.19C1250.48 32.53 1250.36 32.92 1250.3 33.36C1250.24 33.8 1250.21 34.26 1250.21 34.74V42H1245.71V27.42ZM1273.47 31.02H1269.51V35.88C1269.51 36.28 1269.53 36.65 1269.57 36.99C1269.61 37.31 1269.7 37.59 1269.84 37.83C1269.98 38.07 1270.19 38.26 1270.47 38.4C1270.77 38.52 1271.16 38.58 1271.64 38.58C1271.88 38.58 1272.19 38.56 1272.57 38.52C1272.97 38.46 1273.27 38.34 1273.47 38.16V41.91C1272.97 42.09 1272.45 42.21 1271.91 42.27C1271.37 42.33 1270.84 42.36 1270.32 42.36C1269.56 42.36 1268.86 42.28 1268.22 42.12C1267.58 41.96 1267.02 41.71 1266.54 41.37C1266.06 41.01 1265.68 40.55 1265.4 39.99C1265.14 39.43 1265.01 38.75 1265.01 37.95V31.02H1262.13V27.42H1265.01V23.1H1269.51V27.42H1273.47V31.02ZM1286.35 33.06C1286.37 32.3 1286.12 31.65 1285.6 31.11C1285.08 30.57 1284.41 30.3 1283.59 30.3C1283.09 30.3 1282.65 30.38 1282.27 30.54C1281.89 30.7 1281.56 30.91 1281.28 31.17C1281.02 31.41 1280.81 31.7 1280.65 32.04C1280.51 32.36 1280.43 32.7 1280.41 33.06H1286.35ZM1290.16 39.48C1289.44 40.4 1288.53 41.11 1287.43 41.61C1286.33 42.11 1285.19 42.36 1284.01 42.36C1282.89 42.36 1281.83 42.18 1280.83 41.82C1279.85 41.46 1278.99 40.95 1278.25 40.29C1277.53 39.61 1276.96 38.8 1276.54 37.86C1276.12 36.92 1275.91 35.87 1275.91 34.71C1275.91 33.55 1276.12 32.5 1276.54 31.56C1276.96 30.62 1277.53 29.82 1278.25 29.16C1278.99 28.48 1279.85 27.96 1280.83 27.6C1281.83 27.24 1282.89 27.06 1284.01 27.06C1285.05 27.06 1285.99 27.24 1286.83 27.6C1287.69 27.96 1288.41 28.48 1288.99 29.16C1289.59 29.82 1290.05 30.62 1290.37 31.56C1290.69 32.5 1290.85 33.55 1290.85 34.71V36.12H1280.41C1280.59 36.98 1280.98 37.67 1281.58 38.19C1282.18 38.69 1282.92 38.94 1283.8 38.94C1284.54 38.94 1285.16 38.78 1285.66 38.46C1286.18 38.12 1286.63 37.69 1287.01 37.17L1290.16 39.48ZM1294.18 27.42H1298.5V29.4H1298.56C1298.7 29.12 1298.9 28.84 1299.16 28.56C1299.42 28.28 1299.73 28.03 1300.09 27.81C1300.45 27.59 1300.86 27.41 1301.32 27.27C1301.78 27.13 1302.28 27.06 1302.82 27.06C1303.96 27.06 1304.88 27.24 1305.58 27.6C1306.28 27.94 1306.82 28.42 1307.2 29.04C1307.6 29.66 1307.87 30.39 1308.01 31.23C1308.15 32.07 1308.22 32.98 1308.22 33.96V42H1303.72V34.86C1303.72 34.44 1303.7 34.01 1303.66 33.57C1303.64 33.11 1303.55 32.69 1303.39 32.31C1303.25 31.93 1303.02 31.62 1302.7 31.38C1302.4 31.14 1301.96 31.02 1301.38 31.02C1300.8 31.02 1300.33 31.13 1299.97 31.35C1299.61 31.55 1299.33 31.83 1299.13 32.19C1298.95 32.53 1298.83 32.92 1298.77 33.36C1298.71 33.8 1298.68 34.26 1298.68 34.74V42H1294.18V27.42ZM1321.94 31.02H1317.98V35.88C1317.98 36.28 1318 36.65 1318.04 36.99C1318.08 37.31 1318.17 37.59 1318.31 37.83C1318.45 38.07 1318.66 38.26 1318.94 38.4C1319.24 38.52 1319.63 38.58 1320.11 38.58C1320.35 38.58 1320.66 38.56 1321.04 38.52C1321.44 38.46 1321.74 38.34 1321.94 38.16V41.91C1321.44 42.09 1320.92 42.21 1320.38 42.27C1319.84 42.33 1319.31 42.36 1318.79 42.36C1318.03 42.36 1317.33 42.28 1316.69 42.12C1316.05 41.96 1315.49 41.71 1315.01 41.37C1314.53 41.01 1314.15 40.55 1313.87 39.99C1313.61 39.43 1313.48 38.75 1313.48 37.95V31.02H1310.6V27.42H1313.48V23.1H1317.98V27.42H1321.94V31.02Z" fill="#F1F2F6"/>
<path fill-rule="evenodd" clip-rule="evenodd" d="M1337.27 27.5688H1364.43C1364.77 27.5688 1365.1 27.7038 1365.33 27.9445L1369.63 32.2711C1370.42 33.0695 1369.86 34.4315 1368.73 34.4315H1341.57C1341.23 34.4315 1340.9 34.2965 1340.67 34.0558L1336.37 29.7292C1335.57 28.9308 1336.14 27.5688 1337.27 27.5688ZM1336.37 21.8332L1340.67 17.5066C1340.91 17.2659 1341.23 17.1309 1341.57 17.1309H1368.73C1369.85 17.1309 1370.42 18.4928 1369.62 19.2912L1365.33 23.6179C1365.09 23.8586 1364.77 23.9936 1364.43 23.9936H1337.27C1336.14 23.9936 1335.57 22.6316 1336.37 21.8332ZM1369.62 40.1671L1365.33 44.4937C1365.09 44.7344 1364.76 44.8694 1364.43 44.8694H1337.27C1336.14 44.8694 1335.57 43.5075 1336.37 42.7091L1340.67 38.3824C1340.91 38.1417 1341.23 38.0067 1341.57 38.0067H1368.73C1369.85 38.0067 1370.42 39.3687 1369.62 40.1671Z" fill="url(#paint1_linear_6692_33444)"/>
<path d="M1395.66 25.95C1395.28 25.47 1394.76 25.12 1394.1 24.9C1393.46 24.66 1392.85 24.54 1392.27 24.54C1391.93 24.54 1391.58 24.58 1391.22 24.66C1390.86 24.74 1390.52 24.87 1390.2 25.05C1389.88 25.21 1389.62 25.43 1389.42 25.71C1389.22 25.99 1389.12 26.33 1389.12 26.73C1389.12 27.37 1389.36 27.86 1389.84 28.2C1390.32 28.54 1390.92 28.83 1391.64 29.07C1392.38 29.31 1393.17 29.55 1394.01 29.79C1394.85 30.03 1395.63 30.37 1396.35 30.81C1397.09 31.25 1397.7 31.84 1398.18 32.58C1398.66 33.32 1398.9 34.31 1398.9 35.55C1398.9 36.73 1398.68 37.76 1398.24 38.64C1397.8 39.52 1397.2 40.25 1396.44 40.83C1395.7 41.41 1394.83 41.84 1393.83 42.12C1392.85 42.4 1391.81 42.54 1390.71 42.54C1389.33 42.54 1388.05 42.33 1386.87 41.91C1385.69 41.49 1384.59 40.81 1383.57 39.87L1386.9 36.21C1387.38 36.85 1387.98 37.35 1388.7 37.71C1389.44 38.05 1390.2 38.22 1390.98 38.22C1391.36 38.22 1391.74 38.18 1392.12 38.1C1392.52 38 1392.87 37.86 1393.17 37.68C1393.49 37.5 1393.74 37.27 1393.92 36.99C1394.12 36.71 1394.22 36.38 1394.22 36C1394.22 35.36 1393.97 34.86 1393.47 34.5C1392.99 34.12 1392.38 33.8 1391.64 33.54C1390.9 33.28 1390.1 33.02 1389.24 32.76C1388.38 32.5 1387.58 32.15 1386.84 31.71C1386.1 31.27 1385.48 30.69 1384.98 29.97C1384.5 29.25 1384.26 28.3 1384.26 27.12C1384.26 25.98 1384.48 24.98 1384.92 24.12C1385.38 23.26 1385.98 22.54 1386.72 21.96C1387.48 21.38 1388.35 20.95 1389.33 20.67C1390.31 20.37 1391.32 20.22 1392.36 20.22C1393.56 20.22 1394.72 20.39 1395.84 20.73C1396.96 21.07 1397.97 21.64 1398.87 22.44L1395.66 25.95ZM1406.71 31.38C1406.71 32.38 1406.86 33.3 1407.16 34.14C1407.48 34.96 1407.93 35.68 1408.51 36.3C1409.09 36.9 1409.78 37.37 1410.58 37.71C1411.4 38.05 1412.31 38.22 1413.31 38.22C1414.31 38.22 1415.21 38.05 1416.01 37.71C1416.83 37.37 1417.53 36.9 1418.11 36.3C1418.69 35.68 1419.13 34.96 1419.43 34.14C1419.75 33.3 1419.91 32.38 1419.91 31.38C1419.91 30.4 1419.75 29.49 1419.43 28.65C1419.13 27.81 1418.69 27.09 1418.11 26.49C1417.53 25.87 1416.83 25.39 1416.01 25.05C1415.21 24.71 1414.31 24.54 1413.31 24.54C1412.31 24.54 1411.4 24.71 1410.58 25.05C1409.78 25.39 1409.09 25.87 1408.51 26.49C1407.93 27.09 1407.48 27.81 1407.16 28.65C1406.86 29.49 1406.71 30.4 1406.71 31.38ZM1401.85 31.38C1401.85 29.68 1402.13 28.14 1402.69 26.76C1403.27 25.38 1404.07 24.21 1405.09 23.25C1406.11 22.27 1407.32 21.52 1408.72 21C1410.12 20.48 1411.65 20.22 1413.31 20.22C1414.97 20.22 1416.5 20.48 1417.9 21C1419.3 21.52 1420.51 22.27 1421.53 23.25C1422.55 24.21 1423.34 25.38 1423.9 26.76C1424.48 28.14 1424.77 29.68 1424.77 31.38C1424.77 33.08 1424.48 34.62 1423.9 36C1423.34 37.38 1422.55 38.56 1421.53 39.54C1420.51 40.5 1419.3 41.24 1417.9 41.76C1416.5 42.28 1414.97 42.54 1413.31 42.54C1411.65 42.54 1410.12 42.28 1408.72 41.76C1407.32 41.24 1406.11 40.5 1405.09 39.54C1404.07 38.56 1403.27 37.38 1402.69 36C1402.13 34.62 1401.85 33.08 1401.85 31.38ZM1428.73 20.76H1433.41V37.68H1442.08V42H1428.73V20.76ZM1454.05 26.94L1451.47 33.54H1456.66L1454.05 26.94ZM1452.25 20.76H1456.12L1465.36 42H1460.08L1458.25 37.5H1450L1448.23 42H1443.07L1452.25 20.76ZM1468.1 20.76H1474.46L1483.49 35.52H1483.55V20.76H1488.23V42H1482.11L1472.84 26.88H1472.78V42H1468.1V20.76ZM1501.95 26.94L1499.37 33.54H1504.56L1501.95 26.94ZM1500.15 20.76H1504.02L1513.26 42H1507.98L1506.15 37.5H1497.9L1496.13 42H1490.97L1500.15 20.76Z" fill="#F1F2F6"/>
<path d="M1529.6 25.8252L1525.12 28.2189L1529.24 35.0437C1529.24 35.0437 1538.25 40.5438 1538.91 40.5438C1539.57 40.5438 1551.39 41.3081 1551.9 40.9517C1552.41 40.5954 1559.08 38.2484 1559.89 37.7667C1560.71 37.285 1563.82 34.7856 1563.33 34.385C1562.51 33.7067 1563.48 32.6008 1561.72 31.9323C1559.56 31.1115 1552.86 28.4229 1549.25 28.3737C1545.63 28.3221 1540.23 29.0274 1536.57 27.6045C1532.9 26.184 1529.59 25.8252 1529.59 25.8252H1529.6Z" fill="black"/>
<path d="M1526.47 26.7916C1526.8 26.7081 1524.95 29.9374 1528.98 32.2696C1529.62 37.2954 1535.7 38.2367 1537.93 37.2733C1542.44 41.5815 1550.97 40.5149 1553.07 37.8459C1554.03 38.2146 1558.87 38.9666 1559.95 36.1256C1561.72 35.5309 1562.38 33.9408 1561.68 31.4562C1567.28 36.7449 1559.2 41.0408 1555.41 41.2521C1553.22 43.808 1549.3 42.2278 1549.3 42.2278C1549.3 42.2278 1547.05 44.2086 1543.79 44.0464C1540.53 43.8842 1537.89 41.1661 1537.89 41.1661C1537.89 41.1661 1534.33 41.3332 1532.03 39.667C1530.03 38.2219 1528.97 36.7474 1528.41 34.6559C1526.02 33.8523 1520.59 28.2564 1526.47 26.7916H1526.47Z" fill="#00F942"/>
<path d="M1547.28 20.1163C1543.34 20.1163 1538.94 16.8674 1528.34 24.2402C1524.74 27.2188 1526.82 31.4753 1529.5 31.5589C1530.87 34.7661 1531.3 36.7199 1538.19 36.538C1543.82 39.6075 1547.05 39.7452 1552.78 37.0738C1556.72 37.4793 1557.81 37.381 1559.58 35.4247C1562.04 36.0932 1563.14 31.1411 1559.27 26.9165C1555.24 22.5223 1553.77 20.1188 1547.28 20.1188L1547.28 20.1163Z" fill="#00F942"/>
<path d="M1556.61 24.0563C1556.61 24.0563 1550.91 28.389 1544.64 27.5977C1538.38 26.8063 1533.93 21.1907 1533.93 21.1907C1533.93 21.1907 1539.64 16.8579 1545.9 17.6493C1552.16 18.4406 1556.61 24.0563 1556.61 24.0563Z" fill="#00F942"/>
<path d="M1556.61 24.4537C1556.61 24.4537 1550.91 28.7865 1544.64 27.9951C1538.38 27.2038 1533.93 21.5882 1533.93 21.5882C1533.93 21.5882 1539.64 17.2554 1545.9 18.0468C1552.16 18.8381 1556.61 24.4537 1556.61 24.4537Z" fill="white"/>
<mask id="mask1_6692_33444" style="mask-type:luminance" maskUnits="userSpaceOnUse" x="1533" y="17" width="24" height="12">
<path d="M1556.61 24.4537C1556.61 24.4537 1550.91 28.7865 1544.64 27.9951C1538.38 27.2038 1533.93 21.5882 1533.93 21.5882C1533.93 21.5882 1539.64 17.2554 1545.9 18.0468C1552.16 18.8381 1556.61 24.4537 1556.61 24.4537Z" fill="white"/>
</mask>
<g mask="url(#mask1_6692_33444)">
<path d="M1547.37 22.1655C1549.07 22.1655 1550.44 20.7912 1550.44 19.0959C1550.44 17.4006 1549.07 16.0264 1547.37 16.0264C1545.68 16.0264 1544.3 17.4006 1544.3 19.0959C1544.3 20.7912 1545.68 22.1655 1547.37 22.1655Z" fill="black"/>
</g>
<path d="M1534.94 27.9337L1530.48 30.9678L1530.57 31.0896L1535.02 28.0556L1534.94 27.9337Z" fill="black"/>
<path d="M1551.19 31.1478L1551.05 31.1953L1552.66 35.9155L1552.8 35.8679L1551.19 31.1478Z" fill="black"/>
<path d="M1584.95 26.94L1582.37 33.54H1587.56L1584.95 26.94ZM1583.15 20.76H1587.02L1596.26 42H1590.98L1589.15 37.5H1580.9L1579.13 42H1573.97L1583.15 20.76ZM1598.94 20.76H1603.62V42H1598.94V20.76ZM1608.47 20.76H1615.55L1620.44 34.62H1620.5L1625.42 20.76H1632.47V42H1627.79V25.71H1627.73L1622.15 42H1618.58L1613.21 25.71H1613.15V42H1608.47V20.76ZM1637.34 20.76H1642.02V42H1637.34V20.76ZM1646.88 20.76H1653.24L1662.27 35.52H1662.33V20.76H1667.01V42H1660.89L1651.62 26.88H1651.56V42H1646.88V20.76ZM1676.05 24.9H1669.99V20.76H1686.79V24.9H1680.73V42H1676.05V24.9Z" fill="#F1F2F6"/>
<defs>
<linearGradient id="paint0_linear_6692_33444" x1="535.936" y1="46.0629" x2="566.061" y2="15.9373" gradientUnits="userSpaceOnUse">
<stop stop-color="#CB4EE8"/>
<stop offset="1" stop-color="#10F4B1"/>
</linearGradient>
<linearGradient id="paint1_linear_6692_33444" x1="1337.94" y1="46.0629" x2="1368.06" y2="15.9373" gradientUnits="userSpaceOnUse">
<stop stop-color="#CB4EE8"/>
<stop offset="1" stop-color="#10F4B1"/>
</linearGradient>
</defs>
</svg>
