<svg width="56" height="60" viewBox="0 0 56 60" fill="none" xmlns="http://www.w3.org/2000/svg">
<path id="Vector" d="M32.7372 0H23.2632C21.5191 0 20.1052 1.41397 20.1052 3.158V56.842C20.1052 58.586 21.5191 60 23.2632 60H32.7372C34.4812 60 35.8952 58.586 35.8952 56.842V3.158C35.8952 1.41397 34.4812 0 32.7372 0ZM33.1942 53.684H22.8042V52.106H33.1942V53.684ZM52.3472 11.052H42.7638C41.0198 11.052 39.6059 12.466 39.6059 14.21V56.8401C39.6059 58.5841 41.0198 59.998 42.7638 59.998H52.3472C54.0912 59.998 55.5052 58.5841 55.5052 56.8401V14.21C55.5052 12.466 54.0912 11.052 52.3472 11.052ZM52.7573 53.684H42.3518V52.106H52.7573V53.684ZM13.2853 7.89402H3.65311C1.90909 7.89402 0.495117 9.30799 0.495117 11.052V56.8401C0.495117 58.5841 1.90909 59.998 3.65311 59.998H13.2365C14.9805 59.998 16.3945 58.5841 16.3945 56.8401V11.052C16.3945 9.30799 14.9805 7.89402 13.2365 7.89402H13.2833H13.2853ZM13.6954 53.684H3.24299V52.106H13.6486L13.6954 53.684Z" fill="url(#paint0_linear_1577_6486)"/>
<defs>
<linearGradient id="paint0_linear_1577_6486" x1="0.495117" y1="30" x2="55.5052" y2="30" gradientUnits="userSpaceOnUse">
<stop stop-color="#6057EE"/>
<stop offset="0.98" stop-color="#FF3E80"/>
</linearGradient>
</defs>
</svg>
