<svg width="385" height="112" viewBox="0 0 385 112" fill="none" xmlns="http://www.w3.org/2000/svg">
<rect width="385" height="112" rx="8" fill="#221F2E"/>
<rect x="25.4118" y="21.4118" width="69.1765" height="69.1765" rx="8.47059" fill="url(#paint0_linear_1_6238)"/>
<rect x="25.4118" y="21.4118" width="69.1765" height="69.1765" rx="8.47059" stroke="url(#paint1_linear_1_6238)" strokeWidth="2.82353"/>
<path d="M71.3428 39.5907C71.3651 39.5388 71.4386 39.5388 71.4609 39.5907L72.5171 42.0553C72.9228 43.0019 73.6378 43.7827 74.5451 44.27L76.3007 45.2129C76.3458 45.2371 76.3458 45.3018 76.3007 45.3261L74.5451 46.2689C73.6378 46.7562 72.9228 47.5371 72.5171 48.4837L71.4609 50.9482C71.4386 51.0001 71.3651 51.0001 71.3428 50.9482L70.2866 48.4837C69.8809 47.5371 69.1659 46.7562 68.2586 46.2689L66.503 45.3261C66.4579 45.3018 66.4579 45.2371 66.503 45.2129L68.2586 44.27C69.1659 43.7827 69.8809 43.0019 70.2866 42.0553L71.3428 39.5907Z" fill="url(#paint2_linear_1_6238)" stroke="url(#paint3_diamond_1_6238)" strokeWidth="0.310739" strokeLinejoin="round"/>
<path d="M40.7759 68.9395L47.0747 51.1717L55.5401 65.4144L60.4743 51.9377L68.9486 60.6239M68.9486 60.6239L77.5681 69.0478M68.9486 60.6239L78.8207 55.9604" stroke="url(#paint4_linear_1_6238)" strokeWidth="8.79876" strokeLinecap="round" strokeLinejoin="round"/>
<path d="M40.7759 68.9395L47.0747 51.1717L55.5401 65.4144L60.4743 51.9377L68.9486 60.6239M68.9486 60.6239L77.5681 69.0478M68.9486 60.6239L78.8207 55.9604" stroke="black" stroke-opacity="0.2" strokeWidth="8.79876" strokeLinecap="round" strokeLinejoin="round"/>
<path d="M119.308 26.936V20.82H122.344V36H119.308V29.796H112.576V36H109.54V20.82H112.576V26.936H119.308ZM134.877 34.592C133.748 35.7067 132.318 36.264 130.587 36.264C128.871 36.264 127.434 35.7067 126.275 34.592C125.131 33.4773 124.559 32.0767 124.559 30.39C124.559 28.7327 125.131 27.3393 126.275 26.21C127.448 25.0807 128.886 24.516 130.587 24.516C132.288 24.516 133.718 25.0807 134.877 26.21C136.036 27.3247 136.615 28.718 136.615 30.39C136.615 32.0767 136.036 33.4773 134.877 34.592ZM127.507 30.39C127.507 31.2847 127.8 32.0253 128.387 32.612C128.974 33.1987 129.707 33.492 130.587 33.492C131.467 33.492 132.2 33.1987 132.787 32.612C133.374 32.0253 133.667 31.2847 133.667 30.39C133.667 29.51 133.374 28.7767 132.787 28.19C132.186 27.5887 131.452 27.288 130.587 27.288C129.722 27.288 128.988 27.5887 128.387 28.19C127.8 28.7767 127.507 29.51 127.507 30.39ZM150.344 32.392L152.698 24.78H155.888L151.796 36H148.848L146.362 28.212L143.876 36H140.928L136.836 24.78H140.114L142.468 32.37L144.932 24.78H147.858L150.344 32.392ZM165.136 22.624C164.799 22.9613 164.374 23.13 163.86 23.13C163.347 23.13 162.914 22.9613 162.562 22.624C162.225 22.272 162.056 21.8467 162.056 21.348C162.056 20.8493 162.225 20.4313 162.562 20.094C162.914 19.742 163.347 19.566 163.86 19.566C164.374 19.566 164.799 19.742 165.136 20.094C165.488 20.4313 165.664 20.8493 165.664 21.348C165.664 21.8467 165.488 22.272 165.136 22.624ZM165.29 36H162.43V24.78H165.29V36ZM174.858 24.78V27.398H172.086V33.382H174.858V36H169.226V27.398H167.202V24.78H169.226V21.48H172.086V24.78H174.858ZM197.954 31.908L201.54 20.82H204.84L199.428 36H196.37L192.872 25.374L189.352 36H186.294L180.904 20.82H184.248L187.878 31.908L191.508 20.82H194.28L197.954 31.908ZM214.369 34.592C213.24 35.7067 211.81 36.264 210.079 36.264C208.363 36.264 206.926 35.7067 205.767 34.592C204.623 33.4773 204.051 32.0767 204.051 30.39C204.051 28.7327 204.623 27.3393 205.767 26.21C206.94 25.0807 208.378 24.516 210.079 24.516C211.78 24.516 213.21 25.0807 214.369 26.21C215.528 27.3247 216.107 28.718 216.107 30.39C216.107 32.0767 215.528 33.4773 214.369 34.592ZM206.999 30.39C206.999 31.2847 207.292 32.0253 207.879 32.612C208.466 33.1987 209.199 33.492 210.079 33.492C210.959 33.492 211.692 33.1987 212.279 32.612C212.866 32.0253 213.159 31.2847 213.159 30.39C213.159 29.51 212.866 28.7767 212.279 28.19C211.678 27.5887 210.944 27.288 210.079 27.288C209.214 27.288 208.48 27.5887 207.879 28.19C207.292 28.7767 206.999 29.51 206.999 30.39ZM221.021 24.78V26.43C221.886 25.2127 222.979 24.604 224.299 24.604V27.552C223.258 27.552 222.451 27.8307 221.879 28.388C221.307 28.9307 221.021 29.686 221.021 30.654V36H218.161V24.78H221.021ZM236.604 36H233.128L230.18 31.644H228.992V36H226.132V20.16H228.992V29.048H230.202L233.018 24.78H236.45L232.556 30.346L236.604 36ZM240.995 36.264C239.807 36.264 238.802 35.912 237.981 35.208C237.189 34.504 236.793 33.646 236.793 32.634H239.675C239.675 32.986 239.807 33.2867 240.071 33.536C240.335 33.7853 240.65 33.91 241.017 33.91C241.369 33.91 241.662 33.8147 241.897 33.624C242.146 33.4187 242.271 33.1767 242.271 32.898C242.271 32.282 241.647 31.8127 240.401 31.49C238.098 30.9473 236.947 29.774 236.947 27.97C236.947 26.8993 237.335 26.056 238.113 25.44C238.875 24.824 239.829 24.516 240.973 24.516C242.131 24.516 243.092 24.8533 243.855 25.528C244.632 26.188 245.021 27.002 245.021 27.97H242.139C242.139 27.662 242.021 27.4053 241.787 27.2C241.567 26.98 241.288 26.87 240.951 26.87C240.643 26.87 240.379 26.9653 240.159 27.156C239.939 27.332 239.829 27.5447 239.829 27.794C239.829 28.3953 240.481 28.8647 241.787 29.202C244.045 29.774 245.175 30.9253 245.175 32.656C245.175 33.7853 244.771 34.6653 243.965 35.296C243.158 35.9413 242.168 36.264 240.995 36.264Z" fill="#F2F2FC"/>
<path d="M108.392 65L112.074 54.78H114.398L118.192 65H116.778L113.348 55.676L114.02 56.012H112.368L113.082 55.676L109.764 65H108.392ZM110.59 61.948L111.052 60.716H115.462L115.924 61.948H110.59ZM120.234 65V57.524H121.578V65H120.234ZM119.086 58.588V57.524H121.578V58.588H119.086ZM120.612 56.32C120.313 56.32 120.089 56.2407 119.94 56.082C119.8 55.9233 119.73 55.7227 119.73 55.48C119.73 55.2373 119.8 55.0367 119.94 54.878C120.089 54.7193 120.313 54.64 120.612 54.64C120.911 54.64 121.13 54.7193 121.27 54.878C121.419 55.0367 121.494 55.2373 121.494 55.48C121.494 55.7227 121.419 55.9233 121.27 56.082C121.13 56.2407 120.911 56.32 120.612 56.32ZM124.177 65V57.524H125.241V60.73H125.073C125.073 60.002 125.166 59.386 125.353 58.882C125.549 58.3687 125.838 57.9767 126.221 57.706C126.603 57.4353 127.089 57.3 127.677 57.3H127.733C128.321 57.3 128.806 57.4353 129.189 57.706C129.581 57.9767 129.87 58.3687 130.057 58.882C130.243 59.386 130.337 60.002 130.337 60.73H129.945C129.945 60.002 130.043 59.386 130.239 58.882C130.435 58.3687 130.724 57.9767 131.107 57.706C131.499 57.4353 131.989 57.3 132.577 57.3H132.633C133.221 57.3 133.711 57.4353 134.103 57.706C134.495 57.9767 134.784 58.3687 134.971 58.882C135.167 59.386 135.265 60.002 135.265 60.73V65H133.921V60.436C133.921 59.8293 133.771 59.3627 133.473 59.036C133.174 58.7 132.759 58.532 132.227 58.532C131.676 58.532 131.233 58.7093 130.897 59.064C130.561 59.4093 130.393 59.8947 130.393 60.52V65H129.049V60.436C129.049 59.8293 128.899 59.3627 128.601 59.036C128.302 58.7 127.887 58.532 127.355 58.532C126.804 58.532 126.361 58.7093 126.025 59.064C125.689 59.4093 125.521 59.8947 125.521 60.52V65H124.177ZM138.09 65V57.524H139.434V65H138.09ZM136.942 58.588V57.524H139.434V58.588H136.942ZM138.468 56.32C138.169 56.32 137.945 56.2407 137.796 56.082C137.656 55.9233 137.586 55.7227 137.586 55.48C137.586 55.2373 137.656 55.0367 137.796 54.878C137.945 54.7193 138.169 54.64 138.468 54.64C138.766 54.64 138.986 54.7193 139.126 54.878C139.275 55.0367 139.35 55.2373 139.35 55.48C139.35 55.7227 139.275 55.9233 139.126 56.082C138.986 56.2407 138.766 56.32 138.468 56.32ZM142.032 65V57.524H143.096V60.73H142.928C142.928 59.9927 143.026 59.372 143.222 58.868C143.427 58.3547 143.735 57.9673 144.146 57.706C144.557 57.4353 145.075 57.3 145.7 57.3H145.756C146.699 57.3 147.394 57.594 147.842 58.182C148.299 58.77 148.528 59.6193 148.528 60.73V65H147.184V60.45C147.184 59.8713 147.021 59.4093 146.694 59.064C146.367 58.7093 145.919 58.532 145.35 58.532C144.762 58.532 144.286 58.714 143.922 59.078C143.558 59.442 143.376 59.9273 143.376 60.534V65H142.032ZM153.899 65.084C153.339 65.084 152.854 65.0047 152.443 64.846C152.042 64.6873 151.729 64.4167 151.505 64.034C151.291 63.642 151.183 63.1147 151.183 62.452V55.256H152.471V62.62C152.471 63.0213 152.579 63.334 152.793 63.558C153.017 63.7727 153.33 63.88 153.731 63.88H155.047V65.084H153.899ZM149.895 58.532V57.524H155.047V58.532H149.895ZM160.358 65V54.78H161.73V65H160.358ZM166.986 65.224C166.006 65.224 165.245 65.014 164.704 64.594C164.172 64.174 163.897 63.6 163.878 62.872H165.138C165.157 63.1613 165.301 63.4367 165.572 63.698C165.852 63.95 166.323 64.076 166.986 64.076C167.583 64.076 168.041 63.9593 168.358 63.726C168.675 63.4833 168.834 63.1893 168.834 62.844C168.834 62.536 168.717 62.298 168.484 62.13C168.251 61.9527 167.873 61.836 167.35 61.78L166.538 61.696C165.829 61.6213 165.25 61.4113 164.802 61.066C164.354 60.7113 164.13 60.2167 164.13 59.582C164.13 59.106 164.251 58.7 164.494 58.364C164.737 58.0187 165.073 57.7573 165.502 57.58C165.931 57.3933 166.426 57.3 166.986 57.3C167.826 57.3 168.507 57.4867 169.03 57.86C169.553 58.2333 169.823 58.7887 169.842 59.526H168.582C168.573 59.2273 168.433 58.9753 168.162 58.77C167.901 58.5553 167.509 58.448 166.986 58.448C166.463 58.448 166.067 58.5553 165.796 58.77C165.525 58.9847 165.39 59.2553 165.39 59.582C165.39 59.862 165.483 60.086 165.67 60.254C165.866 60.422 166.183 60.5293 166.622 60.576L167.434 60.66C168.237 60.744 168.881 60.968 169.366 61.332C169.851 61.6867 170.094 62.1907 170.094 62.844C170.094 63.3107 169.959 63.726 169.688 64.09C169.427 64.4447 169.063 64.7247 168.596 64.93C168.129 65.126 167.593 65.224 166.986 65.224ZM177.411 65V55.732H178.783V65H177.411ZM174.303 56.012V54.78H181.891V56.012H174.303ZM183.54 65V54.78H184.884V60.884H184.548C184.548 60.1467 184.641 59.512 184.828 58.98C185.024 58.4387 185.323 58.0233 185.724 57.734C186.125 57.4447 186.639 57.3 187.264 57.3H187.32C188.216 57.3 188.893 57.5987 189.35 58.196C189.807 58.784 190.036 59.6287 190.036 60.73V65H188.692V60.45C188.692 59.8433 188.519 59.372 188.174 59.036C187.838 58.7 187.399 58.532 186.858 58.532C186.261 58.532 185.78 58.7327 185.416 59.134C185.061 59.526 184.884 60.044 184.884 60.688V65H183.54ZM195.673 65.252C195.02 65.252 194.455 65.14 193.979 64.916C193.503 64.692 193.116 64.398 192.817 64.034C192.518 63.6607 192.294 63.2453 192.145 62.788C192.005 62.3307 191.935 61.864 191.935 61.388V61.136C191.935 60.6507 192.005 60.1793 192.145 59.722C192.294 59.2647 192.518 58.854 192.817 58.49C193.116 58.1167 193.494 57.8227 193.951 57.608C194.418 57.384 194.964 57.272 195.589 57.272C196.401 57.272 197.068 57.4493 197.591 57.804C198.123 58.1493 198.515 58.5973 198.767 59.148C199.028 59.6987 199.159 60.2867 199.159 60.912V61.514H192.523V60.506H198.179L197.871 61.052C197.871 60.52 197.787 60.0627 197.619 59.68C197.451 59.288 197.199 58.9847 196.863 58.77C196.527 58.5553 196.102 58.448 195.589 58.448C195.057 58.448 194.614 58.5693 194.259 58.812C193.914 59.0547 193.652 59.386 193.475 59.806C193.307 60.226 193.223 60.7113 193.223 61.262C193.223 61.794 193.307 62.2747 193.475 62.704C193.652 63.124 193.923 63.46 194.287 63.712C194.651 63.9547 195.113 64.076 195.673 64.076C196.261 64.076 196.737 63.9453 197.101 63.684C197.474 63.4227 197.698 63.1193 197.773 62.774H199.033C198.93 63.2873 198.725 63.7307 198.417 64.104C198.109 64.4773 197.722 64.762 197.255 64.958C196.788 65.154 196.261 65.252 195.673 65.252ZM205.541 65.056V63.852H208.397C208.948 63.852 209.372 63.698 209.671 63.39C209.979 63.0727 210.133 62.6527 210.133 62.13C210.133 61.598 209.984 61.1827 209.685 60.884C209.386 60.576 208.957 60.422 208.397 60.422H205.541V59.526H208.201C208.854 59.526 209.428 59.6053 209.923 59.764C210.427 59.9227 210.819 60.1887 211.099 60.562C211.388 60.926 211.533 61.4253 211.533 62.06V62.256C211.533 62.8533 211.412 63.362 211.169 63.782C210.926 64.1927 210.558 64.51 210.063 64.734C209.568 64.9487 208.948 65.056 208.201 65.056H205.541ZM204.449 65.056V54.724H205.821V65.056H204.449ZM205.541 60.17V59.274H208.019C208.598 59.274 209.022 59.12 209.293 58.812C209.573 58.4947 209.713 58.0933 209.713 57.608C209.713 57.1133 209.573 56.712 209.293 56.404C209.022 56.0867 208.598 55.928 208.019 55.928H205.541V54.724H207.781C208.901 54.724 209.736 54.962 210.287 55.438C210.838 55.9047 211.113 56.5813 211.113 57.468V57.664C211.113 58.2893 210.973 58.7887 210.693 59.162C210.413 59.526 210.021 59.7873 209.517 59.946C209.022 60.0953 208.444 60.17 207.781 60.17H205.541ZM216.892 65.252C216.238 65.252 215.674 65.14 215.198 64.916C214.722 64.692 214.334 64.398 214.036 64.034C213.737 63.6607 213.513 63.2453 213.364 62.788C213.224 62.3307 213.154 61.864 213.154 61.388V61.136C213.154 60.6507 213.224 60.1793 213.364 59.722C213.513 59.2647 213.737 58.854 214.036 58.49C214.334 58.1167 214.712 57.8227 215.17 57.608C215.636 57.384 216.182 57.272 216.808 57.272C217.62 57.272 218.287 57.4493 218.81 57.804C219.342 58.1493 219.734 58.5973 219.986 59.148C220.247 59.6987 220.378 60.2867 220.378 60.912V61.514H213.742V60.506H219.398L219.09 61.052C219.09 60.52 219.006 60.0627 218.838 59.68C218.67 59.288 218.418 58.9847 218.082 58.77C217.746 58.5553 217.321 58.448 216.808 58.448C216.276 58.448 215.832 58.5693 215.478 58.812C215.132 59.0547 214.871 59.386 214.694 59.806C214.526 60.226 214.442 60.7113 214.442 61.262C214.442 61.794 214.526 62.2747 214.694 62.704C214.871 63.124 215.142 63.46 215.506 63.712C215.87 63.9547 216.332 64.076 216.892 64.076C217.48 64.076 217.956 63.9453 218.32 63.684C218.693 63.4227 218.917 63.1193 218.992 62.774H220.252C220.149 63.2873 219.944 63.7307 219.636 64.104C219.328 64.4773 218.94 64.762 218.474 64.958C218.007 65.154 217.48 65.252 216.892 65.252ZM224.736 65.224C223.756 65.224 222.995 65.014 222.454 64.594C221.922 64.174 221.647 63.6 221.628 62.872H222.888C222.907 63.1613 223.051 63.4367 223.322 63.698C223.602 63.95 224.073 64.076 224.736 64.076C225.333 64.076 225.791 63.9593 226.108 63.726C226.425 63.4833 226.584 63.1893 226.584 62.844C226.584 62.536 226.467 62.298 226.234 62.13C226.001 61.9527 225.623 61.836 225.1 61.78L224.288 61.696C223.579 61.6213 223 61.4113 222.552 61.066C222.104 60.7113 221.88 60.2167 221.88 59.582C221.88 59.106 222.001 58.7 222.244 58.364C222.487 58.0187 222.823 57.7573 223.252 57.58C223.681 57.3933 224.176 57.3 224.736 57.3C225.576 57.3 226.257 57.4867 226.78 57.86C227.303 58.2333 227.573 58.7887 227.592 59.526H226.332C226.323 59.2273 226.183 58.9753 225.912 58.77C225.651 58.5553 225.259 58.448 224.736 58.448C224.213 58.448 223.817 58.5553 223.546 58.77C223.275 58.9847 223.14 59.2553 223.14 59.582C223.14 59.862 223.233 60.086 223.42 60.254C223.616 60.422 223.933 60.5293 224.372 60.576L225.184 60.66C225.987 60.744 226.631 60.968 227.116 61.332C227.601 61.6867 227.844 62.1907 227.844 62.844C227.844 63.3107 227.709 63.726 227.438 64.09C227.177 64.4447 226.813 64.7247 226.346 64.93C225.879 65.126 225.343 65.224 224.736 65.224ZM232.704 65.084C232.144 65.084 231.659 65.0047 231.248 64.846C230.847 64.6873 230.534 64.4167 230.31 64.034C230.095 63.642 229.988 63.1147 229.988 62.452V55.256H231.276V62.62C231.276 63.0213 231.383 63.334 231.598 63.558C231.822 63.7727 232.135 63.88 232.536 63.88H233.852V65.084H232.704ZM228.7 58.532V57.524H233.852V58.532H228.7ZM240.226 61.444V60.24H242.508C242.994 60.24 243.395 60.1467 243.712 59.96C244.03 59.764 244.268 59.5027 244.426 59.176C244.594 58.8493 244.678 58.4853 244.678 58.084C244.678 57.6733 244.594 57.3047 244.426 56.978C244.268 56.6513 244.03 56.3947 243.712 56.208C243.395 56.0213 242.994 55.928 242.508 55.928H240.226V54.724H242.256C243.096 54.724 243.796 54.8593 244.356 55.13C244.926 55.3913 245.355 55.7647 245.644 56.25C245.934 56.7353 246.078 57.3093 246.078 57.972V58.196C246.078 58.8493 245.934 59.4233 245.644 59.918C245.355 60.4033 244.926 60.7813 244.356 61.052C243.796 61.3133 243.096 61.444 242.256 61.444H240.226ZM239.134 65V54.724H240.506V65H239.134ZM247.977 65V54.78H249.321V65H247.977ZM246.941 55.844V54.78H249.321V55.844H246.941ZM256.421 65V62.76H256.197V60.17C256.197 59.6567 256.062 59.2693 255.791 59.008C255.53 58.7467 255.143 58.616 254.629 58.616C254.34 58.616 254.041 58.6207 253.733 58.63C253.425 58.6393 253.131 58.6487 252.851 58.658C252.571 58.6673 252.329 58.6813 252.123 58.7V57.524C252.329 57.5053 252.543 57.4913 252.767 57.482C253.001 57.4633 253.239 57.454 253.481 57.454C253.724 57.4447 253.957 57.44 254.181 57.44C254.947 57.44 255.572 57.5333 256.057 57.72C256.543 57.8973 256.902 58.1913 257.135 58.602C257.369 59.0127 257.485 59.568 257.485 60.268V65H256.421ZM253.971 65.196C253.411 65.196 252.926 65.1027 252.515 64.916C252.114 64.72 251.801 64.44 251.577 64.076C251.363 63.712 251.255 63.2733 251.255 62.76C251.255 62.228 251.372 61.7847 251.605 61.43C251.848 61.0753 252.198 60.8093 252.655 60.632C253.113 60.4453 253.663 60.352 254.307 60.352H256.337V61.36H254.251C253.71 61.36 253.295 61.4907 253.005 61.752C252.716 62.0133 252.571 62.3493 252.571 62.76C252.571 63.1707 252.716 63.502 253.005 63.754C253.295 64.006 253.71 64.132 254.251 64.132C254.569 64.132 254.872 64.076 255.161 63.964C255.451 63.8427 255.689 63.6467 255.875 63.376C256.071 63.096 256.179 62.7133 256.197 62.228L256.561 62.76C256.515 63.292 256.384 63.74 256.169 64.104C255.964 64.4587 255.675 64.7293 255.301 64.916C254.937 65.1027 254.494 65.196 253.971 65.196ZM263.158 65.252C262.514 65.252 261.954 65.14 261.478 64.916C261.011 64.692 260.624 64.3933 260.316 64.02C260.008 63.6373 259.775 63.2173 259.616 62.76C259.467 62.3027 259.392 61.8453 259.392 61.388V61.136C259.392 60.66 259.467 60.1933 259.616 59.736C259.775 59.2787 260.008 58.868 260.316 58.504C260.633 58.1307 261.025 57.832 261.492 57.608C261.959 57.384 262.505 57.272 263.13 57.272C263.755 57.272 264.315 57.3887 264.81 57.622C265.314 57.8553 265.715 58.1867 266.014 58.616C266.322 59.036 266.495 59.5353 266.532 60.114H265.244C265.179 59.6473 264.964 59.26 264.6 58.952C264.236 58.6347 263.746 58.476 263.13 58.476C262.598 58.476 262.155 58.5973 261.8 58.84C261.445 59.0827 261.179 59.414 261.002 59.834C260.825 60.254 260.736 60.73 260.736 61.262C260.736 61.7753 260.825 62.2467 261.002 62.676C261.179 63.096 261.445 63.432 261.8 63.684C262.164 63.9267 262.617 64.048 263.158 64.048C263.578 64.048 263.942 63.9733 264.25 63.824C264.558 63.6747 264.805 63.474 264.992 63.222C265.179 62.97 265.291 62.6853 265.328 62.368H266.616C266.588 62.956 266.415 63.4647 266.098 63.894C265.79 64.3233 265.379 64.6593 264.866 64.902C264.362 65.1353 263.793 65.252 263.158 65.252ZM271.62 65.252C270.967 65.252 270.402 65.14 269.926 64.916C269.45 64.692 269.063 64.398 268.764 64.034C268.466 63.6607 268.242 63.2453 268.092 62.788C267.952 62.3307 267.882 61.864 267.882 61.388V61.136C267.882 60.6507 267.952 60.1793 268.092 59.722C268.242 59.2647 268.466 58.854 268.764 58.49C269.063 58.1167 269.441 57.8227 269.898 57.608C270.365 57.384 270.911 57.272 271.536 57.272C272.348 57.272 273.016 57.4493 273.538 57.804C274.07 58.1493 274.462 58.5973 274.714 59.148C274.976 59.6987 275.106 60.2867 275.106 60.912V61.514H268.47V60.506H274.126L273.818 61.052C273.818 60.52 273.734 60.0627 273.566 59.68C273.398 59.288 273.146 58.9847 272.81 58.77C272.474 58.5553 272.05 58.448 271.536 58.448C271.004 58.448 270.561 58.5693 270.206 58.812C269.861 59.0547 269.6 59.386 269.422 59.806C269.254 60.226 269.17 60.7113 269.17 61.262C269.17 61.794 269.254 62.2747 269.422 62.704C269.6 63.124 269.87 63.46 270.234 63.712C270.598 63.9547 271.06 64.076 271.62 64.076C272.208 64.076 272.684 63.9453 273.048 63.684C273.422 63.4227 273.646 63.1193 273.72 62.774H274.98C274.878 63.2873 274.672 63.7307 274.364 64.104C274.056 64.4773 273.669 64.762 273.202 64.958C272.736 65.154 272.208 65.252 271.62 65.252ZM282.384 65V55.732H283.756V65H282.384ZM279.276 56.012V54.78H286.864V56.012H279.276ZM291.054 65.252C290.401 65.252 289.827 65.14 289.332 64.916C288.838 64.692 288.418 64.398 288.072 64.034C287.736 63.6607 287.48 63.2453 287.302 62.788C287.134 62.3307 287.05 61.864 287.05 61.388V61.136C287.05 60.66 287.139 60.1933 287.316 59.736C287.494 59.2693 287.755 58.854 288.1 58.49C288.446 58.1167 288.866 57.8227 289.36 57.608C289.855 57.384 290.42 57.272 291.054 57.272C291.689 57.272 292.254 57.384 292.748 57.608C293.243 57.8227 293.663 58.1167 294.008 58.49C294.354 58.854 294.615 59.2693 294.792 59.736C294.97 60.1933 295.058 60.66 295.058 61.136V61.388C295.058 61.864 294.97 62.3307 294.792 62.788C294.624 63.2453 294.368 63.6607 294.022 64.034C293.686 64.398 293.271 64.692 292.776 64.916C292.282 65.14 291.708 65.252 291.054 65.252ZM291.054 64.048C291.614 64.048 292.09 63.9267 292.482 63.684C292.884 63.432 293.187 63.096 293.392 62.676C293.607 62.256 293.714 61.7847 293.714 61.262C293.714 60.73 293.607 60.254 293.392 59.834C293.178 59.414 292.87 59.0827 292.468 58.84C292.076 58.5973 291.605 58.476 291.054 58.476C290.513 58.476 290.042 58.5973 289.64 58.84C289.239 59.0827 288.931 59.414 288.716 59.834C288.502 60.254 288.394 60.73 288.394 61.262C288.394 61.7847 288.497 62.256 288.702 62.676C288.917 63.096 289.22 63.432 289.612 63.684C290.014 63.9267 290.494 64.048 291.054 64.048ZM110.576 85.056V83.796H113.124C113.74 83.796 114.286 83.698 114.762 83.502C115.247 83.2967 115.658 83.0167 115.994 82.662C116.339 82.3073 116.601 81.892 116.778 81.416C116.955 80.94 117.044 80.4267 117.044 79.876C117.044 79.2973 116.955 78.7747 116.778 78.308C116.601 77.832 116.339 77.4213 115.994 77.076C115.658 76.7213 115.247 76.4507 114.762 76.264C114.286 76.0773 113.74 75.984 113.124 75.984H110.576V74.724H112.984C113.908 74.724 114.711 74.8687 115.392 75.158C116.073 75.438 116.638 75.8207 117.086 76.306C117.543 76.782 117.884 77.3187 118.108 77.916C118.332 78.504 118.444 79.106 118.444 79.722V80.03C118.444 80.6273 118.332 81.2247 118.108 81.822C117.884 82.4193 117.543 82.9607 117.086 83.446C116.638 83.9313 116.073 84.3233 115.392 84.622C114.711 84.9113 113.908 85.056 112.984 85.056H110.576ZM109.484 85.056V74.724H110.856V85.056H109.484ZM120.726 85V77.524H122.07V85H120.726ZM119.578 78.588V77.524H122.07V78.588H119.578ZM121.104 76.32C120.806 76.32 120.582 76.2407 120.432 76.082C120.292 75.9233 120.222 75.7227 120.222 75.48C120.222 75.2373 120.292 75.0367 120.432 74.878C120.582 74.7193 120.806 74.64 121.104 74.64C121.403 74.64 121.622 74.7193 121.762 74.878C121.912 75.0367 121.986 75.2373 121.986 75.48C121.986 75.7227 121.912 75.9233 121.762 76.082C121.622 76.2407 121.403 76.32 121.104 76.32ZM127.119 85.224C126.139 85.224 125.378 85.014 124.837 84.594C124.305 84.174 124.03 83.6 124.011 82.872H125.271C125.29 83.1613 125.434 83.4367 125.705 83.698C125.985 83.95 126.456 84.076 127.119 84.076C127.716 84.076 128.174 83.9593 128.491 83.726C128.808 83.4833 128.967 83.1893 128.967 82.844C128.967 82.536 128.85 82.298 128.617 82.13C128.384 81.9527 128.006 81.836 127.483 81.78L126.671 81.696C125.962 81.6213 125.383 81.4113 124.935 81.066C124.487 80.7113 124.263 80.2167 124.263 79.582C124.263 79.106 124.384 78.7 124.627 78.364C124.87 78.0187 125.206 77.7573 125.635 77.58C126.064 77.3933 126.559 77.3 127.119 77.3C127.959 77.3 128.64 77.4867 129.163 77.86C129.686 78.2333 129.956 78.7887 129.975 79.526H128.715C128.706 79.2273 128.566 78.9753 128.295 78.77C128.034 78.5553 127.642 78.448 127.119 78.448C126.596 78.448 126.2 78.5553 125.929 78.77C125.658 78.9847 125.523 79.2553 125.523 79.582C125.523 79.862 125.616 80.086 125.803 80.254C125.999 80.422 126.316 80.5293 126.755 80.576L127.567 80.66C128.37 80.744 129.014 80.968 129.499 81.332C129.984 81.6867 130.227 82.1907 130.227 82.844C130.227 83.3107 130.092 83.726 129.821 84.09C129.56 84.4447 129.196 84.7247 128.729 84.93C128.262 85.126 127.726 85.224 127.119 85.224ZM135.381 85.252C134.737 85.252 134.177 85.14 133.701 84.916C133.234 84.692 132.847 84.3933 132.539 84.02C132.231 83.6373 131.997 83.2173 131.839 82.76C131.689 82.3027 131.615 81.8453 131.615 81.388V81.136C131.615 80.66 131.689 80.1933 131.839 79.736C131.997 79.2787 132.231 78.868 132.539 78.504C132.856 78.1307 133.248 77.832 133.715 77.608C134.181 77.384 134.727 77.272 135.353 77.272C135.978 77.272 136.538 77.3887 137.033 77.622C137.537 77.8553 137.938 78.1867 138.237 78.616C138.545 79.036 138.717 79.5353 138.755 80.114H137.467C137.401 79.6473 137.187 79.26 136.823 78.952C136.459 78.6347 135.969 78.476 135.353 78.476C134.821 78.476 134.377 78.5973 134.023 78.84C133.668 79.0827 133.402 79.414 133.225 79.834C133.047 80.254 132.959 80.73 132.959 81.262C132.959 81.7753 133.047 82.2467 133.225 82.676C133.402 83.096 133.668 83.432 134.023 83.684C134.387 83.9267 134.839 84.048 135.381 84.048C135.801 84.048 136.165 83.9733 136.473 83.824C136.781 83.6747 137.028 83.474 137.215 83.222C137.401 82.97 137.513 82.6853 137.551 82.368H138.839C138.811 82.956 138.638 83.4647 138.321 83.894C138.013 84.3233 137.602 84.6593 137.089 84.902C136.585 85.1353 136.015 85.252 135.381 85.252ZM144.109 85.252C143.456 85.252 142.882 85.14 142.387 84.916C141.892 84.692 141.472 84.398 141.127 84.034C140.791 83.6607 140.534 83.2453 140.357 82.788C140.189 82.3307 140.105 81.864 140.105 81.388V81.136C140.105 80.66 140.194 80.1933 140.371 79.736C140.548 79.2693 140.81 78.854 141.155 78.49C141.5 78.1167 141.92 77.8227 142.415 77.608C142.91 77.384 143.474 77.272 144.109 77.272C144.744 77.272 145.308 77.384 145.803 77.608C146.298 77.8227 146.718 78.1167 147.063 78.49C147.408 78.854 147.67 79.2693 147.847 79.736C148.024 80.1933 148.113 80.66 148.113 81.136V81.388C148.113 81.864 148.024 82.3307 147.847 82.788C147.679 83.2453 147.422 83.6607 147.077 84.034C146.741 84.398 146.326 84.692 145.831 84.916C145.336 85.14 144.762 85.252 144.109 85.252ZM144.109 84.048C144.669 84.048 145.145 83.9267 145.537 83.684C145.938 83.432 146.242 83.096 146.447 82.676C146.662 82.256 146.769 81.7847 146.769 81.262C146.769 80.73 146.662 80.254 146.447 79.834C146.232 79.414 145.924 79.0827 145.523 78.84C145.131 78.5973 144.66 78.476 144.109 78.476C143.568 78.476 143.096 78.5973 142.695 78.84C142.294 79.0827 141.986 79.414 141.771 79.834C141.556 80.254 141.449 80.73 141.449 81.262C141.449 81.7847 141.552 82.256 141.757 82.676C141.972 83.096 142.275 83.432 142.667 83.684C143.068 83.9267 143.549 84.048 144.109 84.048ZM151.585 85L149.037 77.524H150.437L152.929 85H151.585ZM151.921 85V83.936H153.545V85H151.921ZM152.565 85L154.735 77.524H156.051L153.839 85H152.565ZM160.851 85.252C160.197 85.252 159.633 85.14 159.157 84.916C158.681 84.692 158.293 84.398 157.995 84.034C157.696 83.6607 157.472 83.2453 157.323 82.788C157.183 82.3307 157.113 81.864 157.113 81.388V81.136C157.113 80.6507 157.183 80.1793 157.323 79.722C157.472 79.2647 157.696 78.854 157.995 78.49C158.293 78.1167 158.671 77.8227 159.129 77.608C159.595 77.384 160.141 77.272 160.767 77.272C161.579 77.272 162.246 77.4493 162.769 77.804C163.301 78.1493 163.693 78.5973 163.945 79.148C164.206 79.6987 164.337 80.2867 164.337 80.912V81.514H157.701V80.506H163.357L163.049 81.052C163.049 80.52 162.965 80.0627 162.797 79.68C162.629 79.288 162.377 78.9847 162.041 78.77C161.705 78.5553 161.28 78.448 160.767 78.448C160.235 78.448 159.791 78.5693 159.437 78.812C159.091 79.0547 158.83 79.386 158.653 79.806C158.485 80.226 158.401 80.7113 158.401 81.262C158.401 81.794 158.485 82.2747 158.653 82.704C158.83 83.124 159.101 83.46 159.465 83.712C159.829 83.9547 160.291 84.076 160.851 84.076C161.439 84.076 161.915 83.9453 162.279 83.684C162.652 83.4227 162.876 83.1193 162.951 82.774H164.211C164.108 83.2873 163.903 83.7307 163.595 84.104C163.287 84.4773 162.899 84.762 162.433 84.958C161.966 85.154 161.439 85.252 160.851 85.252ZM166.245 85V77.524H167.309V80.604H167.253C167.253 79.512 167.491 78.714 167.967 78.21C168.452 77.6967 169.176 77.44 170.137 77.44H170.389V78.644H169.913C169.166 78.644 168.592 78.8447 168.191 79.246C167.79 79.638 167.589 80.2073 167.589 80.954V85H166.245ZM177.357 85V75.732H178.729V85H177.357ZM174.249 76.012V74.78H181.837V76.012H174.249ZM183.485 85V74.78H184.829V80.884H184.493C184.493 80.1467 184.587 79.512 184.773 78.98C184.969 78.4387 185.268 78.0233 185.669 77.734C186.071 77.4447 186.584 77.3 187.209 77.3H187.265C188.161 77.3 188.838 77.5987 189.295 78.196C189.753 78.784 189.981 79.6287 189.981 80.73V85H188.637V80.45C188.637 79.8433 188.465 79.372 188.119 79.036C187.783 78.7 187.345 78.532 186.803 78.532C186.206 78.532 185.725 78.7327 185.361 79.134C185.007 79.526 184.829 80.044 184.829 80.688V85H183.485ZM195.618 85.252C194.965 85.252 194.4 85.14 193.924 84.916C193.448 84.692 193.061 84.398 192.762 84.034C192.464 83.6607 192.24 83.2453 192.09 82.788C191.95 82.3307 191.88 81.864 191.88 81.388V81.136C191.88 80.6507 191.95 80.1793 192.09 79.722C192.24 79.2647 192.464 78.854 192.762 78.49C193.061 78.1167 193.439 77.8227 193.896 77.608C194.363 77.384 194.909 77.272 195.534 77.272C196.346 77.272 197.014 77.4493 197.536 77.804C198.068 78.1493 198.46 78.5973 198.712 79.148C198.974 79.6987 199.104 80.2867 199.104 80.912V81.514H192.468V80.506H198.124L197.816 81.052C197.816 80.52 197.732 80.0627 197.564 79.68C197.396 79.288 197.144 78.9847 196.808 78.77C196.472 78.5553 196.048 78.448 195.534 78.448C195.002 78.448 194.559 78.5693 194.204 78.812C193.859 79.0547 193.598 79.386 193.42 79.806C193.252 80.226 193.168 80.7113 193.168 81.262C193.168 81.794 193.252 82.2747 193.42 82.704C193.598 83.124 193.868 83.46 194.232 83.712C194.596 83.9547 195.058 84.076 195.618 84.076C196.206 84.076 196.682 83.9453 197.046 83.684C197.42 83.4227 197.644 83.1193 197.718 82.774H198.978C198.876 83.2873 198.67 83.7307 198.362 84.104C198.054 84.4773 197.667 84.762 197.2 84.958C196.734 85.154 196.206 85.252 195.618 85.252ZM204.394 85V74.78H206.634L211.828 83.768H212.276L211.996 84.02V74.78H213.312V85H211.044L205.85 76.012H205.402L205.682 75.76V85H204.394ZM219.257 85.252C218.604 85.252 218.039 85.14 217.563 84.916C217.087 84.692 216.7 84.398 216.401 84.034C216.102 83.6607 215.878 83.2453 215.729 82.788C215.589 82.3307 215.519 81.864 215.519 81.388V81.136C215.519 80.6507 215.589 80.1793 215.729 79.722C215.878 79.2647 216.102 78.854 216.401 78.49C216.7 78.1167 217.078 77.8227 217.535 77.608C218.002 77.384 218.548 77.272 219.173 77.272C219.985 77.272 220.652 77.4493 221.175 77.804C221.707 78.1493 222.099 78.5973 222.351 79.148C222.612 79.6987 222.743 80.2867 222.743 80.912V81.514H216.107V80.506H221.763L221.455 81.052C221.455 80.52 221.371 80.0627 221.203 79.68C221.035 79.288 220.783 78.9847 220.447 78.77C220.111 78.5553 219.686 78.448 219.173 78.448C218.641 78.448 218.198 78.5693 217.843 78.812C217.498 79.0547 217.236 79.386 217.059 79.806C216.891 80.226 216.807 80.7113 216.807 81.262C216.807 81.794 216.891 82.2747 217.059 82.704C217.236 83.124 217.507 83.46 217.871 83.712C218.235 83.9547 218.697 84.076 219.257 84.076C219.845 84.076 220.321 83.9453 220.685 83.684C221.058 83.4227 221.282 83.1193 221.357 82.774H222.617C222.514 83.2873 222.309 83.7307 222.001 84.104C221.693 84.4773 221.306 84.762 220.839 84.958C220.372 85.154 219.845 85.252 219.257 85.252ZM223.728 85L226.402 81.066L226.36 81.346L223.854 77.524H225.338L227.144 80.338H227.34L229.048 77.524H230.434L228.068 81.248L228.11 80.996L230.91 85H229.426L227.326 81.962H227.13L225.114 85H223.728ZM235.315 85.084C234.755 85.084 234.27 85.0047 233.859 84.846C233.458 84.6873 233.145 84.4167 232.921 84.034C232.707 83.642 232.599 83.1147 232.599 82.452V75.256H233.887V82.62C233.887 83.0213 233.995 83.334 234.209 83.558C234.433 83.7727 234.746 83.88 235.147 83.88H236.463V85.084H235.315ZM231.311 78.532V77.524H236.463V78.532H231.311ZM243.734 85V75.732H245.106V85H243.734ZM240.626 76.012V74.78H248.214V76.012H240.626ZM249.438 85V77.524H250.502V80.604H250.446C250.446 79.512 250.684 78.714 251.16 78.21C251.646 77.6967 252.369 77.44 253.33 77.44H253.582V78.644H253.106C252.36 78.644 251.786 78.8447 251.384 79.246C250.983 79.638 250.782 80.2073 250.782 80.954V85H249.438ZM258.277 85.252C257.623 85.252 257.059 85.14 256.583 84.916C256.107 84.692 255.719 84.398 255.421 84.034C255.122 83.6607 254.898 83.2453 254.749 82.788C254.609 82.3307 254.539 81.864 254.539 81.388V81.136C254.539 80.6507 254.609 80.1793 254.749 79.722C254.898 79.2647 255.122 78.854 255.421 78.49C255.719 78.1167 256.097 77.8227 256.555 77.608C257.021 77.384 257.567 77.272 258.193 77.272C259.005 77.272 259.672 77.4493 260.195 77.804C260.727 78.1493 261.119 78.5973 261.371 79.148C261.632 79.6987 261.763 80.2867 261.763 80.912V81.514H255.127V80.506H260.783L260.475 81.052C260.475 80.52 260.391 80.0627 260.223 79.68C260.055 79.288 259.803 78.9847 259.467 78.77C259.131 78.5553 258.706 78.448 258.193 78.448C257.661 78.448 257.217 78.5693 256.863 78.812C256.517 79.0547 256.256 79.386 256.079 79.806C255.911 80.226 255.827 80.7113 255.827 81.262C255.827 81.794 255.911 82.2747 256.079 82.704C256.256 83.124 256.527 83.46 256.891 83.712C257.255 83.9547 257.717 84.076 258.277 84.076C258.865 84.076 259.341 83.9453 259.705 83.684C260.078 83.4227 260.302 83.1193 260.377 82.774H261.637C261.534 83.2873 261.329 83.7307 261.021 84.104C260.713 84.4773 260.325 84.762 259.859 84.958C259.392 85.154 258.865 85.252 258.277 85.252ZM263.671 85V77.524H264.735V80.73H264.567C264.567 79.9927 264.665 79.372 264.861 78.868C265.066 78.3547 265.374 77.9673 265.785 77.706C266.195 77.4353 266.713 77.3 267.339 77.3H267.395C268.337 77.3 269.033 77.594 269.481 78.182C269.938 78.77 270.167 79.6193 270.167 80.73V85H268.823V80.45C268.823 79.8713 268.659 79.4093 268.333 79.064C268.006 78.7093 267.558 78.532 266.989 78.532C266.401 78.532 265.925 78.714 265.561 79.078C265.197 79.442 265.015 79.9273 265.015 80.534V85H263.671ZM275.748 85.252C275.216 85.252 274.726 85.154 274.278 84.958C273.83 84.762 273.438 84.4867 273.102 84.132C272.775 83.7773 272.519 83.3667 272.332 82.9C272.155 82.4333 272.066 81.9293 272.066 81.388V81.136C272.066 80.604 272.155 80.1047 272.332 79.638C272.509 79.1713 272.757 78.7607 273.074 78.406C273.401 78.0513 273.783 77.776 274.222 77.58C274.67 77.3747 275.165 77.272 275.706 77.272C276.275 77.272 276.793 77.3933 277.26 77.636C277.727 77.8693 278.109 78.238 278.408 78.742C278.707 79.246 278.875 79.8993 278.912 80.702L278.352 79.806V74.78H279.696V85H278.632V81.682H279.024C278.987 82.5313 278.809 83.222 278.492 83.754C278.175 84.2767 277.773 84.6593 277.288 84.902C276.812 85.1353 276.299 85.252 275.748 85.252ZM275.93 84.076C276.387 84.076 276.803 83.9733 277.176 83.768C277.549 83.5627 277.848 83.2687 278.072 82.886C278.296 82.494 278.408 82.0367 278.408 81.514V80.87C278.408 80.3567 278.291 79.9227 278.058 79.568C277.834 79.204 277.531 78.9287 277.148 78.742C276.775 78.546 276.364 78.448 275.916 78.448C275.421 78.448 274.983 78.5647 274.6 78.798C274.227 79.0313 273.933 79.358 273.718 79.778C273.513 80.198 273.41 80.6927 273.41 81.262C273.41 81.8313 273.517 82.3307 273.732 82.76C273.947 83.18 274.245 83.5067 274.628 83.74C275.011 83.964 275.445 84.076 275.93 84.076ZM282.642 85V77.524H283.986V85H282.642ZM281.494 78.588V77.524H283.986V78.588H281.494ZM283.02 76.32C282.722 76.32 282.498 76.2407 282.348 76.082C282.208 75.9233 282.138 75.7227 282.138 75.48C282.138 75.2373 282.208 75.0367 282.348 74.878C282.498 74.7193 282.722 74.64 283.02 74.64C283.319 74.64 283.538 74.7193 283.678 74.878C283.828 75.0367 283.902 75.2373 283.902 75.48C283.902 75.7227 283.828 75.9233 283.678 76.082C283.538 76.2407 283.319 76.32 283.02 76.32ZM286.585 85V77.524H287.649V80.73H287.481C287.481 79.9927 287.579 79.372 287.775 78.868C287.98 78.3547 288.288 77.9673 288.699 77.706C289.11 77.4353 289.628 77.3 290.253 77.3H290.309C291.252 77.3 291.947 77.594 292.395 78.182C292.852 78.77 293.081 79.6193 293.081 80.73V85H291.737V80.45C291.737 79.8713 291.574 79.4093 291.247 79.064C290.92 78.7093 290.472 78.532 289.903 78.532C289.315 78.532 288.839 78.714 288.475 79.078C288.111 79.442 287.929 79.9273 287.929 80.534V85H286.585ZM298.368 87.912C298.023 87.912 297.673 87.898 297.318 87.87C296.973 87.842 296.641 87.8047 296.324 87.758V86.624C296.66 86.6707 297.01 86.708 297.374 86.736C297.747 86.7733 298.097 86.792 298.424 86.792C299.105 86.792 299.647 86.6987 300.048 86.512C300.459 86.3347 300.753 86.05 300.93 85.658C301.117 85.2753 301.21 84.7807 301.21 84.174V82.746L301.658 81.682C301.63 82.438 301.471 83.068 301.182 83.572C300.893 84.0667 300.515 84.44 300.048 84.692C299.591 84.9347 299.082 85.056 298.522 85.056C297.999 85.056 297.519 84.958 297.08 84.762C296.651 84.5567 296.277 84.2767 295.96 83.922C295.652 83.5673 295.409 83.1613 295.232 82.704C295.064 82.2373 294.98 81.7473 294.98 81.234V80.982C294.98 80.4593 295.069 79.974 295.246 79.526C295.423 79.0687 295.671 78.672 295.988 78.336C296.305 78 296.683 77.7387 297.122 77.552C297.57 77.3653 298.06 77.272 298.592 77.272C299.217 77.272 299.768 77.4073 300.244 77.678C300.72 77.9393 301.093 78.3267 301.364 78.84C301.644 79.344 301.798 79.9647 301.826 80.702L301.434 80.716V77.524H302.498V84.118C302.498 85.014 302.358 85.7373 302.078 86.288C301.807 86.848 301.369 87.2587 300.762 87.52C300.165 87.7813 299.367 87.912 298.368 87.912ZM298.774 83.824C299.222 83.824 299.628 83.726 299.992 83.53C300.365 83.334 300.659 83.054 300.874 82.69C301.098 82.3167 301.21 81.8733 301.21 81.36V80.716C301.21 80.212 301.093 79.7873 300.86 79.442C300.636 79.0967 300.342 78.8353 299.978 78.658C299.614 78.4807 299.217 78.392 298.788 78.392C298.303 78.392 297.873 78.504 297.5 78.728C297.127 78.952 296.837 79.2693 296.632 79.68C296.427 80.0813 296.324 80.5573 296.324 81.108C296.324 81.6587 296.427 82.1393 296.632 82.55C296.847 82.9607 297.136 83.278 297.5 83.502C297.873 83.7167 298.298 83.824 298.774 83.824ZM310.357 85V75.732H311.729V85H310.357ZM307.249 76.012V74.78H314.837V76.012H307.249ZM319.027 85.252C318.374 85.252 317.8 85.14 317.305 84.916C316.81 84.692 316.39 84.398 316.045 84.034C315.709 83.6607 315.452 83.2453 315.275 82.788C315.107 82.3307 315.023 81.864 315.023 81.388V81.136C315.023 80.66 315.112 80.1933 315.289 79.736C315.466 79.2693 315.728 78.854 316.073 78.49C316.418 78.1167 316.838 77.8227 317.333 77.608C317.828 77.384 318.392 77.272 319.027 77.272C319.662 77.272 320.226 77.384 320.721 77.608C321.216 77.8227 321.636 78.1167 321.981 78.49C322.326 78.854 322.588 79.2693 322.765 79.736C322.942 80.1933 323.031 80.66 323.031 81.136V81.388C323.031 81.864 322.942 82.3307 322.765 82.788C322.597 83.2453 322.34 83.6607 321.995 84.034C321.659 84.398 321.244 84.692 320.749 84.916C320.254 85.14 319.68 85.252 319.027 85.252ZM319.027 84.048C319.587 84.048 320.063 83.9267 320.455 83.684C320.856 83.432 321.16 83.096 321.365 82.676C321.58 82.256 321.687 81.7847 321.687 81.262C321.687 80.73 321.58 80.254 321.365 79.834C321.15 79.414 320.842 79.0827 320.441 78.84C320.049 78.5973 319.578 78.476 319.027 78.476C318.486 78.476 318.014 78.5973 317.613 78.84C317.212 79.0827 316.904 79.414 316.689 79.834C316.474 80.254 316.367 80.73 316.367 81.262C316.367 81.7847 316.47 82.256 316.675 82.676C316.89 83.096 317.193 83.432 317.585 83.684C317.986 83.9267 318.467 84.048 319.027 84.048ZM330.196 85L327.382 81.514H326.15L329.58 77.524H330.994L327.886 81.122L327.984 80.408L331.75 85H330.196ZM325.044 85V74.78H326.388V85H325.044ZM336.083 85.252C335.43 85.252 334.865 85.14 334.389 84.916C333.913 84.692 333.526 84.398 333.227 84.034C332.929 83.6607 332.705 83.2453 332.555 82.788C332.415 82.3307 332.345 81.864 332.345 81.388V81.136C332.345 80.6507 332.415 80.1793 332.555 79.722C332.705 79.2647 332.929 78.854 333.227 78.49C333.526 78.1167 333.904 77.8227 334.361 77.608C334.828 77.384 335.374 77.272 335.999 77.272C336.811 77.272 337.479 77.4493 338.001 77.804C338.533 78.1493 338.925 78.5973 339.177 79.148C339.439 79.6987 339.569 80.2867 339.569 80.912V81.514H332.933V80.506H338.589L338.281 81.052C338.281 80.52 338.197 80.0627 338.029 79.68C337.861 79.288 337.609 78.9847 337.273 78.77C336.937 78.5553 336.513 78.448 335.999 78.448C335.467 78.448 335.024 78.5693 334.669 78.812C334.324 79.0547 334.063 79.386 333.885 79.806C333.717 80.226 333.633 80.7113 333.633 81.262C333.633 81.794 333.717 82.2747 333.885 82.704C334.063 83.124 334.333 83.46 334.697 83.712C335.061 83.9547 335.523 84.076 336.083 84.076C336.671 84.076 337.147 83.9453 337.511 83.684C337.885 83.4227 338.109 83.1193 338.183 82.774H339.443C339.341 83.2873 339.135 83.7307 338.827 84.104C338.519 84.4773 338.132 84.762 337.665 84.958C337.199 85.154 336.671 85.252 336.083 85.252ZM341.477 85V77.524H342.541V80.73H342.373C342.373 79.9927 342.471 79.372 342.667 78.868C342.873 78.3547 343.181 77.9673 343.591 77.706C344.002 77.4353 344.52 77.3 345.145 77.3H345.201C346.144 77.3 346.839 77.594 347.287 78.182C347.745 78.77 347.973 79.6193 347.973 80.73V85H346.629V80.45C346.629 79.8713 346.466 79.4093 346.139 79.064C345.813 78.7093 345.365 78.532 344.795 78.532C344.207 78.532 343.731 78.714 343.367 79.078C343.003 79.442 342.821 79.9273 342.821 80.534V85H341.477ZM350.531 81.948V74.78H351.903V81.948H350.531ZM350.405 85V83.292H352.029V85H350.405Z" fill="#757083"/>
<defs>
<linearGradient id="paint0_linear_1_6238" x1="60" y1="20" x2="60" y2="92" gradientUnits="userSpaceOnUse">
<stop stop-color="#520C98"/>
<stop offset="1" stop-color="#1B0432"/>
</linearGradient>
<linearGradient id="paint1_linear_1_6238" x1="60" y1="20" x2="60" y2="92" gradientUnits="userSpaceOnUse">
<stop stop-color="#EF01EA"/>
<stop offset="1" stop-color="#4B46AF"/>
</linearGradient>
<linearGradient id="paint2_linear_1_6238" x1="72.1005" y1="47.3162" x2="74.6701" y2="38.5201" gradientUnits="userSpaceOnUse">
<stop stop-color="#FF3E80"/>
<stop offset="1" stop-color="#5A58F2"/>
</linearGradient>
<radialGradient id="paint3_diamond_1_6238" cx="0" cy="0" r="1" gradientUnits="userSpaceOnUse" gradientTransform="translate(63.2952 40.023) rotate(33.0105) scale(16.5826 15.439)">
<stop stop-color="#5A58F2"/>
<stop offset="1" stop-color="#FF3E80"/>
</radialGradient>
<linearGradient id="paint4_linear_1_6238" x1="85.3792" y1="74.0855" x2="63.8112" y2="31.779" gradientUnits="userSpaceOnUse">
<stop stop-color="#F9CB1E"/>
<stop offset="0.464285" stop-color="#5A58F2"/>
<stop offset="1" stop-color="#FF3E80"/>
</linearGradient>
</defs>
</svg>
