<svg xmlns="http://www.w3.org/2000/svg" width="72" height="72" viewBox="0 0 72 72" fill="none">
  <circle cx="36" cy="36" r="36" fill="#5A58F2"/>
  <path d="M17.7295 30L12 32.9887L17.2741 41.5083C17.2741 41.5083 28.817 48.3736 29.6642 48.3736C30.5114 48.3736 45.6416 49.326 46.2929 48.8821C46.9443 48.4381 55.4876 45.5065 56.5307 44.9062C57.5738 44.306 61.5555 41.1859 60.9347 40.6849C59.8865 39.8391 61.1255 38.4576 58.8713 37.6243C56.1033 36.5999 47.532 33.2442 42.9016 33.1797C38.2712 33.1152 31.3535 33.9957 26.6595 32.2198C21.9681 30.444 17.7295 30 17.7295 30Z" fill="black"/>
  <path d="M13.3905 31.6806C13.8321 31.5782 10.8433 35.6646 17 38.5C17.6585 40.8209 17.9871 41.5833 19 42.5C19.8251 43.2484 24.4186 45 29 45C31.5415 46.6871 33.1337 47.2978 37.5 48C45.5 49 45.5809 45.4796 48.6381 45.4967C50.5 46 56.2623 45.977 57.5 43.5C60.0151 42 60.388 40.7434 60.0151 37.4936C64.2359 40.485 60.0151 48 54 48.5C50 51.5 43.2748 50.7554 43.2748 50.7554C43.2748 50.7554 40.2837 53.1861 35.936 52.9886C31.5882 52.7911 28.0814 49.4535 28.0814 49.4535C28.0814 49.4535 25.1673 51.3524 20.4995 48.5C15.8317 45.6476 18.4171 42.9236 15.4586 41.4618C12.5 40 7.99951 33.5 13.3852 31.6806H13.3905Z" fill="#00F942"/>
  <path d="M40.8777 22.654C39.3301 22.5268 30.6768 19.3584 16.0777 28.0454C11.3778 31.9382 13.8773 37.4309 17.3781 37.8308C19.178 42.0249 18.4783 43.3234 28.9783 44.1207C36.6771 47.8162 40.5786 48.3148 48.0771 44.8193C53.7757 45.0193 56.3767 44.8193 57.1778 42.9235C59.979 41.5263 62.0779 36.6336 56.577 31.5409C51.076 26.4482 48.9432 23.3162 40.8777 22.654Z" fill="#00F942"/>
  <path d="M27.501 33.5C27.501 33.5 23.3872 33.1458 18.5508 37.2015" stroke="black" stroke-width="0.4" stroke-miterlimit="10"/>
  <path d="M45.1602 37.0107C45.1602 37.0107 48 40 48 43" stroke="black" stroke-width="0.4" stroke-miterlimit="10"/>
  <path d="M50.3241 26.2638C50.3241 26.2638 44.4733 30.4043 38.0502 29.6481C31.6272 28.8918 27.0645 23.5254 27.0645 23.5254C27.0645 23.5254 32.9153 19.3849 39.3384 20.1411C45.7614 20.8973 50.3241 26.2638 50.3241 26.2638Z" fill="#00F942"/>
  <path d="M30.1163 28.5173C32.5773 28.5173 34.5723 26.6143 34.5723 24.2669C34.5723 21.9195 32.5773 20.0166 30.1163 20.0166C27.6552 20.0166 25.6602 21.9195 25.6602 24.2669C25.6602 26.6143 27.6552 28.5173 30.1163 28.5173Z" fill="white"/>
  <mask id="mask0_6350_33597" style="mask-type:luminance" maskUnits="userSpaceOnUse" x="25" y="20" width="10" height="9">
    <path d="M30.1163 28.5192C32.5773 28.5192 34.5723 26.6163 34.5723 24.2689C34.5723 21.9215 32.5773 20.0186 30.1163 20.0186C27.6552 20.0186 25.6602 21.9215 25.6602 24.2689C25.6602 26.6163 27.6552 28.5192 30.1163 28.5192Z" fill="white"/>
  </mask>
  <g mask="url(#mask0_6350_33597)">
    <path d="M27.5755 25.801C28.8738 25.801 29.9264 24.7971 29.9264 23.5587C29.9264 22.3203 28.8738 21.3164 27.5755 21.3164C26.2771 21.3164 25.2246 22.3203 25.2246 23.5587C25.2246 24.7971 26.2771 25.801 27.5755 25.801Z" fill="black"/>
  </g>
  <path d="M38.9991 29.235C41.4601 29.235 43.4552 27.3321 43.4552 24.9847C43.4552 22.6373 41.4601 20.7344 38.9991 20.7344C36.538 20.7344 34.543 22.6373 34.543 24.9847C34.543 27.3321 36.538 29.235 38.9991 29.235Z" fill="white"/>
  <mask id="mask1_6350_33597" style="mask-type:luminance" maskUnits="userSpaceOnUse" x="34" y="20" width="10" height="10">
    <path d="M38.9971 29.2341C41.4581 29.2341 43.4532 27.3311 43.4532 24.9837C43.4532 22.6363 41.4581 20.7334 38.9971 20.7334C36.5361 20.7334 34.541 22.6363 34.541 24.9837C34.541 27.3311 36.5361 29.2341 38.9971 29.2341Z" fill="white"/>
  </mask>
  <g mask="url(#mask1_6350_33597)">
    <path d="M36.4563 26.5159C37.7547 26.5159 38.8072 25.512 38.8072 24.2736C38.8072 23.0352 37.7547 22.0312 36.4563 22.0312C35.158 22.0312 34.1055 23.0352 34.1055 24.2736C34.1055 25.512 35.158 26.5159 36.4563 26.5159Z" fill="black"/>
  </g>
  <path d="M47.8819 29.9509C50.3429 29.9509 52.338 28.0479 52.338 25.7005C52.338 23.3531 50.3429 21.4502 47.8819 21.4502C45.4208 21.4502 43.4258 23.3531 43.4258 25.7005C43.4258 28.0479 45.4208 29.9509 47.8819 29.9509Z" fill="white"/>
  <mask id="mask2_6350_33597" style="mask-type:luminance" maskUnits="userSpaceOnUse" x="43" y="21" width="10" height="9">
    <path d="M47.8799 29.9499C50.341 29.9499 52.336 28.0469 52.336 25.6995C52.336 23.3522 50.341 21.4492 47.8799 21.4492C45.4189 21.4492 43.4238 23.3522 43.4238 25.6995C43.4238 28.0469 45.4189 29.9499 47.8799 29.9499Z" fill="white"/>
  </mask>
  <g mask="url(#mask2_6350_33597)">
    <path d="M45.3392 27.2356C46.6375 27.2356 47.69 26.2317 47.69 24.9933C47.69 23.7549 46.6375 22.751 45.3392 22.751C44.0408 22.751 42.9883 23.7549 42.9883 24.9933C42.9883 26.2317 44.0408 27.2356 45.3392 27.2356Z" fill="black"/>
  </g>
</svg>